G04 #@! TF.GenerationSoftware,KiCad,Pcbnew,5.1.6-c6e7f7d~87~ubuntu18.04.1*
G04 #@! TF.CreationDate,2020-08-21T14:22:44-03:00*
G04 #@! TF.ProjectId,dram-tester,6472616d-2d74-4657-9374-65722e6b6963,rev?*
G04 #@! TF.SameCoordinates,Original*
G04 #@! TF.FileFunction,Copper,L2,Bot*
G04 #@! TF.FilePolarity,Positive*
%FSLAX46Y46*%
G04 Gerber Fmt 4.6, Leading zero omitted, Abs format (unit mm)*
G04 Created by KiCad (PCBNEW 5.1.6-c6e7f7d~87~ubuntu18.04.1) date 2020-08-21 14:22:44*
%MOMM*%
%LPD*%
G01*
G04 APERTURE LIST*
G04 #@! TA.AperFunction,ComponentPad*
%ADD10O,1.700000X1.700000*%
G04 #@! TD*
G04 #@! TA.AperFunction,ComponentPad*
%ADD11R,1.700000X1.700000*%
G04 #@! TD*
G04 #@! TA.AperFunction,ComponentPad*
%ADD12C,1.800000*%
G04 #@! TD*
G04 #@! TA.AperFunction,ComponentPad*
%ADD13R,1.800000X1.800000*%
G04 #@! TD*
G04 #@! TA.AperFunction,ComponentPad*
%ADD14C,2.000000*%
G04 #@! TD*
G04 #@! TA.AperFunction,ComponentPad*
%ADD15O,1.600000X1.600000*%
G04 #@! TD*
G04 #@! TA.AperFunction,ComponentPad*
%ADD16C,1.600000*%
G04 #@! TD*
G04 #@! TA.AperFunction,ComponentPad*
%ADD17R,2.000000X1.440000*%
G04 #@! TD*
G04 #@! TA.AperFunction,ComponentPad*
%ADD18O,2.000000X1.440000*%
G04 #@! TD*
G04 #@! TA.AperFunction,ComponentPad*
%ADD19C,1.574800*%
G04 #@! TD*
G04 #@! TA.AperFunction,ViaPad*
%ADD20C,0.800000*%
G04 #@! TD*
G04 #@! TA.AperFunction,Conductor*
%ADD21C,0.250000*%
G04 #@! TD*
G04 #@! TA.AperFunction,Conductor*
%ADD22C,0.300000*%
G04 #@! TD*
G04 #@! TA.AperFunction,Conductor*
%ADD23C,0.254000*%
G04 #@! TD*
G04 APERTURE END LIST*
D10*
G04 #@! TO.P,JP1,2*
G04 #@! TO.N,Net-(A1-Pad13)*
X152400000Y-82550000D03*
D11*
G04 #@! TO.P,JP1,1*
G04 #@! TO.N,Net-(A1-Pad29)*
X154940000Y-82550000D03*
G04 #@! TD*
D12*
G04 #@! TO.P,D2,2*
G04 #@! TO.N,Net-(D2-Pad2)*
X154940000Y-59690000D03*
D13*
G04 #@! TO.P,D2,1*
G04 #@! TO.N,Net-(A1-Pad15)*
X152400000Y-59690000D03*
G04 #@! TD*
D14*
G04 #@! TO.P,SW1,1*
G04 #@! TO.N,Net-(A1-Pad29)*
X177950000Y-39370000D03*
G04 #@! TO.P,SW1,2*
G04 #@! TO.N,Net-(A1-Pad28)*
X177950000Y-43870000D03*
G04 #@! TO.P,SW1,1*
G04 #@! TO.N,Net-(A1-Pad29)*
X171450000Y-39370000D03*
G04 #@! TO.P,SW1,2*
G04 #@! TO.N,Net-(A1-Pad28)*
X171450000Y-43870000D03*
G04 #@! TD*
D12*
G04 #@! TO.P,D1,2*
G04 #@! TO.N,Net-(D1-Pad2)*
X154940000Y-69850000D03*
D13*
G04 #@! TO.P,D1,1*
G04 #@! TO.N,Net-(A1-Pad14)*
X152400000Y-69850000D03*
G04 #@! TD*
D15*
G04 #@! TO.P,R3,2*
G04 #@! TO.N,Net-(D2-Pad2)*
X157480000Y-39370000D03*
D16*
G04 #@! TO.P,R3,1*
G04 #@! TO.N,Net-(A1-Pad27)*
X149860000Y-39370000D03*
G04 #@! TD*
D15*
G04 #@! TO.P,R2,2*
G04 #@! TO.N,Net-(D1-Pad2)*
X157480000Y-44450000D03*
D16*
G04 #@! TO.P,R2,1*
G04 #@! TO.N,Net-(A1-Pad27)*
X149860000Y-44450000D03*
G04 #@! TD*
D15*
G04 #@! TO.P,R1,2*
G04 #@! TO.N,Net-(A1-Pad13)*
X157480000Y-49530000D03*
D16*
G04 #@! TO.P,R1,1*
G04 #@! TO.N,Net-(A1-Pad27)*
X149860000Y-49530000D03*
G04 #@! TD*
D17*
G04 #@! TO.P,J1,1*
G04 #@! TO.N,Net-(A1-Pad19)*
X167640000Y-59690000D03*
D18*
G04 #@! TO.P,J1,16*
G04 #@! TO.N,Net-(A1-Pad29)*
X175260000Y-59690000D03*
G04 #@! TO.P,J1,2*
G04 #@! TO.N,Net-(A1-Pad20)*
X167640000Y-62230000D03*
G04 #@! TO.P,J1,15*
G04 #@! TO.N,Net-(A1-Pad12)*
X175260000Y-62230000D03*
G04 #@! TO.P,J1,3*
G04 #@! TO.N,Net-(A1-Pad21)*
X167640000Y-64770000D03*
G04 #@! TO.P,J1,14*
G04 #@! TO.N,Net-(A1-Pad11)*
X175260000Y-64770000D03*
G04 #@! TO.P,J1,4*
G04 #@! TO.N,Net-(A1-Pad22)*
X167640000Y-67310000D03*
G04 #@! TO.P,J1,13*
G04 #@! TO.N,Net-(A1-Pad10)*
X175260000Y-67310000D03*
G04 #@! TO.P,J1,5*
G04 #@! TO.N,Net-(A1-Pad23)*
X167640000Y-69850000D03*
G04 #@! TO.P,J1,12*
G04 #@! TO.N,Net-(A1-Pad9)*
X175260000Y-69850000D03*
G04 #@! TO.P,J1,6*
G04 #@! TO.N,Net-(A1-Pad24)*
X167640000Y-72390000D03*
G04 #@! TO.P,J1,11*
G04 #@! TO.N,Net-(A1-Pad8)*
X175260000Y-72390000D03*
G04 #@! TO.P,J1,7*
G04 #@! TO.N,Net-(A1-Pad5)*
X167640000Y-74930000D03*
G04 #@! TO.P,J1,10*
G04 #@! TO.N,Net-(A1-Pad7)*
X175260000Y-74930000D03*
G04 #@! TO.P,J1,8*
G04 #@! TO.N,Net-(A1-Pad27)*
X167640000Y-77470000D03*
G04 #@! TO.P,J1,9*
G04 #@! TO.N,Net-(A1-Pad6)*
X175260000Y-77470000D03*
G04 #@! TD*
D19*
G04 #@! TO.P,A1,30*
G04 #@! TO.N,N/C*
X144780000Y-45720000D03*
G04 #@! TO.P,A1,1*
X129540000Y-45720000D03*
G04 #@! TO.P,A1,29*
G04 #@! TO.N,Net-(A1-Pad29)*
X144780000Y-48260000D03*
G04 #@! TO.P,A1,2*
G04 #@! TO.N,N/C*
X129540000Y-48260000D03*
G04 #@! TO.P,A1,28*
G04 #@! TO.N,Net-(A1-Pad28)*
X144780000Y-50800000D03*
G04 #@! TO.P,A1,3*
G04 #@! TO.N,N/C*
X129540000Y-50800000D03*
G04 #@! TO.P,A1,27*
G04 #@! TO.N,Net-(A1-Pad27)*
X144780000Y-53340000D03*
G04 #@! TO.P,A1,4*
G04 #@! TO.N,N/C*
X129540000Y-53340000D03*
G04 #@! TO.P,A1,26*
X144780000Y-55880000D03*
G04 #@! TO.P,A1,5*
G04 #@! TO.N,Net-(A1-Pad5)*
X129540000Y-55880000D03*
G04 #@! TO.P,A1,25*
G04 #@! TO.N,N/C*
X144780000Y-58420000D03*
G04 #@! TO.P,A1,6*
G04 #@! TO.N,Net-(A1-Pad6)*
X129540000Y-58420000D03*
G04 #@! TO.P,A1,24*
G04 #@! TO.N,Net-(A1-Pad24)*
X144780000Y-60960000D03*
G04 #@! TO.P,A1,7*
G04 #@! TO.N,Net-(A1-Pad7)*
X129540000Y-60960000D03*
G04 #@! TO.P,A1,23*
G04 #@! TO.N,Net-(A1-Pad23)*
X144780000Y-63500000D03*
G04 #@! TO.P,A1,8*
G04 #@! TO.N,Net-(A1-Pad8)*
X129540000Y-63500000D03*
G04 #@! TO.P,A1,22*
G04 #@! TO.N,Net-(A1-Pad22)*
X144780000Y-66040000D03*
G04 #@! TO.P,A1,9*
G04 #@! TO.N,Net-(A1-Pad9)*
X129540000Y-66040000D03*
G04 #@! TO.P,A1,21*
G04 #@! TO.N,Net-(A1-Pad21)*
X144780000Y-68580000D03*
G04 #@! TO.P,A1,10*
G04 #@! TO.N,Net-(A1-Pad10)*
X129540000Y-68580000D03*
G04 #@! TO.P,A1,20*
G04 #@! TO.N,Net-(A1-Pad20)*
X144780000Y-71120000D03*
G04 #@! TO.P,A1,11*
G04 #@! TO.N,Net-(A1-Pad11)*
X129540000Y-71120000D03*
G04 #@! TO.P,A1,19*
G04 #@! TO.N,Net-(A1-Pad19)*
X144780000Y-73660000D03*
G04 #@! TO.P,A1,12*
G04 #@! TO.N,Net-(A1-Pad12)*
X129540000Y-73660000D03*
G04 #@! TO.P,A1,18*
G04 #@! TO.N,N/C*
X144780000Y-76200000D03*
G04 #@! TO.P,A1,13*
G04 #@! TO.N,Net-(A1-Pad13)*
X129540000Y-76200000D03*
G04 #@! TO.P,A1,17*
G04 #@! TO.N,N/C*
X144780000Y-78740000D03*
G04 #@! TO.P,A1,14*
G04 #@! TO.N,Net-(A1-Pad14)*
X129540000Y-78740000D03*
G04 #@! TO.P,A1,16*
G04 #@! TO.N,N/C*
X144780000Y-81280000D03*
G04 #@! TO.P,A1,15*
G04 #@! TO.N,Net-(A1-Pad15)*
X129540000Y-81280000D03*
G04 #@! TD*
D20*
G04 #@! TO.N,Net-(A1-Pad14)*
X152176500Y-80586400D03*
G04 #@! TO.N,Net-(A1-Pad12)*
X148874900Y-58420000D03*
G04 #@! TO.N,Net-(A1-Pad19)*
X152927800Y-62411600D03*
G04 #@! TO.N,Net-(A1-Pad11)*
X146986300Y-59690000D03*
G04 #@! TO.N,Net-(A1-Pad20)*
X151019100Y-62997600D03*
G04 #@! TO.N,Net-(A1-Pad21)*
X148957300Y-64770000D03*
G04 #@! TD*
D21*
G04 #@! TO.N,Net-(A1-Pad14)*
X135620000Y-83820000D02*
X135890000Y-83820000D01*
X135620000Y-83820000D02*
X135501540Y-83817091D01*
X135501540Y-83817091D02*
X135383365Y-83808374D01*
X135383365Y-83808374D02*
X135265761Y-83793869D01*
X135265761Y-83793869D02*
X135149010Y-83773611D01*
X135149010Y-83773611D02*
X135033393Y-83747649D01*
X135033393Y-83747649D02*
X134919190Y-83716044D01*
X134919190Y-83716044D02*
X134806675Y-83678874D01*
X134806675Y-83678874D02*
X134696120Y-83636228D01*
X134696120Y-83636228D02*
X134587790Y-83588209D01*
X134587790Y-83588209D02*
X134481947Y-83534932D01*
X134481947Y-83534932D02*
X134378845Y-83476526D01*
X134378845Y-83476526D02*
X134278734Y-83413131D01*
X134278734Y-83413131D02*
X134181854Y-83344900D01*
X134181854Y-83344900D02*
X134088438Y-83271998D01*
X134088438Y-83271998D02*
X133998712Y-83194600D01*
X133998712Y-83194600D02*
X133912893Y-83112893D01*
X133912893Y-83112893D02*
X129540000Y-78740000D01*
X152784042Y-81193942D02*
X152176500Y-80586400D01*
X157393942Y-81193942D02*
X152784042Y-81193942D01*
X158750000Y-82550000D02*
X157393942Y-81193942D01*
X135426292Y-83820000D02*
X158750000Y-83820000D01*
X158750000Y-83820000D02*
X158750000Y-82550000D01*
G04 #@! TO.N,Net-(A1-Pad13)*
X134475786Y-81135786D02*
X129540000Y-76200000D01*
X134475786Y-81135786D02*
X134647426Y-81299200D01*
X134647426Y-81299200D02*
X134826877Y-81453997D01*
X134826877Y-81453997D02*
X135013708Y-81599801D01*
X135013708Y-81599801D02*
X135207469Y-81736262D01*
X135207469Y-81736262D02*
X135407692Y-81863052D01*
X135407692Y-81863052D02*
X135613894Y-81979865D01*
X135613894Y-81979865D02*
X135825581Y-82086418D01*
X135825581Y-82086418D02*
X136042240Y-82182457D01*
X136042240Y-82182457D02*
X136263351Y-82267749D01*
X136263351Y-82267749D02*
X136488381Y-82342089D01*
X136488381Y-82342089D02*
X136716787Y-82405297D01*
X136716787Y-82405297D02*
X136948020Y-82457222D01*
X136948020Y-82457222D02*
X137181522Y-82497739D01*
X137181522Y-82497739D02*
X137416731Y-82526749D01*
X137416731Y-82526749D02*
X137653080Y-82544183D01*
X137653080Y-82544183D02*
X137890000Y-82550000D01*
X137890000Y-82550000D02*
X152400000Y-82550000D01*
G04 #@! TO.N,Net-(A1-Pad12)*
X148874900Y-59428800D02*
X148874900Y-58420000D01*
X148884530Y-59624834D02*
X148874900Y-59428800D01*
X148913329Y-59818980D02*
X148884530Y-59624834D01*
X148961019Y-60009369D02*
X148913329Y-59818980D01*
X149027140Y-60194166D02*
X148961019Y-60009369D01*
X150874900Y-61428800D02*
X150678865Y-61419169D01*
X150109533Y-61276559D02*
X149932106Y-61192642D01*
X149932106Y-61192642D02*
X149763759Y-61091739D01*
X150678865Y-61419169D02*
X150484719Y-61390370D01*
X150484719Y-61390370D02*
X150294330Y-61342680D01*
X150294330Y-61342680D02*
X150109533Y-61276559D01*
X149211960Y-60539940D02*
X149111057Y-60371593D01*
X149111057Y-60371593D02*
X149027140Y-60194166D01*
X149763759Y-61091739D02*
X149606113Y-60974820D01*
X149606113Y-60974820D02*
X149460686Y-60843013D01*
X149460686Y-60843013D02*
X149328879Y-60697586D01*
X149328879Y-60697586D02*
X149211960Y-60539940D01*
X172381706Y-59351706D02*
X175260000Y-62230000D01*
X172381706Y-59351706D02*
X172295885Y-59269998D01*
X172295885Y-59269998D02*
X172206160Y-59192600D01*
X172206160Y-59192600D02*
X172112744Y-59119698D01*
X172112744Y-59119698D02*
X172015864Y-59051467D01*
X172015864Y-59051467D02*
X171915753Y-58988072D01*
X171915753Y-58988072D02*
X171812651Y-58929666D01*
X171812651Y-58929666D02*
X171706808Y-58876389D01*
X171706808Y-58876389D02*
X171598479Y-58828370D01*
X171598479Y-58828370D02*
X171487923Y-58785724D01*
X171487923Y-58785724D02*
X171375408Y-58748554D01*
X171375408Y-58748554D02*
X171261205Y-58716950D01*
X171261205Y-58716950D02*
X171145589Y-58690987D01*
X171145589Y-58690987D02*
X171028838Y-58670729D01*
X171028838Y-58670729D02*
X170911234Y-58656224D01*
X170911234Y-58656224D02*
X170793059Y-58647507D01*
X170793059Y-58647507D02*
X170674600Y-58644600D01*
X160462893Y-59351706D02*
X160548712Y-59269998D01*
X160548712Y-59269998D02*
X160638438Y-59192600D01*
X160638438Y-59192600D02*
X160731854Y-59119698D01*
X160731854Y-59119698D02*
X160828734Y-59051467D01*
X160828734Y-59051467D02*
X160928845Y-58988072D01*
X160928845Y-58988072D02*
X161031947Y-58929666D01*
X161031947Y-58929666D02*
X161137790Y-58876389D01*
X161137790Y-58876389D02*
X161246120Y-58828370D01*
X161246120Y-58828370D02*
X161356675Y-58785724D01*
X161356675Y-58785724D02*
X161469190Y-58748554D01*
X161469190Y-58748554D02*
X161583393Y-58716950D01*
X161583393Y-58716950D02*
X161699010Y-58690987D01*
X161699010Y-58690987D02*
X161815761Y-58670729D01*
X161815761Y-58670729D02*
X161933365Y-58656224D01*
X161933365Y-58656224D02*
X162051540Y-58647507D01*
X162051540Y-58647507D02*
X162170000Y-58644600D01*
X162170000Y-58644600D02*
X170674600Y-58644600D01*
X157385800Y-61428800D02*
X150874900Y-61428800D01*
X157385800Y-61428800D02*
X157504259Y-61425891D01*
X157504259Y-61425891D02*
X157622434Y-61417174D01*
X157622434Y-61417174D02*
X157740038Y-61402669D01*
X157740038Y-61402669D02*
X157856789Y-61382411D01*
X157856789Y-61382411D02*
X157972405Y-61356448D01*
X157972405Y-61356448D02*
X158086608Y-61324844D01*
X158086608Y-61324844D02*
X158199123Y-61287674D01*
X158199123Y-61287674D02*
X158309679Y-61245028D01*
X158309679Y-61245028D02*
X158418008Y-61197009D01*
X158418008Y-61197009D02*
X158523851Y-61143732D01*
X158523851Y-61143732D02*
X158626953Y-61085325D01*
X158626953Y-61085325D02*
X158727064Y-61021931D01*
X158727064Y-61021931D02*
X158823944Y-60953700D01*
X158823944Y-60953700D02*
X158917359Y-60880798D01*
X158917359Y-60880798D02*
X159007085Y-60803400D01*
X159007085Y-60803400D02*
X159092906Y-60721693D01*
X159092906Y-60721693D02*
X160462893Y-59351706D01*
G04 #@! TO.N,Net-(A1-Pad19)*
X161560177Y-62248850D02*
X152927800Y-62411600D01*
X161560177Y-62248850D02*
X161683039Y-62244823D01*
X161683039Y-62244823D02*
X161805742Y-62237384D01*
X161805742Y-62237384D02*
X161928191Y-62226538D01*
X161928191Y-62226538D02*
X162050291Y-62212292D01*
X162050291Y-62212292D02*
X162171948Y-62194657D01*
X162171948Y-62194657D02*
X162293068Y-62173648D01*
X162293068Y-62173648D02*
X162413556Y-62149280D01*
X162413556Y-62149280D02*
X162533322Y-62121572D01*
X162533322Y-62121572D02*
X162652270Y-62090546D01*
X162652270Y-62090546D02*
X162770310Y-62056226D01*
X162770310Y-62056226D02*
X162887351Y-62018638D01*
X162887351Y-62018638D02*
X163003302Y-61977811D01*
X163003302Y-61977811D02*
X163118073Y-61933777D01*
X163118073Y-61933777D02*
X163231575Y-61886570D01*
X163231575Y-61886570D02*
X163343722Y-61836226D01*
X163343722Y-61836226D02*
X163454427Y-61782786D01*
X163454427Y-61782786D02*
X167640000Y-59690000D01*
G04 #@! TO.N,Net-(A1-Pad11)*
X147320000Y-60960000D02*
X146986300Y-59690000D01*
X172414363Y-63989279D02*
X175260000Y-64770000D01*
X172414363Y-63989279D02*
X172294269Y-63957408D01*
X172294269Y-63957408D02*
X172173658Y-63927552D01*
X172173658Y-63927552D02*
X172052565Y-63899718D01*
X172052565Y-63899718D02*
X171931023Y-63873915D01*
X171931023Y-63873915D02*
X171809067Y-63850149D01*
X171809067Y-63850149D02*
X171686729Y-63828428D01*
X171686729Y-63828428D02*
X171564046Y-63808756D01*
X171564046Y-63808756D02*
X171441050Y-63791141D01*
X171441050Y-63791141D02*
X171317777Y-63775587D01*
X171317777Y-63775587D02*
X171194260Y-63762097D01*
X171194260Y-63762097D02*
X171070536Y-63750677D01*
X171070536Y-63750677D02*
X170946637Y-63741328D01*
X170946637Y-63741328D02*
X170822599Y-63734054D01*
X170822599Y-63734054D02*
X170698457Y-63728858D01*
X170698457Y-63728858D02*
X170574246Y-63725739D01*
X170574246Y-63725739D02*
X170450000Y-63724700D01*
X147982521Y-62784737D02*
X147320000Y-60960000D01*
X147982521Y-62784737D02*
X148023607Y-62885700D01*
X148023607Y-62885700D02*
X148072281Y-62983232D01*
X148072281Y-62983232D02*
X148128257Y-63076764D01*
X148128257Y-63076764D02*
X148191210Y-63165751D01*
X148191210Y-63165751D02*
X148260772Y-63249672D01*
X148260772Y-63249672D02*
X148336537Y-63328039D01*
X148336537Y-63328039D02*
X148418063Y-63400394D01*
X148418063Y-63400394D02*
X148504874Y-63466315D01*
X148504874Y-63466315D02*
X148596463Y-63525416D01*
X148596463Y-63525416D02*
X148692297Y-63577354D01*
X148692297Y-63577354D02*
X148791816Y-63621825D01*
X148791816Y-63621825D02*
X148894439Y-63658570D01*
X148894439Y-63658570D02*
X148999568Y-63687374D01*
X148999568Y-63687374D02*
X149106588Y-63708070D01*
X149106588Y-63708070D02*
X149214876Y-63720535D01*
X149214876Y-63720535D02*
X149323800Y-63724700D01*
X149323800Y-63724700D02*
X170450000Y-63724700D01*
G04 #@! TO.N,Net-(A1-Pad20)*
X151019100Y-62997600D02*
X151158400Y-63136900D01*
X164802820Y-62905338D02*
X167640000Y-62230000D01*
X164802820Y-62905338D02*
X164681565Y-62933266D01*
X164681565Y-62933266D02*
X164559915Y-62959420D01*
X164559915Y-62959420D02*
X164437896Y-62983795D01*
X164437896Y-62983795D02*
X164315535Y-63006386D01*
X164315535Y-63006386D02*
X164192856Y-63027187D01*
X164192856Y-63027187D02*
X164069887Y-63046194D01*
X164069887Y-63046194D02*
X163946653Y-63063403D01*
X163946653Y-63063403D02*
X163823181Y-63078811D01*
X163823181Y-63078811D02*
X163699497Y-63092413D01*
X163699497Y-63092413D02*
X163575628Y-63104208D01*
X163575628Y-63104208D02*
X163451600Y-63114193D01*
X163451600Y-63114193D02*
X163327439Y-63122365D01*
X163327439Y-63122365D02*
X163203172Y-63128723D01*
X163203172Y-63128723D02*
X163078825Y-63133265D01*
X163078825Y-63133265D02*
X162954426Y-63135991D01*
X162954426Y-63135991D02*
X162830000Y-63136900D01*
X162830000Y-63136900D02*
X151158400Y-63136900D01*
G04 #@! TO.N,Net-(A1-Pad10)*
X139406886Y-78446886D02*
X129540000Y-68580000D01*
X139578525Y-78610301D02*
X139406886Y-78446886D01*
X139757977Y-78765097D02*
X139578525Y-78610301D01*
X139944808Y-78910901D02*
X139757977Y-78765097D01*
X140138569Y-79047363D02*
X139944808Y-78910901D01*
X140338791Y-79174152D02*
X140138569Y-79047363D01*
X152517700Y-79901800D02*
X152477000Y-79861100D01*
X177977800Y-78492000D02*
X176568000Y-79901800D01*
X176568000Y-79901800D02*
X152517700Y-79901800D01*
X140756681Y-79397519D02*
X140544994Y-79290965D01*
X141879120Y-79768323D02*
X141647887Y-79716398D01*
X175260000Y-67310000D02*
X177977800Y-70779100D01*
X177977800Y-70779100D02*
X177977800Y-78492000D01*
X140544994Y-79290965D02*
X140338791Y-79174152D01*
X152477000Y-79861100D02*
X142821100Y-79861100D01*
X142821100Y-79861100D02*
X142584180Y-79855283D01*
X142584180Y-79855283D02*
X142347831Y-79837849D01*
X140973340Y-79493557D02*
X140756681Y-79397519D01*
X142112622Y-79808839D02*
X141879120Y-79768323D01*
X142347831Y-79837849D02*
X142112622Y-79808839D01*
X141647887Y-79716398D02*
X141419481Y-79653189D01*
X141419481Y-79653189D02*
X141194451Y-79578849D01*
X141194451Y-79578849D02*
X140973340Y-79493557D01*
G04 #@! TO.N,Net-(A1-Pad21)*
X167640000Y-64770000D02*
X148957300Y-64770000D01*
G04 #@! TO.N,Net-(A1-Pad9)*
X177499900Y-78333000D02*
X177499900Y-72841200D01*
X176381500Y-79451400D02*
X177499900Y-78333000D01*
X153704200Y-79451400D02*
X176381500Y-79451400D01*
X153585740Y-79448491D02*
X153704200Y-79451400D01*
X153467565Y-79439774D02*
X153585740Y-79448491D01*
X153349961Y-79425269D02*
X153467565Y-79439774D01*
X153003390Y-79347444D02*
X153117593Y-79379049D01*
X152890875Y-79310274D02*
X153003390Y-79347444D01*
X152780320Y-79267628D02*
X152890875Y-79310274D01*
X152671990Y-79219609D02*
X152780320Y-79267628D01*
X152566147Y-79166332D02*
X152671990Y-79219609D01*
X177499900Y-72841200D02*
X175260000Y-69850000D01*
X153233210Y-79405011D02*
X153349961Y-79425269D01*
X152463045Y-79107926D02*
X152566147Y-79166332D01*
X153117593Y-79379049D02*
X153233210Y-79405011D01*
X152362934Y-79044531D02*
X152463045Y-79107926D01*
X152172638Y-78903398D02*
X152266054Y-78976300D01*
X142028020Y-77377222D02*
X142261522Y-77417739D01*
X141796787Y-77325297D02*
X142028020Y-77377222D01*
X142496731Y-77446749D02*
X142733080Y-77464183D01*
X141122240Y-77102457D02*
X141343351Y-77187749D01*
X140905581Y-77006418D02*
X141122240Y-77102457D01*
X152082912Y-78826000D02*
X152172638Y-78903398D01*
X139555786Y-76055786D02*
X139727426Y-76219200D01*
X151997093Y-78744293D02*
X152082912Y-78826000D01*
X140693894Y-76899865D02*
X140905581Y-77006418D01*
X129540000Y-66040000D02*
X139555786Y-76055786D01*
X141343351Y-77187749D02*
X141568381Y-77262089D01*
X141568381Y-77262089D02*
X141796787Y-77325297D01*
X140093708Y-76519801D02*
X140287469Y-76656262D01*
X140287469Y-76656262D02*
X140487692Y-76783052D01*
X140487692Y-76783052D02*
X140693894Y-76899865D01*
X150536123Y-77611124D02*
X150646679Y-77653770D01*
X139727426Y-76219200D02*
X139906877Y-76373997D01*
X139906877Y-76373997D02*
X140093708Y-76519801D01*
X142261522Y-77417739D02*
X142496731Y-77446749D01*
X142733080Y-77464183D02*
X142970000Y-77470000D01*
X142970000Y-77470000D02*
X149722800Y-77470000D01*
X149722800Y-77470000D02*
X149841259Y-77472907D01*
X151254360Y-78018000D02*
X151344085Y-78095398D01*
X150309405Y-77542350D02*
X150423608Y-77573954D01*
X150193789Y-77516387D02*
X150309405Y-77542350D01*
X149841259Y-77472907D02*
X149959434Y-77481624D01*
X149959434Y-77481624D02*
X150077038Y-77496129D01*
X150077038Y-77496129D02*
X150193789Y-77516387D01*
X152266054Y-78976300D02*
X152362934Y-79044531D01*
X150423608Y-77573954D02*
X150536123Y-77611124D01*
X151160944Y-77945098D02*
X151254360Y-78018000D01*
X151344085Y-78095398D02*
X151429906Y-78177106D01*
X151429906Y-78177106D02*
X151997093Y-78744293D01*
X150646679Y-77653770D02*
X150755008Y-77701789D01*
X150755008Y-77701789D02*
X150860851Y-77755066D01*
X150860851Y-77755066D02*
X150963953Y-77813472D01*
X150963953Y-77813472D02*
X151064064Y-77876867D01*
X151064064Y-77876867D02*
X151160944Y-77945098D01*
G04 #@! TO.N,Net-(A1-Pad22)*
X150486300Y-67310000D02*
X167640000Y-67310000D01*
X150367840Y-67307091D02*
X150486300Y-67310000D01*
X150249665Y-67298374D02*
X150367840Y-67307091D01*
X148587091Y-67307091D02*
X150367840Y-67307091D01*
X146050000Y-64770000D02*
X148587091Y-67307091D01*
X142240000Y-64770000D02*
X142240000Y-63500000D01*
X144780000Y-66040000D02*
X142240000Y-64770000D01*
X145156354Y-62230000D02*
X146050000Y-63123646D01*
X142240000Y-63500000D02*
X143510000Y-62230000D01*
X143510000Y-62230000D02*
X145156354Y-62230000D01*
X146050000Y-63123646D02*
X146050000Y-64770000D01*
G04 #@! TO.N,Net-(A1-Pad8)*
X177048700Y-74930000D02*
X175260000Y-72390000D01*
X177048700Y-78122000D02*
X177048700Y-74930000D01*
X153632265Y-78967574D02*
X153750440Y-78976291D01*
X153514661Y-78953069D02*
X153632265Y-78967574D01*
X153397910Y-78932811D02*
X153514661Y-78953069D01*
X153168090Y-78875244D02*
X153282293Y-78906848D01*
X153055575Y-78838074D02*
X153168090Y-78875244D01*
X152945020Y-78795428D02*
X153055575Y-78838074D01*
X152836690Y-78747409D02*
X152945020Y-78795428D01*
X152730847Y-78694132D02*
X152836690Y-78747409D01*
X152627746Y-78635726D02*
X152730847Y-78694132D01*
X153282293Y-78906848D02*
X153397910Y-78932811D01*
X152527634Y-78572331D02*
X152627746Y-78635726D01*
X152337338Y-78431198D02*
X152430754Y-78504100D01*
X140693894Y-74359865D02*
X140905581Y-74466418D01*
X148221318Y-75137910D02*
X148446347Y-75212250D01*
X149095804Y-75500134D02*
X149302007Y-75616946D01*
X149302007Y-75616946D02*
X149502229Y-75743736D01*
X149502229Y-75743736D02*
X149695990Y-75880197D01*
X153868900Y-78979200D02*
X176191500Y-78979200D01*
X153750440Y-78976291D02*
X153868900Y-78979200D01*
X129540000Y-63500000D02*
X139555786Y-73515786D01*
X142261522Y-74877739D02*
X142496731Y-74906749D01*
X142028020Y-74837222D02*
X142261522Y-74877739D01*
X141796787Y-74785297D02*
X142028020Y-74837222D01*
X146819700Y-74930000D02*
X147056619Y-74935816D01*
X147056619Y-74935816D02*
X147292968Y-74953250D01*
X141343351Y-74647749D02*
X141568381Y-74722089D01*
X141568381Y-74722089D02*
X141796787Y-74785297D01*
X148446347Y-75212250D02*
X148667458Y-75297542D01*
X148884118Y-75393580D02*
X149095804Y-75500134D01*
X148667458Y-75297542D02*
X148884118Y-75393580D01*
X152430754Y-78504100D02*
X152527634Y-78572331D01*
X149695990Y-75880197D02*
X149882821Y-76026002D01*
X141122240Y-74562457D02*
X141343351Y-74647749D01*
X140905581Y-74466418D02*
X141122240Y-74562457D01*
X139906877Y-73833997D02*
X140093708Y-73979801D01*
X140093708Y-73979801D02*
X140287469Y-74116262D01*
X140487692Y-74243052D02*
X140693894Y-74359865D01*
X140287469Y-74116262D02*
X140487692Y-74243052D01*
X139555786Y-73515786D02*
X139727426Y-73679200D01*
X139727426Y-73679200D02*
X139906877Y-73833997D01*
X142970000Y-74930000D02*
X146819700Y-74930000D01*
X147292968Y-74953250D02*
X147528177Y-74982260D01*
X147528177Y-74982260D02*
X147761679Y-75022776D01*
X142496731Y-74906749D02*
X142733080Y-74924183D01*
X147761679Y-75022776D02*
X147992911Y-75074701D01*
X142733080Y-74924183D02*
X142970000Y-74930000D01*
X147992911Y-75074701D02*
X148221318Y-75137910D01*
X149882821Y-76026002D02*
X150062272Y-76180798D01*
X176191500Y-78979200D02*
X177048700Y-78122000D01*
X150062272Y-76180798D02*
X150233913Y-76344213D01*
X150233913Y-76344213D02*
X152161793Y-78272093D01*
X152247613Y-78353800D02*
X152337338Y-78431198D01*
X152161793Y-78272093D02*
X152247613Y-78353800D01*
G04 #@! TO.N,Net-(A1-Pad23)*
X167640000Y-69850000D02*
X162560000Y-69850000D01*
X162560000Y-69850000D02*
X160020000Y-72390000D01*
X146050000Y-65663646D02*
X144780000Y-64393646D01*
X160020000Y-72390000D02*
X152400000Y-72390000D01*
X152400000Y-72390000D02*
X146050000Y-66040000D01*
X144780000Y-64393646D02*
X144780000Y-63500000D01*
X146050000Y-66040000D02*
X146050000Y-65663646D01*
G04 #@! TO.N,Net-(A1-Pad7)*
X176005000Y-78528800D02*
X176585400Y-77948400D01*
X176585400Y-77948400D02*
X176585400Y-76255400D01*
X176585400Y-76255400D02*
X175260000Y-74930000D01*
X139555786Y-70975786D02*
X129540000Y-60960000D01*
X139555786Y-70975786D02*
X139727426Y-71139200D01*
X139727426Y-71139200D02*
X139906877Y-71293997D01*
X139906877Y-71293997D02*
X140093708Y-71439801D01*
X140093708Y-71439801D02*
X140287469Y-71576262D01*
X140287469Y-71576262D02*
X140487692Y-71703052D01*
X140487692Y-71703052D02*
X140693894Y-71819865D01*
X140693894Y-71819865D02*
X140905581Y-71926418D01*
X140905581Y-71926418D02*
X141122240Y-72022457D01*
X141122240Y-72022457D02*
X141343351Y-72107749D01*
X141343351Y-72107749D02*
X141568381Y-72182089D01*
X141568381Y-72182089D02*
X141796787Y-72245297D01*
X141796787Y-72245297D02*
X142028020Y-72297222D01*
X142028020Y-72297222D02*
X142261522Y-72337739D01*
X142261522Y-72337739D02*
X142496731Y-72366749D01*
X142496731Y-72366749D02*
X142733080Y-72384183D01*
X142733080Y-72384183D02*
X142970000Y-72390000D01*
X152348293Y-77821693D02*
X152434113Y-77903400D01*
X152434113Y-77903400D02*
X152523838Y-77980798D01*
X152523838Y-77980798D02*
X152617254Y-78053700D01*
X152617254Y-78053700D02*
X152714134Y-78121931D01*
X152714134Y-78121931D02*
X152814246Y-78185326D01*
X152814246Y-78185326D02*
X152917347Y-78243732D01*
X152917347Y-78243732D02*
X153023190Y-78297009D01*
X153023190Y-78297009D02*
X153131520Y-78345028D01*
X153131520Y-78345028D02*
X153242075Y-78387674D01*
X153242075Y-78387674D02*
X153354590Y-78424844D01*
X153354590Y-78424844D02*
X153468793Y-78456448D01*
X153468793Y-78456448D02*
X153584410Y-78482411D01*
X153584410Y-78482411D02*
X153701161Y-78502669D01*
X153701161Y-78502669D02*
X153818765Y-78517174D01*
X153818765Y-78517174D02*
X153936940Y-78525891D01*
X153936940Y-78525891D02*
X154055400Y-78528800D01*
X154055400Y-78528800D02*
X176005000Y-78528800D01*
X144916600Y-72390000D02*
X142970000Y-72390000D01*
X144916600Y-72390000D02*
X145153519Y-72395816D01*
X145153519Y-72395816D02*
X145389868Y-72413250D01*
X145389868Y-72413250D02*
X145625077Y-72442260D01*
X145625077Y-72442260D02*
X145858579Y-72482776D01*
X145858579Y-72482776D02*
X146089811Y-72534701D01*
X146089811Y-72534701D02*
X146318218Y-72597910D01*
X146318218Y-72597910D02*
X146543247Y-72672250D01*
X146543247Y-72672250D02*
X146764358Y-72757542D01*
X146764358Y-72757542D02*
X146981018Y-72853580D01*
X146981018Y-72853580D02*
X147192704Y-72960134D01*
X147192704Y-72960134D02*
X147398907Y-73076946D01*
X147398907Y-73076946D02*
X147599129Y-73203736D01*
X147599129Y-73203736D02*
X147792890Y-73340197D01*
X147792890Y-73340197D02*
X147979721Y-73486002D01*
X147979721Y-73486002D02*
X148159172Y-73640798D01*
X148159172Y-73640798D02*
X148330813Y-73804213D01*
X148330813Y-73804213D02*
X152348293Y-77821693D01*
G04 #@! TO.N,Net-(A1-Pad24)*
X170180000Y-69850000D02*
X167640000Y-72390000D01*
X170180000Y-67310000D02*
X170180000Y-69850000D01*
X169036500Y-66166500D02*
X170180000Y-67310000D01*
X149979800Y-66166500D02*
X169036500Y-66166500D01*
X149861340Y-66163591D02*
X149979800Y-66166500D01*
X149743165Y-66154874D02*
X149861340Y-66163591D01*
X148448238Y-65618498D02*
X148541654Y-65691400D01*
X148358513Y-65541100D02*
X148448238Y-65618498D01*
X149508810Y-66120111D02*
X149625561Y-66140369D01*
X149278990Y-66062544D02*
X149393193Y-66094148D01*
X147674300Y-63500000D02*
X148272693Y-65459393D01*
X144780000Y-60960000D02*
X146050000Y-60960000D01*
X149625561Y-66140369D02*
X149743165Y-66154874D01*
X146050000Y-60960000D02*
X147674300Y-63500000D01*
X148541654Y-65691400D02*
X148638534Y-65759631D01*
X149166475Y-66025374D02*
X149278990Y-66062544D01*
X148738646Y-65823026D02*
X148841747Y-65881432D01*
X148638534Y-65759631D02*
X148738646Y-65823026D01*
X148947590Y-65934709D02*
X149055920Y-65982728D01*
X149055920Y-65982728D02*
X149166475Y-66025374D01*
X149393193Y-66094148D02*
X149508810Y-66120111D01*
X148272693Y-65459393D02*
X148358513Y-65541100D01*
X148841747Y-65881432D02*
X148947590Y-65934709D01*
G04 #@! TO.N,Net-(A1-Pad6)*
X152566400Y-76421543D02*
X152683500Y-76424700D01*
X152449641Y-76412083D02*
X152566400Y-76421543D01*
X152333560Y-76396347D02*
X152449641Y-76412083D01*
X152218497Y-76374380D02*
X152333560Y-76396347D01*
X152104783Y-76346247D02*
X152218497Y-76374380D01*
X151992750Y-76312029D02*
X152104783Y-76346247D01*
X151882723Y-76271825D02*
X151992750Y-76312029D01*
X151775022Y-76225753D02*
X151882723Y-76271825D01*
X151669959Y-76173945D02*
X151775022Y-76225753D01*
X151567839Y-76116554D02*
X151669959Y-76173945D01*
X151111426Y-75752198D02*
X151194581Y-75834707D01*
X142028020Y-69757222D02*
X142261522Y-69797739D01*
X141796787Y-69705297D02*
X142028020Y-69757222D01*
X141568381Y-69642089D02*
X141796787Y-69705297D01*
X141343351Y-69567749D02*
X141568381Y-69642089D01*
X140093708Y-68899801D02*
X140287469Y-69036262D01*
X140905581Y-69386418D02*
X141122240Y-69482457D01*
X141122240Y-69482457D02*
X141343351Y-69567749D01*
X140693894Y-69279865D02*
X140905581Y-69386418D01*
X129540000Y-58420000D02*
X139555786Y-68435786D01*
X139906877Y-68753997D02*
X140093708Y-68899801D01*
X139555786Y-68435786D02*
X139727426Y-68599200D01*
X139727426Y-68599200D02*
X139906877Y-68753997D01*
X151468960Y-76053744D02*
X151567839Y-76116554D01*
X142261522Y-69797739D02*
X142496731Y-69826749D01*
X140487692Y-69163052D02*
X140693894Y-69279865D01*
X140287469Y-69036262D02*
X140487692Y-69163052D01*
X151282059Y-75912615D02*
X151373607Y-75985698D01*
X151194581Y-75834707D02*
X151282059Y-75912615D01*
X145431498Y-70075339D02*
X145651551Y-70155746D01*
X146852879Y-70874166D02*
X147027835Y-71029983D01*
X144050000Y-69850000D02*
X144284198Y-69856311D01*
X142970000Y-69850000D02*
X144050000Y-69850000D01*
X144284198Y-69856311D02*
X144517717Y-69875231D01*
X142496731Y-69826749D02*
X142733080Y-69844183D01*
X144980005Y-69950636D02*
X145207432Y-70006903D01*
X144517717Y-69875231D02*
X144749877Y-69906703D01*
X144749877Y-69906703D02*
X144980005Y-69950636D01*
X146281319Y-70466290D02*
X146479078Y-70591909D01*
X146077080Y-70351506D02*
X146281319Y-70466290D01*
X145651551Y-70155746D02*
X145866954Y-70247891D01*
X145866954Y-70247891D02*
X146077080Y-70351506D01*
X142733080Y-69844183D02*
X142970000Y-69850000D01*
X146669782Y-70728000D02*
X146852879Y-70874166D01*
X145207432Y-70006903D02*
X145431498Y-70075339D01*
X146479078Y-70591909D02*
X146669782Y-70728000D01*
X151373607Y-75985698D02*
X151468960Y-76053744D01*
X147027835Y-71029983D02*
X147194144Y-71195000D01*
X147194144Y-71195000D02*
X147351322Y-71368736D01*
X151032838Y-75665331D02*
X151111426Y-75752198D01*
X147351322Y-71368736D02*
X151032838Y-75665331D01*
X171150142Y-76442535D02*
X175260000Y-77470000D01*
X171150142Y-76442535D02*
X171029309Y-76413358D01*
X171029309Y-76413358D02*
X170908021Y-76386133D01*
X170908021Y-76386133D02*
X170786311Y-76360866D01*
X170786311Y-76360866D02*
X170664209Y-76337563D01*
X170664209Y-76337563D02*
X170541748Y-76316230D01*
X170541748Y-76316230D02*
X170418959Y-76296874D01*
X170418959Y-76296874D02*
X170295873Y-76279498D01*
X170295873Y-76279498D02*
X170172524Y-76264109D01*
X170172524Y-76264109D02*
X170048943Y-76250708D01*
X170048943Y-76250708D02*
X169925162Y-76239301D01*
X169925162Y-76239301D02*
X169801214Y-76229889D01*
X169801214Y-76229889D02*
X169677129Y-76222476D01*
X169677129Y-76222476D02*
X169552942Y-76217064D01*
X169552942Y-76217064D02*
X169428683Y-76213653D01*
X169428683Y-76213653D02*
X169304386Y-76212245D01*
X169304386Y-76212245D02*
X169180082Y-76212841D01*
X169180082Y-76212841D02*
X152683500Y-76424700D01*
G04 #@! TO.N,Net-(A1-Pad5)*
X139398586Y-65738586D02*
X129540000Y-55880000D01*
X139398586Y-65738586D02*
X139570226Y-65902000D01*
X139570226Y-65902000D02*
X139749677Y-66056797D01*
X139749677Y-66056797D02*
X139936508Y-66202601D01*
X139936508Y-66202601D02*
X140130269Y-66339062D01*
X140130269Y-66339062D02*
X140330492Y-66465852D01*
X140330492Y-66465852D02*
X140536694Y-66582665D01*
X140536694Y-66582665D02*
X140748381Y-66689218D01*
X140748381Y-66689218D02*
X140965040Y-66785257D01*
X140965040Y-66785257D02*
X141186151Y-66870549D01*
X141186151Y-66870549D02*
X141411181Y-66944889D01*
X141411181Y-66944889D02*
X141639587Y-67008097D01*
X141639587Y-67008097D02*
X141870820Y-67060022D01*
X141870820Y-67060022D02*
X142104322Y-67100539D01*
X142104322Y-67100539D02*
X142339531Y-67129549D01*
X142339531Y-67129549D02*
X142575880Y-67146983D01*
X142575880Y-67146983D02*
X142812800Y-67152800D01*
X147158813Y-68567013D02*
X146987172Y-68403598D01*
X146987172Y-68403598D02*
X146807721Y-68248801D01*
X146807721Y-68248801D02*
X146620890Y-68102997D01*
X146620890Y-68102997D02*
X146427129Y-67966536D01*
X146427129Y-67966536D02*
X146226907Y-67839746D01*
X146226907Y-67839746D02*
X146020704Y-67722934D01*
X146020704Y-67722934D02*
X145809018Y-67616380D01*
X145809018Y-67616380D02*
X145592358Y-67520341D01*
X145592358Y-67520341D02*
X145371247Y-67435049D01*
X145371247Y-67435049D02*
X145146218Y-67360710D01*
X145146218Y-67360710D02*
X144917811Y-67297501D01*
X144917811Y-67297501D02*
X144686579Y-67245576D01*
X144686579Y-67245576D02*
X144453077Y-67205060D01*
X144453077Y-67205060D02*
X144217868Y-67176049D01*
X144217868Y-67176049D02*
X143981519Y-67158615D01*
X143981519Y-67158615D02*
X143744600Y-67152800D01*
X143744600Y-67152800D02*
X142812800Y-67152800D01*
X154521800Y-74930000D02*
X167640000Y-74930000D01*
X154521800Y-74930000D02*
X154403340Y-74927091D01*
X154403340Y-74927091D02*
X154285165Y-74918374D01*
X154285165Y-74918374D02*
X154167561Y-74903869D01*
X154167561Y-74903869D02*
X154050810Y-74883611D01*
X154050810Y-74883611D02*
X153935193Y-74857649D01*
X153935193Y-74857649D02*
X153820990Y-74826044D01*
X153820990Y-74826044D02*
X153708475Y-74788874D01*
X153708475Y-74788874D02*
X153597920Y-74746228D01*
X153597920Y-74746228D02*
X153489590Y-74698209D01*
X153489590Y-74698209D02*
X153383747Y-74644932D01*
X153383747Y-74644932D02*
X153280645Y-74586526D01*
X153280645Y-74586526D02*
X153180534Y-74523131D01*
X153180534Y-74523131D02*
X153083654Y-74454900D01*
X153083654Y-74454900D02*
X152990238Y-74381998D01*
X152990238Y-74381998D02*
X152900512Y-74304600D01*
X152900512Y-74304600D02*
X152814693Y-74222893D01*
X152814693Y-74222893D02*
X147158813Y-68567013D01*
G04 #@! TO.N,Net-(A1-Pad28)*
X177950000Y-43870000D02*
X171450000Y-43870000D01*
X163520000Y-50800000D02*
X144780000Y-50800000D01*
X163520000Y-50800000D02*
X163638459Y-50797091D01*
X163638459Y-50797091D02*
X163756634Y-50788374D01*
X163756634Y-50788374D02*
X163874238Y-50773869D01*
X163874238Y-50773869D02*
X163990989Y-50753611D01*
X163990989Y-50753611D02*
X164106605Y-50727648D01*
X164106605Y-50727648D02*
X164220808Y-50696044D01*
X164220808Y-50696044D02*
X164333323Y-50658874D01*
X164333323Y-50658874D02*
X164443879Y-50616228D01*
X164443879Y-50616228D02*
X164552208Y-50568209D01*
X164552208Y-50568209D02*
X164658051Y-50514932D01*
X164658051Y-50514932D02*
X164761153Y-50456525D01*
X164761153Y-50456525D02*
X164861264Y-50393131D01*
X164861264Y-50393131D02*
X164958144Y-50324900D01*
X164958144Y-50324900D02*
X165051559Y-50251998D01*
X165051559Y-50251998D02*
X165141285Y-50174600D01*
X165141285Y-50174600D02*
X165227106Y-50092893D01*
X165227106Y-50092893D02*
X171450000Y-43870000D01*
D22*
G04 #@! TO.N,Net-(A1-Pad29)*
X163267106Y-47552893D02*
X171450000Y-39370000D01*
X163267106Y-47552893D02*
X163181285Y-47634600D01*
X163181285Y-47634600D02*
X163091560Y-47711998D01*
X163091560Y-47711998D02*
X162998144Y-47784900D01*
X162998144Y-47784900D02*
X162901264Y-47853131D01*
X162901264Y-47853131D02*
X162801153Y-47916526D01*
X162801153Y-47916526D02*
X162698051Y-47974932D01*
X162698051Y-47974932D02*
X162592208Y-48028209D01*
X162592208Y-48028209D02*
X162483879Y-48076228D01*
X162483879Y-48076228D02*
X162373323Y-48118874D01*
X162373323Y-48118874D02*
X162260808Y-48156044D01*
X162260808Y-48156044D02*
X162146605Y-48187648D01*
X162146605Y-48187648D02*
X162030989Y-48213611D01*
X162030989Y-48213611D02*
X161914238Y-48233869D01*
X161914238Y-48233869D02*
X161796634Y-48248374D01*
X161796634Y-48248374D02*
X161678459Y-48257091D01*
X161678459Y-48257091D02*
X161560000Y-48260000D01*
X161560000Y-48260000D02*
X144780000Y-48260000D01*
G04 #@! TD*
D23*
G04 #@! TO.N,Net-(A1-Pad29)*
G36*
X179680001Y-86970000D02*
G01*
X127660000Y-86970000D01*
X127660000Y-45579906D01*
X128117600Y-45579906D01*
X128117600Y-45860094D01*
X128172262Y-46134899D01*
X128279486Y-46393759D01*
X128435150Y-46626727D01*
X128633273Y-46824850D01*
X128866241Y-46980514D01*
X128889142Y-46990000D01*
X128866241Y-46999486D01*
X128633273Y-47155150D01*
X128435150Y-47353273D01*
X128279486Y-47586241D01*
X128172262Y-47845101D01*
X128117600Y-48119906D01*
X128117600Y-48400094D01*
X128172262Y-48674899D01*
X128279486Y-48933759D01*
X128435150Y-49166727D01*
X128633273Y-49364850D01*
X128866241Y-49520514D01*
X128889142Y-49530000D01*
X128866241Y-49539486D01*
X128633273Y-49695150D01*
X128435150Y-49893273D01*
X128279486Y-50126241D01*
X128172262Y-50385101D01*
X128117600Y-50659906D01*
X128117600Y-50940094D01*
X128172262Y-51214899D01*
X128279486Y-51473759D01*
X128435150Y-51706727D01*
X128633273Y-51904850D01*
X128866241Y-52060514D01*
X128889142Y-52070000D01*
X128866241Y-52079486D01*
X128633273Y-52235150D01*
X128435150Y-52433273D01*
X128279486Y-52666241D01*
X128172262Y-52925101D01*
X128117600Y-53199906D01*
X128117600Y-53480094D01*
X128172262Y-53754899D01*
X128279486Y-54013759D01*
X128435150Y-54246727D01*
X128633273Y-54444850D01*
X128866241Y-54600514D01*
X128889142Y-54610000D01*
X128866241Y-54619486D01*
X128633273Y-54775150D01*
X128435150Y-54973273D01*
X128279486Y-55206241D01*
X128172262Y-55465101D01*
X128117600Y-55739906D01*
X128117600Y-56020094D01*
X128172262Y-56294899D01*
X128279486Y-56553759D01*
X128435150Y-56786727D01*
X128633273Y-56984850D01*
X128866241Y-57140514D01*
X128889142Y-57150000D01*
X128866241Y-57159486D01*
X128633273Y-57315150D01*
X128435150Y-57513273D01*
X128279486Y-57746241D01*
X128172262Y-58005101D01*
X128117600Y-58279906D01*
X128117600Y-58560094D01*
X128172262Y-58834899D01*
X128279486Y-59093759D01*
X128435150Y-59326727D01*
X128633273Y-59524850D01*
X128866241Y-59680514D01*
X128889142Y-59690000D01*
X128866241Y-59699486D01*
X128633273Y-59855150D01*
X128435150Y-60053273D01*
X128279486Y-60286241D01*
X128172262Y-60545101D01*
X128117600Y-60819906D01*
X128117600Y-61100094D01*
X128172262Y-61374899D01*
X128279486Y-61633759D01*
X128435150Y-61866727D01*
X128633273Y-62064850D01*
X128866241Y-62220514D01*
X128889142Y-62230000D01*
X128866241Y-62239486D01*
X128633273Y-62395150D01*
X128435150Y-62593273D01*
X128279486Y-62826241D01*
X128172262Y-63085101D01*
X128117600Y-63359906D01*
X128117600Y-63640094D01*
X128172262Y-63914899D01*
X128279486Y-64173759D01*
X128435150Y-64406727D01*
X128633273Y-64604850D01*
X128866241Y-64760514D01*
X128889142Y-64770000D01*
X128866241Y-64779486D01*
X128633273Y-64935150D01*
X128435150Y-65133273D01*
X128279486Y-65366241D01*
X128172262Y-65625101D01*
X128117600Y-65899906D01*
X128117600Y-66180094D01*
X128172262Y-66454899D01*
X128279486Y-66713759D01*
X128435150Y-66946727D01*
X128633273Y-67144850D01*
X128866241Y-67300514D01*
X128889142Y-67310000D01*
X128866241Y-67319486D01*
X128633273Y-67475150D01*
X128435150Y-67673273D01*
X128279486Y-67906241D01*
X128172262Y-68165101D01*
X128117600Y-68439906D01*
X128117600Y-68720094D01*
X128172262Y-68994899D01*
X128279486Y-69253759D01*
X128435150Y-69486727D01*
X128633273Y-69684850D01*
X128866241Y-69840514D01*
X128889142Y-69850000D01*
X128866241Y-69859486D01*
X128633273Y-70015150D01*
X128435150Y-70213273D01*
X128279486Y-70446241D01*
X128172262Y-70705101D01*
X128117600Y-70979906D01*
X128117600Y-71260094D01*
X128172262Y-71534899D01*
X128279486Y-71793759D01*
X128435150Y-72026727D01*
X128633273Y-72224850D01*
X128866241Y-72380514D01*
X128889142Y-72390000D01*
X128866241Y-72399486D01*
X128633273Y-72555150D01*
X128435150Y-72753273D01*
X128279486Y-72986241D01*
X128172262Y-73245101D01*
X128117600Y-73519906D01*
X128117600Y-73800094D01*
X128172262Y-74074899D01*
X128279486Y-74333759D01*
X128435150Y-74566727D01*
X128633273Y-74764850D01*
X128866241Y-74920514D01*
X128889142Y-74930000D01*
X128866241Y-74939486D01*
X128633273Y-75095150D01*
X128435150Y-75293273D01*
X128279486Y-75526241D01*
X128172262Y-75785101D01*
X128117600Y-76059906D01*
X128117600Y-76340094D01*
X128172262Y-76614899D01*
X128279486Y-76873759D01*
X128435150Y-77106727D01*
X128633273Y-77304850D01*
X128866241Y-77460514D01*
X128889142Y-77470000D01*
X128866241Y-77479486D01*
X128633273Y-77635150D01*
X128435150Y-77833273D01*
X128279486Y-78066241D01*
X128172262Y-78325101D01*
X128117600Y-78599906D01*
X128117600Y-78880094D01*
X128172262Y-79154899D01*
X128279486Y-79413759D01*
X128435150Y-79646727D01*
X128633273Y-79844850D01*
X128866241Y-80000514D01*
X128889142Y-80010000D01*
X128866241Y-80019486D01*
X128633273Y-80175150D01*
X128435150Y-80373273D01*
X128279486Y-80606241D01*
X128172262Y-80865101D01*
X128117600Y-81139906D01*
X128117600Y-81420094D01*
X128172262Y-81694899D01*
X128279486Y-81953759D01*
X128435150Y-82186727D01*
X128633273Y-82384850D01*
X128866241Y-82540514D01*
X129125101Y-82647738D01*
X129399906Y-82702400D01*
X129680094Y-82702400D01*
X129954899Y-82647738D01*
X130213759Y-82540514D01*
X130446727Y-82384850D01*
X130644850Y-82186727D01*
X130800514Y-81953759D01*
X130907738Y-81694899D01*
X130962400Y-81420094D01*
X130962400Y-81237201D01*
X133355707Y-83630509D01*
X133361803Y-83637576D01*
X133382068Y-83656870D01*
X133401890Y-83676692D01*
X133409118Y-83682623D01*
X133461153Y-83732166D01*
X133474033Y-83745694D01*
X133488175Y-83757893D01*
X133501698Y-83770768D01*
X133516420Y-83782257D01*
X133577905Y-83835294D01*
X133591433Y-83848174D01*
X133606156Y-83859664D01*
X133620297Y-83871862D01*
X133635567Y-83882616D01*
X133699581Y-83932573D01*
X133713716Y-83944766D01*
X133728981Y-83955517D01*
X133743712Y-83967013D01*
X133759494Y-83977007D01*
X133825873Y-84023756D01*
X133840594Y-84035245D01*
X133856370Y-84045235D01*
X133871642Y-84055991D01*
X133887894Y-84065198D01*
X133956495Y-84108639D01*
X133971763Y-84119392D01*
X133988007Y-84128594D01*
X134003786Y-84138586D01*
X134020475Y-84146987D01*
X134091119Y-84187006D01*
X134106896Y-84196996D01*
X134123581Y-84205394D01*
X134139831Y-84214600D01*
X134156900Y-84222166D01*
X134229428Y-84258674D01*
X134245679Y-84267880D01*
X134262752Y-84275448D01*
X134279432Y-84283844D01*
X134296859Y-84290566D01*
X134371084Y-84323468D01*
X134387768Y-84331866D01*
X134405198Y-84338590D01*
X134422270Y-84346157D01*
X134439995Y-84352012D01*
X134515762Y-84381239D01*
X134532828Y-84388804D01*
X134550552Y-84394659D01*
X134567985Y-84401384D01*
X134585992Y-84406367D01*
X134663083Y-84431835D01*
X134680504Y-84438555D01*
X134698504Y-84443536D01*
X134716241Y-84449396D01*
X134734462Y-84453487D01*
X134812720Y-84475145D01*
X134830455Y-84481004D01*
X134848672Y-84485095D01*
X134866668Y-84490075D01*
X134885073Y-84493269D01*
X134964312Y-84511062D01*
X134982297Y-84516039D01*
X135000685Y-84519230D01*
X135018923Y-84523325D01*
X135037468Y-84525612D01*
X135117458Y-84539492D01*
X135135678Y-84543583D01*
X135154212Y-84545869D01*
X135172614Y-84549062D01*
X135191238Y-84550436D01*
X135233130Y-84555603D01*
X135277306Y-84569003D01*
X135388959Y-84580000D01*
X135610688Y-84580000D01*
X135638664Y-84580687D01*
X135647978Y-84580000D01*
X158712667Y-84580000D01*
X158750000Y-84583677D01*
X158787333Y-84580000D01*
X158898986Y-84569003D01*
X159042247Y-84525546D01*
X159174276Y-84454974D01*
X159290001Y-84360001D01*
X159384974Y-84244276D01*
X159455546Y-84112247D01*
X159499003Y-83968986D01*
X159505615Y-83901855D01*
X159510000Y-83857333D01*
X159510000Y-83857332D01*
X159513677Y-83820000D01*
X159510000Y-83782667D01*
X159510000Y-82587333D01*
X159513677Y-82550000D01*
X159499003Y-82401014D01*
X159455546Y-82257753D01*
X159384974Y-82125724D01*
X159319029Y-82045370D01*
X159290001Y-82009999D01*
X159261003Y-81986201D01*
X157957746Y-80682945D01*
X157940393Y-80661800D01*
X176530678Y-80661800D01*
X176568000Y-80665476D01*
X176605322Y-80661800D01*
X176605333Y-80661800D01*
X176716986Y-80650803D01*
X176860247Y-80607346D01*
X176992276Y-80536774D01*
X177108001Y-80441801D01*
X177131804Y-80412797D01*
X178488803Y-79055799D01*
X178517801Y-79032001D01*
X178612774Y-78916276D01*
X178683346Y-78784247D01*
X178726803Y-78640986D01*
X178737800Y-78529333D01*
X178737800Y-78529324D01*
X178741476Y-78492001D01*
X178737800Y-78454678D01*
X178737800Y-70787658D01*
X178739300Y-70721491D01*
X178731327Y-70676047D01*
X178726803Y-70630114D01*
X178718420Y-70602478D01*
X178713430Y-70574037D01*
X178696744Y-70531021D01*
X178683346Y-70486853D01*
X178669730Y-70461380D01*
X178659289Y-70434463D01*
X178634531Y-70395527D01*
X178612774Y-70354824D01*
X178570754Y-70303623D01*
X176731298Y-67955673D01*
X176797914Y-67831045D01*
X176875394Y-67575626D01*
X176901556Y-67310000D01*
X176875394Y-67044374D01*
X176797914Y-66788955D01*
X176672092Y-66553560D01*
X176502765Y-66347235D01*
X176296440Y-66177908D01*
X176061045Y-66052086D01*
X176021203Y-66040000D01*
X176061045Y-66027914D01*
X176296440Y-65902092D01*
X176502765Y-65732765D01*
X176672092Y-65526440D01*
X176797914Y-65291045D01*
X176875394Y-65035626D01*
X176901556Y-64770000D01*
X176875394Y-64504374D01*
X176797914Y-64248955D01*
X176672092Y-64013560D01*
X176502765Y-63807235D01*
X176296440Y-63637908D01*
X176061045Y-63512086D01*
X176021203Y-63500000D01*
X176061045Y-63487914D01*
X176296440Y-63362092D01*
X176502765Y-63192765D01*
X176672092Y-62986440D01*
X176797914Y-62751045D01*
X176875394Y-62495626D01*
X176901556Y-62230000D01*
X176875394Y-61964374D01*
X176797914Y-61708955D01*
X176672092Y-61473560D01*
X176502765Y-61267235D01*
X176296440Y-61097908D01*
X176061045Y-60972086D01*
X176016241Y-60958495D01*
X176175869Y-60893256D01*
X176398395Y-60746084D01*
X176587933Y-60558327D01*
X176737199Y-60337201D01*
X176840458Y-60091203D01*
X176852559Y-60026472D01*
X176729489Y-59817000D01*
X175387000Y-59817000D01*
X175387000Y-59837000D01*
X175133000Y-59837000D01*
X175133000Y-59817000D01*
X175113000Y-59817000D01*
X175113000Y-59563000D01*
X175133000Y-59563000D01*
X175133000Y-58335000D01*
X175387000Y-58335000D01*
X175387000Y-59563000D01*
X176729489Y-59563000D01*
X176852559Y-59353528D01*
X176840458Y-59288797D01*
X176737199Y-59042799D01*
X176587933Y-58821673D01*
X176398395Y-58633916D01*
X176175869Y-58486744D01*
X175928907Y-58385812D01*
X175667000Y-58335000D01*
X175387000Y-58335000D01*
X175133000Y-58335000D01*
X174853000Y-58335000D01*
X174591093Y-58385812D01*
X174344131Y-58486744D01*
X174121605Y-58633916D01*
X173932067Y-58821673D01*
X173782801Y-59042799D01*
X173679542Y-59288797D01*
X173667441Y-59353528D01*
X173790510Y-59562998D01*
X173667800Y-59562998D01*
X172938902Y-58834101D01*
X172932794Y-58827020D01*
X172912493Y-58807692D01*
X172892708Y-58787907D01*
X172885491Y-58781984D01*
X172833439Y-58732426D01*
X172820567Y-58718907D01*
X172806428Y-58706711D01*
X172792896Y-58693827D01*
X172778172Y-58682336D01*
X172716692Y-58629302D01*
X172703165Y-58616424D01*
X172688446Y-58604937D01*
X172674305Y-58592739D01*
X172659033Y-58581983D01*
X172595026Y-58532032D01*
X172580883Y-58519832D01*
X172565609Y-58509075D01*
X172550886Y-58497585D01*
X172535110Y-58487595D01*
X172468725Y-58440842D01*
X172454004Y-58429353D01*
X172438226Y-58419361D01*
X172422957Y-58408608D01*
X172406710Y-58399404D01*
X172338111Y-58355964D01*
X172322836Y-58345206D01*
X172306583Y-58335999D01*
X172290812Y-58326012D01*
X172274129Y-58317615D01*
X172203489Y-58277598D01*
X172187702Y-58267601D01*
X172171004Y-58259196D01*
X172154767Y-58249998D01*
X172137709Y-58242437D01*
X172065175Y-58205926D01*
X172048922Y-58196719D01*
X172031842Y-58189148D01*
X172015166Y-58180754D01*
X171997748Y-58174035D01*
X171923497Y-58141122D01*
X171906829Y-58132732D01*
X171889420Y-58126017D01*
X171872332Y-58118442D01*
X171854583Y-58112579D01*
X171778850Y-58083365D01*
X171761770Y-58075794D01*
X171744029Y-58069933D01*
X171726610Y-58063214D01*
X171708616Y-58058235D01*
X171631525Y-58032767D01*
X171614088Y-58026041D01*
X171596075Y-58021056D01*
X171578357Y-58015203D01*
X171560149Y-58011114D01*
X171481882Y-57989455D01*
X171464150Y-57983597D01*
X171445923Y-57979504D01*
X171427924Y-57974523D01*
X171409528Y-57971331D01*
X171330296Y-57953539D01*
X171312301Y-57948559D01*
X171293907Y-57945367D01*
X171275683Y-57941275D01*
X171257143Y-57938988D01*
X171177143Y-57925107D01*
X171158921Y-57921015D01*
X171140384Y-57918729D01*
X171121984Y-57915536D01*
X171103362Y-57914162D01*
X171022775Y-57904223D01*
X171004374Y-57901030D01*
X170985747Y-57899656D01*
X170967213Y-57897370D01*
X170948545Y-57896912D01*
X170867559Y-57890938D01*
X170849025Y-57888652D01*
X170830361Y-57888194D01*
X170811735Y-57886820D01*
X170793061Y-57887279D01*
X170721230Y-57885516D01*
X170711933Y-57884600D01*
X170683917Y-57884600D01*
X170655924Y-57883913D01*
X170646612Y-57884600D01*
X162197989Y-57884600D01*
X162188677Y-57883913D01*
X162160683Y-57884600D01*
X162132667Y-57884600D01*
X162123370Y-57885516D01*
X162051538Y-57887279D01*
X162032863Y-57886820D01*
X162014236Y-57888194D01*
X161995574Y-57888652D01*
X161977041Y-57890938D01*
X161896054Y-57896912D01*
X161877385Y-57897370D01*
X161858849Y-57899656D01*
X161840225Y-57901030D01*
X161821826Y-57904223D01*
X161741238Y-57914162D01*
X161722614Y-57915536D01*
X161704212Y-57918729D01*
X161685678Y-57921015D01*
X161667458Y-57925106D01*
X161587450Y-57938989D01*
X161568917Y-57941275D01*
X161550700Y-57945366D01*
X161532297Y-57948559D01*
X161514294Y-57953541D01*
X161435077Y-57971330D01*
X161416674Y-57974523D01*
X161398669Y-57979505D01*
X161380449Y-57983597D01*
X161362723Y-57989453D01*
X161284462Y-58011110D01*
X161266241Y-58015202D01*
X161248511Y-58021059D01*
X161230509Y-58026041D01*
X161213080Y-58032764D01*
X161135992Y-58058231D01*
X161117985Y-58063214D01*
X161100552Y-58069939D01*
X161082828Y-58075794D01*
X161065762Y-58083359D01*
X160989995Y-58112586D01*
X160972270Y-58118441D01*
X160955198Y-58126008D01*
X160937768Y-58132732D01*
X160921084Y-58141130D01*
X160846859Y-58174032D01*
X160829432Y-58180754D01*
X160812752Y-58189150D01*
X160795679Y-58196718D01*
X160779428Y-58205924D01*
X160706900Y-58242432D01*
X160689831Y-58249998D01*
X160673581Y-58259204D01*
X160656896Y-58267602D01*
X160641119Y-58277592D01*
X160570475Y-58317611D01*
X160553786Y-58326012D01*
X160538007Y-58336004D01*
X160521763Y-58345206D01*
X160506495Y-58355959D01*
X160437894Y-58399400D01*
X160421642Y-58408607D01*
X160406370Y-58419363D01*
X160390594Y-58429353D01*
X160375873Y-58440842D01*
X160309494Y-58487591D01*
X160293712Y-58497585D01*
X160278981Y-58509081D01*
X160263716Y-58519832D01*
X160249581Y-58532025D01*
X160185567Y-58581982D01*
X160170297Y-58592736D01*
X160156156Y-58604934D01*
X160141433Y-58616424D01*
X160127905Y-58629304D01*
X160066415Y-58682345D01*
X160051695Y-58693833D01*
X160038177Y-58706704D01*
X160024033Y-58718904D01*
X160011151Y-58732434D01*
X159959111Y-58781981D01*
X159951890Y-58787907D01*
X159932086Y-58807711D01*
X159911799Y-58827026D01*
X159905698Y-58834099D01*
X158562103Y-60177695D01*
X158496555Y-60240101D01*
X158435080Y-60293129D01*
X158371068Y-60343085D01*
X158304708Y-60389822D01*
X158236122Y-60433253D01*
X158165476Y-60473274D01*
X158092978Y-60509766D01*
X158018744Y-60542672D01*
X157943025Y-60571880D01*
X157865929Y-60597350D01*
X157787670Y-60619006D01*
X157708481Y-60636789D01*
X157628496Y-60650668D01*
X157547927Y-60660605D01*
X157466952Y-60666578D01*
X157376488Y-60668800D01*
X156132017Y-60668800D01*
X156132312Y-60668505D01*
X156300299Y-60417095D01*
X156416011Y-60137743D01*
X156475000Y-59841184D01*
X156475000Y-59538816D01*
X156416011Y-59242257D01*
X156300299Y-58962905D01*
X156132312Y-58711495D01*
X155918505Y-58497688D01*
X155667095Y-58329701D01*
X155387743Y-58213989D01*
X155091184Y-58155000D01*
X154788816Y-58155000D01*
X154492257Y-58213989D01*
X154212905Y-58329701D01*
X153961495Y-58497688D01*
X153895056Y-58564127D01*
X153889502Y-58545820D01*
X153830537Y-58435506D01*
X153751185Y-58338815D01*
X153654494Y-58259463D01*
X153544180Y-58200498D01*
X153424482Y-58164188D01*
X153300000Y-58151928D01*
X151500000Y-58151928D01*
X151375518Y-58164188D01*
X151255820Y-58200498D01*
X151145506Y-58259463D01*
X151048815Y-58338815D01*
X150969463Y-58435506D01*
X150910498Y-58545820D01*
X150874188Y-58665518D01*
X150861928Y-58790000D01*
X150861928Y-60590000D01*
X150869573Y-60667622D01*
X150753449Y-60661917D01*
X150633168Y-60644075D01*
X150515213Y-60614529D01*
X150400721Y-60573563D01*
X150290801Y-60521575D01*
X150186497Y-60459058D01*
X150088833Y-60386625D01*
X149998736Y-60304965D01*
X149917072Y-60214862D01*
X149844640Y-60117201D01*
X149782126Y-60012901D01*
X149730136Y-59902978D01*
X149689170Y-59788488D01*
X149659624Y-59670532D01*
X149641782Y-59550251D01*
X149634900Y-59410161D01*
X149634900Y-59123711D01*
X149678837Y-59079774D01*
X149792105Y-58910256D01*
X149870126Y-58721898D01*
X149909900Y-58521939D01*
X149909900Y-58318061D01*
X149870126Y-58118102D01*
X149792105Y-57929744D01*
X149678837Y-57760226D01*
X149534674Y-57616063D01*
X149365156Y-57502795D01*
X149176798Y-57424774D01*
X148976839Y-57385000D01*
X148772961Y-57385000D01*
X148573002Y-57424774D01*
X148384644Y-57502795D01*
X148215126Y-57616063D01*
X148070963Y-57760226D01*
X147957695Y-57929744D01*
X147879674Y-58118102D01*
X147839900Y-58318061D01*
X147839900Y-58521939D01*
X147879674Y-58721898D01*
X147957695Y-58910256D01*
X148070963Y-59079774D01*
X148114900Y-59123711D01*
X148114900Y-59410158D01*
X148113984Y-59428801D01*
X148114900Y-59447447D01*
X148114900Y-59466132D01*
X148116731Y-59484726D01*
X148127278Y-59699411D01*
X148127279Y-59699417D01*
X148127279Y-59699420D01*
X148167033Y-59967424D01*
X148183110Y-60031605D01*
X148209696Y-60137743D01*
X148232868Y-60230253D01*
X148286350Y-60379724D01*
X148286350Y-60379725D01*
X148324147Y-60485360D01*
X148431995Y-60713384D01*
X148439990Y-60730288D01*
X148579279Y-60962679D01*
X148579285Y-60962687D01*
X148702789Y-61129211D01*
X148740685Y-61180308D01*
X148874716Y-61328189D01*
X148922640Y-61381065D01*
X149123391Y-61563014D01*
X149126194Y-61565093D01*
X149341012Y-61724414D01*
X149341017Y-61724417D01*
X149341021Y-61724420D01*
X149573411Y-61863709D01*
X149573414Y-61863710D01*
X149573415Y-61863711D01*
X149818339Y-61979552D01*
X149923974Y-62017349D01*
X149923975Y-62017349D01*
X150073446Y-62070831D01*
X150121138Y-62082777D01*
X150247313Y-62114382D01*
X150336275Y-62136666D01*
X150424944Y-62149819D01*
X150359326Y-62193663D01*
X150215163Y-62337826D01*
X150101895Y-62507344D01*
X150023874Y-62695702D01*
X149984100Y-62895661D01*
X149984100Y-62964700D01*
X149338312Y-62964700D01*
X149272936Y-62962200D01*
X149222360Y-62956379D01*
X149172386Y-62946714D01*
X149123290Y-62933263D01*
X149075356Y-62916100D01*
X149028886Y-62895334D01*
X148984127Y-62871077D01*
X148941351Y-62843474D01*
X148900812Y-62812691D01*
X148862743Y-62778904D01*
X148827360Y-62742305D01*
X148794873Y-62703112D01*
X148765474Y-62661556D01*
X148739330Y-62617871D01*
X148716601Y-62572327D01*
X148691942Y-62511731D01*
X148046223Y-60733271D01*
X147901646Y-60183039D01*
X147903505Y-60180256D01*
X147981526Y-59991898D01*
X148021300Y-59791939D01*
X148021300Y-59588061D01*
X147981526Y-59388102D01*
X147903505Y-59199744D01*
X147790237Y-59030226D01*
X147646074Y-58886063D01*
X147476556Y-58772795D01*
X147288198Y-58694774D01*
X147088239Y-58655000D01*
X146884361Y-58655000D01*
X146684402Y-58694774D01*
X146496044Y-58772795D01*
X146326526Y-58886063D01*
X146182363Y-59030226D01*
X146069095Y-59199744D01*
X145991074Y-59388102D01*
X145951300Y-59588061D01*
X145951300Y-59791939D01*
X145991074Y-59991898D01*
X146069095Y-60180256D01*
X146081192Y-60198361D01*
X146065347Y-60196478D01*
X146020327Y-60200000D01*
X145982890Y-60200000D01*
X145884850Y-60053273D01*
X145686727Y-59855150D01*
X145453759Y-59699486D01*
X145430858Y-59690000D01*
X145453759Y-59680514D01*
X145686727Y-59524850D01*
X145884850Y-59326727D01*
X146040514Y-59093759D01*
X146147738Y-58834899D01*
X146202400Y-58560094D01*
X146202400Y-58279906D01*
X146147738Y-58005101D01*
X146040514Y-57746241D01*
X145884850Y-57513273D01*
X145686727Y-57315150D01*
X145453759Y-57159486D01*
X145430858Y-57150000D01*
X145453759Y-57140514D01*
X145686727Y-56984850D01*
X145884850Y-56786727D01*
X146040514Y-56553759D01*
X146147738Y-56294899D01*
X146202400Y-56020094D01*
X146202400Y-55739906D01*
X146147738Y-55465101D01*
X146040514Y-55206241D01*
X145884850Y-54973273D01*
X145686727Y-54775150D01*
X145453759Y-54619486D01*
X145430858Y-54610000D01*
X145453759Y-54600514D01*
X145686727Y-54444850D01*
X145884850Y-54246727D01*
X146040514Y-54013759D01*
X146147738Y-53754899D01*
X146202400Y-53480094D01*
X146202400Y-53199906D01*
X146147738Y-52925101D01*
X146040514Y-52666241D01*
X145884850Y-52433273D01*
X145686727Y-52235150D01*
X145453759Y-52079486D01*
X145430858Y-52070000D01*
X145453759Y-52060514D01*
X145686727Y-51904850D01*
X145884850Y-51706727D01*
X145982890Y-51560000D01*
X163492022Y-51560000D01*
X163501336Y-51560687D01*
X163529312Y-51560000D01*
X163557333Y-51560000D01*
X163566640Y-51559083D01*
X163638464Y-51557320D01*
X163657135Y-51557778D01*
X163675769Y-51556403D01*
X163694438Y-51555945D01*
X163712965Y-51553660D01*
X163793945Y-51547686D01*
X163812613Y-51547228D01*
X163831147Y-51544942D01*
X163849774Y-51543568D01*
X163868175Y-51540375D01*
X163948762Y-51530436D01*
X163967384Y-51529062D01*
X163985784Y-51525869D01*
X164004321Y-51523583D01*
X164022543Y-51519491D01*
X164102543Y-51505610D01*
X164121083Y-51503323D01*
X164139307Y-51499231D01*
X164157701Y-51496039D01*
X164175696Y-51491059D01*
X164254928Y-51473267D01*
X164273324Y-51470075D01*
X164291323Y-51465094D01*
X164309550Y-51461001D01*
X164327282Y-51455143D01*
X164405549Y-51433484D01*
X164423757Y-51429395D01*
X164441475Y-51423542D01*
X164459488Y-51418557D01*
X164476925Y-51411831D01*
X164554016Y-51386363D01*
X164572010Y-51381384D01*
X164589429Y-51374665D01*
X164607170Y-51368804D01*
X164624250Y-51361233D01*
X164699983Y-51332019D01*
X164717732Y-51326156D01*
X164734820Y-51318581D01*
X164752229Y-51311866D01*
X164768897Y-51303476D01*
X164843148Y-51270563D01*
X164860566Y-51263844D01*
X164877242Y-51255450D01*
X164894322Y-51247879D01*
X164910575Y-51238672D01*
X164983106Y-51202163D01*
X165000172Y-51194598D01*
X165016413Y-51185397D01*
X165033102Y-51176997D01*
X165048887Y-51167001D01*
X165119524Y-51126985D01*
X165136207Y-51118588D01*
X165151990Y-51108593D01*
X165168240Y-51099388D01*
X165183505Y-51088637D01*
X165252110Y-51045194D01*
X165268357Y-51035990D01*
X165283621Y-51025240D01*
X165299400Y-51015248D01*
X165314125Y-51003756D01*
X165380511Y-50957002D01*
X165396289Y-50947011D01*
X165411012Y-50935521D01*
X165426283Y-50924766D01*
X165440424Y-50912567D01*
X165504438Y-50862611D01*
X165519700Y-50851862D01*
X165533836Y-50839668D01*
X165548567Y-50828172D01*
X165562098Y-50815289D01*
X165623574Y-50762260D01*
X165638292Y-50750774D01*
X165651818Y-50737897D01*
X165665964Y-50725694D01*
X165678842Y-50712167D01*
X165730882Y-50662622D01*
X165738108Y-50656692D01*
X165757913Y-50636887D01*
X165778190Y-50617582D01*
X165784293Y-50610507D01*
X170958625Y-45436177D01*
X170973088Y-45442168D01*
X171288967Y-45505000D01*
X171611033Y-45505000D01*
X171926912Y-45442168D01*
X172224463Y-45318918D01*
X172492252Y-45139987D01*
X172719987Y-44912252D01*
X172898918Y-44644463D01*
X172904909Y-44630000D01*
X176495091Y-44630000D01*
X176501082Y-44644463D01*
X176680013Y-44912252D01*
X176907748Y-45139987D01*
X177175537Y-45318918D01*
X177473088Y-45442168D01*
X177788967Y-45505000D01*
X178111033Y-45505000D01*
X178426912Y-45442168D01*
X178724463Y-45318918D01*
X178992252Y-45139987D01*
X179219987Y-44912252D01*
X179398918Y-44644463D01*
X179522168Y-44346912D01*
X179585000Y-44031033D01*
X179585000Y-43708967D01*
X179522168Y-43393088D01*
X179398918Y-43095537D01*
X179219987Y-42827748D01*
X178992252Y-42600013D01*
X178724463Y-42421082D01*
X178426912Y-42297832D01*
X178111033Y-42235000D01*
X177788967Y-42235000D01*
X177473088Y-42297832D01*
X177175537Y-42421082D01*
X176907748Y-42600013D01*
X176680013Y-42827748D01*
X176501082Y-43095537D01*
X176495091Y-43110000D01*
X172904909Y-43110000D01*
X172898918Y-43095537D01*
X172719987Y-42827748D01*
X172492252Y-42600013D01*
X172224463Y-42421082D01*
X171926912Y-42297832D01*
X171611033Y-42235000D01*
X171288967Y-42235000D01*
X170973088Y-42297832D01*
X170675537Y-42421082D01*
X170407748Y-42600013D01*
X170180013Y-42827748D01*
X170001082Y-43095537D01*
X169877832Y-43393088D01*
X169815000Y-43708967D01*
X169815000Y-44031033D01*
X169877832Y-44346912D01*
X169883823Y-44361375D01*
X164696303Y-49548895D01*
X164630755Y-49611301D01*
X164569280Y-49664329D01*
X164505268Y-49714285D01*
X164438908Y-49761022D01*
X164370322Y-49804453D01*
X164299676Y-49844474D01*
X164227178Y-49880966D01*
X164152944Y-49913872D01*
X164077225Y-49943080D01*
X164000129Y-49968550D01*
X163921870Y-49990206D01*
X163842681Y-50007989D01*
X163762696Y-50021868D01*
X163682127Y-50031805D01*
X163601152Y-50037778D01*
X163510688Y-50040000D01*
X158821983Y-50040000D01*
X158859853Y-49948574D01*
X158915000Y-49671335D01*
X158915000Y-49388665D01*
X158859853Y-49111426D01*
X158751680Y-48850273D01*
X158594637Y-48615241D01*
X158394759Y-48415363D01*
X158159727Y-48258320D01*
X157898574Y-48150147D01*
X157621335Y-48095000D01*
X157338665Y-48095000D01*
X157061426Y-48150147D01*
X156800273Y-48258320D01*
X156565241Y-48415363D01*
X156365363Y-48615241D01*
X156208320Y-48850273D01*
X156100147Y-49111426D01*
X156045000Y-49388665D01*
X156045000Y-49671335D01*
X156100147Y-49948574D01*
X156138017Y-50040000D01*
X151201983Y-50040000D01*
X151239853Y-49948574D01*
X151295000Y-49671335D01*
X151295000Y-49388665D01*
X151239853Y-49111426D01*
X151131680Y-48850273D01*
X150974637Y-48615241D01*
X150774759Y-48415363D01*
X150539727Y-48258320D01*
X150278574Y-48150147D01*
X150001335Y-48095000D01*
X149718665Y-48095000D01*
X149441426Y-48150147D01*
X149180273Y-48258320D01*
X148945241Y-48415363D01*
X148745363Y-48615241D01*
X148588320Y-48850273D01*
X148480147Y-49111426D01*
X148425000Y-49388665D01*
X148425000Y-49671335D01*
X148480147Y-49948574D01*
X148518017Y-50040000D01*
X145982890Y-50040000D01*
X145884850Y-49893273D01*
X145686727Y-49695150D01*
X145453759Y-49539486D01*
X145431755Y-49530372D01*
X145514043Y-49486388D01*
X145584100Y-49243705D01*
X144780000Y-48439605D01*
X143975900Y-49243705D01*
X144045957Y-49486388D01*
X144134028Y-49527976D01*
X144106241Y-49539486D01*
X143873273Y-49695150D01*
X143675150Y-49893273D01*
X143519486Y-50126241D01*
X143412262Y-50385101D01*
X143357600Y-50659906D01*
X143357600Y-50940094D01*
X143412262Y-51214899D01*
X143519486Y-51473759D01*
X143675150Y-51706727D01*
X143873273Y-51904850D01*
X144106241Y-52060514D01*
X144129142Y-52070000D01*
X144106241Y-52079486D01*
X143873273Y-52235150D01*
X143675150Y-52433273D01*
X143519486Y-52666241D01*
X143412262Y-52925101D01*
X143357600Y-53199906D01*
X143357600Y-53480094D01*
X143412262Y-53754899D01*
X143519486Y-54013759D01*
X143675150Y-54246727D01*
X143873273Y-54444850D01*
X144106241Y-54600514D01*
X144129142Y-54610000D01*
X144106241Y-54619486D01*
X143873273Y-54775150D01*
X143675150Y-54973273D01*
X143519486Y-55206241D01*
X143412262Y-55465101D01*
X143357600Y-55739906D01*
X143357600Y-56020094D01*
X143412262Y-56294899D01*
X143519486Y-56553759D01*
X143675150Y-56786727D01*
X143873273Y-56984850D01*
X144106241Y-57140514D01*
X144129142Y-57150000D01*
X144106241Y-57159486D01*
X143873273Y-57315150D01*
X143675150Y-57513273D01*
X143519486Y-57746241D01*
X143412262Y-58005101D01*
X143357600Y-58279906D01*
X143357600Y-58560094D01*
X143412262Y-58834899D01*
X143519486Y-59093759D01*
X143675150Y-59326727D01*
X143873273Y-59524850D01*
X144106241Y-59680514D01*
X144129142Y-59690000D01*
X144106241Y-59699486D01*
X143873273Y-59855150D01*
X143675150Y-60053273D01*
X143519486Y-60286241D01*
X143412262Y-60545101D01*
X143357600Y-60819906D01*
X143357600Y-61100094D01*
X143412262Y-61374899D01*
X143452478Y-61471988D01*
X143361014Y-61480997D01*
X143217753Y-61524454D01*
X143085724Y-61595026D01*
X142969999Y-61689999D01*
X142946202Y-61718996D01*
X141728998Y-62936201D01*
X141700000Y-62959999D01*
X141676202Y-62988997D01*
X141676201Y-62988998D01*
X141605026Y-63075724D01*
X141534454Y-63207754D01*
X141506739Y-63299123D01*
X141490998Y-63351014D01*
X141481527Y-63447174D01*
X141476324Y-63500000D01*
X141480001Y-63537332D01*
X141480000Y-64705580D01*
X141478244Y-64715864D01*
X141480000Y-64780336D01*
X141480000Y-64807332D01*
X141481016Y-64817651D01*
X141482320Y-64865514D01*
X141488337Y-64891975D01*
X141490997Y-64918985D01*
X141504898Y-64964813D01*
X141515513Y-65011495D01*
X141526574Y-65036268D01*
X141534454Y-65062246D01*
X141557032Y-65104486D01*
X141576548Y-65148196D01*
X141592232Y-65170339D01*
X141605026Y-65194275D01*
X141635400Y-65231286D01*
X141663077Y-65270362D01*
X141682783Y-65289023D01*
X141699999Y-65310001D01*
X141737014Y-65340378D01*
X141771779Y-65373300D01*
X141794743Y-65387756D01*
X141815724Y-65404974D01*
X141857966Y-65427553D01*
X141866727Y-65433068D01*
X141890828Y-65445119D01*
X141947753Y-65475546D01*
X141957745Y-65478577D01*
X143357600Y-66178505D01*
X143357600Y-66180094D01*
X143399910Y-66392800D01*
X142822102Y-66392800D01*
X142613184Y-66387670D01*
X142414038Y-66372980D01*
X142215875Y-66348539D01*
X142019137Y-66314402D01*
X141824297Y-66270649D01*
X141631855Y-66217393D01*
X141442273Y-66154764D01*
X141255963Y-66082896D01*
X141073422Y-66001980D01*
X140895068Y-65912206D01*
X140721323Y-65813779D01*
X140552627Y-65706954D01*
X140389371Y-65591977D01*
X140231962Y-65469134D01*
X140080758Y-65338703D01*
X139929418Y-65194616D01*
X130927973Y-56193172D01*
X130962400Y-56020094D01*
X130962400Y-55739906D01*
X130907738Y-55465101D01*
X130800514Y-55206241D01*
X130644850Y-54973273D01*
X130446727Y-54775150D01*
X130213759Y-54619486D01*
X130190858Y-54610000D01*
X130213759Y-54600514D01*
X130446727Y-54444850D01*
X130644850Y-54246727D01*
X130800514Y-54013759D01*
X130907738Y-53754899D01*
X130962400Y-53480094D01*
X130962400Y-53199906D01*
X130907738Y-52925101D01*
X130800514Y-52666241D01*
X130644850Y-52433273D01*
X130446727Y-52235150D01*
X130213759Y-52079486D01*
X130190858Y-52070000D01*
X130213759Y-52060514D01*
X130446727Y-51904850D01*
X130644850Y-51706727D01*
X130800514Y-51473759D01*
X130907738Y-51214899D01*
X130962400Y-50940094D01*
X130962400Y-50659906D01*
X130907738Y-50385101D01*
X130800514Y-50126241D01*
X130644850Y-49893273D01*
X130446727Y-49695150D01*
X130213759Y-49539486D01*
X130190858Y-49530000D01*
X130213759Y-49520514D01*
X130446727Y-49364850D01*
X130644850Y-49166727D01*
X130800514Y-48933759D01*
X130907738Y-48674899D01*
X130962400Y-48400094D01*
X130962400Y-48331010D01*
X143352483Y-48331010D01*
X143393766Y-48608140D01*
X143488321Y-48871892D01*
X143553612Y-48994043D01*
X143796295Y-49064100D01*
X144600395Y-48260000D01*
X144959605Y-48260000D01*
X145763705Y-49064100D01*
X146006388Y-48994043D01*
X146126028Y-48740682D01*
X146193941Y-48468849D01*
X146207517Y-48188990D01*
X146166234Y-47911860D01*
X146071679Y-47648108D01*
X146006388Y-47525957D01*
X145763705Y-47455900D01*
X144959605Y-48260000D01*
X144600395Y-48260000D01*
X143796295Y-47455900D01*
X143553612Y-47525957D01*
X143433972Y-47779318D01*
X143366059Y-48051151D01*
X143352483Y-48331010D01*
X130962400Y-48331010D01*
X130962400Y-48119906D01*
X130907738Y-47845101D01*
X130800514Y-47586241D01*
X130644850Y-47353273D01*
X130446727Y-47155150D01*
X130213759Y-46999486D01*
X130190858Y-46990000D01*
X130213759Y-46980514D01*
X130446727Y-46824850D01*
X130644850Y-46626727D01*
X130800514Y-46393759D01*
X130907738Y-46134899D01*
X130962400Y-45860094D01*
X130962400Y-45579906D01*
X143357600Y-45579906D01*
X143357600Y-45860094D01*
X143412262Y-46134899D01*
X143519486Y-46393759D01*
X143675150Y-46626727D01*
X143873273Y-46824850D01*
X144106241Y-46980514D01*
X144128245Y-46989628D01*
X144045957Y-47033612D01*
X143975900Y-47276295D01*
X144780000Y-48080395D01*
X145584100Y-47276295D01*
X145514043Y-47033612D01*
X145425972Y-46992024D01*
X145453759Y-46980514D01*
X145686727Y-46824850D01*
X145884850Y-46626727D01*
X146040514Y-46393759D01*
X146147738Y-46134899D01*
X146202400Y-45860094D01*
X146202400Y-45579906D01*
X146147738Y-45305101D01*
X146040514Y-45046241D01*
X145884850Y-44813273D01*
X145686727Y-44615150D01*
X145453759Y-44459486D01*
X145194899Y-44352262D01*
X144975722Y-44308665D01*
X148425000Y-44308665D01*
X148425000Y-44591335D01*
X148480147Y-44868574D01*
X148588320Y-45129727D01*
X148745363Y-45364759D01*
X148945241Y-45564637D01*
X149180273Y-45721680D01*
X149441426Y-45829853D01*
X149718665Y-45885000D01*
X150001335Y-45885000D01*
X150278574Y-45829853D01*
X150539727Y-45721680D01*
X150774759Y-45564637D01*
X150974637Y-45364759D01*
X151131680Y-45129727D01*
X151239853Y-44868574D01*
X151295000Y-44591335D01*
X151295000Y-44308665D01*
X156045000Y-44308665D01*
X156045000Y-44591335D01*
X156100147Y-44868574D01*
X156208320Y-45129727D01*
X156365363Y-45364759D01*
X156565241Y-45564637D01*
X156800273Y-45721680D01*
X157061426Y-45829853D01*
X157338665Y-45885000D01*
X157621335Y-45885000D01*
X157898574Y-45829853D01*
X158159727Y-45721680D01*
X158394759Y-45564637D01*
X158594637Y-45364759D01*
X158751680Y-45129727D01*
X158859853Y-44868574D01*
X158915000Y-44591335D01*
X158915000Y-44308665D01*
X158859853Y-44031426D01*
X158751680Y-43770273D01*
X158594637Y-43535241D01*
X158394759Y-43335363D01*
X158159727Y-43178320D01*
X157898574Y-43070147D01*
X157621335Y-43015000D01*
X157338665Y-43015000D01*
X157061426Y-43070147D01*
X156800273Y-43178320D01*
X156565241Y-43335363D01*
X156365363Y-43535241D01*
X156208320Y-43770273D01*
X156100147Y-44031426D01*
X156045000Y-44308665D01*
X151295000Y-44308665D01*
X151239853Y-44031426D01*
X151131680Y-43770273D01*
X150974637Y-43535241D01*
X150774759Y-43335363D01*
X150539727Y-43178320D01*
X150278574Y-43070147D01*
X150001335Y-43015000D01*
X149718665Y-43015000D01*
X149441426Y-43070147D01*
X149180273Y-43178320D01*
X148945241Y-43335363D01*
X148745363Y-43535241D01*
X148588320Y-43770273D01*
X148480147Y-44031426D01*
X148425000Y-44308665D01*
X144975722Y-44308665D01*
X144920094Y-44297600D01*
X144639906Y-44297600D01*
X144365101Y-44352262D01*
X144106241Y-44459486D01*
X143873273Y-44615150D01*
X143675150Y-44813273D01*
X143519486Y-45046241D01*
X143412262Y-45305101D01*
X143357600Y-45579906D01*
X130962400Y-45579906D01*
X130907738Y-45305101D01*
X130800514Y-45046241D01*
X130644850Y-44813273D01*
X130446727Y-44615150D01*
X130213759Y-44459486D01*
X129954899Y-44352262D01*
X129680094Y-44297600D01*
X129399906Y-44297600D01*
X129125101Y-44352262D01*
X128866241Y-44459486D01*
X128633273Y-44615150D01*
X128435150Y-44813273D01*
X128279486Y-45046241D01*
X128172262Y-45305101D01*
X128117600Y-45579906D01*
X127660000Y-45579906D01*
X127660000Y-39228665D01*
X148425000Y-39228665D01*
X148425000Y-39511335D01*
X148480147Y-39788574D01*
X148588320Y-40049727D01*
X148745363Y-40284759D01*
X148945241Y-40484637D01*
X149180273Y-40641680D01*
X149441426Y-40749853D01*
X149718665Y-40805000D01*
X150001335Y-40805000D01*
X150278574Y-40749853D01*
X150539727Y-40641680D01*
X150774759Y-40484637D01*
X150974637Y-40284759D01*
X151131680Y-40049727D01*
X151239853Y-39788574D01*
X151295000Y-39511335D01*
X151295000Y-39228665D01*
X156045000Y-39228665D01*
X156045000Y-39511335D01*
X156100147Y-39788574D01*
X156208320Y-40049727D01*
X156365363Y-40284759D01*
X156565241Y-40484637D01*
X156800273Y-40641680D01*
X157061426Y-40749853D01*
X157338665Y-40805000D01*
X157621335Y-40805000D01*
X157898574Y-40749853D01*
X158159727Y-40641680D01*
X158363665Y-40505413D01*
X170494192Y-40505413D01*
X170589956Y-40769814D01*
X170879571Y-40910704D01*
X171191108Y-40992384D01*
X171512595Y-41011718D01*
X171831675Y-40967961D01*
X172136088Y-40862795D01*
X172310044Y-40769814D01*
X172405808Y-40505413D01*
X176994192Y-40505413D01*
X177089956Y-40769814D01*
X177379571Y-40910704D01*
X177691108Y-40992384D01*
X178012595Y-41011718D01*
X178331675Y-40967961D01*
X178636088Y-40862795D01*
X178810044Y-40769814D01*
X178905808Y-40505413D01*
X177950000Y-39549605D01*
X176994192Y-40505413D01*
X172405808Y-40505413D01*
X171450000Y-39549605D01*
X170494192Y-40505413D01*
X158363665Y-40505413D01*
X158394759Y-40484637D01*
X158594637Y-40284759D01*
X158751680Y-40049727D01*
X158859853Y-39788574D01*
X158915000Y-39511335D01*
X158915000Y-39432595D01*
X169808282Y-39432595D01*
X169852039Y-39751675D01*
X169957205Y-40056088D01*
X170050186Y-40230044D01*
X170314587Y-40325808D01*
X171270395Y-39370000D01*
X171629605Y-39370000D01*
X172585413Y-40325808D01*
X172849814Y-40230044D01*
X172990704Y-39940429D01*
X173072384Y-39628892D01*
X173084189Y-39432595D01*
X176308282Y-39432595D01*
X176352039Y-39751675D01*
X176457205Y-40056088D01*
X176550186Y-40230044D01*
X176814587Y-40325808D01*
X177770395Y-39370000D01*
X178129605Y-39370000D01*
X179085413Y-40325808D01*
X179349814Y-40230044D01*
X179490704Y-39940429D01*
X179572384Y-39628892D01*
X179591718Y-39307405D01*
X179547961Y-38988325D01*
X179442795Y-38683912D01*
X179349814Y-38509956D01*
X179085413Y-38414192D01*
X178129605Y-39370000D01*
X177770395Y-39370000D01*
X176814587Y-38414192D01*
X176550186Y-38509956D01*
X176409296Y-38799571D01*
X176327616Y-39111108D01*
X176308282Y-39432595D01*
X173084189Y-39432595D01*
X173091718Y-39307405D01*
X173047961Y-38988325D01*
X172942795Y-38683912D01*
X172849814Y-38509956D01*
X172585413Y-38414192D01*
X171629605Y-39370000D01*
X171270395Y-39370000D01*
X170314587Y-38414192D01*
X170050186Y-38509956D01*
X169909296Y-38799571D01*
X169827616Y-39111108D01*
X169808282Y-39432595D01*
X158915000Y-39432595D01*
X158915000Y-39228665D01*
X158859853Y-38951426D01*
X158751680Y-38690273D01*
X158594637Y-38455241D01*
X158394759Y-38255363D01*
X158363666Y-38234587D01*
X170494192Y-38234587D01*
X171450000Y-39190395D01*
X172405808Y-38234587D01*
X176994192Y-38234587D01*
X177950000Y-39190395D01*
X178905808Y-38234587D01*
X178810044Y-37970186D01*
X178520429Y-37829296D01*
X178208892Y-37747616D01*
X177887405Y-37728282D01*
X177568325Y-37772039D01*
X177263912Y-37877205D01*
X177089956Y-37970186D01*
X176994192Y-38234587D01*
X172405808Y-38234587D01*
X172310044Y-37970186D01*
X172020429Y-37829296D01*
X171708892Y-37747616D01*
X171387405Y-37728282D01*
X171068325Y-37772039D01*
X170763912Y-37877205D01*
X170589956Y-37970186D01*
X170494192Y-38234587D01*
X158363666Y-38234587D01*
X158159727Y-38098320D01*
X157898574Y-37990147D01*
X157621335Y-37935000D01*
X157338665Y-37935000D01*
X157061426Y-37990147D01*
X156800273Y-38098320D01*
X156565241Y-38255363D01*
X156365363Y-38455241D01*
X156208320Y-38690273D01*
X156100147Y-38951426D01*
X156045000Y-39228665D01*
X151295000Y-39228665D01*
X151239853Y-38951426D01*
X151131680Y-38690273D01*
X150974637Y-38455241D01*
X150774759Y-38255363D01*
X150539727Y-38098320D01*
X150278574Y-37990147D01*
X150001335Y-37935000D01*
X149718665Y-37935000D01*
X149441426Y-37990147D01*
X149180273Y-38098320D01*
X148945241Y-38255363D01*
X148745363Y-38455241D01*
X148588320Y-38690273D01*
X148480147Y-38951426D01*
X148425000Y-39228665D01*
X127660000Y-39228665D01*
X127660000Y-36220000D01*
X179680000Y-36220000D01*
X179680001Y-86970000D01*
G37*
X179680001Y-86970000D02*
X127660000Y-86970000D01*
X127660000Y-45579906D01*
X128117600Y-45579906D01*
X128117600Y-45860094D01*
X128172262Y-46134899D01*
X128279486Y-46393759D01*
X128435150Y-46626727D01*
X128633273Y-46824850D01*
X128866241Y-46980514D01*
X128889142Y-46990000D01*
X128866241Y-46999486D01*
X128633273Y-47155150D01*
X128435150Y-47353273D01*
X128279486Y-47586241D01*
X128172262Y-47845101D01*
X128117600Y-48119906D01*
X128117600Y-48400094D01*
X128172262Y-48674899D01*
X128279486Y-48933759D01*
X128435150Y-49166727D01*
X128633273Y-49364850D01*
X128866241Y-49520514D01*
X128889142Y-49530000D01*
X128866241Y-49539486D01*
X128633273Y-49695150D01*
X128435150Y-49893273D01*
X128279486Y-50126241D01*
X128172262Y-50385101D01*
X128117600Y-50659906D01*
X128117600Y-50940094D01*
X128172262Y-51214899D01*
X128279486Y-51473759D01*
X128435150Y-51706727D01*
X128633273Y-51904850D01*
X128866241Y-52060514D01*
X128889142Y-52070000D01*
X128866241Y-52079486D01*
X128633273Y-52235150D01*
X128435150Y-52433273D01*
X128279486Y-52666241D01*
X128172262Y-52925101D01*
X128117600Y-53199906D01*
X128117600Y-53480094D01*
X128172262Y-53754899D01*
X128279486Y-54013759D01*
X128435150Y-54246727D01*
X128633273Y-54444850D01*
X128866241Y-54600514D01*
X128889142Y-54610000D01*
X128866241Y-54619486D01*
X128633273Y-54775150D01*
X128435150Y-54973273D01*
X128279486Y-55206241D01*
X128172262Y-55465101D01*
X128117600Y-55739906D01*
X128117600Y-56020094D01*
X128172262Y-56294899D01*
X128279486Y-56553759D01*
X128435150Y-56786727D01*
X128633273Y-56984850D01*
X128866241Y-57140514D01*
X128889142Y-57150000D01*
X128866241Y-57159486D01*
X128633273Y-57315150D01*
X128435150Y-57513273D01*
X128279486Y-57746241D01*
X128172262Y-58005101D01*
X128117600Y-58279906D01*
X128117600Y-58560094D01*
X128172262Y-58834899D01*
X128279486Y-59093759D01*
X128435150Y-59326727D01*
X128633273Y-59524850D01*
X128866241Y-59680514D01*
X128889142Y-59690000D01*
X128866241Y-59699486D01*
X128633273Y-59855150D01*
X128435150Y-60053273D01*
X128279486Y-60286241D01*
X128172262Y-60545101D01*
X128117600Y-60819906D01*
X128117600Y-61100094D01*
X128172262Y-61374899D01*
X128279486Y-61633759D01*
X128435150Y-61866727D01*
X128633273Y-62064850D01*
X128866241Y-62220514D01*
X128889142Y-62230000D01*
X128866241Y-62239486D01*
X128633273Y-62395150D01*
X128435150Y-62593273D01*
X128279486Y-62826241D01*
X128172262Y-63085101D01*
X128117600Y-63359906D01*
X128117600Y-63640094D01*
X128172262Y-63914899D01*
X128279486Y-64173759D01*
X128435150Y-64406727D01*
X128633273Y-64604850D01*
X128866241Y-64760514D01*
X128889142Y-64770000D01*
X128866241Y-64779486D01*
X128633273Y-64935150D01*
X128435150Y-65133273D01*
X128279486Y-65366241D01*
X128172262Y-65625101D01*
X128117600Y-65899906D01*
X128117600Y-66180094D01*
X128172262Y-66454899D01*
X128279486Y-66713759D01*
X128435150Y-66946727D01*
X128633273Y-67144850D01*
X128866241Y-67300514D01*
X128889142Y-67310000D01*
X128866241Y-67319486D01*
X128633273Y-67475150D01*
X128435150Y-67673273D01*
X128279486Y-67906241D01*
X128172262Y-68165101D01*
X128117600Y-68439906D01*
X128117600Y-68720094D01*
X128172262Y-68994899D01*
X128279486Y-69253759D01*
X128435150Y-69486727D01*
X128633273Y-69684850D01*
X128866241Y-69840514D01*
X128889142Y-69850000D01*
X128866241Y-69859486D01*
X128633273Y-70015150D01*
X128435150Y-70213273D01*
X128279486Y-70446241D01*
X128172262Y-70705101D01*
X128117600Y-70979906D01*
X128117600Y-71260094D01*
X128172262Y-71534899D01*
X128279486Y-71793759D01*
X128435150Y-72026727D01*
X128633273Y-72224850D01*
X128866241Y-72380514D01*
X128889142Y-72390000D01*
X128866241Y-72399486D01*
X128633273Y-72555150D01*
X128435150Y-72753273D01*
X128279486Y-72986241D01*
X128172262Y-73245101D01*
X128117600Y-73519906D01*
X128117600Y-73800094D01*
X128172262Y-74074899D01*
X128279486Y-74333759D01*
X128435150Y-74566727D01*
X128633273Y-74764850D01*
X128866241Y-74920514D01*
X128889142Y-74930000D01*
X128866241Y-74939486D01*
X128633273Y-75095150D01*
X128435150Y-75293273D01*
X128279486Y-75526241D01*
X128172262Y-75785101D01*
X128117600Y-76059906D01*
X128117600Y-76340094D01*
X128172262Y-76614899D01*
X128279486Y-76873759D01*
X128435150Y-77106727D01*
X128633273Y-77304850D01*
X128866241Y-77460514D01*
X128889142Y-77470000D01*
X128866241Y-77479486D01*
X128633273Y-77635150D01*
X128435150Y-77833273D01*
X128279486Y-78066241D01*
X128172262Y-78325101D01*
X128117600Y-78599906D01*
X128117600Y-78880094D01*
X128172262Y-79154899D01*
X128279486Y-79413759D01*
X128435150Y-79646727D01*
X128633273Y-79844850D01*
X128866241Y-80000514D01*
X128889142Y-80010000D01*
X128866241Y-80019486D01*
X128633273Y-80175150D01*
X128435150Y-80373273D01*
X128279486Y-80606241D01*
X128172262Y-80865101D01*
X128117600Y-81139906D01*
X128117600Y-81420094D01*
X128172262Y-81694899D01*
X128279486Y-81953759D01*
X128435150Y-82186727D01*
X128633273Y-82384850D01*
X128866241Y-82540514D01*
X129125101Y-82647738D01*
X129399906Y-82702400D01*
X129680094Y-82702400D01*
X129954899Y-82647738D01*
X130213759Y-82540514D01*
X130446727Y-82384850D01*
X130644850Y-82186727D01*
X130800514Y-81953759D01*
X130907738Y-81694899D01*
X130962400Y-81420094D01*
X130962400Y-81237201D01*
X133355707Y-83630509D01*
X133361803Y-83637576D01*
X133382068Y-83656870D01*
X133401890Y-83676692D01*
X133409118Y-83682623D01*
X133461153Y-83732166D01*
X133474033Y-83745694D01*
X133488175Y-83757893D01*
X133501698Y-83770768D01*
X133516420Y-83782257D01*
X133577905Y-83835294D01*
X133591433Y-83848174D01*
X133606156Y-83859664D01*
X133620297Y-83871862D01*
X133635567Y-83882616D01*
X133699581Y-83932573D01*
X133713716Y-83944766D01*
X133728981Y-83955517D01*
X133743712Y-83967013D01*
X133759494Y-83977007D01*
X133825873Y-84023756D01*
X133840594Y-84035245D01*
X133856370Y-84045235D01*
X133871642Y-84055991D01*
X133887894Y-84065198D01*
X133956495Y-84108639D01*
X133971763Y-84119392D01*
X133988007Y-84128594D01*
X134003786Y-84138586D01*
X134020475Y-84146987D01*
X134091119Y-84187006D01*
X134106896Y-84196996D01*
X134123581Y-84205394D01*
X134139831Y-84214600D01*
X134156900Y-84222166D01*
X134229428Y-84258674D01*
X134245679Y-84267880D01*
X134262752Y-84275448D01*
X134279432Y-84283844D01*
X134296859Y-84290566D01*
X134371084Y-84323468D01*
X134387768Y-84331866D01*
X134405198Y-84338590D01*
X134422270Y-84346157D01*
X134439995Y-84352012D01*
X134515762Y-84381239D01*
X134532828Y-84388804D01*
X134550552Y-84394659D01*
X134567985Y-84401384D01*
X134585992Y-84406367D01*
X134663083Y-84431835D01*
X134680504Y-84438555D01*
X134698504Y-84443536D01*
X134716241Y-84449396D01*
X134734462Y-84453487D01*
X134812720Y-84475145D01*
X134830455Y-84481004D01*
X134848672Y-84485095D01*
X134866668Y-84490075D01*
X134885073Y-84493269D01*
X134964312Y-84511062D01*
X134982297Y-84516039D01*
X135000685Y-84519230D01*
X135018923Y-84523325D01*
X135037468Y-84525612D01*
X135117458Y-84539492D01*
X135135678Y-84543583D01*
X135154212Y-84545869D01*
X135172614Y-84549062D01*
X135191238Y-84550436D01*
X135233130Y-84555603D01*
X135277306Y-84569003D01*
X135388959Y-84580000D01*
X135610688Y-84580000D01*
X135638664Y-84580687D01*
X135647978Y-84580000D01*
X158712667Y-84580000D01*
X158750000Y-84583677D01*
X158787333Y-84580000D01*
X158898986Y-84569003D01*
X159042247Y-84525546D01*
X159174276Y-84454974D01*
X159290001Y-84360001D01*
X159384974Y-84244276D01*
X159455546Y-84112247D01*
X159499003Y-83968986D01*
X159505615Y-83901855D01*
X159510000Y-83857333D01*
X159510000Y-83857332D01*
X159513677Y-83820000D01*
X159510000Y-83782667D01*
X159510000Y-82587333D01*
X159513677Y-82550000D01*
X159499003Y-82401014D01*
X159455546Y-82257753D01*
X159384974Y-82125724D01*
X159319029Y-82045370D01*
X159290001Y-82009999D01*
X159261003Y-81986201D01*
X157957746Y-80682945D01*
X157940393Y-80661800D01*
X176530678Y-80661800D01*
X176568000Y-80665476D01*
X176605322Y-80661800D01*
X176605333Y-80661800D01*
X176716986Y-80650803D01*
X176860247Y-80607346D01*
X176992276Y-80536774D01*
X177108001Y-80441801D01*
X177131804Y-80412797D01*
X178488803Y-79055799D01*
X178517801Y-79032001D01*
X178612774Y-78916276D01*
X178683346Y-78784247D01*
X178726803Y-78640986D01*
X178737800Y-78529333D01*
X178737800Y-78529324D01*
X178741476Y-78492001D01*
X178737800Y-78454678D01*
X178737800Y-70787658D01*
X178739300Y-70721491D01*
X178731327Y-70676047D01*
X178726803Y-70630114D01*
X178718420Y-70602478D01*
X178713430Y-70574037D01*
X178696744Y-70531021D01*
X178683346Y-70486853D01*
X178669730Y-70461380D01*
X178659289Y-70434463D01*
X178634531Y-70395527D01*
X178612774Y-70354824D01*
X178570754Y-70303623D01*
X176731298Y-67955673D01*
X176797914Y-67831045D01*
X176875394Y-67575626D01*
X176901556Y-67310000D01*
X176875394Y-67044374D01*
X176797914Y-66788955D01*
X176672092Y-66553560D01*
X176502765Y-66347235D01*
X176296440Y-66177908D01*
X176061045Y-66052086D01*
X176021203Y-66040000D01*
X176061045Y-66027914D01*
X176296440Y-65902092D01*
X176502765Y-65732765D01*
X176672092Y-65526440D01*
X176797914Y-65291045D01*
X176875394Y-65035626D01*
X176901556Y-64770000D01*
X176875394Y-64504374D01*
X176797914Y-64248955D01*
X176672092Y-64013560D01*
X176502765Y-63807235D01*
X176296440Y-63637908D01*
X176061045Y-63512086D01*
X176021203Y-63500000D01*
X176061045Y-63487914D01*
X176296440Y-63362092D01*
X176502765Y-63192765D01*
X176672092Y-62986440D01*
X176797914Y-62751045D01*
X176875394Y-62495626D01*
X176901556Y-62230000D01*
X176875394Y-61964374D01*
X176797914Y-61708955D01*
X176672092Y-61473560D01*
X176502765Y-61267235D01*
X176296440Y-61097908D01*
X176061045Y-60972086D01*
X176016241Y-60958495D01*
X176175869Y-60893256D01*
X176398395Y-60746084D01*
X176587933Y-60558327D01*
X176737199Y-60337201D01*
X176840458Y-60091203D01*
X176852559Y-60026472D01*
X176729489Y-59817000D01*
X175387000Y-59817000D01*
X175387000Y-59837000D01*
X175133000Y-59837000D01*
X175133000Y-59817000D01*
X175113000Y-59817000D01*
X175113000Y-59563000D01*
X175133000Y-59563000D01*
X175133000Y-58335000D01*
X175387000Y-58335000D01*
X175387000Y-59563000D01*
X176729489Y-59563000D01*
X176852559Y-59353528D01*
X176840458Y-59288797D01*
X176737199Y-59042799D01*
X176587933Y-58821673D01*
X176398395Y-58633916D01*
X176175869Y-58486744D01*
X175928907Y-58385812D01*
X175667000Y-58335000D01*
X175387000Y-58335000D01*
X175133000Y-58335000D01*
X174853000Y-58335000D01*
X174591093Y-58385812D01*
X174344131Y-58486744D01*
X174121605Y-58633916D01*
X173932067Y-58821673D01*
X173782801Y-59042799D01*
X173679542Y-59288797D01*
X173667441Y-59353528D01*
X173790510Y-59562998D01*
X173667800Y-59562998D01*
X172938902Y-58834101D01*
X172932794Y-58827020D01*
X172912493Y-58807692D01*
X172892708Y-58787907D01*
X172885491Y-58781984D01*
X172833439Y-58732426D01*
X172820567Y-58718907D01*
X172806428Y-58706711D01*
X172792896Y-58693827D01*
X172778172Y-58682336D01*
X172716692Y-58629302D01*
X172703165Y-58616424D01*
X172688446Y-58604937D01*
X172674305Y-58592739D01*
X172659033Y-58581983D01*
X172595026Y-58532032D01*
X172580883Y-58519832D01*
X172565609Y-58509075D01*
X172550886Y-58497585D01*
X172535110Y-58487595D01*
X172468725Y-58440842D01*
X172454004Y-58429353D01*
X172438226Y-58419361D01*
X172422957Y-58408608D01*
X172406710Y-58399404D01*
X172338111Y-58355964D01*
X172322836Y-58345206D01*
X172306583Y-58335999D01*
X172290812Y-58326012D01*
X172274129Y-58317615D01*
X172203489Y-58277598D01*
X172187702Y-58267601D01*
X172171004Y-58259196D01*
X172154767Y-58249998D01*
X172137709Y-58242437D01*
X172065175Y-58205926D01*
X172048922Y-58196719D01*
X172031842Y-58189148D01*
X172015166Y-58180754D01*
X171997748Y-58174035D01*
X171923497Y-58141122D01*
X171906829Y-58132732D01*
X171889420Y-58126017D01*
X171872332Y-58118442D01*
X171854583Y-58112579D01*
X171778850Y-58083365D01*
X171761770Y-58075794D01*
X171744029Y-58069933D01*
X171726610Y-58063214D01*
X171708616Y-58058235D01*
X171631525Y-58032767D01*
X171614088Y-58026041D01*
X171596075Y-58021056D01*
X171578357Y-58015203D01*
X171560149Y-58011114D01*
X171481882Y-57989455D01*
X171464150Y-57983597D01*
X171445923Y-57979504D01*
X171427924Y-57974523D01*
X171409528Y-57971331D01*
X171330296Y-57953539D01*
X171312301Y-57948559D01*
X171293907Y-57945367D01*
X171275683Y-57941275D01*
X171257143Y-57938988D01*
X171177143Y-57925107D01*
X171158921Y-57921015D01*
X171140384Y-57918729D01*
X171121984Y-57915536D01*
X171103362Y-57914162D01*
X171022775Y-57904223D01*
X171004374Y-57901030D01*
X170985747Y-57899656D01*
X170967213Y-57897370D01*
X170948545Y-57896912D01*
X170867559Y-57890938D01*
X170849025Y-57888652D01*
X170830361Y-57888194D01*
X170811735Y-57886820D01*
X170793061Y-57887279D01*
X170721230Y-57885516D01*
X170711933Y-57884600D01*
X170683917Y-57884600D01*
X170655924Y-57883913D01*
X170646612Y-57884600D01*
X162197989Y-57884600D01*
X162188677Y-57883913D01*
X162160683Y-57884600D01*
X162132667Y-57884600D01*
X162123370Y-57885516D01*
X162051538Y-57887279D01*
X162032863Y-57886820D01*
X162014236Y-57888194D01*
X161995574Y-57888652D01*
X161977041Y-57890938D01*
X161896054Y-57896912D01*
X161877385Y-57897370D01*
X161858849Y-57899656D01*
X161840225Y-57901030D01*
X161821826Y-57904223D01*
X161741238Y-57914162D01*
X161722614Y-57915536D01*
X161704212Y-57918729D01*
X161685678Y-57921015D01*
X161667458Y-57925106D01*
X161587450Y-57938989D01*
X161568917Y-57941275D01*
X161550700Y-57945366D01*
X161532297Y-57948559D01*
X161514294Y-57953541D01*
X161435077Y-57971330D01*
X161416674Y-57974523D01*
X161398669Y-57979505D01*
X161380449Y-57983597D01*
X161362723Y-57989453D01*
X161284462Y-58011110D01*
X161266241Y-58015202D01*
X161248511Y-58021059D01*
X161230509Y-58026041D01*
X161213080Y-58032764D01*
X161135992Y-58058231D01*
X161117985Y-58063214D01*
X161100552Y-58069939D01*
X161082828Y-58075794D01*
X161065762Y-58083359D01*
X160989995Y-58112586D01*
X160972270Y-58118441D01*
X160955198Y-58126008D01*
X160937768Y-58132732D01*
X160921084Y-58141130D01*
X160846859Y-58174032D01*
X160829432Y-58180754D01*
X160812752Y-58189150D01*
X160795679Y-58196718D01*
X160779428Y-58205924D01*
X160706900Y-58242432D01*
X160689831Y-58249998D01*
X160673581Y-58259204D01*
X160656896Y-58267602D01*
X160641119Y-58277592D01*
X160570475Y-58317611D01*
X160553786Y-58326012D01*
X160538007Y-58336004D01*
X160521763Y-58345206D01*
X160506495Y-58355959D01*
X160437894Y-58399400D01*
X160421642Y-58408607D01*
X160406370Y-58419363D01*
X160390594Y-58429353D01*
X160375873Y-58440842D01*
X160309494Y-58487591D01*
X160293712Y-58497585D01*
X160278981Y-58509081D01*
X160263716Y-58519832D01*
X160249581Y-58532025D01*
X160185567Y-58581982D01*
X160170297Y-58592736D01*
X160156156Y-58604934D01*
X160141433Y-58616424D01*
X160127905Y-58629304D01*
X160066415Y-58682345D01*
X160051695Y-58693833D01*
X160038177Y-58706704D01*
X160024033Y-58718904D01*
X160011151Y-58732434D01*
X159959111Y-58781981D01*
X159951890Y-58787907D01*
X159932086Y-58807711D01*
X159911799Y-58827026D01*
X159905698Y-58834099D01*
X158562103Y-60177695D01*
X158496555Y-60240101D01*
X158435080Y-60293129D01*
X158371068Y-60343085D01*
X158304708Y-60389822D01*
X158236122Y-60433253D01*
X158165476Y-60473274D01*
X158092978Y-60509766D01*
X158018744Y-60542672D01*
X157943025Y-60571880D01*
X157865929Y-60597350D01*
X157787670Y-60619006D01*
X157708481Y-60636789D01*
X157628496Y-60650668D01*
X157547927Y-60660605D01*
X157466952Y-60666578D01*
X157376488Y-60668800D01*
X156132017Y-60668800D01*
X156132312Y-60668505D01*
X156300299Y-60417095D01*
X156416011Y-60137743D01*
X156475000Y-59841184D01*
X156475000Y-59538816D01*
X156416011Y-59242257D01*
X156300299Y-58962905D01*
X156132312Y-58711495D01*
X155918505Y-58497688D01*
X155667095Y-58329701D01*
X155387743Y-58213989D01*
X155091184Y-58155000D01*
X154788816Y-58155000D01*
X154492257Y-58213989D01*
X154212905Y-58329701D01*
X153961495Y-58497688D01*
X153895056Y-58564127D01*
X153889502Y-58545820D01*
X153830537Y-58435506D01*
X153751185Y-58338815D01*
X153654494Y-58259463D01*
X153544180Y-58200498D01*
X153424482Y-58164188D01*
X153300000Y-58151928D01*
X151500000Y-58151928D01*
X151375518Y-58164188D01*
X151255820Y-58200498D01*
X151145506Y-58259463D01*
X151048815Y-58338815D01*
X150969463Y-58435506D01*
X150910498Y-58545820D01*
X150874188Y-58665518D01*
X150861928Y-58790000D01*
X150861928Y-60590000D01*
X150869573Y-60667622D01*
X150753449Y-60661917D01*
X150633168Y-60644075D01*
X150515213Y-60614529D01*
X150400721Y-60573563D01*
X150290801Y-60521575D01*
X150186497Y-60459058D01*
X150088833Y-60386625D01*
X149998736Y-60304965D01*
X149917072Y-60214862D01*
X149844640Y-60117201D01*
X149782126Y-60012901D01*
X149730136Y-59902978D01*
X149689170Y-59788488D01*
X149659624Y-59670532D01*
X149641782Y-59550251D01*
X149634900Y-59410161D01*
X149634900Y-59123711D01*
X149678837Y-59079774D01*
X149792105Y-58910256D01*
X149870126Y-58721898D01*
X149909900Y-58521939D01*
X149909900Y-58318061D01*
X149870126Y-58118102D01*
X149792105Y-57929744D01*
X149678837Y-57760226D01*
X149534674Y-57616063D01*
X149365156Y-57502795D01*
X149176798Y-57424774D01*
X148976839Y-57385000D01*
X148772961Y-57385000D01*
X148573002Y-57424774D01*
X148384644Y-57502795D01*
X148215126Y-57616063D01*
X148070963Y-57760226D01*
X147957695Y-57929744D01*
X147879674Y-58118102D01*
X147839900Y-58318061D01*
X147839900Y-58521939D01*
X147879674Y-58721898D01*
X147957695Y-58910256D01*
X148070963Y-59079774D01*
X148114900Y-59123711D01*
X148114900Y-59410158D01*
X148113984Y-59428801D01*
X148114900Y-59447447D01*
X148114900Y-59466132D01*
X148116731Y-59484726D01*
X148127278Y-59699411D01*
X148127279Y-59699417D01*
X148127279Y-59699420D01*
X148167033Y-59967424D01*
X148183110Y-60031605D01*
X148209696Y-60137743D01*
X148232868Y-60230253D01*
X148286350Y-60379724D01*
X148286350Y-60379725D01*
X148324147Y-60485360D01*
X148431995Y-60713384D01*
X148439990Y-60730288D01*
X148579279Y-60962679D01*
X148579285Y-60962687D01*
X148702789Y-61129211D01*
X148740685Y-61180308D01*
X148874716Y-61328189D01*
X148922640Y-61381065D01*
X149123391Y-61563014D01*
X149126194Y-61565093D01*
X149341012Y-61724414D01*
X149341017Y-61724417D01*
X149341021Y-61724420D01*
X149573411Y-61863709D01*
X149573414Y-61863710D01*
X149573415Y-61863711D01*
X149818339Y-61979552D01*
X149923974Y-62017349D01*
X149923975Y-62017349D01*
X150073446Y-62070831D01*
X150121138Y-62082777D01*
X150247313Y-62114382D01*
X150336275Y-62136666D01*
X150424944Y-62149819D01*
X150359326Y-62193663D01*
X150215163Y-62337826D01*
X150101895Y-62507344D01*
X150023874Y-62695702D01*
X149984100Y-62895661D01*
X149984100Y-62964700D01*
X149338312Y-62964700D01*
X149272936Y-62962200D01*
X149222360Y-62956379D01*
X149172386Y-62946714D01*
X149123290Y-62933263D01*
X149075356Y-62916100D01*
X149028886Y-62895334D01*
X148984127Y-62871077D01*
X148941351Y-62843474D01*
X148900812Y-62812691D01*
X148862743Y-62778904D01*
X148827360Y-62742305D01*
X148794873Y-62703112D01*
X148765474Y-62661556D01*
X148739330Y-62617871D01*
X148716601Y-62572327D01*
X148691942Y-62511731D01*
X148046223Y-60733271D01*
X147901646Y-60183039D01*
X147903505Y-60180256D01*
X147981526Y-59991898D01*
X148021300Y-59791939D01*
X148021300Y-59588061D01*
X147981526Y-59388102D01*
X147903505Y-59199744D01*
X147790237Y-59030226D01*
X147646074Y-58886063D01*
X147476556Y-58772795D01*
X147288198Y-58694774D01*
X147088239Y-58655000D01*
X146884361Y-58655000D01*
X146684402Y-58694774D01*
X146496044Y-58772795D01*
X146326526Y-58886063D01*
X146182363Y-59030226D01*
X146069095Y-59199744D01*
X145991074Y-59388102D01*
X145951300Y-59588061D01*
X145951300Y-59791939D01*
X145991074Y-59991898D01*
X146069095Y-60180256D01*
X146081192Y-60198361D01*
X146065347Y-60196478D01*
X146020327Y-60200000D01*
X145982890Y-60200000D01*
X145884850Y-60053273D01*
X145686727Y-59855150D01*
X145453759Y-59699486D01*
X145430858Y-59690000D01*
X145453759Y-59680514D01*
X145686727Y-59524850D01*
X145884850Y-59326727D01*
X146040514Y-59093759D01*
X146147738Y-58834899D01*
X146202400Y-58560094D01*
X146202400Y-58279906D01*
X146147738Y-58005101D01*
X146040514Y-57746241D01*
X145884850Y-57513273D01*
X145686727Y-57315150D01*
X145453759Y-57159486D01*
X145430858Y-57150000D01*
X145453759Y-57140514D01*
X145686727Y-56984850D01*
X145884850Y-56786727D01*
X146040514Y-56553759D01*
X146147738Y-56294899D01*
X146202400Y-56020094D01*
X146202400Y-55739906D01*
X146147738Y-55465101D01*
X146040514Y-55206241D01*
X145884850Y-54973273D01*
X145686727Y-54775150D01*
X145453759Y-54619486D01*
X145430858Y-54610000D01*
X145453759Y-54600514D01*
X145686727Y-54444850D01*
X145884850Y-54246727D01*
X146040514Y-54013759D01*
X146147738Y-53754899D01*
X146202400Y-53480094D01*
X146202400Y-53199906D01*
X146147738Y-52925101D01*
X146040514Y-52666241D01*
X145884850Y-52433273D01*
X145686727Y-52235150D01*
X145453759Y-52079486D01*
X145430858Y-52070000D01*
X145453759Y-52060514D01*
X145686727Y-51904850D01*
X145884850Y-51706727D01*
X145982890Y-51560000D01*
X163492022Y-51560000D01*
X163501336Y-51560687D01*
X163529312Y-51560000D01*
X163557333Y-51560000D01*
X163566640Y-51559083D01*
X163638464Y-51557320D01*
X163657135Y-51557778D01*
X163675769Y-51556403D01*
X163694438Y-51555945D01*
X163712965Y-51553660D01*
X163793945Y-51547686D01*
X163812613Y-51547228D01*
X163831147Y-51544942D01*
X163849774Y-51543568D01*
X163868175Y-51540375D01*
X163948762Y-51530436D01*
X163967384Y-51529062D01*
X163985784Y-51525869D01*
X164004321Y-51523583D01*
X164022543Y-51519491D01*
X164102543Y-51505610D01*
X164121083Y-51503323D01*
X164139307Y-51499231D01*
X164157701Y-51496039D01*
X164175696Y-51491059D01*
X164254928Y-51473267D01*
X164273324Y-51470075D01*
X164291323Y-51465094D01*
X164309550Y-51461001D01*
X164327282Y-51455143D01*
X164405549Y-51433484D01*
X164423757Y-51429395D01*
X164441475Y-51423542D01*
X164459488Y-51418557D01*
X164476925Y-51411831D01*
X164554016Y-51386363D01*
X164572010Y-51381384D01*
X164589429Y-51374665D01*
X164607170Y-51368804D01*
X164624250Y-51361233D01*
X164699983Y-51332019D01*
X164717732Y-51326156D01*
X164734820Y-51318581D01*
X164752229Y-51311866D01*
X164768897Y-51303476D01*
X164843148Y-51270563D01*
X164860566Y-51263844D01*
X164877242Y-51255450D01*
X164894322Y-51247879D01*
X164910575Y-51238672D01*
X164983106Y-51202163D01*
X165000172Y-51194598D01*
X165016413Y-51185397D01*
X165033102Y-51176997D01*
X165048887Y-51167001D01*
X165119524Y-51126985D01*
X165136207Y-51118588D01*
X165151990Y-51108593D01*
X165168240Y-51099388D01*
X165183505Y-51088637D01*
X165252110Y-51045194D01*
X165268357Y-51035990D01*
X165283621Y-51025240D01*
X165299400Y-51015248D01*
X165314125Y-51003756D01*
X165380511Y-50957002D01*
X165396289Y-50947011D01*
X165411012Y-50935521D01*
X165426283Y-50924766D01*
X165440424Y-50912567D01*
X165504438Y-50862611D01*
X165519700Y-50851862D01*
X165533836Y-50839668D01*
X165548567Y-50828172D01*
X165562098Y-50815289D01*
X165623574Y-50762260D01*
X165638292Y-50750774D01*
X165651818Y-50737897D01*
X165665964Y-50725694D01*
X165678842Y-50712167D01*
X165730882Y-50662622D01*
X165738108Y-50656692D01*
X165757913Y-50636887D01*
X165778190Y-50617582D01*
X165784293Y-50610507D01*
X170958625Y-45436177D01*
X170973088Y-45442168D01*
X171288967Y-45505000D01*
X171611033Y-45505000D01*
X171926912Y-45442168D01*
X172224463Y-45318918D01*
X172492252Y-45139987D01*
X172719987Y-44912252D01*
X172898918Y-44644463D01*
X172904909Y-44630000D01*
X176495091Y-44630000D01*
X176501082Y-44644463D01*
X176680013Y-44912252D01*
X176907748Y-45139987D01*
X177175537Y-45318918D01*
X177473088Y-45442168D01*
X177788967Y-45505000D01*
X178111033Y-45505000D01*
X178426912Y-45442168D01*
X178724463Y-45318918D01*
X178992252Y-45139987D01*
X179219987Y-44912252D01*
X179398918Y-44644463D01*
X179522168Y-44346912D01*
X179585000Y-44031033D01*
X179585000Y-43708967D01*
X179522168Y-43393088D01*
X179398918Y-43095537D01*
X179219987Y-42827748D01*
X178992252Y-42600013D01*
X178724463Y-42421082D01*
X178426912Y-42297832D01*
X178111033Y-42235000D01*
X177788967Y-42235000D01*
X177473088Y-42297832D01*
X177175537Y-42421082D01*
X176907748Y-42600013D01*
X176680013Y-42827748D01*
X176501082Y-43095537D01*
X176495091Y-43110000D01*
X172904909Y-43110000D01*
X172898918Y-43095537D01*
X172719987Y-42827748D01*
X172492252Y-42600013D01*
X172224463Y-42421082D01*
X171926912Y-42297832D01*
X171611033Y-42235000D01*
X171288967Y-42235000D01*
X170973088Y-42297832D01*
X170675537Y-42421082D01*
X170407748Y-42600013D01*
X170180013Y-42827748D01*
X170001082Y-43095537D01*
X169877832Y-43393088D01*
X169815000Y-43708967D01*
X169815000Y-44031033D01*
X169877832Y-44346912D01*
X169883823Y-44361375D01*
X164696303Y-49548895D01*
X164630755Y-49611301D01*
X164569280Y-49664329D01*
X164505268Y-49714285D01*
X164438908Y-49761022D01*
X164370322Y-49804453D01*
X164299676Y-49844474D01*
X164227178Y-49880966D01*
X164152944Y-49913872D01*
X164077225Y-49943080D01*
X164000129Y-49968550D01*
X163921870Y-49990206D01*
X163842681Y-50007989D01*
X163762696Y-50021868D01*
X163682127Y-50031805D01*
X163601152Y-50037778D01*
X163510688Y-50040000D01*
X158821983Y-50040000D01*
X158859853Y-49948574D01*
X158915000Y-49671335D01*
X158915000Y-49388665D01*
X158859853Y-49111426D01*
X158751680Y-48850273D01*
X158594637Y-48615241D01*
X158394759Y-48415363D01*
X158159727Y-48258320D01*
X157898574Y-48150147D01*
X157621335Y-48095000D01*
X157338665Y-48095000D01*
X157061426Y-48150147D01*
X156800273Y-48258320D01*
X156565241Y-48415363D01*
X156365363Y-48615241D01*
X156208320Y-48850273D01*
X156100147Y-49111426D01*
X156045000Y-49388665D01*
X156045000Y-49671335D01*
X156100147Y-49948574D01*
X156138017Y-50040000D01*
X151201983Y-50040000D01*
X151239853Y-49948574D01*
X151295000Y-49671335D01*
X151295000Y-49388665D01*
X151239853Y-49111426D01*
X151131680Y-48850273D01*
X150974637Y-48615241D01*
X150774759Y-48415363D01*
X150539727Y-48258320D01*
X150278574Y-48150147D01*
X150001335Y-48095000D01*
X149718665Y-48095000D01*
X149441426Y-48150147D01*
X149180273Y-48258320D01*
X148945241Y-48415363D01*
X148745363Y-48615241D01*
X148588320Y-48850273D01*
X148480147Y-49111426D01*
X148425000Y-49388665D01*
X148425000Y-49671335D01*
X148480147Y-49948574D01*
X148518017Y-50040000D01*
X145982890Y-50040000D01*
X145884850Y-49893273D01*
X145686727Y-49695150D01*
X145453759Y-49539486D01*
X145431755Y-49530372D01*
X145514043Y-49486388D01*
X145584100Y-49243705D01*
X144780000Y-48439605D01*
X143975900Y-49243705D01*
X144045957Y-49486388D01*
X144134028Y-49527976D01*
X144106241Y-49539486D01*
X143873273Y-49695150D01*
X143675150Y-49893273D01*
X143519486Y-50126241D01*
X143412262Y-50385101D01*
X143357600Y-50659906D01*
X143357600Y-50940094D01*
X143412262Y-51214899D01*
X143519486Y-51473759D01*
X143675150Y-51706727D01*
X143873273Y-51904850D01*
X144106241Y-52060514D01*
X144129142Y-52070000D01*
X144106241Y-52079486D01*
X143873273Y-52235150D01*
X143675150Y-52433273D01*
X143519486Y-52666241D01*
X143412262Y-52925101D01*
X143357600Y-53199906D01*
X143357600Y-53480094D01*
X143412262Y-53754899D01*
X143519486Y-54013759D01*
X143675150Y-54246727D01*
X143873273Y-54444850D01*
X144106241Y-54600514D01*
X144129142Y-54610000D01*
X144106241Y-54619486D01*
X143873273Y-54775150D01*
X143675150Y-54973273D01*
X143519486Y-55206241D01*
X143412262Y-55465101D01*
X143357600Y-55739906D01*
X143357600Y-56020094D01*
X143412262Y-56294899D01*
X143519486Y-56553759D01*
X143675150Y-56786727D01*
X143873273Y-56984850D01*
X144106241Y-57140514D01*
X144129142Y-57150000D01*
X144106241Y-57159486D01*
X143873273Y-57315150D01*
X143675150Y-57513273D01*
X143519486Y-57746241D01*
X143412262Y-58005101D01*
X143357600Y-58279906D01*
X143357600Y-58560094D01*
X143412262Y-58834899D01*
X143519486Y-59093759D01*
X143675150Y-59326727D01*
X143873273Y-59524850D01*
X144106241Y-59680514D01*
X144129142Y-59690000D01*
X144106241Y-59699486D01*
X143873273Y-59855150D01*
X143675150Y-60053273D01*
X143519486Y-60286241D01*
X143412262Y-60545101D01*
X143357600Y-60819906D01*
X143357600Y-61100094D01*
X143412262Y-61374899D01*
X143452478Y-61471988D01*
X143361014Y-61480997D01*
X143217753Y-61524454D01*
X143085724Y-61595026D01*
X142969999Y-61689999D01*
X142946202Y-61718996D01*
X141728998Y-62936201D01*
X141700000Y-62959999D01*
X141676202Y-62988997D01*
X141676201Y-62988998D01*
X141605026Y-63075724D01*
X141534454Y-63207754D01*
X141506739Y-63299123D01*
X141490998Y-63351014D01*
X141481527Y-63447174D01*
X141476324Y-63500000D01*
X141480001Y-63537332D01*
X141480000Y-64705580D01*
X141478244Y-64715864D01*
X141480000Y-64780336D01*
X141480000Y-64807332D01*
X141481016Y-64817651D01*
X141482320Y-64865514D01*
X141488337Y-64891975D01*
X141490997Y-64918985D01*
X141504898Y-64964813D01*
X141515513Y-65011495D01*
X141526574Y-65036268D01*
X141534454Y-65062246D01*
X141557032Y-65104486D01*
X141576548Y-65148196D01*
X141592232Y-65170339D01*
X141605026Y-65194275D01*
X141635400Y-65231286D01*
X141663077Y-65270362D01*
X141682783Y-65289023D01*
X141699999Y-65310001D01*
X141737014Y-65340378D01*
X141771779Y-65373300D01*
X141794743Y-65387756D01*
X141815724Y-65404974D01*
X141857966Y-65427553D01*
X141866727Y-65433068D01*
X141890828Y-65445119D01*
X141947753Y-65475546D01*
X141957745Y-65478577D01*
X143357600Y-66178505D01*
X143357600Y-66180094D01*
X143399910Y-66392800D01*
X142822102Y-66392800D01*
X142613184Y-66387670D01*
X142414038Y-66372980D01*
X142215875Y-66348539D01*
X142019137Y-66314402D01*
X141824297Y-66270649D01*
X141631855Y-66217393D01*
X141442273Y-66154764D01*
X141255963Y-66082896D01*
X141073422Y-66001980D01*
X140895068Y-65912206D01*
X140721323Y-65813779D01*
X140552627Y-65706954D01*
X140389371Y-65591977D01*
X140231962Y-65469134D01*
X140080758Y-65338703D01*
X139929418Y-65194616D01*
X130927973Y-56193172D01*
X130962400Y-56020094D01*
X130962400Y-55739906D01*
X130907738Y-55465101D01*
X130800514Y-55206241D01*
X130644850Y-54973273D01*
X130446727Y-54775150D01*
X130213759Y-54619486D01*
X130190858Y-54610000D01*
X130213759Y-54600514D01*
X130446727Y-54444850D01*
X130644850Y-54246727D01*
X130800514Y-54013759D01*
X130907738Y-53754899D01*
X130962400Y-53480094D01*
X130962400Y-53199906D01*
X130907738Y-52925101D01*
X130800514Y-52666241D01*
X130644850Y-52433273D01*
X130446727Y-52235150D01*
X130213759Y-52079486D01*
X130190858Y-52070000D01*
X130213759Y-52060514D01*
X130446727Y-51904850D01*
X130644850Y-51706727D01*
X130800514Y-51473759D01*
X130907738Y-51214899D01*
X130962400Y-50940094D01*
X130962400Y-50659906D01*
X130907738Y-50385101D01*
X130800514Y-50126241D01*
X130644850Y-49893273D01*
X130446727Y-49695150D01*
X130213759Y-49539486D01*
X130190858Y-49530000D01*
X130213759Y-49520514D01*
X130446727Y-49364850D01*
X130644850Y-49166727D01*
X130800514Y-48933759D01*
X130907738Y-48674899D01*
X130962400Y-48400094D01*
X130962400Y-48331010D01*
X143352483Y-48331010D01*
X143393766Y-48608140D01*
X143488321Y-48871892D01*
X143553612Y-48994043D01*
X143796295Y-49064100D01*
X144600395Y-48260000D01*
X144959605Y-48260000D01*
X145763705Y-49064100D01*
X146006388Y-48994043D01*
X146126028Y-48740682D01*
X146193941Y-48468849D01*
X146207517Y-48188990D01*
X146166234Y-47911860D01*
X146071679Y-47648108D01*
X146006388Y-47525957D01*
X145763705Y-47455900D01*
X144959605Y-48260000D01*
X144600395Y-48260000D01*
X143796295Y-47455900D01*
X143553612Y-47525957D01*
X143433972Y-47779318D01*
X143366059Y-48051151D01*
X143352483Y-48331010D01*
X130962400Y-48331010D01*
X130962400Y-48119906D01*
X130907738Y-47845101D01*
X130800514Y-47586241D01*
X130644850Y-47353273D01*
X130446727Y-47155150D01*
X130213759Y-46999486D01*
X130190858Y-46990000D01*
X130213759Y-46980514D01*
X130446727Y-46824850D01*
X130644850Y-46626727D01*
X130800514Y-46393759D01*
X130907738Y-46134899D01*
X130962400Y-45860094D01*
X130962400Y-45579906D01*
X143357600Y-45579906D01*
X143357600Y-45860094D01*
X143412262Y-46134899D01*
X143519486Y-46393759D01*
X143675150Y-46626727D01*
X143873273Y-46824850D01*
X144106241Y-46980514D01*
X144128245Y-46989628D01*
X144045957Y-47033612D01*
X143975900Y-47276295D01*
X144780000Y-48080395D01*
X145584100Y-47276295D01*
X145514043Y-47033612D01*
X145425972Y-46992024D01*
X145453759Y-46980514D01*
X145686727Y-46824850D01*
X145884850Y-46626727D01*
X146040514Y-46393759D01*
X146147738Y-46134899D01*
X146202400Y-45860094D01*
X146202400Y-45579906D01*
X146147738Y-45305101D01*
X146040514Y-45046241D01*
X145884850Y-44813273D01*
X145686727Y-44615150D01*
X145453759Y-44459486D01*
X145194899Y-44352262D01*
X144975722Y-44308665D01*
X148425000Y-44308665D01*
X148425000Y-44591335D01*
X148480147Y-44868574D01*
X148588320Y-45129727D01*
X148745363Y-45364759D01*
X148945241Y-45564637D01*
X149180273Y-45721680D01*
X149441426Y-45829853D01*
X149718665Y-45885000D01*
X150001335Y-45885000D01*
X150278574Y-45829853D01*
X150539727Y-45721680D01*
X150774759Y-45564637D01*
X150974637Y-45364759D01*
X151131680Y-45129727D01*
X151239853Y-44868574D01*
X151295000Y-44591335D01*
X151295000Y-44308665D01*
X156045000Y-44308665D01*
X156045000Y-44591335D01*
X156100147Y-44868574D01*
X156208320Y-45129727D01*
X156365363Y-45364759D01*
X156565241Y-45564637D01*
X156800273Y-45721680D01*
X157061426Y-45829853D01*
X157338665Y-45885000D01*
X157621335Y-45885000D01*
X157898574Y-45829853D01*
X158159727Y-45721680D01*
X158394759Y-45564637D01*
X158594637Y-45364759D01*
X158751680Y-45129727D01*
X158859853Y-44868574D01*
X158915000Y-44591335D01*
X158915000Y-44308665D01*
X158859853Y-44031426D01*
X158751680Y-43770273D01*
X158594637Y-43535241D01*
X158394759Y-43335363D01*
X158159727Y-43178320D01*
X157898574Y-43070147D01*
X157621335Y-43015000D01*
X157338665Y-43015000D01*
X157061426Y-43070147D01*
X156800273Y-43178320D01*
X156565241Y-43335363D01*
X156365363Y-43535241D01*
X156208320Y-43770273D01*
X156100147Y-44031426D01*
X156045000Y-44308665D01*
X151295000Y-44308665D01*
X151239853Y-44031426D01*
X151131680Y-43770273D01*
X150974637Y-43535241D01*
X150774759Y-43335363D01*
X150539727Y-43178320D01*
X150278574Y-43070147D01*
X150001335Y-43015000D01*
X149718665Y-43015000D01*
X149441426Y-43070147D01*
X149180273Y-43178320D01*
X148945241Y-43335363D01*
X148745363Y-43535241D01*
X148588320Y-43770273D01*
X148480147Y-44031426D01*
X148425000Y-44308665D01*
X144975722Y-44308665D01*
X144920094Y-44297600D01*
X144639906Y-44297600D01*
X144365101Y-44352262D01*
X144106241Y-44459486D01*
X143873273Y-44615150D01*
X143675150Y-44813273D01*
X143519486Y-45046241D01*
X143412262Y-45305101D01*
X143357600Y-45579906D01*
X130962400Y-45579906D01*
X130907738Y-45305101D01*
X130800514Y-45046241D01*
X130644850Y-44813273D01*
X130446727Y-44615150D01*
X130213759Y-44459486D01*
X129954899Y-44352262D01*
X129680094Y-44297600D01*
X129399906Y-44297600D01*
X129125101Y-44352262D01*
X128866241Y-44459486D01*
X128633273Y-44615150D01*
X128435150Y-44813273D01*
X128279486Y-45046241D01*
X128172262Y-45305101D01*
X128117600Y-45579906D01*
X127660000Y-45579906D01*
X127660000Y-39228665D01*
X148425000Y-39228665D01*
X148425000Y-39511335D01*
X148480147Y-39788574D01*
X148588320Y-40049727D01*
X148745363Y-40284759D01*
X148945241Y-40484637D01*
X149180273Y-40641680D01*
X149441426Y-40749853D01*
X149718665Y-40805000D01*
X150001335Y-40805000D01*
X150278574Y-40749853D01*
X150539727Y-40641680D01*
X150774759Y-40484637D01*
X150974637Y-40284759D01*
X151131680Y-40049727D01*
X151239853Y-39788574D01*
X151295000Y-39511335D01*
X151295000Y-39228665D01*
X156045000Y-39228665D01*
X156045000Y-39511335D01*
X156100147Y-39788574D01*
X156208320Y-40049727D01*
X156365363Y-40284759D01*
X156565241Y-40484637D01*
X156800273Y-40641680D01*
X157061426Y-40749853D01*
X157338665Y-40805000D01*
X157621335Y-40805000D01*
X157898574Y-40749853D01*
X158159727Y-40641680D01*
X158363665Y-40505413D01*
X170494192Y-40505413D01*
X170589956Y-40769814D01*
X170879571Y-40910704D01*
X171191108Y-40992384D01*
X171512595Y-41011718D01*
X171831675Y-40967961D01*
X172136088Y-40862795D01*
X172310044Y-40769814D01*
X172405808Y-40505413D01*
X176994192Y-40505413D01*
X177089956Y-40769814D01*
X177379571Y-40910704D01*
X177691108Y-40992384D01*
X178012595Y-41011718D01*
X178331675Y-40967961D01*
X178636088Y-40862795D01*
X178810044Y-40769814D01*
X178905808Y-40505413D01*
X177950000Y-39549605D01*
X176994192Y-40505413D01*
X172405808Y-40505413D01*
X171450000Y-39549605D01*
X170494192Y-40505413D01*
X158363665Y-40505413D01*
X158394759Y-40484637D01*
X158594637Y-40284759D01*
X158751680Y-40049727D01*
X158859853Y-39788574D01*
X158915000Y-39511335D01*
X158915000Y-39432595D01*
X169808282Y-39432595D01*
X169852039Y-39751675D01*
X169957205Y-40056088D01*
X170050186Y-40230044D01*
X170314587Y-40325808D01*
X171270395Y-39370000D01*
X171629605Y-39370000D01*
X172585413Y-40325808D01*
X172849814Y-40230044D01*
X172990704Y-39940429D01*
X173072384Y-39628892D01*
X173084189Y-39432595D01*
X176308282Y-39432595D01*
X176352039Y-39751675D01*
X176457205Y-40056088D01*
X176550186Y-40230044D01*
X176814587Y-40325808D01*
X177770395Y-39370000D01*
X178129605Y-39370000D01*
X179085413Y-40325808D01*
X179349814Y-40230044D01*
X179490704Y-39940429D01*
X179572384Y-39628892D01*
X179591718Y-39307405D01*
X179547961Y-38988325D01*
X179442795Y-38683912D01*
X179349814Y-38509956D01*
X179085413Y-38414192D01*
X178129605Y-39370000D01*
X177770395Y-39370000D01*
X176814587Y-38414192D01*
X176550186Y-38509956D01*
X176409296Y-38799571D01*
X176327616Y-39111108D01*
X176308282Y-39432595D01*
X173084189Y-39432595D01*
X173091718Y-39307405D01*
X173047961Y-38988325D01*
X172942795Y-38683912D01*
X172849814Y-38509956D01*
X172585413Y-38414192D01*
X171629605Y-39370000D01*
X171270395Y-39370000D01*
X170314587Y-38414192D01*
X170050186Y-38509956D01*
X169909296Y-38799571D01*
X169827616Y-39111108D01*
X169808282Y-39432595D01*
X158915000Y-39432595D01*
X158915000Y-39228665D01*
X158859853Y-38951426D01*
X158751680Y-38690273D01*
X158594637Y-38455241D01*
X158394759Y-38255363D01*
X158363666Y-38234587D01*
X170494192Y-38234587D01*
X171450000Y-39190395D01*
X172405808Y-38234587D01*
X176994192Y-38234587D01*
X177950000Y-39190395D01*
X178905808Y-38234587D01*
X178810044Y-37970186D01*
X178520429Y-37829296D01*
X178208892Y-37747616D01*
X177887405Y-37728282D01*
X177568325Y-37772039D01*
X177263912Y-37877205D01*
X177089956Y-37970186D01*
X176994192Y-38234587D01*
X172405808Y-38234587D01*
X172310044Y-37970186D01*
X172020429Y-37829296D01*
X171708892Y-37747616D01*
X171387405Y-37728282D01*
X171068325Y-37772039D01*
X170763912Y-37877205D01*
X170589956Y-37970186D01*
X170494192Y-38234587D01*
X158363666Y-38234587D01*
X158159727Y-38098320D01*
X157898574Y-37990147D01*
X157621335Y-37935000D01*
X157338665Y-37935000D01*
X157061426Y-37990147D01*
X156800273Y-38098320D01*
X156565241Y-38255363D01*
X156365363Y-38455241D01*
X156208320Y-38690273D01*
X156100147Y-38951426D01*
X156045000Y-39228665D01*
X151295000Y-39228665D01*
X151239853Y-38951426D01*
X151131680Y-38690273D01*
X150974637Y-38455241D01*
X150774759Y-38255363D01*
X150539727Y-38098320D01*
X150278574Y-37990147D01*
X150001335Y-37935000D01*
X149718665Y-37935000D01*
X149441426Y-37990147D01*
X149180273Y-38098320D01*
X148945241Y-38255363D01*
X148745363Y-38455241D01*
X148588320Y-38690273D01*
X148480147Y-38951426D01*
X148425000Y-39228665D01*
X127660000Y-39228665D01*
X127660000Y-36220000D01*
X179680000Y-36220000D01*
X179680001Y-86970000D01*
G36*
X157990001Y-82864803D02*
G01*
X157990001Y-83060000D01*
X156426221Y-83060000D01*
X156425000Y-82835750D01*
X156266250Y-82677000D01*
X155067000Y-82677000D01*
X155067000Y-82697000D01*
X154813000Y-82697000D01*
X154813000Y-82677000D01*
X154793000Y-82677000D01*
X154793000Y-82423000D01*
X154813000Y-82423000D01*
X154813000Y-82403000D01*
X155067000Y-82403000D01*
X155067000Y-82423000D01*
X156266250Y-82423000D01*
X156425000Y-82264250D01*
X156426689Y-81953942D01*
X157079141Y-81953942D01*
X157990001Y-82864803D01*
G37*
X157990001Y-82864803D02*
X157990001Y-83060000D01*
X156426221Y-83060000D01*
X156425000Y-82835750D01*
X156266250Y-82677000D01*
X155067000Y-82677000D01*
X155067000Y-82697000D01*
X154813000Y-82697000D01*
X154813000Y-82677000D01*
X154793000Y-82677000D01*
X154793000Y-82423000D01*
X154813000Y-82423000D01*
X154813000Y-82403000D01*
X155067000Y-82403000D01*
X155067000Y-82423000D01*
X156266250Y-82423000D01*
X156425000Y-82264250D01*
X156426689Y-81953942D01*
X157079141Y-81953942D01*
X157990001Y-82864803D01*
G04 #@! TD*
M02*
