G04 #@! TF.GenerationSoftware,KiCad,Pcbnew,5.1.6-c6e7f7d~87~ubuntu18.04.1*
G04 #@! TF.CreationDate,2020-08-20T21:19:03-03:00*
G04 #@! TF.ProjectId,dram-tester,6472616d-2d74-4657-9374-65722e6b6963,rev?*
G04 #@! TF.SameCoordinates,Original*
G04 #@! TF.FileFunction,Soldermask,Top*
G04 #@! TF.FilePolarity,Negative*
%FSLAX46Y46*%
G04 Gerber Fmt 4.6, Leading zero omitted, Abs format (unit mm)*
G04 Created by KiCad (PCBNEW 5.1.6-c6e7f7d~87~ubuntu18.04.1) date 2020-08-20 21:19:03*
%MOMM*%
%LPD*%
G01*
G04 APERTURE LIST*
%ADD10C,2.100000*%
%ADD11R,1.800000X1.800000*%
%ADD12O,1.800000X1.800000*%
%ADD13R,1.900000X1.900000*%
%ADD14C,1.900000*%
%ADD15C,1.700000*%
%ADD16O,1.700000X1.700000*%
%ADD17O,2.100000X1.540000*%
%ADD18R,2.100000X1.540000*%
%ADD19C,1.674800*%
G04 APERTURE END LIST*
D10*
G04 #@! TO.C,SW1*
X171450000Y-43870000D03*
X171450000Y-39370000D03*
X177950000Y-43870000D03*
X177950000Y-39370000D03*
G04 #@! TD*
D11*
G04 #@! TO.C,JP1*
X154940000Y-82550000D03*
D12*
X152400000Y-82550000D03*
G04 #@! TD*
D13*
G04 #@! TO.C,D2*
X152400000Y-59690000D03*
D14*
X154940000Y-59690000D03*
G04 #@! TD*
D13*
G04 #@! TO.C,D1*
X152400000Y-69850000D03*
D14*
X154940000Y-69850000D03*
G04 #@! TD*
D15*
G04 #@! TO.C,R3*
X149860000Y-39370000D03*
D16*
X157480000Y-39370000D03*
G04 #@! TD*
D15*
G04 #@! TO.C,R2*
X149860000Y-44450000D03*
D16*
X157480000Y-44450000D03*
G04 #@! TD*
D15*
G04 #@! TO.C,R1*
X149860000Y-49530000D03*
D16*
X157480000Y-49530000D03*
G04 #@! TD*
D17*
G04 #@! TO.C,J1*
X175260000Y-77470000D03*
X167640000Y-77470000D03*
X175260000Y-74930000D03*
X167640000Y-74930000D03*
X175260000Y-72390000D03*
X167640000Y-72390000D03*
X175260000Y-69850000D03*
X167640000Y-69850000D03*
X175260000Y-67310000D03*
X167640000Y-67310000D03*
X175260000Y-64770000D03*
X167640000Y-64770000D03*
X175260000Y-62230000D03*
X167640000Y-62230000D03*
X175260000Y-59690000D03*
D18*
X167640000Y-59690000D03*
G04 #@! TD*
D19*
G04 #@! TO.C,A1*
X129540000Y-81280000D03*
X144780000Y-81280000D03*
X129540000Y-78740000D03*
X144780000Y-78740000D03*
X129540000Y-76200000D03*
X144780000Y-76200000D03*
X129540000Y-73660000D03*
X144780000Y-73660000D03*
X129540000Y-71120000D03*
X144780000Y-71120000D03*
X129540000Y-68580000D03*
X144780000Y-68580000D03*
X129540000Y-66040000D03*
X144780000Y-66040000D03*
X129540000Y-63500000D03*
X144780000Y-63500000D03*
X129540000Y-60960000D03*
X144780000Y-60960000D03*
X129540000Y-58420000D03*
X144780000Y-58420000D03*
X129540000Y-55880000D03*
X144780000Y-55880000D03*
X129540000Y-53340000D03*
X144780000Y-53340000D03*
X129540000Y-50800000D03*
X144780000Y-50800000D03*
X129540000Y-48260000D03*
X144780000Y-48260000D03*
X129540000Y-45720000D03*
X144780000Y-45720000D03*
G04 #@! TD*
M02*
