G04 #@! TF.GenerationSoftware,KiCad,Pcbnew,5.1.6-c6e7f7d~87~ubuntu18.04.1*
G04 #@! TF.CreationDate,2020-08-21T14:22:44-03:00*
G04 #@! TF.ProjectId,dram-tester,6472616d-2d74-4657-9374-65722e6b6963,rev?*
G04 #@! TF.SameCoordinates,Original*
G04 #@! TF.FileFunction,Copper,L1,Top*
G04 #@! TF.FilePolarity,Positive*
%FSLAX46Y46*%
G04 Gerber Fmt 4.6, Leading zero omitted, Abs format (unit mm)*
G04 Created by KiCad (PCBNEW 5.1.6-c6e7f7d~87~ubuntu18.04.1) date 2020-08-21 14:22:44*
%MOMM*%
%LPD*%
G01*
G04 APERTURE LIST*
G04 #@! TA.AperFunction,ComponentPad*
%ADD10O,1.700000X1.700000*%
G04 #@! TD*
G04 #@! TA.AperFunction,ComponentPad*
%ADD11R,1.700000X1.700000*%
G04 #@! TD*
G04 #@! TA.AperFunction,ComponentPad*
%ADD12C,1.800000*%
G04 #@! TD*
G04 #@! TA.AperFunction,ComponentPad*
%ADD13R,1.800000X1.800000*%
G04 #@! TD*
G04 #@! TA.AperFunction,ComponentPad*
%ADD14C,2.000000*%
G04 #@! TD*
G04 #@! TA.AperFunction,ComponentPad*
%ADD15O,1.600000X1.600000*%
G04 #@! TD*
G04 #@! TA.AperFunction,ComponentPad*
%ADD16C,1.600000*%
G04 #@! TD*
G04 #@! TA.AperFunction,ComponentPad*
%ADD17R,2.000000X1.440000*%
G04 #@! TD*
G04 #@! TA.AperFunction,ComponentPad*
%ADD18O,2.000000X1.440000*%
G04 #@! TD*
G04 #@! TA.AperFunction,ComponentPad*
%ADD19C,1.574800*%
G04 #@! TD*
G04 #@! TA.AperFunction,ViaPad*
%ADD20C,0.800000*%
G04 #@! TD*
G04 #@! TA.AperFunction,Conductor*
%ADD21C,0.250000*%
G04 #@! TD*
G04 #@! TA.AperFunction,Conductor*
%ADD22C,0.300000*%
G04 #@! TD*
G04 #@! TA.AperFunction,Conductor*
%ADD23C,0.254000*%
G04 #@! TD*
G04 APERTURE END LIST*
D10*
G04 #@! TO.P,JP1,2*
G04 #@! TO.N,Net-(A1-Pad13)*
X152400000Y-82550000D03*
D11*
G04 #@! TO.P,JP1,1*
G04 #@! TO.N,Net-(A1-Pad29)*
X154940000Y-82550000D03*
G04 #@! TD*
D12*
G04 #@! TO.P,D2,2*
G04 #@! TO.N,Net-(D2-Pad2)*
X154940000Y-59690000D03*
D13*
G04 #@! TO.P,D2,1*
G04 #@! TO.N,Net-(A1-Pad15)*
X152400000Y-59690000D03*
G04 #@! TD*
D14*
G04 #@! TO.P,SW1,1*
G04 #@! TO.N,Net-(A1-Pad29)*
X177950000Y-39370000D03*
G04 #@! TO.P,SW1,2*
G04 #@! TO.N,Net-(A1-Pad28)*
X177950000Y-43870000D03*
G04 #@! TO.P,SW1,1*
G04 #@! TO.N,Net-(A1-Pad29)*
X171450000Y-39370000D03*
G04 #@! TO.P,SW1,2*
G04 #@! TO.N,Net-(A1-Pad28)*
X171450000Y-43870000D03*
G04 #@! TD*
D12*
G04 #@! TO.P,D1,2*
G04 #@! TO.N,Net-(D1-Pad2)*
X154940000Y-69850000D03*
D13*
G04 #@! TO.P,D1,1*
G04 #@! TO.N,Net-(A1-Pad14)*
X152400000Y-69850000D03*
G04 #@! TD*
D15*
G04 #@! TO.P,R3,2*
G04 #@! TO.N,Net-(D2-Pad2)*
X157480000Y-39370000D03*
D16*
G04 #@! TO.P,R3,1*
G04 #@! TO.N,Net-(A1-Pad27)*
X149860000Y-39370000D03*
G04 #@! TD*
D15*
G04 #@! TO.P,R2,2*
G04 #@! TO.N,Net-(D1-Pad2)*
X157480000Y-44450000D03*
D16*
G04 #@! TO.P,R2,1*
G04 #@! TO.N,Net-(A1-Pad27)*
X149860000Y-44450000D03*
G04 #@! TD*
D15*
G04 #@! TO.P,R1,2*
G04 #@! TO.N,Net-(A1-Pad13)*
X157480000Y-49530000D03*
D16*
G04 #@! TO.P,R1,1*
G04 #@! TO.N,Net-(A1-Pad27)*
X149860000Y-49530000D03*
G04 #@! TD*
D17*
G04 #@! TO.P,J1,1*
G04 #@! TO.N,Net-(A1-Pad19)*
X167640000Y-59690000D03*
D18*
G04 #@! TO.P,J1,16*
G04 #@! TO.N,Net-(A1-Pad29)*
X175260000Y-59690000D03*
G04 #@! TO.P,J1,2*
G04 #@! TO.N,Net-(A1-Pad20)*
X167640000Y-62230000D03*
G04 #@! TO.P,J1,15*
G04 #@! TO.N,Net-(A1-Pad12)*
X175260000Y-62230000D03*
G04 #@! TO.P,J1,3*
G04 #@! TO.N,Net-(A1-Pad21)*
X167640000Y-64770000D03*
G04 #@! TO.P,J1,14*
G04 #@! TO.N,Net-(A1-Pad11)*
X175260000Y-64770000D03*
G04 #@! TO.P,J1,4*
G04 #@! TO.N,Net-(A1-Pad22)*
X167640000Y-67310000D03*
G04 #@! TO.P,J1,13*
G04 #@! TO.N,Net-(A1-Pad10)*
X175260000Y-67310000D03*
G04 #@! TO.P,J1,5*
G04 #@! TO.N,Net-(A1-Pad23)*
X167640000Y-69850000D03*
G04 #@! TO.P,J1,12*
G04 #@! TO.N,Net-(A1-Pad9)*
X175260000Y-69850000D03*
G04 #@! TO.P,J1,6*
G04 #@! TO.N,Net-(A1-Pad24)*
X167640000Y-72390000D03*
G04 #@! TO.P,J1,11*
G04 #@! TO.N,Net-(A1-Pad8)*
X175260000Y-72390000D03*
G04 #@! TO.P,J1,7*
G04 #@! TO.N,Net-(A1-Pad5)*
X167640000Y-74930000D03*
G04 #@! TO.P,J1,10*
G04 #@! TO.N,Net-(A1-Pad7)*
X175260000Y-74930000D03*
G04 #@! TO.P,J1,8*
G04 #@! TO.N,Net-(A1-Pad27)*
X167640000Y-77470000D03*
G04 #@! TO.P,J1,9*
G04 #@! TO.N,Net-(A1-Pad6)*
X175260000Y-77470000D03*
G04 #@! TD*
D19*
G04 #@! TO.P,A1,30*
G04 #@! TO.N,N/C*
X144780000Y-45720000D03*
G04 #@! TO.P,A1,1*
X129540000Y-45720000D03*
G04 #@! TO.P,A1,29*
G04 #@! TO.N,Net-(A1-Pad29)*
X144780000Y-48260000D03*
G04 #@! TO.P,A1,2*
G04 #@! TO.N,N/C*
X129540000Y-48260000D03*
G04 #@! TO.P,A1,28*
G04 #@! TO.N,Net-(A1-Pad28)*
X144780000Y-50800000D03*
G04 #@! TO.P,A1,3*
G04 #@! TO.N,N/C*
X129540000Y-50800000D03*
G04 #@! TO.P,A1,27*
G04 #@! TO.N,Net-(A1-Pad27)*
X144780000Y-53340000D03*
G04 #@! TO.P,A1,4*
G04 #@! TO.N,N/C*
X129540000Y-53340000D03*
G04 #@! TO.P,A1,26*
X144780000Y-55880000D03*
G04 #@! TO.P,A1,5*
G04 #@! TO.N,Net-(A1-Pad5)*
X129540000Y-55880000D03*
G04 #@! TO.P,A1,25*
G04 #@! TO.N,N/C*
X144780000Y-58420000D03*
G04 #@! TO.P,A1,6*
G04 #@! TO.N,Net-(A1-Pad6)*
X129540000Y-58420000D03*
G04 #@! TO.P,A1,24*
G04 #@! TO.N,Net-(A1-Pad24)*
X144780000Y-60960000D03*
G04 #@! TO.P,A1,7*
G04 #@! TO.N,Net-(A1-Pad7)*
X129540000Y-60960000D03*
G04 #@! TO.P,A1,23*
G04 #@! TO.N,Net-(A1-Pad23)*
X144780000Y-63500000D03*
G04 #@! TO.P,A1,8*
G04 #@! TO.N,Net-(A1-Pad8)*
X129540000Y-63500000D03*
G04 #@! TO.P,A1,22*
G04 #@! TO.N,Net-(A1-Pad22)*
X144780000Y-66040000D03*
G04 #@! TO.P,A1,9*
G04 #@! TO.N,Net-(A1-Pad9)*
X129540000Y-66040000D03*
G04 #@! TO.P,A1,21*
G04 #@! TO.N,Net-(A1-Pad21)*
X144780000Y-68580000D03*
G04 #@! TO.P,A1,10*
G04 #@! TO.N,Net-(A1-Pad10)*
X129540000Y-68580000D03*
G04 #@! TO.P,A1,20*
G04 #@! TO.N,Net-(A1-Pad20)*
X144780000Y-71120000D03*
G04 #@! TO.P,A1,11*
G04 #@! TO.N,Net-(A1-Pad11)*
X129540000Y-71120000D03*
G04 #@! TO.P,A1,19*
G04 #@! TO.N,Net-(A1-Pad19)*
X144780000Y-73660000D03*
G04 #@! TO.P,A1,12*
G04 #@! TO.N,Net-(A1-Pad12)*
X129540000Y-73660000D03*
G04 #@! TO.P,A1,18*
G04 #@! TO.N,N/C*
X144780000Y-76200000D03*
G04 #@! TO.P,A1,13*
G04 #@! TO.N,Net-(A1-Pad13)*
X129540000Y-76200000D03*
G04 #@! TO.P,A1,17*
G04 #@! TO.N,N/C*
X144780000Y-78740000D03*
G04 #@! TO.P,A1,14*
G04 #@! TO.N,Net-(A1-Pad14)*
X129540000Y-78740000D03*
G04 #@! TO.P,A1,16*
G04 #@! TO.N,N/C*
X144780000Y-81280000D03*
G04 #@! TO.P,A1,15*
G04 #@! TO.N,Net-(A1-Pad15)*
X129540000Y-81280000D03*
G04 #@! TD*
D20*
G04 #@! TO.N,Net-(A1-Pad14)*
X152176500Y-80586400D03*
G04 #@! TO.N,Net-(A1-Pad12)*
X148874900Y-58420000D03*
G04 #@! TO.N,Net-(A1-Pad19)*
X152927800Y-62411600D03*
G04 #@! TO.N,Net-(A1-Pad11)*
X146986300Y-59690000D03*
G04 #@! TO.N,Net-(A1-Pad20)*
X151019100Y-62997600D03*
G04 #@! TO.N,Net-(A1-Pad21)*
X148957300Y-64770000D03*
G04 #@! TD*
D21*
G04 #@! TO.N,Net-(A1-Pad15)*
X149377400Y-63017400D02*
X152400000Y-59690000D01*
X142353349Y-67320206D02*
X142700000Y-67310000D01*
X138875504Y-68720151D02*
X139145807Y-68502878D01*
X138618455Y-68952952D02*
X138875504Y-68720151D01*
X142007899Y-67350794D02*
X142353349Y-67320206D01*
X140990684Y-67563422D02*
X141325384Y-67472612D01*
X137935484Y-69736208D02*
X138147628Y-69461862D01*
X139722380Y-68117873D02*
X140026654Y-67951475D01*
X138375549Y-69200475D02*
X138618455Y-68952952D01*
X138147628Y-69461862D02*
X138375549Y-69200475D01*
X139145807Y-68502878D02*
X139428425Y-68301887D01*
X141325384Y-67472612D02*
X141664848Y-67401654D01*
X141664848Y-67401654D02*
X142007899Y-67350794D01*
X129540000Y-81280000D02*
X137935484Y-69736208D01*
X139428425Y-68301887D02*
X139722380Y-68117873D01*
X140026654Y-67951475D02*
X140340192Y-67803268D01*
X140340192Y-67803268D02*
X140661906Y-67673768D01*
X140661906Y-67673768D02*
X140990684Y-67563422D01*
X146662644Y-66519641D02*
X149377400Y-63017400D01*
X146662644Y-66519641D02*
X146588861Y-66609423D01*
X146588861Y-66609423D02*
X146510088Y-66694859D01*
X146510088Y-66694859D02*
X146426578Y-66775672D01*
X146426578Y-66775672D02*
X146338603Y-66851600D01*
X146338603Y-66851600D02*
X146246448Y-66922396D01*
X146246448Y-66922396D02*
X146150411Y-66987831D01*
X146150411Y-66987831D02*
X146050806Y-67047692D01*
X146050806Y-67047692D02*
X145947954Y-67101786D01*
X145947954Y-67101786D02*
X145842189Y-67149936D01*
X145842189Y-67149936D02*
X145733854Y-67191986D01*
X145733854Y-67191986D02*
X145623301Y-67227801D01*
X145623301Y-67227801D02*
X145510888Y-67257264D01*
X145510888Y-67257264D02*
X145396981Y-67280279D01*
X145396981Y-67280279D02*
X145281948Y-67296772D01*
X145281948Y-67296772D02*
X145166162Y-67306689D01*
X145166162Y-67306689D02*
X145050000Y-67310000D01*
X145050000Y-67310000D02*
X142700000Y-67310000D01*
G04 #@! TO.N,Net-(A1-Pad14)*
X152176500Y-80586400D02*
X152400000Y-80362900D01*
X152400000Y-80362900D02*
X152400000Y-69850000D01*
G04 #@! TO.N,Net-(A1-Pad13)*
X157073131Y-63841264D02*
X157004900Y-63938144D01*
X157376044Y-63200808D02*
X157338874Y-63313323D01*
X157136525Y-63741153D02*
X157073131Y-63841264D01*
X154295398Y-66688713D02*
X154218000Y-66778438D01*
X153901789Y-67277790D02*
X153853770Y-67386120D01*
X157194932Y-63638051D02*
X157136525Y-63741153D01*
X154377106Y-66602893D02*
X154295398Y-66688713D01*
X153955066Y-67171947D02*
X153901789Y-67277790D01*
X157248209Y-63532208D02*
X157194932Y-63638051D01*
X157296228Y-63423879D02*
X157248209Y-63532208D01*
X153672907Y-68191540D02*
X153670000Y-68310000D01*
X157338874Y-63313323D02*
X157296228Y-63423879D01*
X153681624Y-68073365D02*
X153672907Y-68191540D01*
X157407648Y-63086605D02*
X157376044Y-63200808D01*
X157480000Y-62500000D02*
X157477091Y-62618459D01*
X154218000Y-66778438D02*
X154145098Y-66871854D01*
X157468374Y-62736634D02*
X157453869Y-62854238D01*
X153716387Y-67839010D02*
X153696129Y-67955761D01*
X154145098Y-66871854D02*
X154076867Y-66968734D01*
X157453869Y-62854238D02*
X157433611Y-62970989D01*
X153696129Y-67955761D02*
X153681624Y-68073365D01*
X157477091Y-62618459D02*
X157468374Y-62736634D01*
X157480000Y-49530000D02*
X157480000Y-62500000D01*
X157433611Y-62970989D02*
X157407648Y-63086605D01*
X154013472Y-67068846D02*
X153955066Y-67171947D01*
X156772893Y-64207106D02*
X154377106Y-66602893D01*
X153853770Y-67386120D02*
X153811124Y-67496675D01*
X157004900Y-63938144D02*
X156931998Y-64031559D01*
X153811124Y-67496675D02*
X153773954Y-67609190D01*
X156931998Y-64031559D02*
X156854600Y-64121285D01*
X153773954Y-67609190D02*
X153742350Y-67723393D01*
X156854600Y-64121285D02*
X156772893Y-64207106D01*
X154076867Y-66968734D02*
X154013472Y-67068846D01*
X153742350Y-67723393D02*
X153716387Y-67839010D01*
X153670000Y-79165902D02*
X153670000Y-68310000D01*
X153670000Y-79165902D02*
X153668126Y-79288377D01*
X153668126Y-79288377D02*
X153662507Y-79410738D01*
X153662507Y-79410738D02*
X153653148Y-79532869D01*
X153653148Y-79532869D02*
X153640058Y-79654657D01*
X153640058Y-79654657D02*
X153623250Y-79775988D01*
X153623250Y-79775988D02*
X153602737Y-79896748D01*
X153602737Y-79896748D02*
X153578541Y-80016824D01*
X153578541Y-80016824D02*
X153550684Y-80136104D01*
X153550684Y-80136104D02*
X153519191Y-80254476D01*
X153519191Y-80254476D02*
X153484092Y-80371829D01*
X153484092Y-80371829D02*
X153445421Y-80488054D01*
X153445421Y-80488054D02*
X153403212Y-80603042D01*
X153403212Y-80603042D02*
X153357506Y-80716684D01*
X153357506Y-80716684D02*
X153308346Y-80828876D01*
X153308346Y-80828876D02*
X153255777Y-80939512D01*
X153255777Y-80939512D02*
X153199849Y-81048488D01*
X153199849Y-81048488D02*
X152400000Y-82550000D01*
G04 #@! TO.N,Net-(A1-Pad12)*
X136961286Y-66238713D02*
X129540000Y-73660000D01*
X136961286Y-66238713D02*
X137132925Y-66075297D01*
X137132925Y-66075297D02*
X137312377Y-65920501D01*
X137312377Y-65920501D02*
X137499208Y-65774697D01*
X137499208Y-65774697D02*
X137692969Y-65638236D01*
X137692969Y-65638236D02*
X137893192Y-65511446D01*
X137893192Y-65511446D02*
X138099394Y-65394633D01*
X138099394Y-65394633D02*
X138311081Y-65288080D01*
X138311081Y-65288080D02*
X138527740Y-65192041D01*
X138527740Y-65192041D02*
X138748851Y-65106749D01*
X138748851Y-65106749D02*
X138973881Y-65032409D01*
X138973881Y-65032409D02*
X139202287Y-64969201D01*
X139202287Y-64969201D02*
X139433520Y-64917276D01*
X139433520Y-64917276D02*
X139667022Y-64876759D01*
X139667022Y-64876759D02*
X139902231Y-64847749D01*
X139902231Y-64847749D02*
X140138580Y-64830315D01*
X140138580Y-64830315D02*
X140375500Y-64824500D01*
X146309706Y-64117393D02*
X146223885Y-64199100D01*
X146223885Y-64199100D02*
X146134160Y-64276498D01*
X146134160Y-64276498D02*
X146040744Y-64349400D01*
X146040744Y-64349400D02*
X145943864Y-64417631D01*
X145943864Y-64417631D02*
X145843753Y-64481026D01*
X145843753Y-64481026D02*
X145740651Y-64539432D01*
X145740651Y-64539432D02*
X145634808Y-64592709D01*
X145634808Y-64592709D02*
X145526479Y-64640728D01*
X145526479Y-64640728D02*
X145415923Y-64683374D01*
X145415923Y-64683374D02*
X145303408Y-64720544D01*
X145303408Y-64720544D02*
X145189205Y-64752148D01*
X145189205Y-64752148D02*
X145073589Y-64778111D01*
X145073589Y-64778111D02*
X144956838Y-64798369D01*
X144956838Y-64798369D02*
X144839234Y-64812874D01*
X144839234Y-64812874D02*
X144721059Y-64821591D01*
X144721059Y-64821591D02*
X144602600Y-64824500D01*
X144602600Y-64824500D02*
X140375500Y-64824500D01*
X147460686Y-62966413D02*
X146309706Y-64117393D01*
X147460686Y-62966413D02*
X147624100Y-62794772D01*
X147624100Y-62794772D02*
X147778896Y-62615321D01*
X147778896Y-62615321D02*
X147924701Y-62428490D01*
X147924701Y-62428490D02*
X148061162Y-62234729D01*
X148061162Y-62234729D02*
X148187952Y-62034507D01*
X148187952Y-62034507D02*
X148304764Y-61828304D01*
X148304764Y-61828304D02*
X148411318Y-61616618D01*
X148411318Y-61616618D02*
X148507357Y-61399958D01*
X148507357Y-61399958D02*
X148592649Y-61178847D01*
X148592649Y-61178847D02*
X148666989Y-60953818D01*
X148666989Y-60953818D02*
X148730197Y-60725411D01*
X148730197Y-60725411D02*
X148782122Y-60494179D01*
X148782122Y-60494179D02*
X148822639Y-60260677D01*
X148822639Y-60260677D02*
X148851649Y-60025468D01*
X148851649Y-60025468D02*
X148869083Y-59789119D01*
X148869083Y-59789119D02*
X148874900Y-59552200D01*
X148874900Y-59552200D02*
X148874900Y-58420000D01*
G04 #@! TO.N,Net-(A1-Pad19)*
X149425793Y-69014206D02*
X144780000Y-73660000D01*
X149425793Y-69014206D02*
X149510857Y-68926381D01*
X149510857Y-68926381D02*
X149593077Y-68835887D01*
X149593077Y-68835887D02*
X149672367Y-68742816D01*
X149672367Y-68742816D02*
X149748647Y-68647262D01*
X149748647Y-68647262D02*
X149821839Y-68549322D01*
X149821839Y-68549322D02*
X149891868Y-68449097D01*
X149891868Y-68449097D02*
X149958664Y-68346689D01*
X149958664Y-68346689D02*
X150022158Y-68242201D01*
X150022158Y-68242201D02*
X150082286Y-68135741D01*
X150082286Y-68135741D02*
X150138986Y-68027416D01*
X150138986Y-68027416D02*
X150192200Y-67917337D01*
X150192200Y-67917337D02*
X150241875Y-67805616D01*
X150241875Y-67805616D02*
X150287960Y-67692367D01*
X150287960Y-67692367D02*
X150330407Y-67577705D01*
X150330407Y-67577705D02*
X150369175Y-67461746D01*
X150369175Y-67461746D02*
X150404223Y-67344611D01*
X151736240Y-63974718D02*
X152927800Y-62411600D01*
X151736240Y-63974718D02*
X151662519Y-64073822D01*
X151662519Y-64073822D02*
X151591152Y-64174634D01*
X151591152Y-64174634D02*
X151522178Y-64277098D01*
X151522178Y-64277098D02*
X151455633Y-64381157D01*
X151455633Y-64381157D02*
X151391556Y-64486752D01*
X151391556Y-64486752D02*
X151329981Y-64593827D01*
X151329981Y-64593827D02*
X151270943Y-64702320D01*
X151270943Y-64702320D02*
X151214475Y-64812173D01*
X151214475Y-64812173D02*
X151160607Y-64923325D01*
X151160607Y-64923325D02*
X151109370Y-65035713D01*
X151109370Y-65035713D02*
X151060792Y-65149276D01*
X151060792Y-65149276D02*
X151014899Y-65263951D01*
X151014899Y-65263951D02*
X150971718Y-65379673D01*
X150971718Y-65379673D02*
X150931273Y-65496380D01*
X150931273Y-65496380D02*
X150893585Y-65614007D01*
X150893585Y-65614007D02*
X150858676Y-65732488D01*
X150858676Y-65732488D02*
X150404223Y-67344611D01*
G04 #@! TO.N,Net-(A1-Pad11)*
X142970000Y-59690000D02*
X146986300Y-59690000D01*
X142970000Y-59690000D02*
X142733080Y-59695815D01*
X142733080Y-59695815D02*
X142496731Y-59713249D01*
X142496731Y-59713249D02*
X142261522Y-59742260D01*
X142261522Y-59742260D02*
X142028020Y-59782776D01*
X142028020Y-59782776D02*
X141796787Y-59834701D01*
X141796787Y-59834701D02*
X141568381Y-59897909D01*
X141568381Y-59897909D02*
X141343351Y-59972249D01*
X141343351Y-59972249D02*
X141122240Y-60057541D01*
X141122240Y-60057541D02*
X140905581Y-60153580D01*
X140905581Y-60153580D02*
X140693894Y-60260134D01*
X140693894Y-60260134D02*
X140487692Y-60376946D01*
X140487692Y-60376946D02*
X140287469Y-60503736D01*
X140287469Y-60503736D02*
X140093708Y-60640197D01*
X140093708Y-60640197D02*
X139906877Y-60786001D01*
X139906877Y-60786001D02*
X139727425Y-60940797D01*
X139727425Y-60940797D02*
X139555786Y-61104213D01*
X139555786Y-61104213D02*
X129540000Y-71120000D01*
G04 #@! TO.N,Net-(A1-Pad20)*
X150407323Y-63933078D02*
X151019100Y-62997600D01*
X150407323Y-63933078D02*
X150340124Y-64037657D01*
X150340124Y-64037657D02*
X150274618Y-64143304D01*
X150274618Y-64143304D02*
X150210820Y-64249991D01*
X150210820Y-64249991D02*
X150148746Y-64357691D01*
X150148746Y-64357691D02*
X150088413Y-64466376D01*
X150088413Y-64466376D02*
X150029837Y-64576017D01*
X150029837Y-64576017D02*
X149973031Y-64686586D01*
X149973031Y-64686586D02*
X149918012Y-64798055D01*
X149918012Y-64798055D02*
X149864794Y-64910395D01*
X149864794Y-64910395D02*
X149813389Y-65023576D01*
X149813389Y-65023576D02*
X149763812Y-65137569D01*
X149763812Y-65137569D02*
X149716075Y-65252346D01*
X149716075Y-65252346D02*
X149670191Y-65367875D01*
X149670191Y-65367875D02*
X149626171Y-65484128D01*
X149626171Y-65484128D02*
X149584028Y-65601074D01*
X149584028Y-65601074D02*
X149543772Y-65718683D01*
X147757949Y-69134700D02*
X144780000Y-71120000D01*
X147757949Y-69134700D02*
X147856731Y-69065855D01*
X147856731Y-69065855D02*
X147952586Y-68992989D01*
X147952586Y-68992989D02*
X148045350Y-68916226D01*
X148045350Y-68916226D02*
X148134864Y-68835698D01*
X148134864Y-68835698D02*
X148220976Y-68751540D01*
X148220976Y-68751540D02*
X148303538Y-68663898D01*
X148303538Y-68663898D02*
X148382409Y-68572921D01*
X148382409Y-68572921D02*
X148457456Y-68478763D01*
X148457456Y-68478763D02*
X148528549Y-68381587D01*
X148528549Y-68381587D02*
X148595569Y-68281556D01*
X148595569Y-68281556D02*
X148658399Y-68178843D01*
X148658399Y-68178843D02*
X148716933Y-68073623D01*
X148716933Y-68073623D02*
X148771072Y-67966074D01*
X148771072Y-67966074D02*
X148820722Y-67856382D01*
X148820722Y-67856382D02*
X148865799Y-67744732D01*
X148865799Y-67744732D02*
X148906227Y-67631316D01*
X148906227Y-67631316D02*
X149543772Y-65718683D01*
G04 #@! TO.N,Net-(A1-Pad21)*
X147861797Y-66469490D02*
X148957300Y-64770000D01*
X147861797Y-66469490D02*
X147793991Y-66570915D01*
X147793991Y-66570915D02*
X147722836Y-66670020D01*
X147722836Y-66670020D02*
X147648410Y-66766693D01*
X147648410Y-66766693D02*
X147570796Y-66860825D01*
X147570796Y-66860825D02*
X147490081Y-66952312D01*
X147490081Y-66952312D02*
X147406355Y-67041052D01*
X147406355Y-67041052D02*
X147319712Y-67126946D01*
X147319712Y-67126946D02*
X147230248Y-67209897D01*
X147230248Y-67209897D02*
X147138062Y-67289814D01*
X147138062Y-67289814D02*
X147043258Y-67366606D01*
X147043258Y-67366606D02*
X146945942Y-67440189D01*
X146945942Y-67440189D02*
X146846223Y-67510479D01*
X146846223Y-67510479D02*
X146744211Y-67577400D01*
X146744211Y-67577400D02*
X146640020Y-67640875D01*
X146640020Y-67640875D02*
X146533767Y-67700835D01*
X146533767Y-67700835D02*
X146425572Y-67757213D01*
X146425572Y-67757213D02*
X144780000Y-68580000D01*
D22*
G04 #@! TO.N,Net-(A1-Pad27)*
X149860000Y-44450000D02*
X149860000Y-49530000D01*
X149860000Y-44450000D02*
X149860000Y-39370000D01*
X145050000Y-53340000D02*
X144780000Y-53340000D01*
X145050000Y-53340000D02*
X145168459Y-53337091D01*
X145168459Y-53337091D02*
X145286634Y-53328374D01*
X145286634Y-53328374D02*
X145404238Y-53313869D01*
X145404238Y-53313869D02*
X145520989Y-53293611D01*
X145520989Y-53293611D02*
X145636605Y-53267648D01*
X145636605Y-53267648D02*
X145750808Y-53236044D01*
X145750808Y-53236044D02*
X145863323Y-53198874D01*
X145863323Y-53198874D02*
X145973879Y-53156228D01*
X145973879Y-53156228D02*
X146082208Y-53108209D01*
X146082208Y-53108209D02*
X146188051Y-53054932D01*
X146188051Y-53054932D02*
X146291153Y-52996525D01*
X146291153Y-52996525D02*
X146391264Y-52933131D01*
X146391264Y-52933131D02*
X146488144Y-52864900D01*
X146488144Y-52864900D02*
X146581559Y-52791998D01*
X146581559Y-52791998D02*
X146671285Y-52714600D01*
X146671285Y-52714600D02*
X146757106Y-52632893D01*
X146757106Y-52632893D02*
X149860000Y-49530000D01*
D21*
X150117566Y-49787566D02*
X149860000Y-49530000D01*
D22*
X150526103Y-50216666D02*
X150117566Y-49787566D01*
X150913093Y-50665295D02*
X150526103Y-50216666D01*
X151277604Y-51132373D02*
X150913093Y-50665295D01*
X151618758Y-51616773D02*
X151277604Y-51132373D01*
X152227763Y-52632837D02*
X151935732Y-52117330D01*
X152494148Y-53162053D02*
X152227763Y-52632837D01*
X152734244Y-53703702D02*
X152494148Y-53162053D01*
X152947474Y-54256479D02*
X152734244Y-53703702D01*
X153291345Y-55390069D02*
X153133323Y-54819053D01*
X153421157Y-55968151D02*
X153291345Y-55390069D01*
X153522448Y-56551906D02*
X153421157Y-55968151D01*
X153594974Y-57139928D02*
X153522448Y-56551906D01*
X153638559Y-57730800D02*
X153594974Y-57139928D01*
X153653100Y-58323100D02*
X153638559Y-57730800D01*
D21*
X167640000Y-77470000D02*
X167640000Y-77515300D01*
D22*
X167498874Y-78328623D02*
X167456228Y-78439179D01*
X167456228Y-78439179D02*
X167408209Y-78547508D01*
X167408209Y-78547508D02*
X167354932Y-78653351D01*
X167296525Y-78756453D02*
X167233131Y-78856564D01*
X167233131Y-78856564D02*
X167164900Y-78953444D01*
X167354932Y-78653351D02*
X167296525Y-78756453D01*
D21*
X167640000Y-77515300D02*
X167637091Y-77633759D01*
X167628374Y-77751934D02*
X167613869Y-77869538D01*
D22*
X151935732Y-52117330D02*
X151618758Y-51616773D01*
X167613869Y-77869538D02*
X167593611Y-77986289D01*
X167164900Y-78953444D02*
X167091998Y-79046859D01*
X167536044Y-78216108D02*
X167498874Y-78328623D01*
X153133323Y-54819053D02*
X152947474Y-54256479D01*
X167567648Y-78101905D02*
X167536044Y-78216108D01*
X167593611Y-77986289D02*
X167567648Y-78101905D01*
D21*
X167637091Y-77633759D02*
X167628374Y-77751934D01*
D22*
X160429900Y-83725400D02*
X151840500Y-83725400D01*
X163672472Y-82474600D02*
X163493021Y-82629396D01*
X167014600Y-79136585D02*
X166932893Y-79222406D01*
X166932893Y-79222406D02*
X163844113Y-82311186D01*
X163844113Y-82311186D02*
X163672472Y-82474600D01*
X167091998Y-79046859D02*
X167014600Y-79136585D01*
X163493021Y-82629396D02*
X163306190Y-82775201D01*
X163306190Y-82775201D02*
X163112429Y-82911662D01*
X163112429Y-82911662D02*
X162912207Y-83038452D01*
X162912207Y-83038452D02*
X162706004Y-83155264D01*
X162706004Y-83155264D02*
X162494318Y-83261818D01*
X162277658Y-83357857D02*
X162056547Y-83443149D01*
X162494318Y-83261818D02*
X162277658Y-83357857D01*
X162056547Y-83443149D02*
X161831518Y-83517489D01*
X161831518Y-83517489D02*
X161603111Y-83580697D01*
X161603111Y-83580697D02*
X161371879Y-83632622D01*
X161371879Y-83632622D02*
X161138377Y-83673139D01*
X160903168Y-83702149D02*
X160666819Y-83719583D01*
X160666819Y-83719583D02*
X160429900Y-83725400D01*
X161138377Y-83673139D02*
X160903168Y-83702149D01*
X151840500Y-83725400D02*
X151139600Y-83024500D01*
X153667378Y-63770003D02*
X153653100Y-58323100D01*
X153667378Y-63770003D02*
X153664771Y-63888425D01*
X153664771Y-63888425D02*
X153656338Y-64006576D01*
X153656338Y-64006576D02*
X153642098Y-64124169D01*
X153642098Y-64124169D02*
X153622087Y-64240918D01*
X153622087Y-64240918D02*
X153596352Y-64356540D01*
X153596352Y-64356540D02*
X153564956Y-64470755D01*
X153564956Y-64470755D02*
X153527975Y-64583286D01*
X153527975Y-64583286D02*
X153485498Y-64693859D01*
X153485498Y-64693859D02*
X153437630Y-64802208D01*
X153437630Y-64802208D02*
X153384486Y-64908068D01*
X153384486Y-64908068D02*
X153326194Y-65011184D01*
X153326194Y-65011184D02*
X153262896Y-65111305D01*
X153262896Y-65111305D02*
X153194746Y-65208188D01*
X153194746Y-65208188D02*
X153121909Y-65301599D01*
X153121909Y-65301599D02*
X153044562Y-65391310D01*
X153044562Y-65391310D02*
X152962893Y-65477106D01*
X151130610Y-68309999D02*
X151139600Y-83024500D01*
X151130610Y-68309999D02*
X151133447Y-68191547D01*
X151133447Y-68191547D02*
X151142098Y-68073378D01*
X151142098Y-68073378D02*
X151156541Y-67955777D01*
X151156541Y-67955777D02*
X151176742Y-67839026D01*
X151176742Y-67839026D02*
X151202652Y-67723408D01*
X151202652Y-67723408D02*
X151234208Y-67609202D01*
X151234208Y-67609202D02*
X151271333Y-67496684D01*
X151271333Y-67496684D02*
X151313940Y-67386124D01*
X151313940Y-67386124D02*
X151361924Y-67277790D01*
X151361924Y-67277790D02*
X151415170Y-67171943D01*
X151415170Y-67171943D02*
X151473549Y-67068838D01*
X151473549Y-67068838D02*
X151536922Y-66968724D01*
X151536922Y-66968724D02*
X151605133Y-66871843D01*
X151605133Y-66871843D02*
X151678020Y-66778429D01*
X151678020Y-66778429D02*
X151755406Y-66688706D01*
X151755406Y-66688706D02*
X151837106Y-66602893D01*
X151837106Y-66602893D02*
X152962893Y-65477106D01*
G04 #@! TO.N,Net-(A1-Pad29)*
X175260000Y-42060000D02*
X177950000Y-39370000D01*
X175260000Y-59690000D02*
X175260000Y-42060000D01*
X154940000Y-81768800D02*
X154940000Y-82550000D01*
X154942907Y-81650340D02*
X154940000Y-81768800D01*
X154951624Y-81532165D02*
X154942907Y-81650340D01*
X154966129Y-81414561D02*
X154951624Y-81532165D01*
X154986387Y-81297810D02*
X154966129Y-81414561D01*
X155647106Y-80061693D02*
X155565398Y-80147512D01*
X155283472Y-80527645D02*
X155225066Y-80630747D01*
X155565398Y-80147512D02*
X155488000Y-80237238D01*
X155488000Y-80237238D02*
X155415098Y-80330654D01*
X155415098Y-80330654D02*
X155346867Y-80427534D01*
X155225066Y-80630747D02*
X155171789Y-80736590D01*
X155171789Y-80736590D02*
X155123770Y-80844920D01*
X155123770Y-80844920D02*
X155081124Y-80955475D01*
X155081124Y-80955475D02*
X155043954Y-81067990D01*
X155043954Y-81067990D02*
X155012350Y-81182193D01*
X155346867Y-80427534D02*
X155283472Y-80527645D01*
X155012350Y-81182193D02*
X154986387Y-81297810D01*
X175180000Y-59690000D02*
X175260000Y-59690000D01*
X175180000Y-59690000D02*
X174689914Y-59714076D01*
X174689914Y-59714076D02*
X174204548Y-59786073D01*
X174204548Y-59786073D02*
X173728576Y-59905298D01*
X173728576Y-59905298D02*
X173266582Y-60070602D01*
X173266582Y-60070602D02*
X172823016Y-60280393D01*
X172823016Y-60280393D02*
X172402148Y-60532651D01*
X172402148Y-60532651D02*
X172008033Y-60824947D01*
X172008033Y-60824947D02*
X171644466Y-61154466D01*
X171644466Y-61154466D02*
X171314947Y-61518033D01*
X171314947Y-61518033D02*
X171022651Y-61912148D01*
X171022651Y-61912148D02*
X170770393Y-62333016D01*
X170770393Y-62333016D02*
X170560602Y-62776582D01*
X170560602Y-62776582D02*
X170395298Y-63238576D01*
X170395298Y-63238576D02*
X170276073Y-63714548D01*
X170276073Y-63714548D02*
X170204076Y-64199914D01*
X170204076Y-64199914D02*
X170180000Y-64690000D01*
X168180000Y-68580000D02*
X168376034Y-68570369D01*
X168376034Y-68570369D02*
X168570180Y-68541570D01*
X168570180Y-68541570D02*
X168760569Y-68493880D01*
X168760569Y-68493880D02*
X168945366Y-68427759D01*
X168945366Y-68427759D02*
X169122793Y-68343842D01*
X169122793Y-68343842D02*
X169291140Y-68242939D01*
X169291140Y-68242939D02*
X169448786Y-68126020D01*
X169448786Y-68126020D02*
X169594213Y-67994213D01*
X169594213Y-67994213D02*
X169726020Y-67848786D01*
X169726020Y-67848786D02*
X169842939Y-67691140D01*
X169842939Y-67691140D02*
X169943842Y-67522793D01*
X169943842Y-67522793D02*
X170027759Y-67345366D01*
X170027759Y-67345366D02*
X170093880Y-67160569D01*
X170093880Y-67160569D02*
X170141570Y-66970180D01*
X170141570Y-66970180D02*
X170170369Y-66776034D01*
X170170369Y-66776034D02*
X170180000Y-66580000D01*
X170180000Y-66580000D02*
X170180000Y-64690000D01*
X162669244Y-70208694D02*
X155647106Y-80061693D01*
X162669244Y-70208694D02*
X162808729Y-70024801D01*
X162808729Y-70024801D02*
X162958900Y-69849524D01*
X162958900Y-69849524D02*
X163119223Y-69683483D01*
X163119223Y-69683483D02*
X163289132Y-69527266D01*
X163289132Y-69527266D02*
X163468026Y-69381424D01*
X163468026Y-69381424D02*
X163655273Y-69246474D01*
X163655273Y-69246474D02*
X163850210Y-69122892D01*
X163850210Y-69122892D02*
X164052148Y-69011116D01*
X164052148Y-69011116D02*
X164260373Y-68911540D01*
X164260373Y-68911540D02*
X164474149Y-68824518D01*
X164474149Y-68824518D02*
X164692719Y-68750356D01*
X164692719Y-68750356D02*
X164915311Y-68689318D01*
X164915311Y-68689318D02*
X165141138Y-68641618D01*
X165141138Y-68641618D02*
X165369401Y-68607426D01*
X165369401Y-68607426D02*
X165599292Y-68586862D01*
X165599292Y-68586862D02*
X165830000Y-68580000D01*
X165830000Y-68580000D02*
X168180000Y-68580000D01*
X171450000Y-39370000D02*
X175260000Y-42060000D01*
D21*
G04 #@! TO.N,Net-(D1-Pad2)*
X157905093Y-44875093D02*
X157480000Y-44450000D01*
X157905093Y-44875093D02*
X157986800Y-44960913D01*
X157986800Y-44960913D02*
X158064198Y-45050638D01*
X158064198Y-45050638D02*
X158137100Y-45144054D01*
X158137100Y-45144054D02*
X158205331Y-45240934D01*
X158205331Y-45240934D02*
X158268726Y-45341046D01*
X158268726Y-45341046D02*
X158327132Y-45444147D01*
X158327132Y-45444147D02*
X158380409Y-45549990D01*
X158380409Y-45549990D02*
X158428428Y-45658320D01*
X158428428Y-45658320D02*
X158471074Y-45768875D01*
X158471074Y-45768875D02*
X158508244Y-45881390D01*
X158508244Y-45881390D02*
X158539848Y-45995593D01*
X158539848Y-45995593D02*
X158565811Y-46111210D01*
X158565811Y-46111210D02*
X158586069Y-46227961D01*
X158586069Y-46227961D02*
X158600574Y-46345565D01*
X158600574Y-46345565D02*
X158609291Y-46463740D01*
X158609291Y-46463740D02*
X158612200Y-46582200D01*
X157197986Y-67592013D02*
X154940000Y-69850000D01*
X157197986Y-67592013D02*
X157361400Y-67420372D01*
X157361400Y-67420372D02*
X157516196Y-67240920D01*
X157516196Y-67240920D02*
X157662000Y-67054089D01*
X157662000Y-67054089D02*
X157798462Y-66860329D01*
X157798462Y-66860329D02*
X157925252Y-66660106D01*
X157925252Y-66660106D02*
X158042064Y-66453904D01*
X158042064Y-66453904D02*
X158148618Y-66242218D01*
X158148618Y-66242218D02*
X158244657Y-66025558D01*
X158244657Y-66025558D02*
X158329949Y-65804447D01*
X158329949Y-65804447D02*
X158404288Y-65579418D01*
X158404288Y-65579418D02*
X158467497Y-65351011D01*
X158467497Y-65351011D02*
X158519422Y-65119779D01*
X158519422Y-65119779D02*
X158559939Y-64886277D01*
X158559939Y-64886277D02*
X158588949Y-64651068D01*
X158588949Y-64651068D02*
X158606383Y-64414719D01*
X158606383Y-64414719D02*
X158612200Y-64177800D01*
X158612200Y-64177800D02*
X158612200Y-46582200D01*
G04 #@! TO.N,Net-(D2-Pad2)*
X154940000Y-45035300D02*
X154940000Y-59690000D01*
X154940000Y-45035300D02*
X154945815Y-44798380D01*
X154945815Y-44798380D02*
X154963249Y-44562031D01*
X154963249Y-44562031D02*
X154992260Y-44326822D01*
X154992260Y-44326822D02*
X155032776Y-44093320D01*
X155032776Y-44093320D02*
X155084701Y-43862087D01*
X155084701Y-43862087D02*
X155147909Y-43633681D01*
X155147909Y-43633681D02*
X155222249Y-43408651D01*
X155222249Y-43408651D02*
X155307541Y-43187540D01*
X155307541Y-43187540D02*
X155403580Y-42970881D01*
X155403580Y-42970881D02*
X155510134Y-42759194D01*
X155510134Y-42759194D02*
X155626946Y-42552992D01*
X155626946Y-42552992D02*
X155753736Y-42352769D01*
X155753736Y-42352769D02*
X155890197Y-42159008D01*
X155890197Y-42159008D02*
X156036001Y-41972177D01*
X156036001Y-41972177D02*
X156190797Y-41792725D01*
X156190797Y-41792725D02*
X156354213Y-41621086D01*
X157480000Y-39495300D02*
X157480000Y-39370000D01*
X157480000Y-39495300D02*
X157477091Y-39613759D01*
X157477091Y-39613759D02*
X157468374Y-39731934D01*
X157468374Y-39731934D02*
X157453868Y-39849538D01*
X157453868Y-39849538D02*
X157433610Y-39966289D01*
X157433610Y-39966289D02*
X157407648Y-40081905D01*
X157407648Y-40081905D02*
X157376043Y-40196108D01*
X157376043Y-40196108D02*
X157338873Y-40308623D01*
X157338873Y-40308623D02*
X157296227Y-40419179D01*
X157296227Y-40419179D02*
X157248208Y-40527508D01*
X157248208Y-40527508D02*
X157194931Y-40633351D01*
X157194931Y-40633351D02*
X157136525Y-40736453D01*
X157136525Y-40736453D02*
X157073130Y-40836564D01*
X157073130Y-40836564D02*
X157004899Y-40933444D01*
X157004899Y-40933444D02*
X156931997Y-41026859D01*
X156931997Y-41026859D02*
X156854599Y-41116585D01*
X156854599Y-41116585D02*
X156772892Y-41202406D01*
X156772892Y-41202406D02*
X156354213Y-41621086D01*
G04 #@! TD*
D23*
G04 #@! TO.N,Net-(A1-Pad29)*
G36*
X179680001Y-86970000D02*
G01*
X127660000Y-86970000D01*
X127660000Y-45579906D01*
X128117600Y-45579906D01*
X128117600Y-45860094D01*
X128172262Y-46134899D01*
X128279486Y-46393759D01*
X128435150Y-46626727D01*
X128633273Y-46824850D01*
X128866241Y-46980514D01*
X128889142Y-46990000D01*
X128866241Y-46999486D01*
X128633273Y-47155150D01*
X128435150Y-47353273D01*
X128279486Y-47586241D01*
X128172262Y-47845101D01*
X128117600Y-48119906D01*
X128117600Y-48400094D01*
X128172262Y-48674899D01*
X128279486Y-48933759D01*
X128435150Y-49166727D01*
X128633273Y-49364850D01*
X128866241Y-49520514D01*
X128889142Y-49530000D01*
X128866241Y-49539486D01*
X128633273Y-49695150D01*
X128435150Y-49893273D01*
X128279486Y-50126241D01*
X128172262Y-50385101D01*
X128117600Y-50659906D01*
X128117600Y-50940094D01*
X128172262Y-51214899D01*
X128279486Y-51473759D01*
X128435150Y-51706727D01*
X128633273Y-51904850D01*
X128866241Y-52060514D01*
X128889142Y-52070000D01*
X128866241Y-52079486D01*
X128633273Y-52235150D01*
X128435150Y-52433273D01*
X128279486Y-52666241D01*
X128172262Y-52925101D01*
X128117600Y-53199906D01*
X128117600Y-53480094D01*
X128172262Y-53754899D01*
X128279486Y-54013759D01*
X128435150Y-54246727D01*
X128633273Y-54444850D01*
X128866241Y-54600514D01*
X128889142Y-54610000D01*
X128866241Y-54619486D01*
X128633273Y-54775150D01*
X128435150Y-54973273D01*
X128279486Y-55206241D01*
X128172262Y-55465101D01*
X128117600Y-55739906D01*
X128117600Y-56020094D01*
X128172262Y-56294899D01*
X128279486Y-56553759D01*
X128435150Y-56786727D01*
X128633273Y-56984850D01*
X128866241Y-57140514D01*
X128889142Y-57150000D01*
X128866241Y-57159486D01*
X128633273Y-57315150D01*
X128435150Y-57513273D01*
X128279486Y-57746241D01*
X128172262Y-58005101D01*
X128117600Y-58279906D01*
X128117600Y-58560094D01*
X128172262Y-58834899D01*
X128279486Y-59093759D01*
X128435150Y-59326727D01*
X128633273Y-59524850D01*
X128866241Y-59680514D01*
X128889142Y-59690000D01*
X128866241Y-59699486D01*
X128633273Y-59855150D01*
X128435150Y-60053273D01*
X128279486Y-60286241D01*
X128172262Y-60545101D01*
X128117600Y-60819906D01*
X128117600Y-61100094D01*
X128172262Y-61374899D01*
X128279486Y-61633759D01*
X128435150Y-61866727D01*
X128633273Y-62064850D01*
X128866241Y-62220514D01*
X128889142Y-62230000D01*
X128866241Y-62239486D01*
X128633273Y-62395150D01*
X128435150Y-62593273D01*
X128279486Y-62826241D01*
X128172262Y-63085101D01*
X128117600Y-63359906D01*
X128117600Y-63640094D01*
X128172262Y-63914899D01*
X128279486Y-64173759D01*
X128435150Y-64406727D01*
X128633273Y-64604850D01*
X128866241Y-64760514D01*
X128889142Y-64770000D01*
X128866241Y-64779486D01*
X128633273Y-64935150D01*
X128435150Y-65133273D01*
X128279486Y-65366241D01*
X128172262Y-65625101D01*
X128117600Y-65899906D01*
X128117600Y-66180094D01*
X128172262Y-66454899D01*
X128279486Y-66713759D01*
X128435150Y-66946727D01*
X128633273Y-67144850D01*
X128866241Y-67300514D01*
X128889142Y-67310000D01*
X128866241Y-67319486D01*
X128633273Y-67475150D01*
X128435150Y-67673273D01*
X128279486Y-67906241D01*
X128172262Y-68165101D01*
X128117600Y-68439906D01*
X128117600Y-68720094D01*
X128172262Y-68994899D01*
X128279486Y-69253759D01*
X128435150Y-69486727D01*
X128633273Y-69684850D01*
X128866241Y-69840514D01*
X128889142Y-69850000D01*
X128866241Y-69859486D01*
X128633273Y-70015150D01*
X128435150Y-70213273D01*
X128279486Y-70446241D01*
X128172262Y-70705101D01*
X128117600Y-70979906D01*
X128117600Y-71260094D01*
X128172262Y-71534899D01*
X128279486Y-71793759D01*
X128435150Y-72026727D01*
X128633273Y-72224850D01*
X128866241Y-72380514D01*
X128889142Y-72390000D01*
X128866241Y-72399486D01*
X128633273Y-72555150D01*
X128435150Y-72753273D01*
X128279486Y-72986241D01*
X128172262Y-73245101D01*
X128117600Y-73519906D01*
X128117600Y-73800094D01*
X128172262Y-74074899D01*
X128279486Y-74333759D01*
X128435150Y-74566727D01*
X128633273Y-74764850D01*
X128866241Y-74920514D01*
X128889142Y-74930000D01*
X128866241Y-74939486D01*
X128633273Y-75095150D01*
X128435150Y-75293273D01*
X128279486Y-75526241D01*
X128172262Y-75785101D01*
X128117600Y-76059906D01*
X128117600Y-76340094D01*
X128172262Y-76614899D01*
X128279486Y-76873759D01*
X128435150Y-77106727D01*
X128633273Y-77304850D01*
X128866241Y-77460514D01*
X128889142Y-77470000D01*
X128866241Y-77479486D01*
X128633273Y-77635150D01*
X128435150Y-77833273D01*
X128279486Y-78066241D01*
X128172262Y-78325101D01*
X128117600Y-78599906D01*
X128117600Y-78880094D01*
X128172262Y-79154899D01*
X128279486Y-79413759D01*
X128435150Y-79646727D01*
X128633273Y-79844850D01*
X128866241Y-80000514D01*
X128889142Y-80010000D01*
X128866241Y-80019486D01*
X128633273Y-80175150D01*
X128435150Y-80373273D01*
X128279486Y-80606241D01*
X128172262Y-80865101D01*
X128117600Y-81139906D01*
X128117600Y-81420094D01*
X128172262Y-81694899D01*
X128279486Y-81953759D01*
X128435150Y-82186727D01*
X128633273Y-82384850D01*
X128866241Y-82540514D01*
X129125101Y-82647738D01*
X129399906Y-82702400D01*
X129680094Y-82702400D01*
X129954899Y-82647738D01*
X130213759Y-82540514D01*
X130446727Y-82384850D01*
X130644850Y-82186727D01*
X130800514Y-81953759D01*
X130907738Y-81694899D01*
X130962400Y-81420094D01*
X130962400Y-81139906D01*
X130907738Y-80865101D01*
X130861923Y-80754494D01*
X138543565Y-70192236D01*
X138735152Y-69944475D01*
X138933659Y-69716821D01*
X139145217Y-69501242D01*
X139369086Y-69298490D01*
X139604508Y-69109254D01*
X139850655Y-68934201D01*
X140106662Y-68773942D01*
X140371683Y-68629011D01*
X140644749Y-68499935D01*
X140924938Y-68387150D01*
X141211274Y-68291048D01*
X141502784Y-68211956D01*
X141798440Y-68150154D01*
X142097225Y-68105857D01*
X142398088Y-68079218D01*
X142711178Y-68070000D01*
X143451654Y-68070000D01*
X143412262Y-68165101D01*
X143357600Y-68439906D01*
X143357600Y-68720094D01*
X143412262Y-68994899D01*
X143519486Y-69253759D01*
X143675150Y-69486727D01*
X143873273Y-69684850D01*
X144106241Y-69840514D01*
X144129142Y-69850000D01*
X144106241Y-69859486D01*
X143873273Y-70015150D01*
X143675150Y-70213273D01*
X143519486Y-70446241D01*
X143412262Y-70705101D01*
X143357600Y-70979906D01*
X143357600Y-71260094D01*
X143412262Y-71534899D01*
X143519486Y-71793759D01*
X143675150Y-72026727D01*
X143873273Y-72224850D01*
X144106241Y-72380514D01*
X144129142Y-72390000D01*
X144106241Y-72399486D01*
X143873273Y-72555150D01*
X143675150Y-72753273D01*
X143519486Y-72986241D01*
X143412262Y-73245101D01*
X143357600Y-73519906D01*
X143357600Y-73800094D01*
X143412262Y-74074899D01*
X143519486Y-74333759D01*
X143675150Y-74566727D01*
X143873273Y-74764850D01*
X144106241Y-74920514D01*
X144129142Y-74930000D01*
X144106241Y-74939486D01*
X143873273Y-75095150D01*
X143675150Y-75293273D01*
X143519486Y-75526241D01*
X143412262Y-75785101D01*
X143357600Y-76059906D01*
X143357600Y-76340094D01*
X143412262Y-76614899D01*
X143519486Y-76873759D01*
X143675150Y-77106727D01*
X143873273Y-77304850D01*
X144106241Y-77460514D01*
X144129142Y-77470000D01*
X144106241Y-77479486D01*
X143873273Y-77635150D01*
X143675150Y-77833273D01*
X143519486Y-78066241D01*
X143412262Y-78325101D01*
X143357600Y-78599906D01*
X143357600Y-78880094D01*
X143412262Y-79154899D01*
X143519486Y-79413759D01*
X143675150Y-79646727D01*
X143873273Y-79844850D01*
X144106241Y-80000514D01*
X144129142Y-80010000D01*
X144106241Y-80019486D01*
X143873273Y-80175150D01*
X143675150Y-80373273D01*
X143519486Y-80606241D01*
X143412262Y-80865101D01*
X143357600Y-81139906D01*
X143357600Y-81420094D01*
X143412262Y-81694899D01*
X143519486Y-81953759D01*
X143675150Y-82186727D01*
X143873273Y-82384850D01*
X144106241Y-82540514D01*
X144365101Y-82647738D01*
X144639906Y-82702400D01*
X144920094Y-82702400D01*
X145194899Y-82647738D01*
X145453759Y-82540514D01*
X145686727Y-82384850D01*
X145884850Y-82186727D01*
X146040514Y-81953759D01*
X146147738Y-81694899D01*
X146202400Y-81420094D01*
X146202400Y-81139906D01*
X146147738Y-80865101D01*
X146040514Y-80606241D01*
X145884850Y-80373273D01*
X145686727Y-80175150D01*
X145453759Y-80019486D01*
X145430858Y-80010000D01*
X145453759Y-80000514D01*
X145686727Y-79844850D01*
X145884850Y-79646727D01*
X146040514Y-79413759D01*
X146147738Y-79154899D01*
X146202400Y-78880094D01*
X146202400Y-78599906D01*
X146147738Y-78325101D01*
X146040514Y-78066241D01*
X145884850Y-77833273D01*
X145686727Y-77635150D01*
X145453759Y-77479486D01*
X145430858Y-77470000D01*
X145453759Y-77460514D01*
X145686727Y-77304850D01*
X145884850Y-77106727D01*
X146040514Y-76873759D01*
X146147738Y-76614899D01*
X146202400Y-76340094D01*
X146202400Y-76059906D01*
X146147738Y-75785101D01*
X146040514Y-75526241D01*
X145884850Y-75293273D01*
X145686727Y-75095150D01*
X145453759Y-74939486D01*
X145430858Y-74930000D01*
X145453759Y-74920514D01*
X145686727Y-74764850D01*
X145884850Y-74566727D01*
X146040514Y-74333759D01*
X146147738Y-74074899D01*
X146202400Y-73800094D01*
X146202400Y-73519906D01*
X146167973Y-73346828D01*
X149941096Y-69573705D01*
X149945733Y-69569774D01*
X149967480Y-69547321D01*
X149989592Y-69525209D01*
X149993451Y-69520507D01*
X150039250Y-69473221D01*
X150048252Y-69465082D01*
X150065200Y-69446428D01*
X150082744Y-69428315D01*
X150090296Y-69418807D01*
X150138644Y-69365594D01*
X150147388Y-69357166D01*
X150163730Y-69337984D01*
X150180682Y-69319326D01*
X150187931Y-69309577D01*
X150234563Y-69254840D01*
X150243030Y-69246141D01*
X150258743Y-69226458D01*
X150275100Y-69207258D01*
X150282038Y-69197277D01*
X150326892Y-69141089D01*
X150335082Y-69132119D01*
X150346104Y-69117371D01*
X150354577Y-82986183D01*
X150350803Y-83024500D01*
X150354624Y-83063295D01*
X150354624Y-83063540D01*
X150358411Y-83101750D01*
X150365959Y-83178386D01*
X150366030Y-83178622D01*
X150366054Y-83178859D01*
X150388225Y-83251786D01*
X150410846Y-83326359D01*
X150410961Y-83326573D01*
X150411031Y-83326805D01*
X150447430Y-83394803D01*
X150483739Y-83462732D01*
X150483890Y-83462915D01*
X150484006Y-83463133D01*
X150533074Y-83522847D01*
X150557255Y-83552312D01*
X150557427Y-83552484D01*
X150582177Y-83582604D01*
X150611955Y-83607012D01*
X151258157Y-84253215D01*
X151282736Y-84283164D01*
X151312684Y-84307742D01*
X151312687Y-84307745D01*
X151342059Y-84331850D01*
X151402267Y-84381262D01*
X151538640Y-84454154D01*
X151643507Y-84485965D01*
X151686612Y-84499041D01*
X151700990Y-84500457D01*
X151801939Y-84510400D01*
X151801946Y-84510400D01*
X151840499Y-84514197D01*
X151879052Y-84510400D01*
X160401006Y-84510400D01*
X160410619Y-84511109D01*
X160439499Y-84510400D01*
X160468461Y-84510400D01*
X160478076Y-84509453D01*
X160666839Y-84504819D01*
X160686110Y-84505292D01*
X160705337Y-84503874D01*
X160724636Y-84503400D01*
X160743789Y-84501037D01*
X160941711Y-84486438D01*
X160960988Y-84485965D01*
X160980125Y-84483605D01*
X160999372Y-84482185D01*
X161018384Y-84478886D01*
X161215347Y-84454593D01*
X161234590Y-84453174D01*
X161253598Y-84449876D01*
X161272739Y-84447515D01*
X161291557Y-84443289D01*
X161487120Y-84409355D01*
X161506249Y-84406996D01*
X161525058Y-84402772D01*
X161544078Y-84399472D01*
X161562678Y-84394325D01*
X161756308Y-84350844D01*
X161775314Y-84347546D01*
X161793909Y-84342400D01*
X161812729Y-84338174D01*
X161831041Y-84332124D01*
X162022321Y-84279191D01*
X162041144Y-84274964D01*
X162059459Y-84268913D01*
X162078049Y-84263769D01*
X162096045Y-84256827D01*
X162284495Y-84194571D01*
X162303087Y-84189426D01*
X162321089Y-84182482D01*
X162339402Y-84176432D01*
X162357031Y-84168618D01*
X162542210Y-84097186D01*
X162560520Y-84091137D01*
X162578150Y-84083322D01*
X162596152Y-84076378D01*
X162613387Y-84067703D01*
X162794819Y-83987279D01*
X162812819Y-83980336D01*
X162830052Y-83971661D01*
X162847686Y-83963845D01*
X162864468Y-83954338D01*
X163041748Y-83865103D01*
X163059376Y-83857289D01*
X163076155Y-83847784D01*
X163093393Y-83839107D01*
X163109693Y-83828785D01*
X163282382Y-83730958D01*
X163299603Y-83722290D01*
X163315888Y-83711978D01*
X163332682Y-83702464D01*
X163348465Y-83691349D01*
X163516120Y-83585181D01*
X163532909Y-83575671D01*
X163548690Y-83564557D01*
X163564982Y-83554240D01*
X163580180Y-83542379D01*
X163742467Y-83428085D01*
X163758748Y-83417775D01*
X163773938Y-83405921D01*
X163789724Y-83394803D01*
X163804343Y-83382192D01*
X163960799Y-83260093D01*
X163976563Y-83248991D01*
X163991164Y-83236396D01*
X164006378Y-83224523D01*
X164020352Y-83211218D01*
X164170628Y-83081589D01*
X164185830Y-83069726D01*
X164199801Y-83056424D01*
X164214412Y-83043821D01*
X164227714Y-83029850D01*
X164364458Y-82899659D01*
X164371925Y-82893531D01*
X164392398Y-82873058D01*
X164413326Y-82853133D01*
X164419624Y-82845832D01*
X167467534Y-79797922D01*
X167474842Y-79791618D01*
X167494781Y-79770675D01*
X167515238Y-79750218D01*
X167521364Y-79742754D01*
X167569855Y-79691820D01*
X167583822Y-79678523D01*
X167596423Y-79663915D01*
X167609727Y-79649941D01*
X167621594Y-79634735D01*
X167673813Y-79574198D01*
X167687125Y-79560216D01*
X167699005Y-79544993D01*
X167711594Y-79530399D01*
X167722691Y-79514642D01*
X167771904Y-79451582D01*
X167784498Y-79436982D01*
X167795601Y-79421217D01*
X167807475Y-79406002D01*
X167817798Y-79389699D01*
X167863848Y-79324315D01*
X167875712Y-79309112D01*
X167886026Y-79292824D01*
X167897137Y-79277048D01*
X167906649Y-79260256D01*
X167949424Y-79192707D01*
X167960535Y-79176931D01*
X167970050Y-79160136D01*
X167980366Y-79143844D01*
X167989033Y-79126626D01*
X168028452Y-79057042D01*
X168038775Y-79040740D01*
X168047451Y-79023504D01*
X168056955Y-79006727D01*
X168064768Y-78989100D01*
X168100737Y-78917643D01*
X168110236Y-78900875D01*
X168118046Y-78883256D01*
X168126727Y-78866010D01*
X168133673Y-78848002D01*
X168151051Y-78808799D01*
X168185626Y-78805394D01*
X168441045Y-78727914D01*
X168676440Y-78602092D01*
X168882765Y-78432765D01*
X169052092Y-78226440D01*
X169177914Y-77991045D01*
X169255394Y-77735626D01*
X169281556Y-77470000D01*
X169255394Y-77204374D01*
X169177914Y-76948955D01*
X169052092Y-76713560D01*
X168882765Y-76507235D01*
X168676440Y-76337908D01*
X168441045Y-76212086D01*
X168401203Y-76200000D01*
X168441045Y-76187914D01*
X168676440Y-76062092D01*
X168882765Y-75892765D01*
X169052092Y-75686440D01*
X169177914Y-75451045D01*
X169255394Y-75195626D01*
X169281556Y-74930000D01*
X169255394Y-74664374D01*
X169177914Y-74408955D01*
X169052092Y-74173560D01*
X168882765Y-73967235D01*
X168676440Y-73797908D01*
X168441045Y-73672086D01*
X168401203Y-73660000D01*
X168441045Y-73647914D01*
X168676440Y-73522092D01*
X168882765Y-73352765D01*
X169052092Y-73146440D01*
X169177914Y-72911045D01*
X169255394Y-72655626D01*
X169281556Y-72390000D01*
X169255394Y-72124374D01*
X169177914Y-71868955D01*
X169052092Y-71633560D01*
X168882765Y-71427235D01*
X168676440Y-71257908D01*
X168441045Y-71132086D01*
X168401203Y-71120000D01*
X168441045Y-71107914D01*
X168676440Y-70982092D01*
X168882765Y-70812765D01*
X169052092Y-70606440D01*
X169177914Y-70371045D01*
X169255394Y-70115626D01*
X169281556Y-69850000D01*
X169255394Y-69584374D01*
X169177914Y-69328955D01*
X169052092Y-69093560D01*
X168882765Y-68887235D01*
X168676440Y-68717908D01*
X168441045Y-68592086D01*
X168401203Y-68580000D01*
X168441045Y-68567914D01*
X168676440Y-68442092D01*
X168882765Y-68272765D01*
X169052092Y-68066440D01*
X169177914Y-67831045D01*
X169255394Y-67575626D01*
X169281556Y-67310000D01*
X169255394Y-67044374D01*
X169177914Y-66788955D01*
X169052092Y-66553560D01*
X168882765Y-66347235D01*
X168676440Y-66177908D01*
X168441045Y-66052086D01*
X168401203Y-66040000D01*
X168441045Y-66027914D01*
X168676440Y-65902092D01*
X168882765Y-65732765D01*
X169052092Y-65526440D01*
X169177914Y-65291045D01*
X169255394Y-65035626D01*
X169281556Y-64770000D01*
X169255394Y-64504374D01*
X169177914Y-64248955D01*
X169052092Y-64013560D01*
X168882765Y-63807235D01*
X168676440Y-63637908D01*
X168441045Y-63512086D01*
X168401203Y-63500000D01*
X168441045Y-63487914D01*
X168676440Y-63362092D01*
X168882765Y-63192765D01*
X169052092Y-62986440D01*
X169177914Y-62751045D01*
X169255394Y-62495626D01*
X169281556Y-62230000D01*
X173618444Y-62230000D01*
X173644606Y-62495626D01*
X173722086Y-62751045D01*
X173847908Y-62986440D01*
X174017235Y-63192765D01*
X174223560Y-63362092D01*
X174458955Y-63487914D01*
X174498797Y-63500000D01*
X174458955Y-63512086D01*
X174223560Y-63637908D01*
X174017235Y-63807235D01*
X173847908Y-64013560D01*
X173722086Y-64248955D01*
X173644606Y-64504374D01*
X173618444Y-64770000D01*
X173644606Y-65035626D01*
X173722086Y-65291045D01*
X173847908Y-65526440D01*
X174017235Y-65732765D01*
X174223560Y-65902092D01*
X174458955Y-66027914D01*
X174498797Y-66040000D01*
X174458955Y-66052086D01*
X174223560Y-66177908D01*
X174017235Y-66347235D01*
X173847908Y-66553560D01*
X173722086Y-66788955D01*
X173644606Y-67044374D01*
X173618444Y-67310000D01*
X173644606Y-67575626D01*
X173722086Y-67831045D01*
X173847908Y-68066440D01*
X174017235Y-68272765D01*
X174223560Y-68442092D01*
X174458955Y-68567914D01*
X174498797Y-68580000D01*
X174458955Y-68592086D01*
X174223560Y-68717908D01*
X174017235Y-68887235D01*
X173847908Y-69093560D01*
X173722086Y-69328955D01*
X173644606Y-69584374D01*
X173618444Y-69850000D01*
X173644606Y-70115626D01*
X173722086Y-70371045D01*
X173847908Y-70606440D01*
X174017235Y-70812765D01*
X174223560Y-70982092D01*
X174458955Y-71107914D01*
X174498797Y-71120000D01*
X174458955Y-71132086D01*
X174223560Y-71257908D01*
X174017235Y-71427235D01*
X173847908Y-71633560D01*
X173722086Y-71868955D01*
X173644606Y-72124374D01*
X173618444Y-72390000D01*
X173644606Y-72655626D01*
X173722086Y-72911045D01*
X173847908Y-73146440D01*
X174017235Y-73352765D01*
X174223560Y-73522092D01*
X174458955Y-73647914D01*
X174498797Y-73660000D01*
X174458955Y-73672086D01*
X174223560Y-73797908D01*
X174017235Y-73967235D01*
X173847908Y-74173560D01*
X173722086Y-74408955D01*
X173644606Y-74664374D01*
X173618444Y-74930000D01*
X173644606Y-75195626D01*
X173722086Y-75451045D01*
X173847908Y-75686440D01*
X174017235Y-75892765D01*
X174223560Y-76062092D01*
X174458955Y-76187914D01*
X174498797Y-76200000D01*
X174458955Y-76212086D01*
X174223560Y-76337908D01*
X174017235Y-76507235D01*
X173847908Y-76713560D01*
X173722086Y-76948955D01*
X173644606Y-77204374D01*
X173618444Y-77470000D01*
X173644606Y-77735626D01*
X173722086Y-77991045D01*
X173847908Y-78226440D01*
X174017235Y-78432765D01*
X174223560Y-78602092D01*
X174458955Y-78727914D01*
X174714374Y-78805394D01*
X174913436Y-78825000D01*
X175606564Y-78825000D01*
X175805626Y-78805394D01*
X176061045Y-78727914D01*
X176296440Y-78602092D01*
X176502765Y-78432765D01*
X176672092Y-78226440D01*
X176797914Y-77991045D01*
X176875394Y-77735626D01*
X176901556Y-77470000D01*
X176875394Y-77204374D01*
X176797914Y-76948955D01*
X176672092Y-76713560D01*
X176502765Y-76507235D01*
X176296440Y-76337908D01*
X176061045Y-76212086D01*
X176021203Y-76200000D01*
X176061045Y-76187914D01*
X176296440Y-76062092D01*
X176502765Y-75892765D01*
X176672092Y-75686440D01*
X176797914Y-75451045D01*
X176875394Y-75195626D01*
X176901556Y-74930000D01*
X176875394Y-74664374D01*
X176797914Y-74408955D01*
X176672092Y-74173560D01*
X176502765Y-73967235D01*
X176296440Y-73797908D01*
X176061045Y-73672086D01*
X176021203Y-73660000D01*
X176061045Y-73647914D01*
X176296440Y-73522092D01*
X176502765Y-73352765D01*
X176672092Y-73146440D01*
X176797914Y-72911045D01*
X176875394Y-72655626D01*
X176901556Y-72390000D01*
X176875394Y-72124374D01*
X176797914Y-71868955D01*
X176672092Y-71633560D01*
X176502765Y-71427235D01*
X176296440Y-71257908D01*
X176061045Y-71132086D01*
X176021203Y-71120000D01*
X176061045Y-71107914D01*
X176296440Y-70982092D01*
X176502765Y-70812765D01*
X176672092Y-70606440D01*
X176797914Y-70371045D01*
X176875394Y-70115626D01*
X176901556Y-69850000D01*
X176875394Y-69584374D01*
X176797914Y-69328955D01*
X176672092Y-69093560D01*
X176502765Y-68887235D01*
X176296440Y-68717908D01*
X176061045Y-68592086D01*
X176021203Y-68580000D01*
X176061045Y-68567914D01*
X176296440Y-68442092D01*
X176502765Y-68272765D01*
X176672092Y-68066440D01*
X176797914Y-67831045D01*
X176875394Y-67575626D01*
X176901556Y-67310000D01*
X176875394Y-67044374D01*
X176797914Y-66788955D01*
X176672092Y-66553560D01*
X176502765Y-66347235D01*
X176296440Y-66177908D01*
X176061045Y-66052086D01*
X176021203Y-66040000D01*
X176061045Y-66027914D01*
X176296440Y-65902092D01*
X176502765Y-65732765D01*
X176672092Y-65526440D01*
X176797914Y-65291045D01*
X176875394Y-65035626D01*
X176901556Y-64770000D01*
X176875394Y-64504374D01*
X176797914Y-64248955D01*
X176672092Y-64013560D01*
X176502765Y-63807235D01*
X176296440Y-63637908D01*
X176061045Y-63512086D01*
X176021203Y-63500000D01*
X176061045Y-63487914D01*
X176296440Y-63362092D01*
X176502765Y-63192765D01*
X176672092Y-62986440D01*
X176797914Y-62751045D01*
X176875394Y-62495626D01*
X176901556Y-62230000D01*
X176875394Y-61964374D01*
X176797914Y-61708955D01*
X176672092Y-61473560D01*
X176502765Y-61267235D01*
X176296440Y-61097908D01*
X176061045Y-60972086D01*
X176016241Y-60958495D01*
X176175869Y-60893256D01*
X176398395Y-60746084D01*
X176587933Y-60558327D01*
X176737199Y-60337201D01*
X176840458Y-60091203D01*
X176852559Y-60026472D01*
X176729489Y-59817000D01*
X175387000Y-59817000D01*
X175387000Y-59837000D01*
X175133000Y-59837000D01*
X175133000Y-59817000D01*
X173790511Y-59817000D01*
X173667441Y-60026472D01*
X173679542Y-60091203D01*
X173782801Y-60337201D01*
X173932067Y-60558327D01*
X174121605Y-60746084D01*
X174344131Y-60893256D01*
X174503759Y-60958495D01*
X174458955Y-60972086D01*
X174223560Y-61097908D01*
X174017235Y-61267235D01*
X173847908Y-61473560D01*
X173722086Y-61708955D01*
X173644606Y-61964374D01*
X173618444Y-62230000D01*
X169281556Y-62230000D01*
X169255394Y-61964374D01*
X169177914Y-61708955D01*
X169052092Y-61473560D01*
X168882765Y-61267235D01*
X168676440Y-61097908D01*
X168583204Y-61048072D01*
X168640000Y-61048072D01*
X168764482Y-61035812D01*
X168884180Y-60999502D01*
X168994494Y-60940537D01*
X169091185Y-60861185D01*
X169170537Y-60764494D01*
X169229502Y-60654180D01*
X169265812Y-60534482D01*
X169278072Y-60410000D01*
X169278072Y-59353528D01*
X173667441Y-59353528D01*
X173790511Y-59563000D01*
X175133000Y-59563000D01*
X175133000Y-58335000D01*
X175387000Y-58335000D01*
X175387000Y-59563000D01*
X176729489Y-59563000D01*
X176852559Y-59353528D01*
X176840458Y-59288797D01*
X176737199Y-59042799D01*
X176587933Y-58821673D01*
X176398395Y-58633916D01*
X176175869Y-58486744D01*
X175928907Y-58385812D01*
X175667000Y-58335000D01*
X175387000Y-58335000D01*
X175133000Y-58335000D01*
X174853000Y-58335000D01*
X174591093Y-58385812D01*
X174344131Y-58486744D01*
X174121605Y-58633916D01*
X173932067Y-58821673D01*
X173782801Y-59042799D01*
X173679542Y-59288797D01*
X173667441Y-59353528D01*
X169278072Y-59353528D01*
X169278072Y-58970000D01*
X169265812Y-58845518D01*
X169229502Y-58725820D01*
X169170537Y-58615506D01*
X169091185Y-58518815D01*
X168994494Y-58439463D01*
X168884180Y-58380498D01*
X168764482Y-58344188D01*
X168640000Y-58331928D01*
X166640000Y-58331928D01*
X166515518Y-58344188D01*
X166395820Y-58380498D01*
X166285506Y-58439463D01*
X166188815Y-58518815D01*
X166109463Y-58615506D01*
X166050498Y-58725820D01*
X166014188Y-58845518D01*
X166001928Y-58970000D01*
X166001928Y-60410000D01*
X166014188Y-60534482D01*
X166050498Y-60654180D01*
X166109463Y-60764494D01*
X166188815Y-60861185D01*
X166285506Y-60940537D01*
X166395820Y-60999502D01*
X166515518Y-61035812D01*
X166640000Y-61048072D01*
X166696796Y-61048072D01*
X166603560Y-61097908D01*
X166397235Y-61267235D01*
X166227908Y-61473560D01*
X166102086Y-61708955D01*
X166024606Y-61964374D01*
X165998444Y-62230000D01*
X166024606Y-62495626D01*
X166102086Y-62751045D01*
X166227908Y-62986440D01*
X166397235Y-63192765D01*
X166603560Y-63362092D01*
X166838955Y-63487914D01*
X166878797Y-63500000D01*
X166838955Y-63512086D01*
X166603560Y-63637908D01*
X166397235Y-63807235D01*
X166227908Y-64013560D01*
X166102086Y-64248955D01*
X166024606Y-64504374D01*
X165998444Y-64770000D01*
X166024606Y-65035626D01*
X166102086Y-65291045D01*
X166227908Y-65526440D01*
X166397235Y-65732765D01*
X166603560Y-65902092D01*
X166838955Y-66027914D01*
X166878797Y-66040000D01*
X166838955Y-66052086D01*
X166603560Y-66177908D01*
X166397235Y-66347235D01*
X166227908Y-66553560D01*
X166102086Y-66788955D01*
X166024606Y-67044374D01*
X165998444Y-67310000D01*
X166024606Y-67575626D01*
X166102086Y-67831045D01*
X166227908Y-68066440D01*
X166397235Y-68272765D01*
X166603560Y-68442092D01*
X166838955Y-68567914D01*
X166878797Y-68580000D01*
X166838955Y-68592086D01*
X166603560Y-68717908D01*
X166397235Y-68887235D01*
X166227908Y-69093560D01*
X166102086Y-69328955D01*
X166024606Y-69584374D01*
X165998444Y-69850000D01*
X166024606Y-70115626D01*
X166102086Y-70371045D01*
X166227908Y-70606440D01*
X166397235Y-70812765D01*
X166603560Y-70982092D01*
X166838955Y-71107914D01*
X166878797Y-71120000D01*
X166838955Y-71132086D01*
X166603560Y-71257908D01*
X166397235Y-71427235D01*
X166227908Y-71633560D01*
X166102086Y-71868955D01*
X166024606Y-72124374D01*
X165998444Y-72390000D01*
X166024606Y-72655626D01*
X166102086Y-72911045D01*
X166227908Y-73146440D01*
X166397235Y-73352765D01*
X166603560Y-73522092D01*
X166838955Y-73647914D01*
X166878797Y-73660000D01*
X166838955Y-73672086D01*
X166603560Y-73797908D01*
X166397235Y-73967235D01*
X166227908Y-74173560D01*
X166102086Y-74408955D01*
X166024606Y-74664374D01*
X165998444Y-74930000D01*
X166024606Y-75195626D01*
X166102086Y-75451045D01*
X166227908Y-75686440D01*
X166397235Y-75892765D01*
X166603560Y-76062092D01*
X166838955Y-76187914D01*
X166878797Y-76200000D01*
X166838955Y-76212086D01*
X166603560Y-76337908D01*
X166397235Y-76507235D01*
X166227908Y-76713560D01*
X166102086Y-76948955D01*
X166024606Y-77204374D01*
X165998444Y-77470000D01*
X166024606Y-77735626D01*
X166102086Y-77991045D01*
X166227908Y-78226440D01*
X166397235Y-78432765D01*
X166505894Y-78521940D01*
X166485002Y-78548711D01*
X166432773Y-78609259D01*
X166371011Y-78674131D01*
X163295850Y-81749292D01*
X163145138Y-81892781D01*
X162994867Y-82022405D01*
X162838423Y-82144496D01*
X162676184Y-82258756D01*
X162508516Y-82364932D01*
X162335846Y-82462748D01*
X162158582Y-82551975D01*
X161977171Y-82632390D01*
X161792008Y-82703815D01*
X161603575Y-82766065D01*
X161412311Y-82818994D01*
X161218694Y-82862473D01*
X161023148Y-82896404D01*
X160826198Y-82920694D01*
X160628281Y-82935293D01*
X160420271Y-82940400D01*
X156425570Y-82940400D01*
X156425000Y-82835750D01*
X156266250Y-82677000D01*
X155067000Y-82677000D01*
X155067000Y-82697000D01*
X154813000Y-82697000D01*
X154813000Y-82677000D01*
X154793000Y-82677000D01*
X154793000Y-82423000D01*
X154813000Y-82423000D01*
X154813000Y-81223750D01*
X155067000Y-81223750D01*
X155067000Y-82423000D01*
X156266250Y-82423000D01*
X156425000Y-82264250D01*
X156428072Y-81700000D01*
X156415812Y-81575518D01*
X156379502Y-81455820D01*
X156320537Y-81345506D01*
X156241185Y-81248815D01*
X156144494Y-81169463D01*
X156034180Y-81110498D01*
X155914482Y-81074188D01*
X155790000Y-81061928D01*
X155225750Y-81065000D01*
X155067000Y-81223750D01*
X154813000Y-81223750D01*
X154654250Y-81065000D01*
X154090000Y-81061928D01*
X154033549Y-81067488D01*
X154043302Y-81045230D01*
X154048683Y-81034909D01*
X154058277Y-81011054D01*
X154068595Y-80987507D01*
X154072198Y-80976441D01*
X154098736Y-80910460D01*
X154103799Y-80899977D01*
X154112656Y-80875849D01*
X154122250Y-80851994D01*
X154125516Y-80840815D01*
X154150019Y-80774060D01*
X154154765Y-80763416D01*
X154162886Y-80739008D01*
X154171737Y-80714896D01*
X154174657Y-80703631D01*
X154197114Y-80636138D01*
X154201524Y-80625372D01*
X154208888Y-80600751D01*
X154217009Y-80576343D01*
X154219585Y-80564985D01*
X154239959Y-80496865D01*
X154244043Y-80485955D01*
X154250656Y-80461100D01*
X154258018Y-80436484D01*
X154260244Y-80425061D01*
X154278531Y-80356326D01*
X154282278Y-80345300D01*
X154288124Y-80320268D01*
X154294733Y-80295427D01*
X154296610Y-80283934D01*
X154312782Y-80214684D01*
X154316191Y-80203548D01*
X154321271Y-80178336D01*
X154327116Y-80153310D01*
X154328639Y-80141771D01*
X154342686Y-80072061D01*
X154345752Y-80060828D01*
X154350059Y-80035471D01*
X154355136Y-80010277D01*
X154356305Y-79998701D01*
X154368217Y-79928579D01*
X154370938Y-79917254D01*
X154374464Y-79891800D01*
X154378769Y-79866457D01*
X154379585Y-79854834D01*
X154389343Y-79784395D01*
X154391716Y-79772994D01*
X154394465Y-79747418D01*
X154397991Y-79721964D01*
X154398450Y-79710340D01*
X154406051Y-79639619D01*
X154408073Y-79628162D01*
X154410036Y-79602545D01*
X154412785Y-79576969D01*
X154412889Y-79565320D01*
X154418321Y-79494424D01*
X154419994Y-79482895D01*
X154421174Y-79457203D01*
X154423137Y-79431584D01*
X154422885Y-79419948D01*
X154426147Y-79348894D01*
X154427465Y-79337333D01*
X154427858Y-79311638D01*
X154429038Y-79285947D01*
X154428429Y-79274319D01*
X154429429Y-79209037D01*
X154430000Y-79203235D01*
X154430000Y-79171696D01*
X154430482Y-79140202D01*
X154430000Y-79134400D01*
X154430000Y-71300223D01*
X154492257Y-71326011D01*
X154788816Y-71385000D01*
X155091184Y-71385000D01*
X155387743Y-71326011D01*
X155667095Y-71210299D01*
X155918505Y-71042312D01*
X156132312Y-70828505D01*
X156300299Y-70577095D01*
X156416011Y-70297743D01*
X156475000Y-70001184D01*
X156475000Y-69698816D01*
X156423731Y-69441070D01*
X157715599Y-68149202D01*
X157722674Y-68143099D01*
X157741981Y-68122820D01*
X157761785Y-68103016D01*
X157767715Y-68095791D01*
X157898976Y-67957921D01*
X157912494Y-67945051D01*
X157924688Y-67930914D01*
X157937573Y-67917381D01*
X157949066Y-67902654D01*
X158079495Y-67751450D01*
X158092371Y-67737926D01*
X158103860Y-67723205D01*
X158116060Y-67709061D01*
X158126815Y-67693790D01*
X158249669Y-67536366D01*
X158261866Y-67522227D01*
X158272619Y-67506959D01*
X158284112Y-67492232D01*
X158294104Y-67476453D01*
X158409083Y-67313196D01*
X158420577Y-67298468D01*
X158430572Y-67282684D01*
X158441321Y-67267422D01*
X158450523Y-67251179D01*
X158557369Y-67082451D01*
X158568116Y-67067191D01*
X158577315Y-67050952D01*
X158587313Y-67035164D01*
X158595716Y-67018470D01*
X158694140Y-66844728D01*
X158704128Y-66828955D01*
X158712522Y-66812280D01*
X158721731Y-66796023D01*
X158729301Y-66778944D01*
X158819079Y-66600589D01*
X158828288Y-66584332D01*
X158835860Y-66567250D01*
X158844253Y-66550576D01*
X158850972Y-66533158D01*
X158931902Y-66350582D01*
X158940295Y-66333909D01*
X158947014Y-66316492D01*
X158954585Y-66299411D01*
X158960446Y-66281670D01*
X159032311Y-66095367D01*
X159039880Y-66078292D01*
X159045738Y-66060560D01*
X159052459Y-66043136D01*
X159057440Y-66025136D01*
X159120079Y-65835525D01*
X159126800Y-65818101D01*
X159131782Y-65800100D01*
X159137640Y-65782366D01*
X159141731Y-65764146D01*
X159194993Y-65571684D01*
X159200850Y-65553954D01*
X159204942Y-65535733D01*
X159209923Y-65517733D01*
X159213116Y-65499332D01*
X159256869Y-65304495D01*
X159261850Y-65286495D01*
X159265043Y-65268092D01*
X159269135Y-65249871D01*
X159271421Y-65231339D01*
X159305563Y-65034572D01*
X159309653Y-65016360D01*
X159311938Y-64997836D01*
X159315132Y-64979427D01*
X159316506Y-64960795D01*
X159340951Y-64762606D01*
X159344143Y-64744208D01*
X159345517Y-64725584D01*
X159347803Y-64707048D01*
X159348261Y-64688379D01*
X159362952Y-64489219D01*
X159365237Y-64470695D01*
X159365695Y-64452033D01*
X159367070Y-64433396D01*
X159366611Y-64414720D01*
X159371284Y-64224438D01*
X159372200Y-64215133D01*
X159372200Y-64187113D01*
X159372887Y-64159134D01*
X159372200Y-64149820D01*
X159372200Y-46610178D01*
X159372887Y-46600864D01*
X159372200Y-46572888D01*
X159372200Y-46544867D01*
X159371283Y-46535560D01*
X159369520Y-46463734D01*
X159369978Y-46445063D01*
X159368603Y-46426428D01*
X159368145Y-46407761D01*
X159365860Y-46389236D01*
X159359886Y-46308254D01*
X159359428Y-46289585D01*
X159357142Y-46271049D01*
X159355768Y-46252425D01*
X159352575Y-46234026D01*
X159342636Y-46153438D01*
X159341262Y-46134814D01*
X159338069Y-46116412D01*
X159335783Y-46097878D01*
X159331692Y-46079658D01*
X159317809Y-45999650D01*
X159315523Y-45981117D01*
X159311432Y-45962900D01*
X159308239Y-45944497D01*
X159303257Y-45926494D01*
X159285468Y-45847277D01*
X159282275Y-45828874D01*
X159277293Y-45810869D01*
X159273201Y-45792649D01*
X159267345Y-45774923D01*
X159245688Y-45696662D01*
X159241596Y-45678441D01*
X159235739Y-45660711D01*
X159230757Y-45642709D01*
X159224034Y-45625280D01*
X159198567Y-45548192D01*
X159193584Y-45530185D01*
X159186859Y-45512752D01*
X159181004Y-45495028D01*
X159173439Y-45477962D01*
X159144212Y-45402195D01*
X159138357Y-45384470D01*
X159130790Y-45367398D01*
X159124066Y-45349968D01*
X159115668Y-45333284D01*
X159082766Y-45259059D01*
X159076044Y-45241632D01*
X159067648Y-45224952D01*
X159060080Y-45207879D01*
X159050874Y-45191628D01*
X159014369Y-45119106D01*
X159006799Y-45102028D01*
X158997590Y-45085772D01*
X158989196Y-45069096D01*
X158979208Y-45053323D01*
X158939188Y-44982679D01*
X158930788Y-44965990D01*
X158920791Y-44950202D01*
X158911590Y-44933961D01*
X158900843Y-44918701D01*
X158862063Y-44857462D01*
X158915000Y-44591335D01*
X158915000Y-44308665D01*
X158859853Y-44031426D01*
X158751680Y-43770273D01*
X158710717Y-43708967D01*
X169815000Y-43708967D01*
X169815000Y-44031033D01*
X169877832Y-44346912D01*
X170001082Y-44644463D01*
X170180013Y-44912252D01*
X170407748Y-45139987D01*
X170675537Y-45318918D01*
X170973088Y-45442168D01*
X171288967Y-45505000D01*
X171611033Y-45505000D01*
X171926912Y-45442168D01*
X172224463Y-45318918D01*
X172492252Y-45139987D01*
X172719987Y-44912252D01*
X172898918Y-44644463D01*
X173022168Y-44346912D01*
X173085000Y-44031033D01*
X173085000Y-43708967D01*
X176315000Y-43708967D01*
X176315000Y-44031033D01*
X176377832Y-44346912D01*
X176501082Y-44644463D01*
X176680013Y-44912252D01*
X176907748Y-45139987D01*
X177175537Y-45318918D01*
X177473088Y-45442168D01*
X177788967Y-45505000D01*
X178111033Y-45505000D01*
X178426912Y-45442168D01*
X178724463Y-45318918D01*
X178992252Y-45139987D01*
X179219987Y-44912252D01*
X179398918Y-44644463D01*
X179522168Y-44346912D01*
X179585000Y-44031033D01*
X179585000Y-43708967D01*
X179522168Y-43393088D01*
X179398918Y-43095537D01*
X179219987Y-42827748D01*
X178992252Y-42600013D01*
X178724463Y-42421082D01*
X178426912Y-42297832D01*
X178111033Y-42235000D01*
X177788967Y-42235000D01*
X177473088Y-42297832D01*
X177175537Y-42421082D01*
X176907748Y-42600013D01*
X176680013Y-42827748D01*
X176501082Y-43095537D01*
X176377832Y-43393088D01*
X176315000Y-43708967D01*
X173085000Y-43708967D01*
X173022168Y-43393088D01*
X172898918Y-43095537D01*
X172719987Y-42827748D01*
X172492252Y-42600013D01*
X172224463Y-42421082D01*
X171926912Y-42297832D01*
X171611033Y-42235000D01*
X171288967Y-42235000D01*
X170973088Y-42297832D01*
X170675537Y-42421082D01*
X170407748Y-42600013D01*
X170180013Y-42827748D01*
X170001082Y-43095537D01*
X169877832Y-43393088D01*
X169815000Y-43708967D01*
X158710717Y-43708967D01*
X158594637Y-43535241D01*
X158394759Y-43335363D01*
X158159727Y-43178320D01*
X157898574Y-43070147D01*
X157621335Y-43015000D01*
X157338665Y-43015000D01*
X157061426Y-43070147D01*
X156800273Y-43178320D01*
X156565241Y-43335363D01*
X156365363Y-43535241D01*
X156208320Y-43770273D01*
X156100147Y-44031426D01*
X156045000Y-44308665D01*
X156045000Y-44591335D01*
X156100147Y-44868574D01*
X156208320Y-45129727D01*
X156365363Y-45364759D01*
X156565241Y-45564637D01*
X156800273Y-45721680D01*
X157061426Y-45829853D01*
X157338665Y-45885000D01*
X157621335Y-45885000D01*
X157691194Y-45871104D01*
X157693170Y-45875028D01*
X157726065Y-45949239D01*
X157755291Y-46025004D01*
X157780749Y-46102065D01*
X157802405Y-46180323D01*
X157820191Y-46259526D01*
X157834068Y-46339502D01*
X157844005Y-46420073D01*
X157849978Y-46501047D01*
X157852201Y-46591552D01*
X157852201Y-48140923D01*
X157621335Y-48095000D01*
X157338665Y-48095000D01*
X157061426Y-48150147D01*
X156800273Y-48258320D01*
X156565241Y-48415363D01*
X156365363Y-48615241D01*
X156208320Y-48850273D01*
X156100147Y-49111426D01*
X156045000Y-49388665D01*
X156045000Y-49671335D01*
X156100147Y-49948574D01*
X156208320Y-50209727D01*
X156365363Y-50444759D01*
X156565241Y-50644637D01*
X156720000Y-50748043D01*
X156720001Y-62490647D01*
X156717778Y-62581152D01*
X156711805Y-62662126D01*
X156701868Y-62742697D01*
X156687992Y-62822667D01*
X156670204Y-62901878D01*
X156648549Y-62980133D01*
X156623085Y-63057212D01*
X156593875Y-63132938D01*
X156560970Y-63207168D01*
X156524470Y-63279683D01*
X156484456Y-63350316D01*
X156441025Y-63418902D01*
X156394285Y-63485268D01*
X156344329Y-63549280D01*
X156291301Y-63610755D01*
X156228934Y-63676262D01*
X153859504Y-66045694D01*
X153852423Y-66051802D01*
X153833092Y-66072106D01*
X153813307Y-66091891D01*
X153807385Y-66099107D01*
X153757831Y-66151155D01*
X153744307Y-66164031D01*
X153732108Y-66178172D01*
X153719230Y-66191699D01*
X153707742Y-66206420D01*
X153654702Y-66267906D01*
X153641824Y-66281433D01*
X153630337Y-66296152D01*
X153618139Y-66310293D01*
X153607383Y-66325565D01*
X153557432Y-66389572D01*
X153545232Y-66403715D01*
X153534475Y-66418989D01*
X153522985Y-66433712D01*
X153512995Y-66449488D01*
X153466240Y-66515875D01*
X153454751Y-66530597D01*
X153444769Y-66546361D01*
X153434008Y-66561641D01*
X153424803Y-66577889D01*
X153381356Y-66646500D01*
X153370608Y-66661761D01*
X153361407Y-66678003D01*
X153351410Y-66693790D01*
X153343010Y-66710479D01*
X153302997Y-66781111D01*
X153293001Y-66796896D01*
X153284600Y-66813586D01*
X153275399Y-66829828D01*
X153267834Y-66846894D01*
X153231322Y-66919433D01*
X153222118Y-66935679D01*
X153214551Y-66952751D01*
X153206154Y-66969432D01*
X153199433Y-66986855D01*
X153166527Y-67061090D01*
X153158132Y-67077768D01*
X153151411Y-67095191D01*
X153143841Y-67112269D01*
X153137983Y-67130001D01*
X153108758Y-67205764D01*
X153101194Y-67222828D01*
X153095340Y-67240550D01*
X153088614Y-67257985D01*
X153083630Y-67275996D01*
X153058167Y-67353073D01*
X153051441Y-67370510D01*
X153046456Y-67388523D01*
X153040603Y-67406241D01*
X153036514Y-67424449D01*
X153014854Y-67502719D01*
X153008997Y-67520449D01*
X153004905Y-67538670D01*
X152999923Y-67556674D01*
X152996730Y-67575076D01*
X152978940Y-67654300D01*
X152973959Y-67672298D01*
X152970767Y-67690696D01*
X152966675Y-67708917D01*
X152964389Y-67727453D01*
X152950507Y-67807456D01*
X152946415Y-67825678D01*
X152944129Y-67844215D01*
X152940936Y-67862615D01*
X152939562Y-67881237D01*
X152929623Y-67961824D01*
X152926430Y-67980225D01*
X152925056Y-67998852D01*
X152922770Y-68017386D01*
X152922312Y-68036054D01*
X152916338Y-68117040D01*
X152914052Y-68135574D01*
X152913594Y-68154238D01*
X152912220Y-68172864D01*
X152912679Y-68191539D01*
X152910915Y-68263383D01*
X152910001Y-68272667D01*
X152910001Y-68300643D01*
X152909724Y-68311928D01*
X151915788Y-68311928D01*
X151917760Y-68229626D01*
X151923595Y-68149922D01*
X151933335Y-68070614D01*
X151946962Y-67991856D01*
X151964436Y-67913882D01*
X151985719Y-67836857D01*
X152010759Y-67760968D01*
X152039497Y-67686396D01*
X152071862Y-67613325D01*
X152107777Y-67541930D01*
X152147145Y-67472403D01*
X152189884Y-67404885D01*
X152235897Y-67339531D01*
X152285054Y-67276531D01*
X152337246Y-67216019D01*
X152398998Y-67151158D01*
X153497567Y-66052590D01*
X153504891Y-66046271D01*
X153524779Y-66025378D01*
X153545238Y-66004919D01*
X153551393Y-65997419D01*
X153599901Y-65946460D01*
X153613916Y-65933110D01*
X153626479Y-65918539D01*
X153639734Y-65904614D01*
X153651632Y-65889365D01*
X153703914Y-65828725D01*
X153717247Y-65814710D01*
X153729061Y-65799560D01*
X153741623Y-65784989D01*
X153752769Y-65769154D01*
X153801987Y-65706035D01*
X153814622Y-65691370D01*
X153825688Y-65675639D01*
X153837507Y-65660481D01*
X153847851Y-65644131D01*
X153893909Y-65578654D01*
X153905808Y-65563384D01*
X153916086Y-65547127D01*
X153927143Y-65531408D01*
X153936668Y-65514571D01*
X153979459Y-65446887D01*
X153990583Y-65431062D01*
X154000039Y-65414334D01*
X154010318Y-65398076D01*
X154019010Y-65380775D01*
X154058403Y-65311091D01*
X154068742Y-65294726D01*
X154077368Y-65277543D01*
X154086828Y-65260809D01*
X154094655Y-65243109D01*
X154130569Y-65171569D01*
X154140093Y-65154709D01*
X154147866Y-65137114D01*
X154156487Y-65119942D01*
X154163431Y-65101884D01*
X154195785Y-65028649D01*
X154204459Y-65011358D01*
X154211355Y-64993408D01*
X154219127Y-64975815D01*
X154225174Y-64957433D01*
X154253882Y-64882704D01*
X154261698Y-64864998D01*
X154267701Y-64846730D01*
X154274592Y-64828793D01*
X154279727Y-64810138D01*
X154304728Y-64734061D01*
X154311658Y-64716003D01*
X154316750Y-64697478D01*
X154322757Y-64679200D01*
X154326970Y-64660300D01*
X154348185Y-64583123D01*
X154354223Y-64564730D01*
X154358401Y-64545959D01*
X154363496Y-64527424D01*
X154366772Y-64508350D01*
X154384165Y-64430206D01*
X154389289Y-64411541D01*
X154392537Y-64392590D01*
X154396713Y-64373829D01*
X154399045Y-64354621D01*
X154412570Y-64275714D01*
X154416769Y-64256821D01*
X154419081Y-64237729D01*
X154422329Y-64218779D01*
X154423713Y-64199479D01*
X154433338Y-64119997D01*
X154436600Y-64100926D01*
X154437968Y-64081756D01*
X154440280Y-64062666D01*
X154440712Y-64043312D01*
X154446411Y-63963467D01*
X154448732Y-63944253D01*
X154449155Y-63925025D01*
X154450524Y-63905849D01*
X154450003Y-63886509D01*
X154451552Y-63816146D01*
X154452476Y-63806506D01*
X154452400Y-63777610D01*
X154453036Y-63748729D01*
X154452299Y-63739075D01*
X154445504Y-61146645D01*
X154492257Y-61166011D01*
X154788816Y-61225000D01*
X155091184Y-61225000D01*
X155387743Y-61166011D01*
X155667095Y-61050299D01*
X155918505Y-60882312D01*
X156132312Y-60668505D01*
X156300299Y-60417095D01*
X156416011Y-60137743D01*
X156475000Y-59841184D01*
X156475000Y-59538816D01*
X156416011Y-59242257D01*
X156300299Y-58962905D01*
X156132312Y-58711495D01*
X155918505Y-58497688D01*
X155700000Y-58351687D01*
X155700000Y-45044618D01*
X155705128Y-44835677D01*
X155719817Y-44636548D01*
X155744262Y-44438359D01*
X155778395Y-44241642D01*
X155822147Y-44046807D01*
X155875405Y-43854355D01*
X155938038Y-43664762D01*
X156009902Y-43478462D01*
X156090816Y-43295926D01*
X156180602Y-43117552D01*
X156279013Y-42943832D01*
X156385844Y-42775128D01*
X156500823Y-42611870D01*
X156623665Y-42454461D01*
X156754088Y-42303264D01*
X156898223Y-42151877D01*
X157290513Y-41759587D01*
X157297581Y-41753490D01*
X157316867Y-41733233D01*
X157336692Y-41713408D01*
X157342627Y-41706176D01*
X157392166Y-41654142D01*
X157405693Y-41641264D01*
X157417896Y-41627118D01*
X157430773Y-41613592D01*
X157442259Y-41598874D01*
X157495288Y-41537398D01*
X157508171Y-41523867D01*
X157519667Y-41509136D01*
X157531861Y-41495000D01*
X157542610Y-41479737D01*
X157592573Y-41415716D01*
X157604765Y-41401582D01*
X157615514Y-41386320D01*
X157627010Y-41371589D01*
X157637005Y-41355805D01*
X157683755Y-41289425D01*
X157695244Y-41274704D01*
X157705234Y-41258928D01*
X157715990Y-41243656D01*
X157725197Y-41227404D01*
X157768638Y-41158803D01*
X157779391Y-41143535D01*
X157788593Y-41127291D01*
X157798585Y-41111512D01*
X157806986Y-41094823D01*
X157847005Y-41024179D01*
X157856995Y-41008402D01*
X157865393Y-40991717D01*
X157874599Y-40975467D01*
X157882165Y-40958398D01*
X157918672Y-40885872D01*
X157927878Y-40869621D01*
X157935446Y-40852547D01*
X157943843Y-40835866D01*
X157950564Y-40818442D01*
X157983474Y-40744199D01*
X157991865Y-40727529D01*
X157998580Y-40710120D01*
X157999498Y-40708049D01*
X158159727Y-40641680D01*
X158363665Y-40505413D01*
X170494192Y-40505413D01*
X170589956Y-40769814D01*
X170879571Y-40910704D01*
X171191108Y-40992384D01*
X171512595Y-41011718D01*
X171831675Y-40967961D01*
X172136088Y-40862795D01*
X172310044Y-40769814D01*
X172405808Y-40505413D01*
X176994192Y-40505413D01*
X177089956Y-40769814D01*
X177379571Y-40910704D01*
X177691108Y-40992384D01*
X178012595Y-41011718D01*
X178331675Y-40967961D01*
X178636088Y-40862795D01*
X178810044Y-40769814D01*
X178905808Y-40505413D01*
X177950000Y-39549605D01*
X176994192Y-40505413D01*
X172405808Y-40505413D01*
X171450000Y-39549605D01*
X170494192Y-40505413D01*
X158363665Y-40505413D01*
X158394759Y-40484637D01*
X158594637Y-40284759D01*
X158751680Y-40049727D01*
X158859853Y-39788574D01*
X158915000Y-39511335D01*
X158915000Y-39432595D01*
X169808282Y-39432595D01*
X169852039Y-39751675D01*
X169957205Y-40056088D01*
X170050186Y-40230044D01*
X170314587Y-40325808D01*
X171270395Y-39370000D01*
X171629605Y-39370000D01*
X172585413Y-40325808D01*
X172849814Y-40230044D01*
X172990704Y-39940429D01*
X173072384Y-39628892D01*
X173084189Y-39432595D01*
X176308282Y-39432595D01*
X176352039Y-39751675D01*
X176457205Y-40056088D01*
X176550186Y-40230044D01*
X176814587Y-40325808D01*
X177770395Y-39370000D01*
X178129605Y-39370000D01*
X179085413Y-40325808D01*
X179349814Y-40230044D01*
X179490704Y-39940429D01*
X179572384Y-39628892D01*
X179591718Y-39307405D01*
X179547961Y-38988325D01*
X179442795Y-38683912D01*
X179349814Y-38509956D01*
X179085413Y-38414192D01*
X178129605Y-39370000D01*
X177770395Y-39370000D01*
X176814587Y-38414192D01*
X176550186Y-38509956D01*
X176409296Y-38799571D01*
X176327616Y-39111108D01*
X176308282Y-39432595D01*
X173084189Y-39432595D01*
X173091718Y-39307405D01*
X173047961Y-38988325D01*
X172942795Y-38683912D01*
X172849814Y-38509956D01*
X172585413Y-38414192D01*
X171629605Y-39370000D01*
X171270395Y-39370000D01*
X170314587Y-38414192D01*
X170050186Y-38509956D01*
X169909296Y-38799571D01*
X169827616Y-39111108D01*
X169808282Y-39432595D01*
X158915000Y-39432595D01*
X158915000Y-39228665D01*
X158859853Y-38951426D01*
X158751680Y-38690273D01*
X158594637Y-38455241D01*
X158394759Y-38255363D01*
X158363666Y-38234587D01*
X170494192Y-38234587D01*
X171450000Y-39190395D01*
X172405808Y-38234587D01*
X176994192Y-38234587D01*
X177950000Y-39190395D01*
X178905808Y-38234587D01*
X178810044Y-37970186D01*
X178520429Y-37829296D01*
X178208892Y-37747616D01*
X177887405Y-37728282D01*
X177568325Y-37772039D01*
X177263912Y-37877205D01*
X177089956Y-37970186D01*
X176994192Y-38234587D01*
X172405808Y-38234587D01*
X172310044Y-37970186D01*
X172020429Y-37829296D01*
X171708892Y-37747616D01*
X171387405Y-37728282D01*
X171068325Y-37772039D01*
X170763912Y-37877205D01*
X170589956Y-37970186D01*
X170494192Y-38234587D01*
X158363666Y-38234587D01*
X158159727Y-38098320D01*
X157898574Y-37990147D01*
X157621335Y-37935000D01*
X157338665Y-37935000D01*
X157061426Y-37990147D01*
X156800273Y-38098320D01*
X156565241Y-38255363D01*
X156365363Y-38455241D01*
X156208320Y-38690273D01*
X156100147Y-38951426D01*
X156045000Y-39228665D01*
X156045000Y-39511335D01*
X156100147Y-39788574D01*
X156208320Y-40049727D01*
X156365363Y-40284759D01*
X156461877Y-40381273D01*
X156441027Y-40414198D01*
X156394284Y-40480568D01*
X156344328Y-40544580D01*
X156291300Y-40606055D01*
X156228894Y-40671603D01*
X155836599Y-41063898D01*
X155829532Y-41069994D01*
X155810234Y-41090263D01*
X155790413Y-41110084D01*
X155784484Y-41117309D01*
X155653225Y-41255172D01*
X155639703Y-41268046D01*
X155627512Y-41282179D01*
X155614630Y-41295709D01*
X155603134Y-41310440D01*
X155472702Y-41461647D01*
X155459826Y-41475171D01*
X155448337Y-41489892D01*
X155436137Y-41504036D01*
X155425382Y-41519307D01*
X155302525Y-41676734D01*
X155290328Y-41690874D01*
X155279577Y-41706140D01*
X155268085Y-41720865D01*
X155258092Y-41736646D01*
X155143110Y-41899909D01*
X155131621Y-41914630D01*
X155121629Y-41930408D01*
X155110874Y-41945680D01*
X155101669Y-41961930D01*
X154994833Y-42130642D01*
X154984082Y-42145907D01*
X154974878Y-42162154D01*
X154964885Y-42177935D01*
X154956488Y-42194617D01*
X154858061Y-42368365D01*
X154848069Y-42384144D01*
X154839672Y-42400826D01*
X154830467Y-42417075D01*
X154822899Y-42434147D01*
X154733111Y-42612525D01*
X154723911Y-42628766D01*
X154716346Y-42645831D01*
X154707944Y-42662524D01*
X154701220Y-42679955D01*
X154620299Y-42862508D01*
X154611903Y-42879189D01*
X154605183Y-42896609D01*
X154597614Y-42913685D01*
X154591755Y-42931421D01*
X154519883Y-43117740D01*
X154512319Y-43134805D01*
X154506464Y-43152527D01*
X154499739Y-43169962D01*
X154494755Y-43187971D01*
X154432120Y-43377571D01*
X154425397Y-43395000D01*
X154420415Y-43413002D01*
X154414558Y-43430732D01*
X154410467Y-43448951D01*
X154357208Y-43641405D01*
X154351347Y-43659145D01*
X154347253Y-43677375D01*
X154342274Y-43695368D01*
X154339082Y-43713762D01*
X154295328Y-43908613D01*
X154290348Y-43926607D01*
X154287156Y-43945002D01*
X154283063Y-43963230D01*
X154280776Y-43981770D01*
X154246639Y-44178508D01*
X154242546Y-44196736D01*
X154240258Y-44215284D01*
X154237067Y-44233676D01*
X154235694Y-44252288D01*
X154211247Y-44450494D01*
X154208055Y-44468891D01*
X154206682Y-44487511D01*
X154204395Y-44506049D01*
X154203937Y-44524722D01*
X154189246Y-44723876D01*
X154186960Y-44742411D01*
X154186502Y-44761080D01*
X154185128Y-44779704D01*
X154185586Y-44798374D01*
X154180916Y-44988670D01*
X154180000Y-44997968D01*
X154180000Y-45025982D01*
X154179313Y-45053973D01*
X154180000Y-45063286D01*
X154180001Y-55764617D01*
X154061492Y-55236873D01*
X154058193Y-55217862D01*
X154053047Y-55199267D01*
X154048822Y-55180452D01*
X154042773Y-55162142D01*
X153895024Y-54628248D01*
X153890798Y-54609427D01*
X153884747Y-54591109D01*
X153879602Y-54572519D01*
X153872661Y-54554525D01*
X153698896Y-54028534D01*
X153693750Y-54009937D01*
X153686806Y-53991934D01*
X153680757Y-53973625D01*
X153672943Y-53955997D01*
X153473575Y-53439155D01*
X153467525Y-53420841D01*
X153459708Y-53403207D01*
X153452765Y-53385207D01*
X153444092Y-53367976D01*
X153219612Y-52861557D01*
X153212666Y-52843551D01*
X153203989Y-52826312D01*
X153196176Y-52808687D01*
X153186673Y-52791912D01*
X152937605Y-52297100D01*
X152929787Y-52279463D01*
X152920278Y-52262677D01*
X152911606Y-52245449D01*
X152901288Y-52229155D01*
X152628251Y-51747178D01*
X152619572Y-51729935D01*
X152609242Y-51713623D01*
X152599743Y-51696854D01*
X152588646Y-51681097D01*
X152292275Y-51213077D01*
X152282765Y-51196289D01*
X152271654Y-51180512D01*
X152261338Y-51164222D01*
X152249476Y-51149022D01*
X151930509Y-50696127D01*
X151920180Y-50679815D01*
X151908298Y-50664590D01*
X151897203Y-50648836D01*
X151884619Y-50634248D01*
X151543788Y-50197514D01*
X151532688Y-50181753D01*
X151520096Y-50167155D01*
X151508221Y-50151939D01*
X151494913Y-50137961D01*
X151257035Y-49862195D01*
X151295000Y-49671335D01*
X151295000Y-49388665D01*
X151239853Y-49111426D01*
X151131680Y-48850273D01*
X150974637Y-48615241D01*
X150774759Y-48415363D01*
X150645000Y-48328661D01*
X150645000Y-45651339D01*
X150774759Y-45564637D01*
X150974637Y-45364759D01*
X151131680Y-45129727D01*
X151239853Y-44868574D01*
X151295000Y-44591335D01*
X151295000Y-44308665D01*
X151239853Y-44031426D01*
X151131680Y-43770273D01*
X150974637Y-43535241D01*
X150774759Y-43335363D01*
X150645000Y-43248661D01*
X150645000Y-40571339D01*
X150774759Y-40484637D01*
X150974637Y-40284759D01*
X151131680Y-40049727D01*
X151239853Y-39788574D01*
X151295000Y-39511335D01*
X151295000Y-39228665D01*
X151239853Y-38951426D01*
X151131680Y-38690273D01*
X150974637Y-38455241D01*
X150774759Y-38255363D01*
X150539727Y-38098320D01*
X150278574Y-37990147D01*
X150001335Y-37935000D01*
X149718665Y-37935000D01*
X149441426Y-37990147D01*
X149180273Y-38098320D01*
X148945241Y-38255363D01*
X148745363Y-38455241D01*
X148588320Y-38690273D01*
X148480147Y-38951426D01*
X148425000Y-39228665D01*
X148425000Y-39511335D01*
X148480147Y-39788574D01*
X148588320Y-40049727D01*
X148745363Y-40284759D01*
X148945241Y-40484637D01*
X149075001Y-40571339D01*
X149075000Y-43248661D01*
X148945241Y-43335363D01*
X148745363Y-43535241D01*
X148588320Y-43770273D01*
X148480147Y-44031426D01*
X148425000Y-44308665D01*
X148425000Y-44591335D01*
X148480147Y-44868574D01*
X148588320Y-45129727D01*
X148745363Y-45364759D01*
X148945241Y-45564637D01*
X149075000Y-45651339D01*
X149075001Y-48328661D01*
X148945241Y-48415363D01*
X148745363Y-48615241D01*
X148588320Y-48850273D01*
X148480147Y-49111426D01*
X148425000Y-49388665D01*
X148425000Y-49671335D01*
X148455446Y-49824396D01*
X146208831Y-52071011D01*
X146143949Y-52132782D01*
X146083421Y-52184994D01*
X146020370Y-52234199D01*
X145955006Y-52280235D01*
X145887471Y-52323000D01*
X145817899Y-52362413D01*
X145815299Y-52363722D01*
X145686727Y-52235150D01*
X145453759Y-52079486D01*
X145430858Y-52070000D01*
X145453759Y-52060514D01*
X145686727Y-51904850D01*
X145884850Y-51706727D01*
X146040514Y-51473759D01*
X146147738Y-51214899D01*
X146202400Y-50940094D01*
X146202400Y-50659906D01*
X146147738Y-50385101D01*
X146040514Y-50126241D01*
X145884850Y-49893273D01*
X145686727Y-49695150D01*
X145453759Y-49539486D01*
X145431755Y-49530372D01*
X145514043Y-49486388D01*
X145584100Y-49243705D01*
X144780000Y-48439605D01*
X143975900Y-49243705D01*
X144045957Y-49486388D01*
X144134028Y-49527976D01*
X144106241Y-49539486D01*
X143873273Y-49695150D01*
X143675150Y-49893273D01*
X143519486Y-50126241D01*
X143412262Y-50385101D01*
X143357600Y-50659906D01*
X143357600Y-50940094D01*
X143412262Y-51214899D01*
X143519486Y-51473759D01*
X143675150Y-51706727D01*
X143873273Y-51904850D01*
X144106241Y-52060514D01*
X144129142Y-52070000D01*
X144106241Y-52079486D01*
X143873273Y-52235150D01*
X143675150Y-52433273D01*
X143519486Y-52666241D01*
X143412262Y-52925101D01*
X143357600Y-53199906D01*
X143357600Y-53480094D01*
X143412262Y-53754899D01*
X143519486Y-54013759D01*
X143675150Y-54246727D01*
X143873273Y-54444850D01*
X144106241Y-54600514D01*
X144129142Y-54610000D01*
X144106241Y-54619486D01*
X143873273Y-54775150D01*
X143675150Y-54973273D01*
X143519486Y-55206241D01*
X143412262Y-55465101D01*
X143357600Y-55739906D01*
X143357600Y-56020094D01*
X143412262Y-56294899D01*
X143519486Y-56553759D01*
X143675150Y-56786727D01*
X143873273Y-56984850D01*
X144106241Y-57140514D01*
X144129142Y-57150000D01*
X144106241Y-57159486D01*
X143873273Y-57315150D01*
X143675150Y-57513273D01*
X143519486Y-57746241D01*
X143412262Y-58005101D01*
X143357600Y-58279906D01*
X143357600Y-58560094D01*
X143412262Y-58834899D01*
X143451654Y-58930000D01*
X142997986Y-58930000D01*
X142988673Y-58929313D01*
X142960683Y-58930000D01*
X142932667Y-58930000D01*
X142923368Y-58930916D01*
X142733074Y-58935586D01*
X142714403Y-58935128D01*
X142695779Y-58936502D01*
X142677111Y-58936960D01*
X142658577Y-58939246D01*
X142459422Y-58953937D01*
X142440748Y-58954395D01*
X142422209Y-58956682D01*
X142403591Y-58958055D01*
X142385196Y-58961247D01*
X142186989Y-58985694D01*
X142168375Y-58987067D01*
X142149981Y-58990259D01*
X142131436Y-58992546D01*
X142113211Y-58996639D01*
X141916474Y-59030776D01*
X141897928Y-59033063D01*
X141879694Y-59037158D01*
X141861307Y-59040348D01*
X141843320Y-59045326D01*
X141648463Y-59089082D01*
X141630067Y-59092274D01*
X141612069Y-59097255D01*
X141593845Y-59101347D01*
X141576114Y-59107205D01*
X141383643Y-59160468D01*
X141365430Y-59164558D01*
X141347708Y-59170412D01*
X141329700Y-59175396D01*
X141312267Y-59182121D01*
X141122665Y-59244757D01*
X141104662Y-59249739D01*
X141087233Y-59256462D01*
X141069504Y-59262319D01*
X141052433Y-59269886D01*
X140866117Y-59341757D01*
X140848386Y-59347614D01*
X140831316Y-59355181D01*
X140813889Y-59361903D01*
X140797205Y-59370301D01*
X140614657Y-59451219D01*
X140597224Y-59457944D01*
X140580531Y-59466347D01*
X140563466Y-59473911D01*
X140547225Y-59483111D01*
X140368847Y-59572899D01*
X140351775Y-59580467D01*
X140335526Y-59589672D01*
X140318844Y-59598069D01*
X140303065Y-59608061D01*
X140129325Y-59706483D01*
X140112634Y-59714885D01*
X140096846Y-59724883D01*
X140080607Y-59734082D01*
X140065347Y-59744829D01*
X139896628Y-59851670D01*
X139880380Y-59860874D01*
X139865108Y-59871629D01*
X139849330Y-59881621D01*
X139834610Y-59893108D01*
X139671338Y-60008097D01*
X139655565Y-60018085D01*
X139640848Y-60029570D01*
X139625573Y-60040328D01*
X139611426Y-60052531D01*
X139454007Y-60175382D01*
X139438736Y-60186137D01*
X139424592Y-60198337D01*
X139409871Y-60209826D01*
X139396347Y-60222702D01*
X139245140Y-60353134D01*
X139230409Y-60364630D01*
X139216879Y-60377512D01*
X139202746Y-60389703D01*
X139189872Y-60403225D01*
X139052011Y-60534482D01*
X139044783Y-60540414D01*
X139024963Y-60560234D01*
X139004694Y-60579532D01*
X138998598Y-60586599D01*
X130962400Y-68622799D01*
X130962400Y-68439906D01*
X130907738Y-68165101D01*
X130800514Y-67906241D01*
X130644850Y-67673273D01*
X130446727Y-67475150D01*
X130213759Y-67319486D01*
X130190858Y-67310000D01*
X130213759Y-67300514D01*
X130446727Y-67144850D01*
X130644850Y-66946727D01*
X130800514Y-66713759D01*
X130907738Y-66454899D01*
X130962400Y-66180094D01*
X130962400Y-65899906D01*
X130907738Y-65625101D01*
X130800514Y-65366241D01*
X130644850Y-65133273D01*
X130446727Y-64935150D01*
X130213759Y-64779486D01*
X130190858Y-64770000D01*
X130213759Y-64760514D01*
X130446727Y-64604850D01*
X130644850Y-64406727D01*
X130800514Y-64173759D01*
X130907738Y-63914899D01*
X130962400Y-63640094D01*
X130962400Y-63359906D01*
X130907738Y-63085101D01*
X130800514Y-62826241D01*
X130644850Y-62593273D01*
X130446727Y-62395150D01*
X130213759Y-62239486D01*
X130190858Y-62230000D01*
X130213759Y-62220514D01*
X130446727Y-62064850D01*
X130644850Y-61866727D01*
X130800514Y-61633759D01*
X130907738Y-61374899D01*
X130962400Y-61100094D01*
X130962400Y-60819906D01*
X130907738Y-60545101D01*
X130800514Y-60286241D01*
X130644850Y-60053273D01*
X130446727Y-59855150D01*
X130213759Y-59699486D01*
X130190858Y-59690000D01*
X130213759Y-59680514D01*
X130446727Y-59524850D01*
X130644850Y-59326727D01*
X130800514Y-59093759D01*
X130907738Y-58834899D01*
X130962400Y-58560094D01*
X130962400Y-58279906D01*
X130907738Y-58005101D01*
X130800514Y-57746241D01*
X130644850Y-57513273D01*
X130446727Y-57315150D01*
X130213759Y-57159486D01*
X130190858Y-57150000D01*
X130213759Y-57140514D01*
X130446727Y-56984850D01*
X130644850Y-56786727D01*
X130800514Y-56553759D01*
X130907738Y-56294899D01*
X130962400Y-56020094D01*
X130962400Y-55739906D01*
X130907738Y-55465101D01*
X130800514Y-55206241D01*
X130644850Y-54973273D01*
X130446727Y-54775150D01*
X130213759Y-54619486D01*
X130190858Y-54610000D01*
X130213759Y-54600514D01*
X130446727Y-54444850D01*
X130644850Y-54246727D01*
X130800514Y-54013759D01*
X130907738Y-53754899D01*
X130962400Y-53480094D01*
X130962400Y-53199906D01*
X130907738Y-52925101D01*
X130800514Y-52666241D01*
X130644850Y-52433273D01*
X130446727Y-52235150D01*
X130213759Y-52079486D01*
X130190858Y-52070000D01*
X130213759Y-52060514D01*
X130446727Y-51904850D01*
X130644850Y-51706727D01*
X130800514Y-51473759D01*
X130907738Y-51214899D01*
X130962400Y-50940094D01*
X130962400Y-50659906D01*
X130907738Y-50385101D01*
X130800514Y-50126241D01*
X130644850Y-49893273D01*
X130446727Y-49695150D01*
X130213759Y-49539486D01*
X130190858Y-49530000D01*
X130213759Y-49520514D01*
X130446727Y-49364850D01*
X130644850Y-49166727D01*
X130800514Y-48933759D01*
X130907738Y-48674899D01*
X130962400Y-48400094D01*
X130962400Y-48331010D01*
X143352483Y-48331010D01*
X143393766Y-48608140D01*
X143488321Y-48871892D01*
X143553612Y-48994043D01*
X143796295Y-49064100D01*
X144600395Y-48260000D01*
X144959605Y-48260000D01*
X145763705Y-49064100D01*
X146006388Y-48994043D01*
X146126028Y-48740682D01*
X146193941Y-48468849D01*
X146207517Y-48188990D01*
X146166234Y-47911860D01*
X146071679Y-47648108D01*
X146006388Y-47525957D01*
X145763705Y-47455900D01*
X144959605Y-48260000D01*
X144600395Y-48260000D01*
X143796295Y-47455900D01*
X143553612Y-47525957D01*
X143433972Y-47779318D01*
X143366059Y-48051151D01*
X143352483Y-48331010D01*
X130962400Y-48331010D01*
X130962400Y-48119906D01*
X130907738Y-47845101D01*
X130800514Y-47586241D01*
X130644850Y-47353273D01*
X130446727Y-47155150D01*
X130213759Y-46999486D01*
X130190858Y-46990000D01*
X130213759Y-46980514D01*
X130446727Y-46824850D01*
X130644850Y-46626727D01*
X130800514Y-46393759D01*
X130907738Y-46134899D01*
X130962400Y-45860094D01*
X130962400Y-45579906D01*
X143357600Y-45579906D01*
X143357600Y-45860094D01*
X143412262Y-46134899D01*
X143519486Y-46393759D01*
X143675150Y-46626727D01*
X143873273Y-46824850D01*
X144106241Y-46980514D01*
X144128245Y-46989628D01*
X144045957Y-47033612D01*
X143975900Y-47276295D01*
X144780000Y-48080395D01*
X145584100Y-47276295D01*
X145514043Y-47033612D01*
X145425972Y-46992024D01*
X145453759Y-46980514D01*
X145686727Y-46824850D01*
X145884850Y-46626727D01*
X146040514Y-46393759D01*
X146147738Y-46134899D01*
X146202400Y-45860094D01*
X146202400Y-45579906D01*
X146147738Y-45305101D01*
X146040514Y-45046241D01*
X145884850Y-44813273D01*
X145686727Y-44615150D01*
X145453759Y-44459486D01*
X145194899Y-44352262D01*
X144920094Y-44297600D01*
X144639906Y-44297600D01*
X144365101Y-44352262D01*
X144106241Y-44459486D01*
X143873273Y-44615150D01*
X143675150Y-44813273D01*
X143519486Y-45046241D01*
X143412262Y-45305101D01*
X143357600Y-45579906D01*
X130962400Y-45579906D01*
X130907738Y-45305101D01*
X130800514Y-45046241D01*
X130644850Y-44813273D01*
X130446727Y-44615150D01*
X130213759Y-44459486D01*
X129954899Y-44352262D01*
X129680094Y-44297600D01*
X129399906Y-44297600D01*
X129125101Y-44352262D01*
X128866241Y-44459486D01*
X128633273Y-44615150D01*
X128435150Y-44813273D01*
X128279486Y-45046241D01*
X128172262Y-45305101D01*
X128117600Y-45579906D01*
X127660000Y-45579906D01*
X127660000Y-36220000D01*
X179680000Y-36220000D01*
X179680001Y-86970000D01*
G37*
X179680001Y-86970000D02*
X127660000Y-86970000D01*
X127660000Y-45579906D01*
X128117600Y-45579906D01*
X128117600Y-45860094D01*
X128172262Y-46134899D01*
X128279486Y-46393759D01*
X128435150Y-46626727D01*
X128633273Y-46824850D01*
X128866241Y-46980514D01*
X128889142Y-46990000D01*
X128866241Y-46999486D01*
X128633273Y-47155150D01*
X128435150Y-47353273D01*
X128279486Y-47586241D01*
X128172262Y-47845101D01*
X128117600Y-48119906D01*
X128117600Y-48400094D01*
X128172262Y-48674899D01*
X128279486Y-48933759D01*
X128435150Y-49166727D01*
X128633273Y-49364850D01*
X128866241Y-49520514D01*
X128889142Y-49530000D01*
X128866241Y-49539486D01*
X128633273Y-49695150D01*
X128435150Y-49893273D01*
X128279486Y-50126241D01*
X128172262Y-50385101D01*
X128117600Y-50659906D01*
X128117600Y-50940094D01*
X128172262Y-51214899D01*
X128279486Y-51473759D01*
X128435150Y-51706727D01*
X128633273Y-51904850D01*
X128866241Y-52060514D01*
X128889142Y-52070000D01*
X128866241Y-52079486D01*
X128633273Y-52235150D01*
X128435150Y-52433273D01*
X128279486Y-52666241D01*
X128172262Y-52925101D01*
X128117600Y-53199906D01*
X128117600Y-53480094D01*
X128172262Y-53754899D01*
X128279486Y-54013759D01*
X128435150Y-54246727D01*
X128633273Y-54444850D01*
X128866241Y-54600514D01*
X128889142Y-54610000D01*
X128866241Y-54619486D01*
X128633273Y-54775150D01*
X128435150Y-54973273D01*
X128279486Y-55206241D01*
X128172262Y-55465101D01*
X128117600Y-55739906D01*
X128117600Y-56020094D01*
X128172262Y-56294899D01*
X128279486Y-56553759D01*
X128435150Y-56786727D01*
X128633273Y-56984850D01*
X128866241Y-57140514D01*
X128889142Y-57150000D01*
X128866241Y-57159486D01*
X128633273Y-57315150D01*
X128435150Y-57513273D01*
X128279486Y-57746241D01*
X128172262Y-58005101D01*
X128117600Y-58279906D01*
X128117600Y-58560094D01*
X128172262Y-58834899D01*
X128279486Y-59093759D01*
X128435150Y-59326727D01*
X128633273Y-59524850D01*
X128866241Y-59680514D01*
X128889142Y-59690000D01*
X128866241Y-59699486D01*
X128633273Y-59855150D01*
X128435150Y-60053273D01*
X128279486Y-60286241D01*
X128172262Y-60545101D01*
X128117600Y-60819906D01*
X128117600Y-61100094D01*
X128172262Y-61374899D01*
X128279486Y-61633759D01*
X128435150Y-61866727D01*
X128633273Y-62064850D01*
X128866241Y-62220514D01*
X128889142Y-62230000D01*
X128866241Y-62239486D01*
X128633273Y-62395150D01*
X128435150Y-62593273D01*
X128279486Y-62826241D01*
X128172262Y-63085101D01*
X128117600Y-63359906D01*
X128117600Y-63640094D01*
X128172262Y-63914899D01*
X128279486Y-64173759D01*
X128435150Y-64406727D01*
X128633273Y-64604850D01*
X128866241Y-64760514D01*
X128889142Y-64770000D01*
X128866241Y-64779486D01*
X128633273Y-64935150D01*
X128435150Y-65133273D01*
X128279486Y-65366241D01*
X128172262Y-65625101D01*
X128117600Y-65899906D01*
X128117600Y-66180094D01*
X128172262Y-66454899D01*
X128279486Y-66713759D01*
X128435150Y-66946727D01*
X128633273Y-67144850D01*
X128866241Y-67300514D01*
X128889142Y-67310000D01*
X128866241Y-67319486D01*
X128633273Y-67475150D01*
X128435150Y-67673273D01*
X128279486Y-67906241D01*
X128172262Y-68165101D01*
X128117600Y-68439906D01*
X128117600Y-68720094D01*
X128172262Y-68994899D01*
X128279486Y-69253759D01*
X128435150Y-69486727D01*
X128633273Y-69684850D01*
X128866241Y-69840514D01*
X128889142Y-69850000D01*
X128866241Y-69859486D01*
X128633273Y-70015150D01*
X128435150Y-70213273D01*
X128279486Y-70446241D01*
X128172262Y-70705101D01*
X128117600Y-70979906D01*
X128117600Y-71260094D01*
X128172262Y-71534899D01*
X128279486Y-71793759D01*
X128435150Y-72026727D01*
X128633273Y-72224850D01*
X128866241Y-72380514D01*
X128889142Y-72390000D01*
X128866241Y-72399486D01*
X128633273Y-72555150D01*
X128435150Y-72753273D01*
X128279486Y-72986241D01*
X128172262Y-73245101D01*
X128117600Y-73519906D01*
X128117600Y-73800094D01*
X128172262Y-74074899D01*
X128279486Y-74333759D01*
X128435150Y-74566727D01*
X128633273Y-74764850D01*
X128866241Y-74920514D01*
X128889142Y-74930000D01*
X128866241Y-74939486D01*
X128633273Y-75095150D01*
X128435150Y-75293273D01*
X128279486Y-75526241D01*
X128172262Y-75785101D01*
X128117600Y-76059906D01*
X128117600Y-76340094D01*
X128172262Y-76614899D01*
X128279486Y-76873759D01*
X128435150Y-77106727D01*
X128633273Y-77304850D01*
X128866241Y-77460514D01*
X128889142Y-77470000D01*
X128866241Y-77479486D01*
X128633273Y-77635150D01*
X128435150Y-77833273D01*
X128279486Y-78066241D01*
X128172262Y-78325101D01*
X128117600Y-78599906D01*
X128117600Y-78880094D01*
X128172262Y-79154899D01*
X128279486Y-79413759D01*
X128435150Y-79646727D01*
X128633273Y-79844850D01*
X128866241Y-80000514D01*
X128889142Y-80010000D01*
X128866241Y-80019486D01*
X128633273Y-80175150D01*
X128435150Y-80373273D01*
X128279486Y-80606241D01*
X128172262Y-80865101D01*
X128117600Y-81139906D01*
X128117600Y-81420094D01*
X128172262Y-81694899D01*
X128279486Y-81953759D01*
X128435150Y-82186727D01*
X128633273Y-82384850D01*
X128866241Y-82540514D01*
X129125101Y-82647738D01*
X129399906Y-82702400D01*
X129680094Y-82702400D01*
X129954899Y-82647738D01*
X130213759Y-82540514D01*
X130446727Y-82384850D01*
X130644850Y-82186727D01*
X130800514Y-81953759D01*
X130907738Y-81694899D01*
X130962400Y-81420094D01*
X130962400Y-81139906D01*
X130907738Y-80865101D01*
X130861923Y-80754494D01*
X138543565Y-70192236D01*
X138735152Y-69944475D01*
X138933659Y-69716821D01*
X139145217Y-69501242D01*
X139369086Y-69298490D01*
X139604508Y-69109254D01*
X139850655Y-68934201D01*
X140106662Y-68773942D01*
X140371683Y-68629011D01*
X140644749Y-68499935D01*
X140924938Y-68387150D01*
X141211274Y-68291048D01*
X141502784Y-68211956D01*
X141798440Y-68150154D01*
X142097225Y-68105857D01*
X142398088Y-68079218D01*
X142711178Y-68070000D01*
X143451654Y-68070000D01*
X143412262Y-68165101D01*
X143357600Y-68439906D01*
X143357600Y-68720094D01*
X143412262Y-68994899D01*
X143519486Y-69253759D01*
X143675150Y-69486727D01*
X143873273Y-69684850D01*
X144106241Y-69840514D01*
X144129142Y-69850000D01*
X144106241Y-69859486D01*
X143873273Y-70015150D01*
X143675150Y-70213273D01*
X143519486Y-70446241D01*
X143412262Y-70705101D01*
X143357600Y-70979906D01*
X143357600Y-71260094D01*
X143412262Y-71534899D01*
X143519486Y-71793759D01*
X143675150Y-72026727D01*
X143873273Y-72224850D01*
X144106241Y-72380514D01*
X144129142Y-72390000D01*
X144106241Y-72399486D01*
X143873273Y-72555150D01*
X143675150Y-72753273D01*
X143519486Y-72986241D01*
X143412262Y-73245101D01*
X143357600Y-73519906D01*
X143357600Y-73800094D01*
X143412262Y-74074899D01*
X143519486Y-74333759D01*
X143675150Y-74566727D01*
X143873273Y-74764850D01*
X144106241Y-74920514D01*
X144129142Y-74930000D01*
X144106241Y-74939486D01*
X143873273Y-75095150D01*
X143675150Y-75293273D01*
X143519486Y-75526241D01*
X143412262Y-75785101D01*
X143357600Y-76059906D01*
X143357600Y-76340094D01*
X143412262Y-76614899D01*
X143519486Y-76873759D01*
X143675150Y-77106727D01*
X143873273Y-77304850D01*
X144106241Y-77460514D01*
X144129142Y-77470000D01*
X144106241Y-77479486D01*
X143873273Y-77635150D01*
X143675150Y-77833273D01*
X143519486Y-78066241D01*
X143412262Y-78325101D01*
X143357600Y-78599906D01*
X143357600Y-78880094D01*
X143412262Y-79154899D01*
X143519486Y-79413759D01*
X143675150Y-79646727D01*
X143873273Y-79844850D01*
X144106241Y-80000514D01*
X144129142Y-80010000D01*
X144106241Y-80019486D01*
X143873273Y-80175150D01*
X143675150Y-80373273D01*
X143519486Y-80606241D01*
X143412262Y-80865101D01*
X143357600Y-81139906D01*
X143357600Y-81420094D01*
X143412262Y-81694899D01*
X143519486Y-81953759D01*
X143675150Y-82186727D01*
X143873273Y-82384850D01*
X144106241Y-82540514D01*
X144365101Y-82647738D01*
X144639906Y-82702400D01*
X144920094Y-82702400D01*
X145194899Y-82647738D01*
X145453759Y-82540514D01*
X145686727Y-82384850D01*
X145884850Y-82186727D01*
X146040514Y-81953759D01*
X146147738Y-81694899D01*
X146202400Y-81420094D01*
X146202400Y-81139906D01*
X146147738Y-80865101D01*
X146040514Y-80606241D01*
X145884850Y-80373273D01*
X145686727Y-80175150D01*
X145453759Y-80019486D01*
X145430858Y-80010000D01*
X145453759Y-80000514D01*
X145686727Y-79844850D01*
X145884850Y-79646727D01*
X146040514Y-79413759D01*
X146147738Y-79154899D01*
X146202400Y-78880094D01*
X146202400Y-78599906D01*
X146147738Y-78325101D01*
X146040514Y-78066241D01*
X145884850Y-77833273D01*
X145686727Y-77635150D01*
X145453759Y-77479486D01*
X145430858Y-77470000D01*
X145453759Y-77460514D01*
X145686727Y-77304850D01*
X145884850Y-77106727D01*
X146040514Y-76873759D01*
X146147738Y-76614899D01*
X146202400Y-76340094D01*
X146202400Y-76059906D01*
X146147738Y-75785101D01*
X146040514Y-75526241D01*
X145884850Y-75293273D01*
X145686727Y-75095150D01*
X145453759Y-74939486D01*
X145430858Y-74930000D01*
X145453759Y-74920514D01*
X145686727Y-74764850D01*
X145884850Y-74566727D01*
X146040514Y-74333759D01*
X146147738Y-74074899D01*
X146202400Y-73800094D01*
X146202400Y-73519906D01*
X146167973Y-73346828D01*
X149941096Y-69573705D01*
X149945733Y-69569774D01*
X149967480Y-69547321D01*
X149989592Y-69525209D01*
X149993451Y-69520507D01*
X150039250Y-69473221D01*
X150048252Y-69465082D01*
X150065200Y-69446428D01*
X150082744Y-69428315D01*
X150090296Y-69418807D01*
X150138644Y-69365594D01*
X150147388Y-69357166D01*
X150163730Y-69337984D01*
X150180682Y-69319326D01*
X150187931Y-69309577D01*
X150234563Y-69254840D01*
X150243030Y-69246141D01*
X150258743Y-69226458D01*
X150275100Y-69207258D01*
X150282038Y-69197277D01*
X150326892Y-69141089D01*
X150335082Y-69132119D01*
X150346104Y-69117371D01*
X150354577Y-82986183D01*
X150350803Y-83024500D01*
X150354624Y-83063295D01*
X150354624Y-83063540D01*
X150358411Y-83101750D01*
X150365959Y-83178386D01*
X150366030Y-83178622D01*
X150366054Y-83178859D01*
X150388225Y-83251786D01*
X150410846Y-83326359D01*
X150410961Y-83326573D01*
X150411031Y-83326805D01*
X150447430Y-83394803D01*
X150483739Y-83462732D01*
X150483890Y-83462915D01*
X150484006Y-83463133D01*
X150533074Y-83522847D01*
X150557255Y-83552312D01*
X150557427Y-83552484D01*
X150582177Y-83582604D01*
X150611955Y-83607012D01*
X151258157Y-84253215D01*
X151282736Y-84283164D01*
X151312684Y-84307742D01*
X151312687Y-84307745D01*
X151342059Y-84331850D01*
X151402267Y-84381262D01*
X151538640Y-84454154D01*
X151643507Y-84485965D01*
X151686612Y-84499041D01*
X151700990Y-84500457D01*
X151801939Y-84510400D01*
X151801946Y-84510400D01*
X151840499Y-84514197D01*
X151879052Y-84510400D01*
X160401006Y-84510400D01*
X160410619Y-84511109D01*
X160439499Y-84510400D01*
X160468461Y-84510400D01*
X160478076Y-84509453D01*
X160666839Y-84504819D01*
X160686110Y-84505292D01*
X160705337Y-84503874D01*
X160724636Y-84503400D01*
X160743789Y-84501037D01*
X160941711Y-84486438D01*
X160960988Y-84485965D01*
X160980125Y-84483605D01*
X160999372Y-84482185D01*
X161018384Y-84478886D01*
X161215347Y-84454593D01*
X161234590Y-84453174D01*
X161253598Y-84449876D01*
X161272739Y-84447515D01*
X161291557Y-84443289D01*
X161487120Y-84409355D01*
X161506249Y-84406996D01*
X161525058Y-84402772D01*
X161544078Y-84399472D01*
X161562678Y-84394325D01*
X161756308Y-84350844D01*
X161775314Y-84347546D01*
X161793909Y-84342400D01*
X161812729Y-84338174D01*
X161831041Y-84332124D01*
X162022321Y-84279191D01*
X162041144Y-84274964D01*
X162059459Y-84268913D01*
X162078049Y-84263769D01*
X162096045Y-84256827D01*
X162284495Y-84194571D01*
X162303087Y-84189426D01*
X162321089Y-84182482D01*
X162339402Y-84176432D01*
X162357031Y-84168618D01*
X162542210Y-84097186D01*
X162560520Y-84091137D01*
X162578150Y-84083322D01*
X162596152Y-84076378D01*
X162613387Y-84067703D01*
X162794819Y-83987279D01*
X162812819Y-83980336D01*
X162830052Y-83971661D01*
X162847686Y-83963845D01*
X162864468Y-83954338D01*
X163041748Y-83865103D01*
X163059376Y-83857289D01*
X163076155Y-83847784D01*
X163093393Y-83839107D01*
X163109693Y-83828785D01*
X163282382Y-83730958D01*
X163299603Y-83722290D01*
X163315888Y-83711978D01*
X163332682Y-83702464D01*
X163348465Y-83691349D01*
X163516120Y-83585181D01*
X163532909Y-83575671D01*
X163548690Y-83564557D01*
X163564982Y-83554240D01*
X163580180Y-83542379D01*
X163742467Y-83428085D01*
X163758748Y-83417775D01*
X163773938Y-83405921D01*
X163789724Y-83394803D01*
X163804343Y-83382192D01*
X163960799Y-83260093D01*
X163976563Y-83248991D01*
X163991164Y-83236396D01*
X164006378Y-83224523D01*
X164020352Y-83211218D01*
X164170628Y-83081589D01*
X164185830Y-83069726D01*
X164199801Y-83056424D01*
X164214412Y-83043821D01*
X164227714Y-83029850D01*
X164364458Y-82899659D01*
X164371925Y-82893531D01*
X164392398Y-82873058D01*
X164413326Y-82853133D01*
X164419624Y-82845832D01*
X167467534Y-79797922D01*
X167474842Y-79791618D01*
X167494781Y-79770675D01*
X167515238Y-79750218D01*
X167521364Y-79742754D01*
X167569855Y-79691820D01*
X167583822Y-79678523D01*
X167596423Y-79663915D01*
X167609727Y-79649941D01*
X167621594Y-79634735D01*
X167673813Y-79574198D01*
X167687125Y-79560216D01*
X167699005Y-79544993D01*
X167711594Y-79530399D01*
X167722691Y-79514642D01*
X167771904Y-79451582D01*
X167784498Y-79436982D01*
X167795601Y-79421217D01*
X167807475Y-79406002D01*
X167817798Y-79389699D01*
X167863848Y-79324315D01*
X167875712Y-79309112D01*
X167886026Y-79292824D01*
X167897137Y-79277048D01*
X167906649Y-79260256D01*
X167949424Y-79192707D01*
X167960535Y-79176931D01*
X167970050Y-79160136D01*
X167980366Y-79143844D01*
X167989033Y-79126626D01*
X168028452Y-79057042D01*
X168038775Y-79040740D01*
X168047451Y-79023504D01*
X168056955Y-79006727D01*
X168064768Y-78989100D01*
X168100737Y-78917643D01*
X168110236Y-78900875D01*
X168118046Y-78883256D01*
X168126727Y-78866010D01*
X168133673Y-78848002D01*
X168151051Y-78808799D01*
X168185626Y-78805394D01*
X168441045Y-78727914D01*
X168676440Y-78602092D01*
X168882765Y-78432765D01*
X169052092Y-78226440D01*
X169177914Y-77991045D01*
X169255394Y-77735626D01*
X169281556Y-77470000D01*
X169255394Y-77204374D01*
X169177914Y-76948955D01*
X169052092Y-76713560D01*
X168882765Y-76507235D01*
X168676440Y-76337908D01*
X168441045Y-76212086D01*
X168401203Y-76200000D01*
X168441045Y-76187914D01*
X168676440Y-76062092D01*
X168882765Y-75892765D01*
X169052092Y-75686440D01*
X169177914Y-75451045D01*
X169255394Y-75195626D01*
X169281556Y-74930000D01*
X169255394Y-74664374D01*
X169177914Y-74408955D01*
X169052092Y-74173560D01*
X168882765Y-73967235D01*
X168676440Y-73797908D01*
X168441045Y-73672086D01*
X168401203Y-73660000D01*
X168441045Y-73647914D01*
X168676440Y-73522092D01*
X168882765Y-73352765D01*
X169052092Y-73146440D01*
X169177914Y-72911045D01*
X169255394Y-72655626D01*
X169281556Y-72390000D01*
X169255394Y-72124374D01*
X169177914Y-71868955D01*
X169052092Y-71633560D01*
X168882765Y-71427235D01*
X168676440Y-71257908D01*
X168441045Y-71132086D01*
X168401203Y-71120000D01*
X168441045Y-71107914D01*
X168676440Y-70982092D01*
X168882765Y-70812765D01*
X169052092Y-70606440D01*
X169177914Y-70371045D01*
X169255394Y-70115626D01*
X169281556Y-69850000D01*
X169255394Y-69584374D01*
X169177914Y-69328955D01*
X169052092Y-69093560D01*
X168882765Y-68887235D01*
X168676440Y-68717908D01*
X168441045Y-68592086D01*
X168401203Y-68580000D01*
X168441045Y-68567914D01*
X168676440Y-68442092D01*
X168882765Y-68272765D01*
X169052092Y-68066440D01*
X169177914Y-67831045D01*
X169255394Y-67575626D01*
X169281556Y-67310000D01*
X169255394Y-67044374D01*
X169177914Y-66788955D01*
X169052092Y-66553560D01*
X168882765Y-66347235D01*
X168676440Y-66177908D01*
X168441045Y-66052086D01*
X168401203Y-66040000D01*
X168441045Y-66027914D01*
X168676440Y-65902092D01*
X168882765Y-65732765D01*
X169052092Y-65526440D01*
X169177914Y-65291045D01*
X169255394Y-65035626D01*
X169281556Y-64770000D01*
X169255394Y-64504374D01*
X169177914Y-64248955D01*
X169052092Y-64013560D01*
X168882765Y-63807235D01*
X168676440Y-63637908D01*
X168441045Y-63512086D01*
X168401203Y-63500000D01*
X168441045Y-63487914D01*
X168676440Y-63362092D01*
X168882765Y-63192765D01*
X169052092Y-62986440D01*
X169177914Y-62751045D01*
X169255394Y-62495626D01*
X169281556Y-62230000D01*
X173618444Y-62230000D01*
X173644606Y-62495626D01*
X173722086Y-62751045D01*
X173847908Y-62986440D01*
X174017235Y-63192765D01*
X174223560Y-63362092D01*
X174458955Y-63487914D01*
X174498797Y-63500000D01*
X174458955Y-63512086D01*
X174223560Y-63637908D01*
X174017235Y-63807235D01*
X173847908Y-64013560D01*
X173722086Y-64248955D01*
X173644606Y-64504374D01*
X173618444Y-64770000D01*
X173644606Y-65035626D01*
X173722086Y-65291045D01*
X173847908Y-65526440D01*
X174017235Y-65732765D01*
X174223560Y-65902092D01*
X174458955Y-66027914D01*
X174498797Y-66040000D01*
X174458955Y-66052086D01*
X174223560Y-66177908D01*
X174017235Y-66347235D01*
X173847908Y-66553560D01*
X173722086Y-66788955D01*
X173644606Y-67044374D01*
X173618444Y-67310000D01*
X173644606Y-67575626D01*
X173722086Y-67831045D01*
X173847908Y-68066440D01*
X174017235Y-68272765D01*
X174223560Y-68442092D01*
X174458955Y-68567914D01*
X174498797Y-68580000D01*
X174458955Y-68592086D01*
X174223560Y-68717908D01*
X174017235Y-68887235D01*
X173847908Y-69093560D01*
X173722086Y-69328955D01*
X173644606Y-69584374D01*
X173618444Y-69850000D01*
X173644606Y-70115626D01*
X173722086Y-70371045D01*
X173847908Y-70606440D01*
X174017235Y-70812765D01*
X174223560Y-70982092D01*
X174458955Y-71107914D01*
X174498797Y-71120000D01*
X174458955Y-71132086D01*
X174223560Y-71257908D01*
X174017235Y-71427235D01*
X173847908Y-71633560D01*
X173722086Y-71868955D01*
X173644606Y-72124374D01*
X173618444Y-72390000D01*
X173644606Y-72655626D01*
X173722086Y-72911045D01*
X173847908Y-73146440D01*
X174017235Y-73352765D01*
X174223560Y-73522092D01*
X174458955Y-73647914D01*
X174498797Y-73660000D01*
X174458955Y-73672086D01*
X174223560Y-73797908D01*
X174017235Y-73967235D01*
X173847908Y-74173560D01*
X173722086Y-74408955D01*
X173644606Y-74664374D01*
X173618444Y-74930000D01*
X173644606Y-75195626D01*
X173722086Y-75451045D01*
X173847908Y-75686440D01*
X174017235Y-75892765D01*
X174223560Y-76062092D01*
X174458955Y-76187914D01*
X174498797Y-76200000D01*
X174458955Y-76212086D01*
X174223560Y-76337908D01*
X174017235Y-76507235D01*
X173847908Y-76713560D01*
X173722086Y-76948955D01*
X173644606Y-77204374D01*
X173618444Y-77470000D01*
X173644606Y-77735626D01*
X173722086Y-77991045D01*
X173847908Y-78226440D01*
X174017235Y-78432765D01*
X174223560Y-78602092D01*
X174458955Y-78727914D01*
X174714374Y-78805394D01*
X174913436Y-78825000D01*
X175606564Y-78825000D01*
X175805626Y-78805394D01*
X176061045Y-78727914D01*
X176296440Y-78602092D01*
X176502765Y-78432765D01*
X176672092Y-78226440D01*
X176797914Y-77991045D01*
X176875394Y-77735626D01*
X176901556Y-77470000D01*
X176875394Y-77204374D01*
X176797914Y-76948955D01*
X176672092Y-76713560D01*
X176502765Y-76507235D01*
X176296440Y-76337908D01*
X176061045Y-76212086D01*
X176021203Y-76200000D01*
X176061045Y-76187914D01*
X176296440Y-76062092D01*
X176502765Y-75892765D01*
X176672092Y-75686440D01*
X176797914Y-75451045D01*
X176875394Y-75195626D01*
X176901556Y-74930000D01*
X176875394Y-74664374D01*
X176797914Y-74408955D01*
X176672092Y-74173560D01*
X176502765Y-73967235D01*
X176296440Y-73797908D01*
X176061045Y-73672086D01*
X176021203Y-73660000D01*
X176061045Y-73647914D01*
X176296440Y-73522092D01*
X176502765Y-73352765D01*
X176672092Y-73146440D01*
X176797914Y-72911045D01*
X176875394Y-72655626D01*
X176901556Y-72390000D01*
X176875394Y-72124374D01*
X176797914Y-71868955D01*
X176672092Y-71633560D01*
X176502765Y-71427235D01*
X176296440Y-71257908D01*
X176061045Y-71132086D01*
X176021203Y-71120000D01*
X176061045Y-71107914D01*
X176296440Y-70982092D01*
X176502765Y-70812765D01*
X176672092Y-70606440D01*
X176797914Y-70371045D01*
X176875394Y-70115626D01*
X176901556Y-69850000D01*
X176875394Y-69584374D01*
X176797914Y-69328955D01*
X176672092Y-69093560D01*
X176502765Y-68887235D01*
X176296440Y-68717908D01*
X176061045Y-68592086D01*
X176021203Y-68580000D01*
X176061045Y-68567914D01*
X176296440Y-68442092D01*
X176502765Y-68272765D01*
X176672092Y-68066440D01*
X176797914Y-67831045D01*
X176875394Y-67575626D01*
X176901556Y-67310000D01*
X176875394Y-67044374D01*
X176797914Y-66788955D01*
X176672092Y-66553560D01*
X176502765Y-66347235D01*
X176296440Y-66177908D01*
X176061045Y-66052086D01*
X176021203Y-66040000D01*
X176061045Y-66027914D01*
X176296440Y-65902092D01*
X176502765Y-65732765D01*
X176672092Y-65526440D01*
X176797914Y-65291045D01*
X176875394Y-65035626D01*
X176901556Y-64770000D01*
X176875394Y-64504374D01*
X176797914Y-64248955D01*
X176672092Y-64013560D01*
X176502765Y-63807235D01*
X176296440Y-63637908D01*
X176061045Y-63512086D01*
X176021203Y-63500000D01*
X176061045Y-63487914D01*
X176296440Y-63362092D01*
X176502765Y-63192765D01*
X176672092Y-62986440D01*
X176797914Y-62751045D01*
X176875394Y-62495626D01*
X176901556Y-62230000D01*
X176875394Y-61964374D01*
X176797914Y-61708955D01*
X176672092Y-61473560D01*
X176502765Y-61267235D01*
X176296440Y-61097908D01*
X176061045Y-60972086D01*
X176016241Y-60958495D01*
X176175869Y-60893256D01*
X176398395Y-60746084D01*
X176587933Y-60558327D01*
X176737199Y-60337201D01*
X176840458Y-60091203D01*
X176852559Y-60026472D01*
X176729489Y-59817000D01*
X175387000Y-59817000D01*
X175387000Y-59837000D01*
X175133000Y-59837000D01*
X175133000Y-59817000D01*
X173790511Y-59817000D01*
X173667441Y-60026472D01*
X173679542Y-60091203D01*
X173782801Y-60337201D01*
X173932067Y-60558327D01*
X174121605Y-60746084D01*
X174344131Y-60893256D01*
X174503759Y-60958495D01*
X174458955Y-60972086D01*
X174223560Y-61097908D01*
X174017235Y-61267235D01*
X173847908Y-61473560D01*
X173722086Y-61708955D01*
X173644606Y-61964374D01*
X173618444Y-62230000D01*
X169281556Y-62230000D01*
X169255394Y-61964374D01*
X169177914Y-61708955D01*
X169052092Y-61473560D01*
X168882765Y-61267235D01*
X168676440Y-61097908D01*
X168583204Y-61048072D01*
X168640000Y-61048072D01*
X168764482Y-61035812D01*
X168884180Y-60999502D01*
X168994494Y-60940537D01*
X169091185Y-60861185D01*
X169170537Y-60764494D01*
X169229502Y-60654180D01*
X169265812Y-60534482D01*
X169278072Y-60410000D01*
X169278072Y-59353528D01*
X173667441Y-59353528D01*
X173790511Y-59563000D01*
X175133000Y-59563000D01*
X175133000Y-58335000D01*
X175387000Y-58335000D01*
X175387000Y-59563000D01*
X176729489Y-59563000D01*
X176852559Y-59353528D01*
X176840458Y-59288797D01*
X176737199Y-59042799D01*
X176587933Y-58821673D01*
X176398395Y-58633916D01*
X176175869Y-58486744D01*
X175928907Y-58385812D01*
X175667000Y-58335000D01*
X175387000Y-58335000D01*
X175133000Y-58335000D01*
X174853000Y-58335000D01*
X174591093Y-58385812D01*
X174344131Y-58486744D01*
X174121605Y-58633916D01*
X173932067Y-58821673D01*
X173782801Y-59042799D01*
X173679542Y-59288797D01*
X173667441Y-59353528D01*
X169278072Y-59353528D01*
X169278072Y-58970000D01*
X169265812Y-58845518D01*
X169229502Y-58725820D01*
X169170537Y-58615506D01*
X169091185Y-58518815D01*
X168994494Y-58439463D01*
X168884180Y-58380498D01*
X168764482Y-58344188D01*
X168640000Y-58331928D01*
X166640000Y-58331928D01*
X166515518Y-58344188D01*
X166395820Y-58380498D01*
X166285506Y-58439463D01*
X166188815Y-58518815D01*
X166109463Y-58615506D01*
X166050498Y-58725820D01*
X166014188Y-58845518D01*
X166001928Y-58970000D01*
X166001928Y-60410000D01*
X166014188Y-60534482D01*
X166050498Y-60654180D01*
X166109463Y-60764494D01*
X166188815Y-60861185D01*
X166285506Y-60940537D01*
X166395820Y-60999502D01*
X166515518Y-61035812D01*
X166640000Y-61048072D01*
X166696796Y-61048072D01*
X166603560Y-61097908D01*
X166397235Y-61267235D01*
X166227908Y-61473560D01*
X166102086Y-61708955D01*
X166024606Y-61964374D01*
X165998444Y-62230000D01*
X166024606Y-62495626D01*
X166102086Y-62751045D01*
X166227908Y-62986440D01*
X166397235Y-63192765D01*
X166603560Y-63362092D01*
X166838955Y-63487914D01*
X166878797Y-63500000D01*
X166838955Y-63512086D01*
X166603560Y-63637908D01*
X166397235Y-63807235D01*
X166227908Y-64013560D01*
X166102086Y-64248955D01*
X166024606Y-64504374D01*
X165998444Y-64770000D01*
X166024606Y-65035626D01*
X166102086Y-65291045D01*
X166227908Y-65526440D01*
X166397235Y-65732765D01*
X166603560Y-65902092D01*
X166838955Y-66027914D01*
X166878797Y-66040000D01*
X166838955Y-66052086D01*
X166603560Y-66177908D01*
X166397235Y-66347235D01*
X166227908Y-66553560D01*
X166102086Y-66788955D01*
X166024606Y-67044374D01*
X165998444Y-67310000D01*
X166024606Y-67575626D01*
X166102086Y-67831045D01*
X166227908Y-68066440D01*
X166397235Y-68272765D01*
X166603560Y-68442092D01*
X166838955Y-68567914D01*
X166878797Y-68580000D01*
X166838955Y-68592086D01*
X166603560Y-68717908D01*
X166397235Y-68887235D01*
X166227908Y-69093560D01*
X166102086Y-69328955D01*
X166024606Y-69584374D01*
X165998444Y-69850000D01*
X166024606Y-70115626D01*
X166102086Y-70371045D01*
X166227908Y-70606440D01*
X166397235Y-70812765D01*
X166603560Y-70982092D01*
X166838955Y-71107914D01*
X166878797Y-71120000D01*
X166838955Y-71132086D01*
X166603560Y-71257908D01*
X166397235Y-71427235D01*
X166227908Y-71633560D01*
X166102086Y-71868955D01*
X166024606Y-72124374D01*
X165998444Y-72390000D01*
X166024606Y-72655626D01*
X166102086Y-72911045D01*
X166227908Y-73146440D01*
X166397235Y-73352765D01*
X166603560Y-73522092D01*
X166838955Y-73647914D01*
X166878797Y-73660000D01*
X166838955Y-73672086D01*
X166603560Y-73797908D01*
X166397235Y-73967235D01*
X166227908Y-74173560D01*
X166102086Y-74408955D01*
X166024606Y-74664374D01*
X165998444Y-74930000D01*
X166024606Y-75195626D01*
X166102086Y-75451045D01*
X166227908Y-75686440D01*
X166397235Y-75892765D01*
X166603560Y-76062092D01*
X166838955Y-76187914D01*
X166878797Y-76200000D01*
X166838955Y-76212086D01*
X166603560Y-76337908D01*
X166397235Y-76507235D01*
X166227908Y-76713560D01*
X166102086Y-76948955D01*
X166024606Y-77204374D01*
X165998444Y-77470000D01*
X166024606Y-77735626D01*
X166102086Y-77991045D01*
X166227908Y-78226440D01*
X166397235Y-78432765D01*
X166505894Y-78521940D01*
X166485002Y-78548711D01*
X166432773Y-78609259D01*
X166371011Y-78674131D01*
X163295850Y-81749292D01*
X163145138Y-81892781D01*
X162994867Y-82022405D01*
X162838423Y-82144496D01*
X162676184Y-82258756D01*
X162508516Y-82364932D01*
X162335846Y-82462748D01*
X162158582Y-82551975D01*
X161977171Y-82632390D01*
X161792008Y-82703815D01*
X161603575Y-82766065D01*
X161412311Y-82818994D01*
X161218694Y-82862473D01*
X161023148Y-82896404D01*
X160826198Y-82920694D01*
X160628281Y-82935293D01*
X160420271Y-82940400D01*
X156425570Y-82940400D01*
X156425000Y-82835750D01*
X156266250Y-82677000D01*
X155067000Y-82677000D01*
X155067000Y-82697000D01*
X154813000Y-82697000D01*
X154813000Y-82677000D01*
X154793000Y-82677000D01*
X154793000Y-82423000D01*
X154813000Y-82423000D01*
X154813000Y-81223750D01*
X155067000Y-81223750D01*
X155067000Y-82423000D01*
X156266250Y-82423000D01*
X156425000Y-82264250D01*
X156428072Y-81700000D01*
X156415812Y-81575518D01*
X156379502Y-81455820D01*
X156320537Y-81345506D01*
X156241185Y-81248815D01*
X156144494Y-81169463D01*
X156034180Y-81110498D01*
X155914482Y-81074188D01*
X155790000Y-81061928D01*
X155225750Y-81065000D01*
X155067000Y-81223750D01*
X154813000Y-81223750D01*
X154654250Y-81065000D01*
X154090000Y-81061928D01*
X154033549Y-81067488D01*
X154043302Y-81045230D01*
X154048683Y-81034909D01*
X154058277Y-81011054D01*
X154068595Y-80987507D01*
X154072198Y-80976441D01*
X154098736Y-80910460D01*
X154103799Y-80899977D01*
X154112656Y-80875849D01*
X154122250Y-80851994D01*
X154125516Y-80840815D01*
X154150019Y-80774060D01*
X154154765Y-80763416D01*
X154162886Y-80739008D01*
X154171737Y-80714896D01*
X154174657Y-80703631D01*
X154197114Y-80636138D01*
X154201524Y-80625372D01*
X154208888Y-80600751D01*
X154217009Y-80576343D01*
X154219585Y-80564985D01*
X154239959Y-80496865D01*
X154244043Y-80485955D01*
X154250656Y-80461100D01*
X154258018Y-80436484D01*
X154260244Y-80425061D01*
X154278531Y-80356326D01*
X154282278Y-80345300D01*
X154288124Y-80320268D01*
X154294733Y-80295427D01*
X154296610Y-80283934D01*
X154312782Y-80214684D01*
X154316191Y-80203548D01*
X154321271Y-80178336D01*
X154327116Y-80153310D01*
X154328639Y-80141771D01*
X154342686Y-80072061D01*
X154345752Y-80060828D01*
X154350059Y-80035471D01*
X154355136Y-80010277D01*
X154356305Y-79998701D01*
X154368217Y-79928579D01*
X154370938Y-79917254D01*
X154374464Y-79891800D01*
X154378769Y-79866457D01*
X154379585Y-79854834D01*
X154389343Y-79784395D01*
X154391716Y-79772994D01*
X154394465Y-79747418D01*
X154397991Y-79721964D01*
X154398450Y-79710340D01*
X154406051Y-79639619D01*
X154408073Y-79628162D01*
X154410036Y-79602545D01*
X154412785Y-79576969D01*
X154412889Y-79565320D01*
X154418321Y-79494424D01*
X154419994Y-79482895D01*
X154421174Y-79457203D01*
X154423137Y-79431584D01*
X154422885Y-79419948D01*
X154426147Y-79348894D01*
X154427465Y-79337333D01*
X154427858Y-79311638D01*
X154429038Y-79285947D01*
X154428429Y-79274319D01*
X154429429Y-79209037D01*
X154430000Y-79203235D01*
X154430000Y-79171696D01*
X154430482Y-79140202D01*
X154430000Y-79134400D01*
X154430000Y-71300223D01*
X154492257Y-71326011D01*
X154788816Y-71385000D01*
X155091184Y-71385000D01*
X155387743Y-71326011D01*
X155667095Y-71210299D01*
X155918505Y-71042312D01*
X156132312Y-70828505D01*
X156300299Y-70577095D01*
X156416011Y-70297743D01*
X156475000Y-70001184D01*
X156475000Y-69698816D01*
X156423731Y-69441070D01*
X157715599Y-68149202D01*
X157722674Y-68143099D01*
X157741981Y-68122820D01*
X157761785Y-68103016D01*
X157767715Y-68095791D01*
X157898976Y-67957921D01*
X157912494Y-67945051D01*
X157924688Y-67930914D01*
X157937573Y-67917381D01*
X157949066Y-67902654D01*
X158079495Y-67751450D01*
X158092371Y-67737926D01*
X158103860Y-67723205D01*
X158116060Y-67709061D01*
X158126815Y-67693790D01*
X158249669Y-67536366D01*
X158261866Y-67522227D01*
X158272619Y-67506959D01*
X158284112Y-67492232D01*
X158294104Y-67476453D01*
X158409083Y-67313196D01*
X158420577Y-67298468D01*
X158430572Y-67282684D01*
X158441321Y-67267422D01*
X158450523Y-67251179D01*
X158557369Y-67082451D01*
X158568116Y-67067191D01*
X158577315Y-67050952D01*
X158587313Y-67035164D01*
X158595716Y-67018470D01*
X158694140Y-66844728D01*
X158704128Y-66828955D01*
X158712522Y-66812280D01*
X158721731Y-66796023D01*
X158729301Y-66778944D01*
X158819079Y-66600589D01*
X158828288Y-66584332D01*
X158835860Y-66567250D01*
X158844253Y-66550576D01*
X158850972Y-66533158D01*
X158931902Y-66350582D01*
X158940295Y-66333909D01*
X158947014Y-66316492D01*
X158954585Y-66299411D01*
X158960446Y-66281670D01*
X159032311Y-66095367D01*
X159039880Y-66078292D01*
X159045738Y-66060560D01*
X159052459Y-66043136D01*
X159057440Y-66025136D01*
X159120079Y-65835525D01*
X159126800Y-65818101D01*
X159131782Y-65800100D01*
X159137640Y-65782366D01*
X159141731Y-65764146D01*
X159194993Y-65571684D01*
X159200850Y-65553954D01*
X159204942Y-65535733D01*
X159209923Y-65517733D01*
X159213116Y-65499332D01*
X159256869Y-65304495D01*
X159261850Y-65286495D01*
X159265043Y-65268092D01*
X159269135Y-65249871D01*
X159271421Y-65231339D01*
X159305563Y-65034572D01*
X159309653Y-65016360D01*
X159311938Y-64997836D01*
X159315132Y-64979427D01*
X159316506Y-64960795D01*
X159340951Y-64762606D01*
X159344143Y-64744208D01*
X159345517Y-64725584D01*
X159347803Y-64707048D01*
X159348261Y-64688379D01*
X159362952Y-64489219D01*
X159365237Y-64470695D01*
X159365695Y-64452033D01*
X159367070Y-64433396D01*
X159366611Y-64414720D01*
X159371284Y-64224438D01*
X159372200Y-64215133D01*
X159372200Y-64187113D01*
X159372887Y-64159134D01*
X159372200Y-64149820D01*
X159372200Y-46610178D01*
X159372887Y-46600864D01*
X159372200Y-46572888D01*
X159372200Y-46544867D01*
X159371283Y-46535560D01*
X159369520Y-46463734D01*
X159369978Y-46445063D01*
X159368603Y-46426428D01*
X159368145Y-46407761D01*
X159365860Y-46389236D01*
X159359886Y-46308254D01*
X159359428Y-46289585D01*
X159357142Y-46271049D01*
X159355768Y-46252425D01*
X159352575Y-46234026D01*
X159342636Y-46153438D01*
X159341262Y-46134814D01*
X159338069Y-46116412D01*
X159335783Y-46097878D01*
X159331692Y-46079658D01*
X159317809Y-45999650D01*
X159315523Y-45981117D01*
X159311432Y-45962900D01*
X159308239Y-45944497D01*
X159303257Y-45926494D01*
X159285468Y-45847277D01*
X159282275Y-45828874D01*
X159277293Y-45810869D01*
X159273201Y-45792649D01*
X159267345Y-45774923D01*
X159245688Y-45696662D01*
X159241596Y-45678441D01*
X159235739Y-45660711D01*
X159230757Y-45642709D01*
X159224034Y-45625280D01*
X159198567Y-45548192D01*
X159193584Y-45530185D01*
X159186859Y-45512752D01*
X159181004Y-45495028D01*
X159173439Y-45477962D01*
X159144212Y-45402195D01*
X159138357Y-45384470D01*
X159130790Y-45367398D01*
X159124066Y-45349968D01*
X159115668Y-45333284D01*
X159082766Y-45259059D01*
X159076044Y-45241632D01*
X159067648Y-45224952D01*
X159060080Y-45207879D01*
X159050874Y-45191628D01*
X159014369Y-45119106D01*
X159006799Y-45102028D01*
X158997590Y-45085772D01*
X158989196Y-45069096D01*
X158979208Y-45053323D01*
X158939188Y-44982679D01*
X158930788Y-44965990D01*
X158920791Y-44950202D01*
X158911590Y-44933961D01*
X158900843Y-44918701D01*
X158862063Y-44857462D01*
X158915000Y-44591335D01*
X158915000Y-44308665D01*
X158859853Y-44031426D01*
X158751680Y-43770273D01*
X158710717Y-43708967D01*
X169815000Y-43708967D01*
X169815000Y-44031033D01*
X169877832Y-44346912D01*
X170001082Y-44644463D01*
X170180013Y-44912252D01*
X170407748Y-45139987D01*
X170675537Y-45318918D01*
X170973088Y-45442168D01*
X171288967Y-45505000D01*
X171611033Y-45505000D01*
X171926912Y-45442168D01*
X172224463Y-45318918D01*
X172492252Y-45139987D01*
X172719987Y-44912252D01*
X172898918Y-44644463D01*
X173022168Y-44346912D01*
X173085000Y-44031033D01*
X173085000Y-43708967D01*
X176315000Y-43708967D01*
X176315000Y-44031033D01*
X176377832Y-44346912D01*
X176501082Y-44644463D01*
X176680013Y-44912252D01*
X176907748Y-45139987D01*
X177175537Y-45318918D01*
X177473088Y-45442168D01*
X177788967Y-45505000D01*
X178111033Y-45505000D01*
X178426912Y-45442168D01*
X178724463Y-45318918D01*
X178992252Y-45139987D01*
X179219987Y-44912252D01*
X179398918Y-44644463D01*
X179522168Y-44346912D01*
X179585000Y-44031033D01*
X179585000Y-43708967D01*
X179522168Y-43393088D01*
X179398918Y-43095537D01*
X179219987Y-42827748D01*
X178992252Y-42600013D01*
X178724463Y-42421082D01*
X178426912Y-42297832D01*
X178111033Y-42235000D01*
X177788967Y-42235000D01*
X177473088Y-42297832D01*
X177175537Y-42421082D01*
X176907748Y-42600013D01*
X176680013Y-42827748D01*
X176501082Y-43095537D01*
X176377832Y-43393088D01*
X176315000Y-43708967D01*
X173085000Y-43708967D01*
X173022168Y-43393088D01*
X172898918Y-43095537D01*
X172719987Y-42827748D01*
X172492252Y-42600013D01*
X172224463Y-42421082D01*
X171926912Y-42297832D01*
X171611033Y-42235000D01*
X171288967Y-42235000D01*
X170973088Y-42297832D01*
X170675537Y-42421082D01*
X170407748Y-42600013D01*
X170180013Y-42827748D01*
X170001082Y-43095537D01*
X169877832Y-43393088D01*
X169815000Y-43708967D01*
X158710717Y-43708967D01*
X158594637Y-43535241D01*
X158394759Y-43335363D01*
X158159727Y-43178320D01*
X157898574Y-43070147D01*
X157621335Y-43015000D01*
X157338665Y-43015000D01*
X157061426Y-43070147D01*
X156800273Y-43178320D01*
X156565241Y-43335363D01*
X156365363Y-43535241D01*
X156208320Y-43770273D01*
X156100147Y-44031426D01*
X156045000Y-44308665D01*
X156045000Y-44591335D01*
X156100147Y-44868574D01*
X156208320Y-45129727D01*
X156365363Y-45364759D01*
X156565241Y-45564637D01*
X156800273Y-45721680D01*
X157061426Y-45829853D01*
X157338665Y-45885000D01*
X157621335Y-45885000D01*
X157691194Y-45871104D01*
X157693170Y-45875028D01*
X157726065Y-45949239D01*
X157755291Y-46025004D01*
X157780749Y-46102065D01*
X157802405Y-46180323D01*
X157820191Y-46259526D01*
X157834068Y-46339502D01*
X157844005Y-46420073D01*
X157849978Y-46501047D01*
X157852201Y-46591552D01*
X157852201Y-48140923D01*
X157621335Y-48095000D01*
X157338665Y-48095000D01*
X157061426Y-48150147D01*
X156800273Y-48258320D01*
X156565241Y-48415363D01*
X156365363Y-48615241D01*
X156208320Y-48850273D01*
X156100147Y-49111426D01*
X156045000Y-49388665D01*
X156045000Y-49671335D01*
X156100147Y-49948574D01*
X156208320Y-50209727D01*
X156365363Y-50444759D01*
X156565241Y-50644637D01*
X156720000Y-50748043D01*
X156720001Y-62490647D01*
X156717778Y-62581152D01*
X156711805Y-62662126D01*
X156701868Y-62742697D01*
X156687992Y-62822667D01*
X156670204Y-62901878D01*
X156648549Y-62980133D01*
X156623085Y-63057212D01*
X156593875Y-63132938D01*
X156560970Y-63207168D01*
X156524470Y-63279683D01*
X156484456Y-63350316D01*
X156441025Y-63418902D01*
X156394285Y-63485268D01*
X156344329Y-63549280D01*
X156291301Y-63610755D01*
X156228934Y-63676262D01*
X153859504Y-66045694D01*
X153852423Y-66051802D01*
X153833092Y-66072106D01*
X153813307Y-66091891D01*
X153807385Y-66099107D01*
X153757831Y-66151155D01*
X153744307Y-66164031D01*
X153732108Y-66178172D01*
X153719230Y-66191699D01*
X153707742Y-66206420D01*
X153654702Y-66267906D01*
X153641824Y-66281433D01*
X153630337Y-66296152D01*
X153618139Y-66310293D01*
X153607383Y-66325565D01*
X153557432Y-66389572D01*
X153545232Y-66403715D01*
X153534475Y-66418989D01*
X153522985Y-66433712D01*
X153512995Y-66449488D01*
X153466240Y-66515875D01*
X153454751Y-66530597D01*
X153444769Y-66546361D01*
X153434008Y-66561641D01*
X153424803Y-66577889D01*
X153381356Y-66646500D01*
X153370608Y-66661761D01*
X153361407Y-66678003D01*
X153351410Y-66693790D01*
X153343010Y-66710479D01*
X153302997Y-66781111D01*
X153293001Y-66796896D01*
X153284600Y-66813586D01*
X153275399Y-66829828D01*
X153267834Y-66846894D01*
X153231322Y-66919433D01*
X153222118Y-66935679D01*
X153214551Y-66952751D01*
X153206154Y-66969432D01*
X153199433Y-66986855D01*
X153166527Y-67061090D01*
X153158132Y-67077768D01*
X153151411Y-67095191D01*
X153143841Y-67112269D01*
X153137983Y-67130001D01*
X153108758Y-67205764D01*
X153101194Y-67222828D01*
X153095340Y-67240550D01*
X153088614Y-67257985D01*
X153083630Y-67275996D01*
X153058167Y-67353073D01*
X153051441Y-67370510D01*
X153046456Y-67388523D01*
X153040603Y-67406241D01*
X153036514Y-67424449D01*
X153014854Y-67502719D01*
X153008997Y-67520449D01*
X153004905Y-67538670D01*
X152999923Y-67556674D01*
X152996730Y-67575076D01*
X152978940Y-67654300D01*
X152973959Y-67672298D01*
X152970767Y-67690696D01*
X152966675Y-67708917D01*
X152964389Y-67727453D01*
X152950507Y-67807456D01*
X152946415Y-67825678D01*
X152944129Y-67844215D01*
X152940936Y-67862615D01*
X152939562Y-67881237D01*
X152929623Y-67961824D01*
X152926430Y-67980225D01*
X152925056Y-67998852D01*
X152922770Y-68017386D01*
X152922312Y-68036054D01*
X152916338Y-68117040D01*
X152914052Y-68135574D01*
X152913594Y-68154238D01*
X152912220Y-68172864D01*
X152912679Y-68191539D01*
X152910915Y-68263383D01*
X152910001Y-68272667D01*
X152910001Y-68300643D01*
X152909724Y-68311928D01*
X151915788Y-68311928D01*
X151917760Y-68229626D01*
X151923595Y-68149922D01*
X151933335Y-68070614D01*
X151946962Y-67991856D01*
X151964436Y-67913882D01*
X151985719Y-67836857D01*
X152010759Y-67760968D01*
X152039497Y-67686396D01*
X152071862Y-67613325D01*
X152107777Y-67541930D01*
X152147145Y-67472403D01*
X152189884Y-67404885D01*
X152235897Y-67339531D01*
X152285054Y-67276531D01*
X152337246Y-67216019D01*
X152398998Y-67151158D01*
X153497567Y-66052590D01*
X153504891Y-66046271D01*
X153524779Y-66025378D01*
X153545238Y-66004919D01*
X153551393Y-65997419D01*
X153599901Y-65946460D01*
X153613916Y-65933110D01*
X153626479Y-65918539D01*
X153639734Y-65904614D01*
X153651632Y-65889365D01*
X153703914Y-65828725D01*
X153717247Y-65814710D01*
X153729061Y-65799560D01*
X153741623Y-65784989D01*
X153752769Y-65769154D01*
X153801987Y-65706035D01*
X153814622Y-65691370D01*
X153825688Y-65675639D01*
X153837507Y-65660481D01*
X153847851Y-65644131D01*
X153893909Y-65578654D01*
X153905808Y-65563384D01*
X153916086Y-65547127D01*
X153927143Y-65531408D01*
X153936668Y-65514571D01*
X153979459Y-65446887D01*
X153990583Y-65431062D01*
X154000039Y-65414334D01*
X154010318Y-65398076D01*
X154019010Y-65380775D01*
X154058403Y-65311091D01*
X154068742Y-65294726D01*
X154077368Y-65277543D01*
X154086828Y-65260809D01*
X154094655Y-65243109D01*
X154130569Y-65171569D01*
X154140093Y-65154709D01*
X154147866Y-65137114D01*
X154156487Y-65119942D01*
X154163431Y-65101884D01*
X154195785Y-65028649D01*
X154204459Y-65011358D01*
X154211355Y-64993408D01*
X154219127Y-64975815D01*
X154225174Y-64957433D01*
X154253882Y-64882704D01*
X154261698Y-64864998D01*
X154267701Y-64846730D01*
X154274592Y-64828793D01*
X154279727Y-64810138D01*
X154304728Y-64734061D01*
X154311658Y-64716003D01*
X154316750Y-64697478D01*
X154322757Y-64679200D01*
X154326970Y-64660300D01*
X154348185Y-64583123D01*
X154354223Y-64564730D01*
X154358401Y-64545959D01*
X154363496Y-64527424D01*
X154366772Y-64508350D01*
X154384165Y-64430206D01*
X154389289Y-64411541D01*
X154392537Y-64392590D01*
X154396713Y-64373829D01*
X154399045Y-64354621D01*
X154412570Y-64275714D01*
X154416769Y-64256821D01*
X154419081Y-64237729D01*
X154422329Y-64218779D01*
X154423713Y-64199479D01*
X154433338Y-64119997D01*
X154436600Y-64100926D01*
X154437968Y-64081756D01*
X154440280Y-64062666D01*
X154440712Y-64043312D01*
X154446411Y-63963467D01*
X154448732Y-63944253D01*
X154449155Y-63925025D01*
X154450524Y-63905849D01*
X154450003Y-63886509D01*
X154451552Y-63816146D01*
X154452476Y-63806506D01*
X154452400Y-63777610D01*
X154453036Y-63748729D01*
X154452299Y-63739075D01*
X154445504Y-61146645D01*
X154492257Y-61166011D01*
X154788816Y-61225000D01*
X155091184Y-61225000D01*
X155387743Y-61166011D01*
X155667095Y-61050299D01*
X155918505Y-60882312D01*
X156132312Y-60668505D01*
X156300299Y-60417095D01*
X156416011Y-60137743D01*
X156475000Y-59841184D01*
X156475000Y-59538816D01*
X156416011Y-59242257D01*
X156300299Y-58962905D01*
X156132312Y-58711495D01*
X155918505Y-58497688D01*
X155700000Y-58351687D01*
X155700000Y-45044618D01*
X155705128Y-44835677D01*
X155719817Y-44636548D01*
X155744262Y-44438359D01*
X155778395Y-44241642D01*
X155822147Y-44046807D01*
X155875405Y-43854355D01*
X155938038Y-43664762D01*
X156009902Y-43478462D01*
X156090816Y-43295926D01*
X156180602Y-43117552D01*
X156279013Y-42943832D01*
X156385844Y-42775128D01*
X156500823Y-42611870D01*
X156623665Y-42454461D01*
X156754088Y-42303264D01*
X156898223Y-42151877D01*
X157290513Y-41759587D01*
X157297581Y-41753490D01*
X157316867Y-41733233D01*
X157336692Y-41713408D01*
X157342627Y-41706176D01*
X157392166Y-41654142D01*
X157405693Y-41641264D01*
X157417896Y-41627118D01*
X157430773Y-41613592D01*
X157442259Y-41598874D01*
X157495288Y-41537398D01*
X157508171Y-41523867D01*
X157519667Y-41509136D01*
X157531861Y-41495000D01*
X157542610Y-41479737D01*
X157592573Y-41415716D01*
X157604765Y-41401582D01*
X157615514Y-41386320D01*
X157627010Y-41371589D01*
X157637005Y-41355805D01*
X157683755Y-41289425D01*
X157695244Y-41274704D01*
X157705234Y-41258928D01*
X157715990Y-41243656D01*
X157725197Y-41227404D01*
X157768638Y-41158803D01*
X157779391Y-41143535D01*
X157788593Y-41127291D01*
X157798585Y-41111512D01*
X157806986Y-41094823D01*
X157847005Y-41024179D01*
X157856995Y-41008402D01*
X157865393Y-40991717D01*
X157874599Y-40975467D01*
X157882165Y-40958398D01*
X157918672Y-40885872D01*
X157927878Y-40869621D01*
X157935446Y-40852547D01*
X157943843Y-40835866D01*
X157950564Y-40818442D01*
X157983474Y-40744199D01*
X157991865Y-40727529D01*
X157998580Y-40710120D01*
X157999498Y-40708049D01*
X158159727Y-40641680D01*
X158363665Y-40505413D01*
X170494192Y-40505413D01*
X170589956Y-40769814D01*
X170879571Y-40910704D01*
X171191108Y-40992384D01*
X171512595Y-41011718D01*
X171831675Y-40967961D01*
X172136088Y-40862795D01*
X172310044Y-40769814D01*
X172405808Y-40505413D01*
X176994192Y-40505413D01*
X177089956Y-40769814D01*
X177379571Y-40910704D01*
X177691108Y-40992384D01*
X178012595Y-41011718D01*
X178331675Y-40967961D01*
X178636088Y-40862795D01*
X178810044Y-40769814D01*
X178905808Y-40505413D01*
X177950000Y-39549605D01*
X176994192Y-40505413D01*
X172405808Y-40505413D01*
X171450000Y-39549605D01*
X170494192Y-40505413D01*
X158363665Y-40505413D01*
X158394759Y-40484637D01*
X158594637Y-40284759D01*
X158751680Y-40049727D01*
X158859853Y-39788574D01*
X158915000Y-39511335D01*
X158915000Y-39432595D01*
X169808282Y-39432595D01*
X169852039Y-39751675D01*
X169957205Y-40056088D01*
X170050186Y-40230044D01*
X170314587Y-40325808D01*
X171270395Y-39370000D01*
X171629605Y-39370000D01*
X172585413Y-40325808D01*
X172849814Y-40230044D01*
X172990704Y-39940429D01*
X173072384Y-39628892D01*
X173084189Y-39432595D01*
X176308282Y-39432595D01*
X176352039Y-39751675D01*
X176457205Y-40056088D01*
X176550186Y-40230044D01*
X176814587Y-40325808D01*
X177770395Y-39370000D01*
X178129605Y-39370000D01*
X179085413Y-40325808D01*
X179349814Y-40230044D01*
X179490704Y-39940429D01*
X179572384Y-39628892D01*
X179591718Y-39307405D01*
X179547961Y-38988325D01*
X179442795Y-38683912D01*
X179349814Y-38509956D01*
X179085413Y-38414192D01*
X178129605Y-39370000D01*
X177770395Y-39370000D01*
X176814587Y-38414192D01*
X176550186Y-38509956D01*
X176409296Y-38799571D01*
X176327616Y-39111108D01*
X176308282Y-39432595D01*
X173084189Y-39432595D01*
X173091718Y-39307405D01*
X173047961Y-38988325D01*
X172942795Y-38683912D01*
X172849814Y-38509956D01*
X172585413Y-38414192D01*
X171629605Y-39370000D01*
X171270395Y-39370000D01*
X170314587Y-38414192D01*
X170050186Y-38509956D01*
X169909296Y-38799571D01*
X169827616Y-39111108D01*
X169808282Y-39432595D01*
X158915000Y-39432595D01*
X158915000Y-39228665D01*
X158859853Y-38951426D01*
X158751680Y-38690273D01*
X158594637Y-38455241D01*
X158394759Y-38255363D01*
X158363666Y-38234587D01*
X170494192Y-38234587D01*
X171450000Y-39190395D01*
X172405808Y-38234587D01*
X176994192Y-38234587D01*
X177950000Y-39190395D01*
X178905808Y-38234587D01*
X178810044Y-37970186D01*
X178520429Y-37829296D01*
X178208892Y-37747616D01*
X177887405Y-37728282D01*
X177568325Y-37772039D01*
X177263912Y-37877205D01*
X177089956Y-37970186D01*
X176994192Y-38234587D01*
X172405808Y-38234587D01*
X172310044Y-37970186D01*
X172020429Y-37829296D01*
X171708892Y-37747616D01*
X171387405Y-37728282D01*
X171068325Y-37772039D01*
X170763912Y-37877205D01*
X170589956Y-37970186D01*
X170494192Y-38234587D01*
X158363666Y-38234587D01*
X158159727Y-38098320D01*
X157898574Y-37990147D01*
X157621335Y-37935000D01*
X157338665Y-37935000D01*
X157061426Y-37990147D01*
X156800273Y-38098320D01*
X156565241Y-38255363D01*
X156365363Y-38455241D01*
X156208320Y-38690273D01*
X156100147Y-38951426D01*
X156045000Y-39228665D01*
X156045000Y-39511335D01*
X156100147Y-39788574D01*
X156208320Y-40049727D01*
X156365363Y-40284759D01*
X156461877Y-40381273D01*
X156441027Y-40414198D01*
X156394284Y-40480568D01*
X156344328Y-40544580D01*
X156291300Y-40606055D01*
X156228894Y-40671603D01*
X155836599Y-41063898D01*
X155829532Y-41069994D01*
X155810234Y-41090263D01*
X155790413Y-41110084D01*
X155784484Y-41117309D01*
X155653225Y-41255172D01*
X155639703Y-41268046D01*
X155627512Y-41282179D01*
X155614630Y-41295709D01*
X155603134Y-41310440D01*
X155472702Y-41461647D01*
X155459826Y-41475171D01*
X155448337Y-41489892D01*
X155436137Y-41504036D01*
X155425382Y-41519307D01*
X155302525Y-41676734D01*
X155290328Y-41690874D01*
X155279577Y-41706140D01*
X155268085Y-41720865D01*
X155258092Y-41736646D01*
X155143110Y-41899909D01*
X155131621Y-41914630D01*
X155121629Y-41930408D01*
X155110874Y-41945680D01*
X155101669Y-41961930D01*
X154994833Y-42130642D01*
X154984082Y-42145907D01*
X154974878Y-42162154D01*
X154964885Y-42177935D01*
X154956488Y-42194617D01*
X154858061Y-42368365D01*
X154848069Y-42384144D01*
X154839672Y-42400826D01*
X154830467Y-42417075D01*
X154822899Y-42434147D01*
X154733111Y-42612525D01*
X154723911Y-42628766D01*
X154716346Y-42645831D01*
X154707944Y-42662524D01*
X154701220Y-42679955D01*
X154620299Y-42862508D01*
X154611903Y-42879189D01*
X154605183Y-42896609D01*
X154597614Y-42913685D01*
X154591755Y-42931421D01*
X154519883Y-43117740D01*
X154512319Y-43134805D01*
X154506464Y-43152527D01*
X154499739Y-43169962D01*
X154494755Y-43187971D01*
X154432120Y-43377571D01*
X154425397Y-43395000D01*
X154420415Y-43413002D01*
X154414558Y-43430732D01*
X154410467Y-43448951D01*
X154357208Y-43641405D01*
X154351347Y-43659145D01*
X154347253Y-43677375D01*
X154342274Y-43695368D01*
X154339082Y-43713762D01*
X154295328Y-43908613D01*
X154290348Y-43926607D01*
X154287156Y-43945002D01*
X154283063Y-43963230D01*
X154280776Y-43981770D01*
X154246639Y-44178508D01*
X154242546Y-44196736D01*
X154240258Y-44215284D01*
X154237067Y-44233676D01*
X154235694Y-44252288D01*
X154211247Y-44450494D01*
X154208055Y-44468891D01*
X154206682Y-44487511D01*
X154204395Y-44506049D01*
X154203937Y-44524722D01*
X154189246Y-44723876D01*
X154186960Y-44742411D01*
X154186502Y-44761080D01*
X154185128Y-44779704D01*
X154185586Y-44798374D01*
X154180916Y-44988670D01*
X154180000Y-44997968D01*
X154180000Y-45025982D01*
X154179313Y-45053973D01*
X154180000Y-45063286D01*
X154180001Y-55764617D01*
X154061492Y-55236873D01*
X154058193Y-55217862D01*
X154053047Y-55199267D01*
X154048822Y-55180452D01*
X154042773Y-55162142D01*
X153895024Y-54628248D01*
X153890798Y-54609427D01*
X153884747Y-54591109D01*
X153879602Y-54572519D01*
X153872661Y-54554525D01*
X153698896Y-54028534D01*
X153693750Y-54009937D01*
X153686806Y-53991934D01*
X153680757Y-53973625D01*
X153672943Y-53955997D01*
X153473575Y-53439155D01*
X153467525Y-53420841D01*
X153459708Y-53403207D01*
X153452765Y-53385207D01*
X153444092Y-53367976D01*
X153219612Y-52861557D01*
X153212666Y-52843551D01*
X153203989Y-52826312D01*
X153196176Y-52808687D01*
X153186673Y-52791912D01*
X152937605Y-52297100D01*
X152929787Y-52279463D01*
X152920278Y-52262677D01*
X152911606Y-52245449D01*
X152901288Y-52229155D01*
X152628251Y-51747178D01*
X152619572Y-51729935D01*
X152609242Y-51713623D01*
X152599743Y-51696854D01*
X152588646Y-51681097D01*
X152292275Y-51213077D01*
X152282765Y-51196289D01*
X152271654Y-51180512D01*
X152261338Y-51164222D01*
X152249476Y-51149022D01*
X151930509Y-50696127D01*
X151920180Y-50679815D01*
X151908298Y-50664590D01*
X151897203Y-50648836D01*
X151884619Y-50634248D01*
X151543788Y-50197514D01*
X151532688Y-50181753D01*
X151520096Y-50167155D01*
X151508221Y-50151939D01*
X151494913Y-50137961D01*
X151257035Y-49862195D01*
X151295000Y-49671335D01*
X151295000Y-49388665D01*
X151239853Y-49111426D01*
X151131680Y-48850273D01*
X150974637Y-48615241D01*
X150774759Y-48415363D01*
X150645000Y-48328661D01*
X150645000Y-45651339D01*
X150774759Y-45564637D01*
X150974637Y-45364759D01*
X151131680Y-45129727D01*
X151239853Y-44868574D01*
X151295000Y-44591335D01*
X151295000Y-44308665D01*
X151239853Y-44031426D01*
X151131680Y-43770273D01*
X150974637Y-43535241D01*
X150774759Y-43335363D01*
X150645000Y-43248661D01*
X150645000Y-40571339D01*
X150774759Y-40484637D01*
X150974637Y-40284759D01*
X151131680Y-40049727D01*
X151239853Y-39788574D01*
X151295000Y-39511335D01*
X151295000Y-39228665D01*
X151239853Y-38951426D01*
X151131680Y-38690273D01*
X150974637Y-38455241D01*
X150774759Y-38255363D01*
X150539727Y-38098320D01*
X150278574Y-37990147D01*
X150001335Y-37935000D01*
X149718665Y-37935000D01*
X149441426Y-37990147D01*
X149180273Y-38098320D01*
X148945241Y-38255363D01*
X148745363Y-38455241D01*
X148588320Y-38690273D01*
X148480147Y-38951426D01*
X148425000Y-39228665D01*
X148425000Y-39511335D01*
X148480147Y-39788574D01*
X148588320Y-40049727D01*
X148745363Y-40284759D01*
X148945241Y-40484637D01*
X149075001Y-40571339D01*
X149075000Y-43248661D01*
X148945241Y-43335363D01*
X148745363Y-43535241D01*
X148588320Y-43770273D01*
X148480147Y-44031426D01*
X148425000Y-44308665D01*
X148425000Y-44591335D01*
X148480147Y-44868574D01*
X148588320Y-45129727D01*
X148745363Y-45364759D01*
X148945241Y-45564637D01*
X149075000Y-45651339D01*
X149075001Y-48328661D01*
X148945241Y-48415363D01*
X148745363Y-48615241D01*
X148588320Y-48850273D01*
X148480147Y-49111426D01*
X148425000Y-49388665D01*
X148425000Y-49671335D01*
X148455446Y-49824396D01*
X146208831Y-52071011D01*
X146143949Y-52132782D01*
X146083421Y-52184994D01*
X146020370Y-52234199D01*
X145955006Y-52280235D01*
X145887471Y-52323000D01*
X145817899Y-52362413D01*
X145815299Y-52363722D01*
X145686727Y-52235150D01*
X145453759Y-52079486D01*
X145430858Y-52070000D01*
X145453759Y-52060514D01*
X145686727Y-51904850D01*
X145884850Y-51706727D01*
X146040514Y-51473759D01*
X146147738Y-51214899D01*
X146202400Y-50940094D01*
X146202400Y-50659906D01*
X146147738Y-50385101D01*
X146040514Y-50126241D01*
X145884850Y-49893273D01*
X145686727Y-49695150D01*
X145453759Y-49539486D01*
X145431755Y-49530372D01*
X145514043Y-49486388D01*
X145584100Y-49243705D01*
X144780000Y-48439605D01*
X143975900Y-49243705D01*
X144045957Y-49486388D01*
X144134028Y-49527976D01*
X144106241Y-49539486D01*
X143873273Y-49695150D01*
X143675150Y-49893273D01*
X143519486Y-50126241D01*
X143412262Y-50385101D01*
X143357600Y-50659906D01*
X143357600Y-50940094D01*
X143412262Y-51214899D01*
X143519486Y-51473759D01*
X143675150Y-51706727D01*
X143873273Y-51904850D01*
X144106241Y-52060514D01*
X144129142Y-52070000D01*
X144106241Y-52079486D01*
X143873273Y-52235150D01*
X143675150Y-52433273D01*
X143519486Y-52666241D01*
X143412262Y-52925101D01*
X143357600Y-53199906D01*
X143357600Y-53480094D01*
X143412262Y-53754899D01*
X143519486Y-54013759D01*
X143675150Y-54246727D01*
X143873273Y-54444850D01*
X144106241Y-54600514D01*
X144129142Y-54610000D01*
X144106241Y-54619486D01*
X143873273Y-54775150D01*
X143675150Y-54973273D01*
X143519486Y-55206241D01*
X143412262Y-55465101D01*
X143357600Y-55739906D01*
X143357600Y-56020094D01*
X143412262Y-56294899D01*
X143519486Y-56553759D01*
X143675150Y-56786727D01*
X143873273Y-56984850D01*
X144106241Y-57140514D01*
X144129142Y-57150000D01*
X144106241Y-57159486D01*
X143873273Y-57315150D01*
X143675150Y-57513273D01*
X143519486Y-57746241D01*
X143412262Y-58005101D01*
X143357600Y-58279906D01*
X143357600Y-58560094D01*
X143412262Y-58834899D01*
X143451654Y-58930000D01*
X142997986Y-58930000D01*
X142988673Y-58929313D01*
X142960683Y-58930000D01*
X142932667Y-58930000D01*
X142923368Y-58930916D01*
X142733074Y-58935586D01*
X142714403Y-58935128D01*
X142695779Y-58936502D01*
X142677111Y-58936960D01*
X142658577Y-58939246D01*
X142459422Y-58953937D01*
X142440748Y-58954395D01*
X142422209Y-58956682D01*
X142403591Y-58958055D01*
X142385196Y-58961247D01*
X142186989Y-58985694D01*
X142168375Y-58987067D01*
X142149981Y-58990259D01*
X142131436Y-58992546D01*
X142113211Y-58996639D01*
X141916474Y-59030776D01*
X141897928Y-59033063D01*
X141879694Y-59037158D01*
X141861307Y-59040348D01*
X141843320Y-59045326D01*
X141648463Y-59089082D01*
X141630067Y-59092274D01*
X141612069Y-59097255D01*
X141593845Y-59101347D01*
X141576114Y-59107205D01*
X141383643Y-59160468D01*
X141365430Y-59164558D01*
X141347708Y-59170412D01*
X141329700Y-59175396D01*
X141312267Y-59182121D01*
X141122665Y-59244757D01*
X141104662Y-59249739D01*
X141087233Y-59256462D01*
X141069504Y-59262319D01*
X141052433Y-59269886D01*
X140866117Y-59341757D01*
X140848386Y-59347614D01*
X140831316Y-59355181D01*
X140813889Y-59361903D01*
X140797205Y-59370301D01*
X140614657Y-59451219D01*
X140597224Y-59457944D01*
X140580531Y-59466347D01*
X140563466Y-59473911D01*
X140547225Y-59483111D01*
X140368847Y-59572899D01*
X140351775Y-59580467D01*
X140335526Y-59589672D01*
X140318844Y-59598069D01*
X140303065Y-59608061D01*
X140129325Y-59706483D01*
X140112634Y-59714885D01*
X140096846Y-59724883D01*
X140080607Y-59734082D01*
X140065347Y-59744829D01*
X139896628Y-59851670D01*
X139880380Y-59860874D01*
X139865108Y-59871629D01*
X139849330Y-59881621D01*
X139834610Y-59893108D01*
X139671338Y-60008097D01*
X139655565Y-60018085D01*
X139640848Y-60029570D01*
X139625573Y-60040328D01*
X139611426Y-60052531D01*
X139454007Y-60175382D01*
X139438736Y-60186137D01*
X139424592Y-60198337D01*
X139409871Y-60209826D01*
X139396347Y-60222702D01*
X139245140Y-60353134D01*
X139230409Y-60364630D01*
X139216879Y-60377512D01*
X139202746Y-60389703D01*
X139189872Y-60403225D01*
X139052011Y-60534482D01*
X139044783Y-60540414D01*
X139024963Y-60560234D01*
X139004694Y-60579532D01*
X138998598Y-60586599D01*
X130962400Y-68622799D01*
X130962400Y-68439906D01*
X130907738Y-68165101D01*
X130800514Y-67906241D01*
X130644850Y-67673273D01*
X130446727Y-67475150D01*
X130213759Y-67319486D01*
X130190858Y-67310000D01*
X130213759Y-67300514D01*
X130446727Y-67144850D01*
X130644850Y-66946727D01*
X130800514Y-66713759D01*
X130907738Y-66454899D01*
X130962400Y-66180094D01*
X130962400Y-65899906D01*
X130907738Y-65625101D01*
X130800514Y-65366241D01*
X130644850Y-65133273D01*
X130446727Y-64935150D01*
X130213759Y-64779486D01*
X130190858Y-64770000D01*
X130213759Y-64760514D01*
X130446727Y-64604850D01*
X130644850Y-64406727D01*
X130800514Y-64173759D01*
X130907738Y-63914899D01*
X130962400Y-63640094D01*
X130962400Y-63359906D01*
X130907738Y-63085101D01*
X130800514Y-62826241D01*
X130644850Y-62593273D01*
X130446727Y-62395150D01*
X130213759Y-62239486D01*
X130190858Y-62230000D01*
X130213759Y-62220514D01*
X130446727Y-62064850D01*
X130644850Y-61866727D01*
X130800514Y-61633759D01*
X130907738Y-61374899D01*
X130962400Y-61100094D01*
X130962400Y-60819906D01*
X130907738Y-60545101D01*
X130800514Y-60286241D01*
X130644850Y-60053273D01*
X130446727Y-59855150D01*
X130213759Y-59699486D01*
X130190858Y-59690000D01*
X130213759Y-59680514D01*
X130446727Y-59524850D01*
X130644850Y-59326727D01*
X130800514Y-59093759D01*
X130907738Y-58834899D01*
X130962400Y-58560094D01*
X130962400Y-58279906D01*
X130907738Y-58005101D01*
X130800514Y-57746241D01*
X130644850Y-57513273D01*
X130446727Y-57315150D01*
X130213759Y-57159486D01*
X130190858Y-57150000D01*
X130213759Y-57140514D01*
X130446727Y-56984850D01*
X130644850Y-56786727D01*
X130800514Y-56553759D01*
X130907738Y-56294899D01*
X130962400Y-56020094D01*
X130962400Y-55739906D01*
X130907738Y-55465101D01*
X130800514Y-55206241D01*
X130644850Y-54973273D01*
X130446727Y-54775150D01*
X130213759Y-54619486D01*
X130190858Y-54610000D01*
X130213759Y-54600514D01*
X130446727Y-54444850D01*
X130644850Y-54246727D01*
X130800514Y-54013759D01*
X130907738Y-53754899D01*
X130962400Y-53480094D01*
X130962400Y-53199906D01*
X130907738Y-52925101D01*
X130800514Y-52666241D01*
X130644850Y-52433273D01*
X130446727Y-52235150D01*
X130213759Y-52079486D01*
X130190858Y-52070000D01*
X130213759Y-52060514D01*
X130446727Y-51904850D01*
X130644850Y-51706727D01*
X130800514Y-51473759D01*
X130907738Y-51214899D01*
X130962400Y-50940094D01*
X130962400Y-50659906D01*
X130907738Y-50385101D01*
X130800514Y-50126241D01*
X130644850Y-49893273D01*
X130446727Y-49695150D01*
X130213759Y-49539486D01*
X130190858Y-49530000D01*
X130213759Y-49520514D01*
X130446727Y-49364850D01*
X130644850Y-49166727D01*
X130800514Y-48933759D01*
X130907738Y-48674899D01*
X130962400Y-48400094D01*
X130962400Y-48331010D01*
X143352483Y-48331010D01*
X143393766Y-48608140D01*
X143488321Y-48871892D01*
X143553612Y-48994043D01*
X143796295Y-49064100D01*
X144600395Y-48260000D01*
X144959605Y-48260000D01*
X145763705Y-49064100D01*
X146006388Y-48994043D01*
X146126028Y-48740682D01*
X146193941Y-48468849D01*
X146207517Y-48188990D01*
X146166234Y-47911860D01*
X146071679Y-47648108D01*
X146006388Y-47525957D01*
X145763705Y-47455900D01*
X144959605Y-48260000D01*
X144600395Y-48260000D01*
X143796295Y-47455900D01*
X143553612Y-47525957D01*
X143433972Y-47779318D01*
X143366059Y-48051151D01*
X143352483Y-48331010D01*
X130962400Y-48331010D01*
X130962400Y-48119906D01*
X130907738Y-47845101D01*
X130800514Y-47586241D01*
X130644850Y-47353273D01*
X130446727Y-47155150D01*
X130213759Y-46999486D01*
X130190858Y-46990000D01*
X130213759Y-46980514D01*
X130446727Y-46824850D01*
X130644850Y-46626727D01*
X130800514Y-46393759D01*
X130907738Y-46134899D01*
X130962400Y-45860094D01*
X130962400Y-45579906D01*
X143357600Y-45579906D01*
X143357600Y-45860094D01*
X143412262Y-46134899D01*
X143519486Y-46393759D01*
X143675150Y-46626727D01*
X143873273Y-46824850D01*
X144106241Y-46980514D01*
X144128245Y-46989628D01*
X144045957Y-47033612D01*
X143975900Y-47276295D01*
X144780000Y-48080395D01*
X145584100Y-47276295D01*
X145514043Y-47033612D01*
X145425972Y-46992024D01*
X145453759Y-46980514D01*
X145686727Y-46824850D01*
X145884850Y-46626727D01*
X146040514Y-46393759D01*
X146147738Y-46134899D01*
X146202400Y-45860094D01*
X146202400Y-45579906D01*
X146147738Y-45305101D01*
X146040514Y-45046241D01*
X145884850Y-44813273D01*
X145686727Y-44615150D01*
X145453759Y-44459486D01*
X145194899Y-44352262D01*
X144920094Y-44297600D01*
X144639906Y-44297600D01*
X144365101Y-44352262D01*
X144106241Y-44459486D01*
X143873273Y-44615150D01*
X143675150Y-44813273D01*
X143519486Y-45046241D01*
X143412262Y-45305101D01*
X143357600Y-45579906D01*
X130962400Y-45579906D01*
X130907738Y-45305101D01*
X130800514Y-45046241D01*
X130644850Y-44813273D01*
X130446727Y-44615150D01*
X130213759Y-44459486D01*
X129954899Y-44352262D01*
X129680094Y-44297600D01*
X129399906Y-44297600D01*
X129125101Y-44352262D01*
X128866241Y-44459486D01*
X128633273Y-44615150D01*
X128435150Y-44813273D01*
X128279486Y-45046241D01*
X128172262Y-45305101D01*
X128117600Y-45579906D01*
X127660000Y-45579906D01*
X127660000Y-36220000D01*
X179680000Y-36220000D01*
X179680001Y-86970000D01*
G04 #@! TD*
M02*
