G04 #@! TF.GenerationSoftware,KiCad,Pcbnew,5.1.6-c6e7f7d~87~ubuntu18.04.1*
G04 #@! TF.CreationDate,2020-08-20T21:19:03-03:00*
G04 #@! TF.ProjectId,dram-tester,6472616d-2d74-4657-9374-65722e6b6963,rev?*
G04 #@! TF.SameCoordinates,Original*
G04 #@! TF.FileFunction,Copper,L1,Top*
G04 #@! TF.FilePolarity,Positive*
%FSLAX46Y46*%
G04 Gerber Fmt 4.6, Leading zero omitted, Abs format (unit mm)*
G04 Created by KiCad (PCBNEW 5.1.6-c6e7f7d~87~ubuntu18.04.1) date 2020-08-20 21:19:03*
%MOMM*%
%LPD*%
G01*
G04 APERTURE LIST*
G04 #@! TA.AperFunction,ComponentPad*
%ADD10C,2.000000*%
G04 #@! TD*
G04 #@! TA.AperFunction,ComponentPad*
%ADD11R,1.700000X1.700000*%
G04 #@! TD*
G04 #@! TA.AperFunction,ComponentPad*
%ADD12O,1.700000X1.700000*%
G04 #@! TD*
G04 #@! TA.AperFunction,ComponentPad*
%ADD13R,1.800000X1.800000*%
G04 #@! TD*
G04 #@! TA.AperFunction,ComponentPad*
%ADD14C,1.800000*%
G04 #@! TD*
G04 #@! TA.AperFunction,ComponentPad*
%ADD15C,1.600000*%
G04 #@! TD*
G04 #@! TA.AperFunction,ComponentPad*
%ADD16O,1.600000X1.600000*%
G04 #@! TD*
G04 #@! TA.AperFunction,ComponentPad*
%ADD17O,2.000000X1.440000*%
G04 #@! TD*
G04 #@! TA.AperFunction,ComponentPad*
%ADD18R,2.000000X1.440000*%
G04 #@! TD*
G04 #@! TA.AperFunction,ComponentPad*
%ADD19C,1.574800*%
G04 #@! TD*
G04 #@! TA.AperFunction,ViaPad*
%ADD20C,0.800000*%
G04 #@! TD*
G04 #@! TA.AperFunction,Conductor*
%ADD21C,0.250000*%
G04 #@! TD*
G04 #@! TA.AperFunction,Conductor*
%ADD22C,0.254000*%
G04 #@! TD*
G04 APERTURE END LIST*
D10*
G04 #@! TO.P,SW1,2*
G04 #@! TO.N,Net-(A1-Pad28)*
X171450000Y-43870000D03*
G04 #@! TO.P,SW1,1*
G04 #@! TO.N,Net-(A1-Pad29)*
X171450000Y-39370000D03*
G04 #@! TO.P,SW1,2*
G04 #@! TO.N,Net-(A1-Pad28)*
X177950000Y-43870000D03*
G04 #@! TO.P,SW1,1*
G04 #@! TO.N,Net-(A1-Pad29)*
X177950000Y-39370000D03*
G04 #@! TD*
D11*
G04 #@! TO.P,JP1,1*
G04 #@! TO.N,Net-(A1-Pad29)*
X154940000Y-82550000D03*
D12*
G04 #@! TO.P,JP1,2*
G04 #@! TO.N,Net-(A1-Pad13)*
X152400000Y-82550000D03*
G04 #@! TD*
D13*
G04 #@! TO.P,D2,1*
G04 #@! TO.N,Net-(A1-Pad15)*
X152400000Y-59690000D03*
D14*
G04 #@! TO.P,D2,2*
G04 #@! TO.N,Net-(D2-Pad2)*
X154940000Y-59690000D03*
G04 #@! TD*
D13*
G04 #@! TO.P,D1,1*
G04 #@! TO.N,Net-(A1-Pad14)*
X152400000Y-69850000D03*
D14*
G04 #@! TO.P,D1,2*
G04 #@! TO.N,Net-(D1-Pad2)*
X154940000Y-69850000D03*
G04 #@! TD*
D15*
G04 #@! TO.P,R3,1*
G04 #@! TO.N,Net-(A1-Pad27)*
X149860000Y-39370000D03*
D16*
G04 #@! TO.P,R3,2*
G04 #@! TO.N,Net-(D2-Pad2)*
X157480000Y-39370000D03*
G04 #@! TD*
D15*
G04 #@! TO.P,R2,1*
G04 #@! TO.N,Net-(A1-Pad27)*
X149860000Y-44450000D03*
D16*
G04 #@! TO.P,R2,2*
G04 #@! TO.N,Net-(D1-Pad2)*
X157480000Y-44450000D03*
G04 #@! TD*
D15*
G04 #@! TO.P,R1,1*
G04 #@! TO.N,Net-(A1-Pad27)*
X149860000Y-49530000D03*
D16*
G04 #@! TO.P,R1,2*
G04 #@! TO.N,Net-(A1-Pad13)*
X157480000Y-49530000D03*
G04 #@! TD*
D17*
G04 #@! TO.P,J1,9*
G04 #@! TO.N,Net-(A1-Pad6)*
X175260000Y-77470000D03*
G04 #@! TO.P,J1,8*
G04 #@! TO.N,Net-(A1-Pad27)*
X167640000Y-77470000D03*
G04 #@! TO.P,J1,10*
G04 #@! TO.N,Net-(A1-Pad7)*
X175260000Y-74930000D03*
G04 #@! TO.P,J1,7*
G04 #@! TO.N,Net-(A1-Pad5)*
X167640000Y-74930000D03*
G04 #@! TO.P,J1,11*
G04 #@! TO.N,Net-(A1-Pad8)*
X175260000Y-72390000D03*
G04 #@! TO.P,J1,6*
G04 #@! TO.N,Net-(A1-Pad24)*
X167640000Y-72390000D03*
G04 #@! TO.P,J1,12*
G04 #@! TO.N,Net-(A1-Pad9)*
X175260000Y-69850000D03*
G04 #@! TO.P,J1,5*
G04 #@! TO.N,Net-(A1-Pad23)*
X167640000Y-69850000D03*
G04 #@! TO.P,J1,13*
G04 #@! TO.N,Net-(A1-Pad10)*
X175260000Y-67310000D03*
G04 #@! TO.P,J1,4*
G04 #@! TO.N,Net-(A1-Pad22)*
X167640000Y-67310000D03*
G04 #@! TO.P,J1,14*
G04 #@! TO.N,Net-(A1-Pad11)*
X175260000Y-64770000D03*
G04 #@! TO.P,J1,3*
G04 #@! TO.N,Net-(A1-Pad21)*
X167640000Y-64770000D03*
G04 #@! TO.P,J1,15*
G04 #@! TO.N,Net-(A1-Pad12)*
X175260000Y-62230000D03*
G04 #@! TO.P,J1,2*
G04 #@! TO.N,Net-(A1-Pad20)*
X167640000Y-62230000D03*
G04 #@! TO.P,J1,16*
G04 #@! TO.N,Net-(A1-Pad29)*
X175260000Y-59690000D03*
D18*
G04 #@! TO.P,J1,1*
G04 #@! TO.N,Net-(A1-Pad19)*
X167640000Y-59690000D03*
G04 #@! TD*
D19*
G04 #@! TO.P,A1,15*
G04 #@! TO.N,Net-(A1-Pad15)*
X129540000Y-81280000D03*
G04 #@! TO.P,A1,16*
G04 #@! TO.N,N/C*
X144780000Y-81280000D03*
G04 #@! TO.P,A1,14*
G04 #@! TO.N,Net-(A1-Pad14)*
X129540000Y-78740000D03*
G04 #@! TO.P,A1,17*
G04 #@! TO.N,N/C*
X144780000Y-78740000D03*
G04 #@! TO.P,A1,13*
G04 #@! TO.N,Net-(A1-Pad13)*
X129540000Y-76200000D03*
G04 #@! TO.P,A1,18*
G04 #@! TO.N,N/C*
X144780000Y-76200000D03*
G04 #@! TO.P,A1,12*
G04 #@! TO.N,Net-(A1-Pad12)*
X129540000Y-73660000D03*
G04 #@! TO.P,A1,19*
G04 #@! TO.N,Net-(A1-Pad19)*
X144780000Y-73660000D03*
G04 #@! TO.P,A1,11*
G04 #@! TO.N,Net-(A1-Pad11)*
X129540000Y-71120000D03*
G04 #@! TO.P,A1,20*
G04 #@! TO.N,Net-(A1-Pad20)*
X144780000Y-71120000D03*
G04 #@! TO.P,A1,10*
G04 #@! TO.N,Net-(A1-Pad10)*
X129540000Y-68580000D03*
G04 #@! TO.P,A1,21*
G04 #@! TO.N,Net-(A1-Pad21)*
X144780000Y-68580000D03*
G04 #@! TO.P,A1,9*
G04 #@! TO.N,Net-(A1-Pad9)*
X129540000Y-66040000D03*
G04 #@! TO.P,A1,22*
G04 #@! TO.N,Net-(A1-Pad22)*
X144780000Y-66040000D03*
G04 #@! TO.P,A1,8*
G04 #@! TO.N,Net-(A1-Pad8)*
X129540000Y-63500000D03*
G04 #@! TO.P,A1,23*
G04 #@! TO.N,Net-(A1-Pad23)*
X144780000Y-63500000D03*
G04 #@! TO.P,A1,7*
G04 #@! TO.N,Net-(A1-Pad7)*
X129540000Y-60960000D03*
G04 #@! TO.P,A1,24*
G04 #@! TO.N,Net-(A1-Pad24)*
X144780000Y-60960000D03*
G04 #@! TO.P,A1,6*
G04 #@! TO.N,Net-(A1-Pad6)*
X129540000Y-58420000D03*
G04 #@! TO.P,A1,25*
G04 #@! TO.N,N/C*
X144780000Y-58420000D03*
G04 #@! TO.P,A1,5*
G04 #@! TO.N,Net-(A1-Pad5)*
X129540000Y-55880000D03*
G04 #@! TO.P,A1,26*
G04 #@! TO.N,N/C*
X144780000Y-55880000D03*
G04 #@! TO.P,A1,4*
X129540000Y-53340000D03*
G04 #@! TO.P,A1,27*
G04 #@! TO.N,Net-(A1-Pad27)*
X144780000Y-53340000D03*
G04 #@! TO.P,A1,3*
G04 #@! TO.N,N/C*
X129540000Y-50800000D03*
G04 #@! TO.P,A1,28*
G04 #@! TO.N,Net-(A1-Pad28)*
X144780000Y-50800000D03*
G04 #@! TO.P,A1,2*
G04 #@! TO.N,N/C*
X129540000Y-48260000D03*
G04 #@! TO.P,A1,29*
G04 #@! TO.N,Net-(A1-Pad29)*
X144780000Y-48260000D03*
G04 #@! TO.P,A1,1*
G04 #@! TO.N,N/C*
X129540000Y-45720000D03*
G04 #@! TO.P,A1,30*
X144780000Y-45720000D03*
G04 #@! TD*
D20*
G04 #@! TO.N,Net-(A1-Pad14)*
X152176500Y-80586400D03*
G04 #@! TO.N,Net-(A1-Pad12)*
X148874900Y-61428800D03*
G04 #@! TO.N,Net-(A1-Pad19)*
X152927800Y-62411600D03*
G04 #@! TO.N,Net-(A1-Pad11)*
X146986300Y-62387200D03*
G04 #@! TO.N,Net-(A1-Pad20)*
X151019100Y-62997600D03*
G04 #@! TO.N,Net-(A1-Pad21)*
X148957300Y-65118100D03*
G04 #@! TD*
D21*
G04 #@! TO.N,Net-(A1-Pad15)*
X152400000Y-59690000D02*
X152400000Y-60915300D01*
X129540000Y-81280000D02*
X143510000Y-67310000D01*
X143510000Y-67310000D02*
X145084800Y-67310000D01*
X145084800Y-67310000D02*
X151479500Y-60915300D01*
X151479500Y-60915300D02*
X152400000Y-60915300D01*
G04 #@! TO.N,Net-(A1-Pad14)*
X152176500Y-80586400D02*
X152400000Y-80362900D01*
X152400000Y-80362900D02*
X152400000Y-69850000D01*
G04 #@! TO.N,Net-(A1-Pad13)*
X157480000Y-49530000D02*
X157480000Y-59664500D01*
X157480000Y-59664500D02*
X153625400Y-63519100D01*
X153625400Y-63519100D02*
X153625400Y-80163300D01*
X153625400Y-80163300D02*
X152414000Y-81374700D01*
X152414000Y-81374700D02*
X152400000Y-81374700D01*
X152400000Y-82550000D02*
X152400000Y-81374700D01*
G04 #@! TO.N,Net-(A1-Pad12)*
X129540000Y-73660000D02*
X138375500Y-64824500D01*
X138375500Y-64824500D02*
X145602600Y-64824500D01*
X145602600Y-64824500D02*
X148874900Y-61552200D01*
X148874900Y-61552200D02*
X148874900Y-61428800D01*
G04 #@! TO.N,Net-(A1-Pad19)*
X144780000Y-73660000D02*
X150132900Y-68307100D01*
X150132900Y-68307100D02*
X150132900Y-65206500D01*
X150132900Y-65206500D02*
X152927800Y-62411600D01*
G04 #@! TO.N,Net-(A1-Pad11)*
X129540000Y-71120000D02*
X138272800Y-62387200D01*
X138272800Y-62387200D02*
X146986300Y-62387200D01*
G04 #@! TO.N,Net-(A1-Pad20)*
X144780000Y-71120000D02*
X149682600Y-66217400D01*
X149682600Y-66217400D02*
X149682600Y-64334100D01*
X149682600Y-64334100D02*
X151019100Y-62997600D01*
G04 #@! TO.N,Net-(A1-Pad21)*
X144780000Y-68580000D02*
X148241900Y-65118100D01*
X148241900Y-65118100D02*
X148957300Y-65118100D01*
G04 #@! TO.N,Net-(A1-Pad27)*
X167640000Y-78515300D02*
X162429900Y-83725400D01*
X162429900Y-83725400D02*
X151840500Y-83725400D01*
X151840500Y-83725400D02*
X151139600Y-83024500D01*
X151139600Y-83024500D02*
X151139600Y-65368000D01*
X151139600Y-65368000D02*
X153653100Y-62854500D01*
X153653100Y-62854500D02*
X153653100Y-53323100D01*
X153653100Y-53323100D02*
X149860000Y-49530000D01*
X167640000Y-77470000D02*
X167640000Y-78515300D01*
X149860000Y-44450000D02*
X149860000Y-49530000D01*
X149860000Y-44450000D02*
X149860000Y-39370000D01*
X144780000Y-53340000D02*
X146050000Y-53340000D01*
X146050000Y-53340000D02*
X149860000Y-49530000D01*
G04 #@! TO.N,Net-(A1-Pad29)*
X175260000Y-42060000D02*
X177950000Y-39370000D01*
X175260000Y-59690000D02*
X175260000Y-42060000D01*
X171450000Y-39370000D02*
X172570000Y-39370000D01*
X172570000Y-39370000D02*
X175260000Y-42060000D01*
X175260000Y-59690000D02*
X175260000Y-60735300D01*
X175260000Y-60735300D02*
X174966000Y-60735300D01*
X174966000Y-60735300D02*
X168986500Y-66714800D01*
X168986500Y-66714800D02*
X168986500Y-67769100D01*
X168986500Y-67769100D02*
X168175600Y-68580000D01*
X168175600Y-68580000D02*
X167128800Y-68580000D01*
X167128800Y-68580000D02*
X154940000Y-80768800D01*
X154940000Y-80768800D02*
X154940000Y-82550000D01*
G04 #@! TO.N,Net-(D1-Pad2)*
X157480000Y-44450000D02*
X157480000Y-45575300D01*
X157480000Y-45575300D02*
X158612200Y-46707500D01*
X158612200Y-46707500D02*
X158612200Y-66177800D01*
X158612200Y-66177800D02*
X154940000Y-69850000D01*
G04 #@! TO.N,Net-(D2-Pad2)*
X157480000Y-39370000D02*
X157480000Y-40495300D01*
X157480000Y-40495300D02*
X154940000Y-43035300D01*
X154940000Y-43035300D02*
X154940000Y-59690000D01*
G04 #@! TD*
D22*
G04 #@! TO.N,Net-(A1-Pad29)*
G36*
X179680001Y-86970000D02*
G01*
X127660000Y-86970000D01*
X127660000Y-45579906D01*
X128117600Y-45579906D01*
X128117600Y-45860094D01*
X128172262Y-46134899D01*
X128279486Y-46393759D01*
X128435150Y-46626727D01*
X128633273Y-46824850D01*
X128866241Y-46980514D01*
X128889142Y-46990000D01*
X128866241Y-46999486D01*
X128633273Y-47155150D01*
X128435150Y-47353273D01*
X128279486Y-47586241D01*
X128172262Y-47845101D01*
X128117600Y-48119906D01*
X128117600Y-48400094D01*
X128172262Y-48674899D01*
X128279486Y-48933759D01*
X128435150Y-49166727D01*
X128633273Y-49364850D01*
X128866241Y-49520514D01*
X128889142Y-49530000D01*
X128866241Y-49539486D01*
X128633273Y-49695150D01*
X128435150Y-49893273D01*
X128279486Y-50126241D01*
X128172262Y-50385101D01*
X128117600Y-50659906D01*
X128117600Y-50940094D01*
X128172262Y-51214899D01*
X128279486Y-51473759D01*
X128435150Y-51706727D01*
X128633273Y-51904850D01*
X128866241Y-52060514D01*
X128889142Y-52070000D01*
X128866241Y-52079486D01*
X128633273Y-52235150D01*
X128435150Y-52433273D01*
X128279486Y-52666241D01*
X128172262Y-52925101D01*
X128117600Y-53199906D01*
X128117600Y-53480094D01*
X128172262Y-53754899D01*
X128279486Y-54013759D01*
X128435150Y-54246727D01*
X128633273Y-54444850D01*
X128866241Y-54600514D01*
X128889142Y-54610000D01*
X128866241Y-54619486D01*
X128633273Y-54775150D01*
X128435150Y-54973273D01*
X128279486Y-55206241D01*
X128172262Y-55465101D01*
X128117600Y-55739906D01*
X128117600Y-56020094D01*
X128172262Y-56294899D01*
X128279486Y-56553759D01*
X128435150Y-56786727D01*
X128633273Y-56984850D01*
X128866241Y-57140514D01*
X128889142Y-57150000D01*
X128866241Y-57159486D01*
X128633273Y-57315150D01*
X128435150Y-57513273D01*
X128279486Y-57746241D01*
X128172262Y-58005101D01*
X128117600Y-58279906D01*
X128117600Y-58560094D01*
X128172262Y-58834899D01*
X128279486Y-59093759D01*
X128435150Y-59326727D01*
X128633273Y-59524850D01*
X128866241Y-59680514D01*
X128889142Y-59690000D01*
X128866241Y-59699486D01*
X128633273Y-59855150D01*
X128435150Y-60053273D01*
X128279486Y-60286241D01*
X128172262Y-60545101D01*
X128117600Y-60819906D01*
X128117600Y-61100094D01*
X128172262Y-61374899D01*
X128279486Y-61633759D01*
X128435150Y-61866727D01*
X128633273Y-62064850D01*
X128866241Y-62220514D01*
X128889142Y-62230000D01*
X128866241Y-62239486D01*
X128633273Y-62395150D01*
X128435150Y-62593273D01*
X128279486Y-62826241D01*
X128172262Y-63085101D01*
X128117600Y-63359906D01*
X128117600Y-63640094D01*
X128172262Y-63914899D01*
X128279486Y-64173759D01*
X128435150Y-64406727D01*
X128633273Y-64604850D01*
X128866241Y-64760514D01*
X128889142Y-64770000D01*
X128866241Y-64779486D01*
X128633273Y-64935150D01*
X128435150Y-65133273D01*
X128279486Y-65366241D01*
X128172262Y-65625101D01*
X128117600Y-65899906D01*
X128117600Y-66180094D01*
X128172262Y-66454899D01*
X128279486Y-66713759D01*
X128435150Y-66946727D01*
X128633273Y-67144850D01*
X128866241Y-67300514D01*
X128889142Y-67310000D01*
X128866241Y-67319486D01*
X128633273Y-67475150D01*
X128435150Y-67673273D01*
X128279486Y-67906241D01*
X128172262Y-68165101D01*
X128117600Y-68439906D01*
X128117600Y-68720094D01*
X128172262Y-68994899D01*
X128279486Y-69253759D01*
X128435150Y-69486727D01*
X128633273Y-69684850D01*
X128866241Y-69840514D01*
X128889142Y-69850000D01*
X128866241Y-69859486D01*
X128633273Y-70015150D01*
X128435150Y-70213273D01*
X128279486Y-70446241D01*
X128172262Y-70705101D01*
X128117600Y-70979906D01*
X128117600Y-71260094D01*
X128172262Y-71534899D01*
X128279486Y-71793759D01*
X128435150Y-72026727D01*
X128633273Y-72224850D01*
X128866241Y-72380514D01*
X128889142Y-72390000D01*
X128866241Y-72399486D01*
X128633273Y-72555150D01*
X128435150Y-72753273D01*
X128279486Y-72986241D01*
X128172262Y-73245101D01*
X128117600Y-73519906D01*
X128117600Y-73800094D01*
X128172262Y-74074899D01*
X128279486Y-74333759D01*
X128435150Y-74566727D01*
X128633273Y-74764850D01*
X128866241Y-74920514D01*
X128889142Y-74930000D01*
X128866241Y-74939486D01*
X128633273Y-75095150D01*
X128435150Y-75293273D01*
X128279486Y-75526241D01*
X128172262Y-75785101D01*
X128117600Y-76059906D01*
X128117600Y-76340094D01*
X128172262Y-76614899D01*
X128279486Y-76873759D01*
X128435150Y-77106727D01*
X128633273Y-77304850D01*
X128866241Y-77460514D01*
X128889142Y-77470000D01*
X128866241Y-77479486D01*
X128633273Y-77635150D01*
X128435150Y-77833273D01*
X128279486Y-78066241D01*
X128172262Y-78325101D01*
X128117600Y-78599906D01*
X128117600Y-78880094D01*
X128172262Y-79154899D01*
X128279486Y-79413759D01*
X128435150Y-79646727D01*
X128633273Y-79844850D01*
X128866241Y-80000514D01*
X128889142Y-80010000D01*
X128866241Y-80019486D01*
X128633273Y-80175150D01*
X128435150Y-80373273D01*
X128279486Y-80606241D01*
X128172262Y-80865101D01*
X128117600Y-81139906D01*
X128117600Y-81420094D01*
X128172262Y-81694899D01*
X128279486Y-81953759D01*
X128435150Y-82186727D01*
X128633273Y-82384850D01*
X128866241Y-82540514D01*
X129125101Y-82647738D01*
X129399906Y-82702400D01*
X129680094Y-82702400D01*
X129954899Y-82647738D01*
X130213759Y-82540514D01*
X130446727Y-82384850D01*
X130644850Y-82186727D01*
X130800514Y-81953759D01*
X130907738Y-81694899D01*
X130962400Y-81420094D01*
X130962400Y-81139906D01*
X130927973Y-80966828D01*
X143357600Y-68537203D01*
X143357600Y-68720094D01*
X143412262Y-68994899D01*
X143519486Y-69253759D01*
X143675150Y-69486727D01*
X143873273Y-69684850D01*
X144106241Y-69840514D01*
X144129142Y-69850000D01*
X144106241Y-69859486D01*
X143873273Y-70015150D01*
X143675150Y-70213273D01*
X143519486Y-70446241D01*
X143412262Y-70705101D01*
X143357600Y-70979906D01*
X143357600Y-71260094D01*
X143412262Y-71534899D01*
X143519486Y-71793759D01*
X143675150Y-72026727D01*
X143873273Y-72224850D01*
X144106241Y-72380514D01*
X144129142Y-72390000D01*
X144106241Y-72399486D01*
X143873273Y-72555150D01*
X143675150Y-72753273D01*
X143519486Y-72986241D01*
X143412262Y-73245101D01*
X143357600Y-73519906D01*
X143357600Y-73800094D01*
X143412262Y-74074899D01*
X143519486Y-74333759D01*
X143675150Y-74566727D01*
X143873273Y-74764850D01*
X144106241Y-74920514D01*
X144129142Y-74930000D01*
X144106241Y-74939486D01*
X143873273Y-75095150D01*
X143675150Y-75293273D01*
X143519486Y-75526241D01*
X143412262Y-75785101D01*
X143357600Y-76059906D01*
X143357600Y-76340094D01*
X143412262Y-76614899D01*
X143519486Y-76873759D01*
X143675150Y-77106727D01*
X143873273Y-77304850D01*
X144106241Y-77460514D01*
X144129142Y-77470000D01*
X144106241Y-77479486D01*
X143873273Y-77635150D01*
X143675150Y-77833273D01*
X143519486Y-78066241D01*
X143412262Y-78325101D01*
X143357600Y-78599906D01*
X143357600Y-78880094D01*
X143412262Y-79154899D01*
X143519486Y-79413759D01*
X143675150Y-79646727D01*
X143873273Y-79844850D01*
X144106241Y-80000514D01*
X144129142Y-80010000D01*
X144106241Y-80019486D01*
X143873273Y-80175150D01*
X143675150Y-80373273D01*
X143519486Y-80606241D01*
X143412262Y-80865101D01*
X143357600Y-81139906D01*
X143357600Y-81420094D01*
X143412262Y-81694899D01*
X143519486Y-81953759D01*
X143675150Y-82186727D01*
X143873273Y-82384850D01*
X144106241Y-82540514D01*
X144365101Y-82647738D01*
X144639906Y-82702400D01*
X144920094Y-82702400D01*
X145194899Y-82647738D01*
X145453759Y-82540514D01*
X145686727Y-82384850D01*
X145884850Y-82186727D01*
X146040514Y-81953759D01*
X146147738Y-81694899D01*
X146202400Y-81420094D01*
X146202400Y-81139906D01*
X146147738Y-80865101D01*
X146040514Y-80606241D01*
X145884850Y-80373273D01*
X145686727Y-80175150D01*
X145453759Y-80019486D01*
X145430858Y-80010000D01*
X145453759Y-80000514D01*
X145686727Y-79844850D01*
X145884850Y-79646727D01*
X146040514Y-79413759D01*
X146147738Y-79154899D01*
X146202400Y-78880094D01*
X146202400Y-78599906D01*
X146147738Y-78325101D01*
X146040514Y-78066241D01*
X145884850Y-77833273D01*
X145686727Y-77635150D01*
X145453759Y-77479486D01*
X145430858Y-77470000D01*
X145453759Y-77460514D01*
X145686727Y-77304850D01*
X145884850Y-77106727D01*
X146040514Y-76873759D01*
X146147738Y-76614899D01*
X146202400Y-76340094D01*
X146202400Y-76059906D01*
X146147738Y-75785101D01*
X146040514Y-75526241D01*
X145884850Y-75293273D01*
X145686727Y-75095150D01*
X145453759Y-74939486D01*
X145430858Y-74930000D01*
X145453759Y-74920514D01*
X145686727Y-74764850D01*
X145884850Y-74566727D01*
X146040514Y-74333759D01*
X146147738Y-74074899D01*
X146202400Y-73800094D01*
X146202400Y-73519906D01*
X146167973Y-73346828D01*
X150379601Y-69135201D01*
X150379600Y-82987178D01*
X150375924Y-83024500D01*
X150379600Y-83061822D01*
X150379600Y-83061832D01*
X150390597Y-83173485D01*
X150403008Y-83214398D01*
X150434054Y-83316746D01*
X150504626Y-83448776D01*
X150543901Y-83496632D01*
X150599599Y-83564501D01*
X150628602Y-83588303D01*
X151276701Y-84236402D01*
X151300499Y-84265401D01*
X151416224Y-84360374D01*
X151548253Y-84430946D01*
X151691514Y-84474403D01*
X151803167Y-84485400D01*
X151803176Y-84485400D01*
X151840499Y-84489076D01*
X151877822Y-84485400D01*
X162392578Y-84485400D01*
X162429900Y-84489076D01*
X162467222Y-84485400D01*
X162467233Y-84485400D01*
X162578886Y-84474403D01*
X162722147Y-84430946D01*
X162854176Y-84360374D01*
X162969901Y-84265401D01*
X162993704Y-84236397D01*
X168151003Y-79079099D01*
X168180001Y-79055301D01*
X168206332Y-79023217D01*
X168274974Y-78939577D01*
X168345546Y-78807547D01*
X168362472Y-78751749D01*
X168441045Y-78727914D01*
X168676440Y-78602092D01*
X168882765Y-78432765D01*
X169052092Y-78226440D01*
X169177914Y-77991045D01*
X169255394Y-77735626D01*
X169281556Y-77470000D01*
X169255394Y-77204374D01*
X169177914Y-76948955D01*
X169052092Y-76713560D01*
X168882765Y-76507235D01*
X168676440Y-76337908D01*
X168441045Y-76212086D01*
X168401203Y-76200000D01*
X168441045Y-76187914D01*
X168676440Y-76062092D01*
X168882765Y-75892765D01*
X169052092Y-75686440D01*
X169177914Y-75451045D01*
X169255394Y-75195626D01*
X169281556Y-74930000D01*
X169255394Y-74664374D01*
X169177914Y-74408955D01*
X169052092Y-74173560D01*
X168882765Y-73967235D01*
X168676440Y-73797908D01*
X168441045Y-73672086D01*
X168401203Y-73660000D01*
X168441045Y-73647914D01*
X168676440Y-73522092D01*
X168882765Y-73352765D01*
X169052092Y-73146440D01*
X169177914Y-72911045D01*
X169255394Y-72655626D01*
X169281556Y-72390000D01*
X169255394Y-72124374D01*
X169177914Y-71868955D01*
X169052092Y-71633560D01*
X168882765Y-71427235D01*
X168676440Y-71257908D01*
X168441045Y-71132086D01*
X168401203Y-71120000D01*
X168441045Y-71107914D01*
X168676440Y-70982092D01*
X168882765Y-70812765D01*
X169052092Y-70606440D01*
X169177914Y-70371045D01*
X169255394Y-70115626D01*
X169281556Y-69850000D01*
X169255394Y-69584374D01*
X169177914Y-69328955D01*
X169052092Y-69093560D01*
X168882765Y-68887235D01*
X168676440Y-68717908D01*
X168441045Y-68592086D01*
X168401203Y-68580000D01*
X168441045Y-68567914D01*
X168676440Y-68442092D01*
X168882765Y-68272765D01*
X169052092Y-68066440D01*
X169177914Y-67831045D01*
X169255394Y-67575626D01*
X169281556Y-67310000D01*
X169255394Y-67044374D01*
X169177914Y-66788955D01*
X169052092Y-66553560D01*
X168882765Y-66347235D01*
X168676440Y-66177908D01*
X168441045Y-66052086D01*
X168401203Y-66040000D01*
X168441045Y-66027914D01*
X168676440Y-65902092D01*
X168882765Y-65732765D01*
X169052092Y-65526440D01*
X169177914Y-65291045D01*
X169255394Y-65035626D01*
X169281556Y-64770000D01*
X169255394Y-64504374D01*
X169177914Y-64248955D01*
X169052092Y-64013560D01*
X168882765Y-63807235D01*
X168676440Y-63637908D01*
X168441045Y-63512086D01*
X168401203Y-63500000D01*
X168441045Y-63487914D01*
X168676440Y-63362092D01*
X168882765Y-63192765D01*
X169052092Y-62986440D01*
X169177914Y-62751045D01*
X169255394Y-62495626D01*
X169281556Y-62230000D01*
X173618444Y-62230000D01*
X173644606Y-62495626D01*
X173722086Y-62751045D01*
X173847908Y-62986440D01*
X174017235Y-63192765D01*
X174223560Y-63362092D01*
X174458955Y-63487914D01*
X174498797Y-63500000D01*
X174458955Y-63512086D01*
X174223560Y-63637908D01*
X174017235Y-63807235D01*
X173847908Y-64013560D01*
X173722086Y-64248955D01*
X173644606Y-64504374D01*
X173618444Y-64770000D01*
X173644606Y-65035626D01*
X173722086Y-65291045D01*
X173847908Y-65526440D01*
X174017235Y-65732765D01*
X174223560Y-65902092D01*
X174458955Y-66027914D01*
X174498797Y-66040000D01*
X174458955Y-66052086D01*
X174223560Y-66177908D01*
X174017235Y-66347235D01*
X173847908Y-66553560D01*
X173722086Y-66788955D01*
X173644606Y-67044374D01*
X173618444Y-67310000D01*
X173644606Y-67575626D01*
X173722086Y-67831045D01*
X173847908Y-68066440D01*
X174017235Y-68272765D01*
X174223560Y-68442092D01*
X174458955Y-68567914D01*
X174498797Y-68580000D01*
X174458955Y-68592086D01*
X174223560Y-68717908D01*
X174017235Y-68887235D01*
X173847908Y-69093560D01*
X173722086Y-69328955D01*
X173644606Y-69584374D01*
X173618444Y-69850000D01*
X173644606Y-70115626D01*
X173722086Y-70371045D01*
X173847908Y-70606440D01*
X174017235Y-70812765D01*
X174223560Y-70982092D01*
X174458955Y-71107914D01*
X174498797Y-71120000D01*
X174458955Y-71132086D01*
X174223560Y-71257908D01*
X174017235Y-71427235D01*
X173847908Y-71633560D01*
X173722086Y-71868955D01*
X173644606Y-72124374D01*
X173618444Y-72390000D01*
X173644606Y-72655626D01*
X173722086Y-72911045D01*
X173847908Y-73146440D01*
X174017235Y-73352765D01*
X174223560Y-73522092D01*
X174458955Y-73647914D01*
X174498797Y-73660000D01*
X174458955Y-73672086D01*
X174223560Y-73797908D01*
X174017235Y-73967235D01*
X173847908Y-74173560D01*
X173722086Y-74408955D01*
X173644606Y-74664374D01*
X173618444Y-74930000D01*
X173644606Y-75195626D01*
X173722086Y-75451045D01*
X173847908Y-75686440D01*
X174017235Y-75892765D01*
X174223560Y-76062092D01*
X174458955Y-76187914D01*
X174498797Y-76200000D01*
X174458955Y-76212086D01*
X174223560Y-76337908D01*
X174017235Y-76507235D01*
X173847908Y-76713560D01*
X173722086Y-76948955D01*
X173644606Y-77204374D01*
X173618444Y-77470000D01*
X173644606Y-77735626D01*
X173722086Y-77991045D01*
X173847908Y-78226440D01*
X174017235Y-78432765D01*
X174223560Y-78602092D01*
X174458955Y-78727914D01*
X174714374Y-78805394D01*
X174913436Y-78825000D01*
X175606564Y-78825000D01*
X175805626Y-78805394D01*
X176061045Y-78727914D01*
X176296440Y-78602092D01*
X176502765Y-78432765D01*
X176672092Y-78226440D01*
X176797914Y-77991045D01*
X176875394Y-77735626D01*
X176901556Y-77470000D01*
X176875394Y-77204374D01*
X176797914Y-76948955D01*
X176672092Y-76713560D01*
X176502765Y-76507235D01*
X176296440Y-76337908D01*
X176061045Y-76212086D01*
X176021203Y-76200000D01*
X176061045Y-76187914D01*
X176296440Y-76062092D01*
X176502765Y-75892765D01*
X176672092Y-75686440D01*
X176797914Y-75451045D01*
X176875394Y-75195626D01*
X176901556Y-74930000D01*
X176875394Y-74664374D01*
X176797914Y-74408955D01*
X176672092Y-74173560D01*
X176502765Y-73967235D01*
X176296440Y-73797908D01*
X176061045Y-73672086D01*
X176021203Y-73660000D01*
X176061045Y-73647914D01*
X176296440Y-73522092D01*
X176502765Y-73352765D01*
X176672092Y-73146440D01*
X176797914Y-72911045D01*
X176875394Y-72655626D01*
X176901556Y-72390000D01*
X176875394Y-72124374D01*
X176797914Y-71868955D01*
X176672092Y-71633560D01*
X176502765Y-71427235D01*
X176296440Y-71257908D01*
X176061045Y-71132086D01*
X176021203Y-71120000D01*
X176061045Y-71107914D01*
X176296440Y-70982092D01*
X176502765Y-70812765D01*
X176672092Y-70606440D01*
X176797914Y-70371045D01*
X176875394Y-70115626D01*
X176901556Y-69850000D01*
X176875394Y-69584374D01*
X176797914Y-69328955D01*
X176672092Y-69093560D01*
X176502765Y-68887235D01*
X176296440Y-68717908D01*
X176061045Y-68592086D01*
X176021203Y-68580000D01*
X176061045Y-68567914D01*
X176296440Y-68442092D01*
X176502765Y-68272765D01*
X176672092Y-68066440D01*
X176797914Y-67831045D01*
X176875394Y-67575626D01*
X176901556Y-67310000D01*
X176875394Y-67044374D01*
X176797914Y-66788955D01*
X176672092Y-66553560D01*
X176502765Y-66347235D01*
X176296440Y-66177908D01*
X176061045Y-66052086D01*
X176021203Y-66040000D01*
X176061045Y-66027914D01*
X176296440Y-65902092D01*
X176502765Y-65732765D01*
X176672092Y-65526440D01*
X176797914Y-65291045D01*
X176875394Y-65035626D01*
X176901556Y-64770000D01*
X176875394Y-64504374D01*
X176797914Y-64248955D01*
X176672092Y-64013560D01*
X176502765Y-63807235D01*
X176296440Y-63637908D01*
X176061045Y-63512086D01*
X176021203Y-63500000D01*
X176061045Y-63487914D01*
X176296440Y-63362092D01*
X176502765Y-63192765D01*
X176672092Y-62986440D01*
X176797914Y-62751045D01*
X176875394Y-62495626D01*
X176901556Y-62230000D01*
X176875394Y-61964374D01*
X176797914Y-61708955D01*
X176672092Y-61473560D01*
X176502765Y-61267235D01*
X176296440Y-61097908D01*
X176061045Y-60972086D01*
X176016241Y-60958495D01*
X176175869Y-60893256D01*
X176398395Y-60746084D01*
X176587933Y-60558327D01*
X176737199Y-60337201D01*
X176840458Y-60091203D01*
X176852559Y-60026472D01*
X176729489Y-59817000D01*
X175387000Y-59817000D01*
X175387000Y-59837000D01*
X175133000Y-59837000D01*
X175133000Y-59817000D01*
X173790511Y-59817000D01*
X173667441Y-60026472D01*
X173679542Y-60091203D01*
X173782801Y-60337201D01*
X173932067Y-60558327D01*
X174121605Y-60746084D01*
X174344131Y-60893256D01*
X174503759Y-60958495D01*
X174458955Y-60972086D01*
X174223560Y-61097908D01*
X174017235Y-61267235D01*
X173847908Y-61473560D01*
X173722086Y-61708955D01*
X173644606Y-61964374D01*
X173618444Y-62230000D01*
X169281556Y-62230000D01*
X169255394Y-61964374D01*
X169177914Y-61708955D01*
X169052092Y-61473560D01*
X168882765Y-61267235D01*
X168676440Y-61097908D01*
X168583204Y-61048072D01*
X168640000Y-61048072D01*
X168764482Y-61035812D01*
X168884180Y-60999502D01*
X168994494Y-60940537D01*
X169091185Y-60861185D01*
X169170537Y-60764494D01*
X169229502Y-60654180D01*
X169265812Y-60534482D01*
X169278072Y-60410000D01*
X169278072Y-59353528D01*
X173667441Y-59353528D01*
X173790511Y-59563000D01*
X175133000Y-59563000D01*
X175133000Y-58335000D01*
X175387000Y-58335000D01*
X175387000Y-59563000D01*
X176729489Y-59563000D01*
X176852559Y-59353528D01*
X176840458Y-59288797D01*
X176737199Y-59042799D01*
X176587933Y-58821673D01*
X176398395Y-58633916D01*
X176175869Y-58486744D01*
X175928907Y-58385812D01*
X175667000Y-58335000D01*
X175387000Y-58335000D01*
X175133000Y-58335000D01*
X174853000Y-58335000D01*
X174591093Y-58385812D01*
X174344131Y-58486744D01*
X174121605Y-58633916D01*
X173932067Y-58821673D01*
X173782801Y-59042799D01*
X173679542Y-59288797D01*
X173667441Y-59353528D01*
X169278072Y-59353528D01*
X169278072Y-58970000D01*
X169265812Y-58845518D01*
X169229502Y-58725820D01*
X169170537Y-58615506D01*
X169091185Y-58518815D01*
X168994494Y-58439463D01*
X168884180Y-58380498D01*
X168764482Y-58344188D01*
X168640000Y-58331928D01*
X166640000Y-58331928D01*
X166515518Y-58344188D01*
X166395820Y-58380498D01*
X166285506Y-58439463D01*
X166188815Y-58518815D01*
X166109463Y-58615506D01*
X166050498Y-58725820D01*
X166014188Y-58845518D01*
X166001928Y-58970000D01*
X166001928Y-60410000D01*
X166014188Y-60534482D01*
X166050498Y-60654180D01*
X166109463Y-60764494D01*
X166188815Y-60861185D01*
X166285506Y-60940537D01*
X166395820Y-60999502D01*
X166515518Y-61035812D01*
X166640000Y-61048072D01*
X166696796Y-61048072D01*
X166603560Y-61097908D01*
X166397235Y-61267235D01*
X166227908Y-61473560D01*
X166102086Y-61708955D01*
X166024606Y-61964374D01*
X165998444Y-62230000D01*
X166024606Y-62495626D01*
X166102086Y-62751045D01*
X166227908Y-62986440D01*
X166397235Y-63192765D01*
X166603560Y-63362092D01*
X166838955Y-63487914D01*
X166878797Y-63500000D01*
X166838955Y-63512086D01*
X166603560Y-63637908D01*
X166397235Y-63807235D01*
X166227908Y-64013560D01*
X166102086Y-64248955D01*
X166024606Y-64504374D01*
X165998444Y-64770000D01*
X166024606Y-65035626D01*
X166102086Y-65291045D01*
X166227908Y-65526440D01*
X166397235Y-65732765D01*
X166603560Y-65902092D01*
X166838955Y-66027914D01*
X166878797Y-66040000D01*
X166838955Y-66052086D01*
X166603560Y-66177908D01*
X166397235Y-66347235D01*
X166227908Y-66553560D01*
X166102086Y-66788955D01*
X166024606Y-67044374D01*
X165998444Y-67310000D01*
X166024606Y-67575626D01*
X166102086Y-67831045D01*
X166227908Y-68066440D01*
X166397235Y-68272765D01*
X166603560Y-68442092D01*
X166838955Y-68567914D01*
X166878797Y-68580000D01*
X166838955Y-68592086D01*
X166603560Y-68717908D01*
X166397235Y-68887235D01*
X166227908Y-69093560D01*
X166102086Y-69328955D01*
X166024606Y-69584374D01*
X165998444Y-69850000D01*
X166024606Y-70115626D01*
X166102086Y-70371045D01*
X166227908Y-70606440D01*
X166397235Y-70812765D01*
X166603560Y-70982092D01*
X166838955Y-71107914D01*
X166878797Y-71120000D01*
X166838955Y-71132086D01*
X166603560Y-71257908D01*
X166397235Y-71427235D01*
X166227908Y-71633560D01*
X166102086Y-71868955D01*
X166024606Y-72124374D01*
X165998444Y-72390000D01*
X166024606Y-72655626D01*
X166102086Y-72911045D01*
X166227908Y-73146440D01*
X166397235Y-73352765D01*
X166603560Y-73522092D01*
X166838955Y-73647914D01*
X166878797Y-73660000D01*
X166838955Y-73672086D01*
X166603560Y-73797908D01*
X166397235Y-73967235D01*
X166227908Y-74173560D01*
X166102086Y-74408955D01*
X166024606Y-74664374D01*
X165998444Y-74930000D01*
X166024606Y-75195626D01*
X166102086Y-75451045D01*
X166227908Y-75686440D01*
X166397235Y-75892765D01*
X166603560Y-76062092D01*
X166838955Y-76187914D01*
X166878797Y-76200000D01*
X166838955Y-76212086D01*
X166603560Y-76337908D01*
X166397235Y-76507235D01*
X166227908Y-76713560D01*
X166102086Y-76948955D01*
X166024606Y-77204374D01*
X165998444Y-77470000D01*
X166024606Y-77735626D01*
X166102086Y-77991045D01*
X166227908Y-78226440D01*
X166397235Y-78432765D01*
X166534820Y-78545678D01*
X162115099Y-82965400D01*
X156425706Y-82965400D01*
X156425000Y-82835750D01*
X156266250Y-82677000D01*
X155067000Y-82677000D01*
X155067000Y-82697000D01*
X154813000Y-82697000D01*
X154813000Y-82677000D01*
X154793000Y-82677000D01*
X154793000Y-82423000D01*
X154813000Y-82423000D01*
X154813000Y-81223750D01*
X155067000Y-81223750D01*
X155067000Y-82423000D01*
X156266250Y-82423000D01*
X156425000Y-82264250D01*
X156428072Y-81700000D01*
X156415812Y-81575518D01*
X156379502Y-81455820D01*
X156320537Y-81345506D01*
X156241185Y-81248815D01*
X156144494Y-81169463D01*
X156034180Y-81110498D01*
X155914482Y-81074188D01*
X155790000Y-81061928D01*
X155225750Y-81065000D01*
X155067000Y-81223750D01*
X154813000Y-81223750D01*
X154654250Y-81065000D01*
X154090000Y-81061928D01*
X153965518Y-81074188D01*
X153845820Y-81110498D01*
X153735506Y-81169463D01*
X153638815Y-81248815D01*
X153559463Y-81345506D01*
X153500498Y-81455820D01*
X153478487Y-81528380D01*
X153406804Y-81456697D01*
X154136403Y-80727099D01*
X154165401Y-80703301D01*
X154260374Y-80587576D01*
X154330946Y-80455547D01*
X154374403Y-80312286D01*
X154385400Y-80200633D01*
X154385400Y-80200624D01*
X154389076Y-80163301D01*
X154385400Y-80125978D01*
X154385400Y-71281749D01*
X154492257Y-71326011D01*
X154788816Y-71385000D01*
X155091184Y-71385000D01*
X155387743Y-71326011D01*
X155667095Y-71210299D01*
X155918505Y-71042312D01*
X156132312Y-70828505D01*
X156300299Y-70577095D01*
X156416011Y-70297743D01*
X156475000Y-70001184D01*
X156475000Y-69698816D01*
X156423731Y-69441070D01*
X159123203Y-66741599D01*
X159152201Y-66717801D01*
X159187306Y-66675026D01*
X159247174Y-66602077D01*
X159317746Y-66470047D01*
X159349190Y-66366387D01*
X159361203Y-66326786D01*
X159372200Y-66215133D01*
X159372200Y-66215124D01*
X159375876Y-66177801D01*
X159372200Y-66140478D01*
X159372200Y-46744833D01*
X159375877Y-46707500D01*
X159361203Y-46558514D01*
X159317746Y-46415253D01*
X159247174Y-46283224D01*
X159245222Y-46280846D01*
X159152201Y-46167499D01*
X159123204Y-46143702D01*
X158469449Y-45489947D01*
X158594637Y-45364759D01*
X158751680Y-45129727D01*
X158859853Y-44868574D01*
X158915000Y-44591335D01*
X158915000Y-44308665D01*
X158859853Y-44031426D01*
X158751680Y-43770273D01*
X158710717Y-43708967D01*
X169815000Y-43708967D01*
X169815000Y-44031033D01*
X169877832Y-44346912D01*
X170001082Y-44644463D01*
X170180013Y-44912252D01*
X170407748Y-45139987D01*
X170675537Y-45318918D01*
X170973088Y-45442168D01*
X171288967Y-45505000D01*
X171611033Y-45505000D01*
X171926912Y-45442168D01*
X172224463Y-45318918D01*
X172492252Y-45139987D01*
X172719987Y-44912252D01*
X172898918Y-44644463D01*
X173022168Y-44346912D01*
X173085000Y-44031033D01*
X173085000Y-43708967D01*
X176315000Y-43708967D01*
X176315000Y-44031033D01*
X176377832Y-44346912D01*
X176501082Y-44644463D01*
X176680013Y-44912252D01*
X176907748Y-45139987D01*
X177175537Y-45318918D01*
X177473088Y-45442168D01*
X177788967Y-45505000D01*
X178111033Y-45505000D01*
X178426912Y-45442168D01*
X178724463Y-45318918D01*
X178992252Y-45139987D01*
X179219987Y-44912252D01*
X179398918Y-44644463D01*
X179522168Y-44346912D01*
X179585000Y-44031033D01*
X179585000Y-43708967D01*
X179522168Y-43393088D01*
X179398918Y-43095537D01*
X179219987Y-42827748D01*
X178992252Y-42600013D01*
X178724463Y-42421082D01*
X178426912Y-42297832D01*
X178111033Y-42235000D01*
X177788967Y-42235000D01*
X177473088Y-42297832D01*
X177175537Y-42421082D01*
X176907748Y-42600013D01*
X176680013Y-42827748D01*
X176501082Y-43095537D01*
X176377832Y-43393088D01*
X176315000Y-43708967D01*
X173085000Y-43708967D01*
X173022168Y-43393088D01*
X172898918Y-43095537D01*
X172719987Y-42827748D01*
X172492252Y-42600013D01*
X172224463Y-42421082D01*
X171926912Y-42297832D01*
X171611033Y-42235000D01*
X171288967Y-42235000D01*
X170973088Y-42297832D01*
X170675537Y-42421082D01*
X170407748Y-42600013D01*
X170180013Y-42827748D01*
X170001082Y-43095537D01*
X169877832Y-43393088D01*
X169815000Y-43708967D01*
X158710717Y-43708967D01*
X158594637Y-43535241D01*
X158394759Y-43335363D01*
X158159727Y-43178320D01*
X157898574Y-43070147D01*
X157621335Y-43015000D01*
X157338665Y-43015000D01*
X157061426Y-43070147D01*
X156800273Y-43178320D01*
X156565241Y-43335363D01*
X156365363Y-43535241D01*
X156208320Y-43770273D01*
X156100147Y-44031426D01*
X156045000Y-44308665D01*
X156045000Y-44591335D01*
X156100147Y-44868574D01*
X156208320Y-45129727D01*
X156365363Y-45364759D01*
X156565241Y-45564637D01*
X156725843Y-45671948D01*
X156730998Y-45724285D01*
X156774454Y-45867546D01*
X156845026Y-45999576D01*
X156904895Y-46072526D01*
X156940000Y-46115301D01*
X156968998Y-46139099D01*
X157852200Y-47022302D01*
X157852200Y-48140923D01*
X157621335Y-48095000D01*
X157338665Y-48095000D01*
X157061426Y-48150147D01*
X156800273Y-48258320D01*
X156565241Y-48415363D01*
X156365363Y-48615241D01*
X156208320Y-48850273D01*
X156100147Y-49111426D01*
X156045000Y-49388665D01*
X156045000Y-49671335D01*
X156100147Y-49948574D01*
X156208320Y-50209727D01*
X156365363Y-50444759D01*
X156565241Y-50644637D01*
X156720000Y-50748044D01*
X156720001Y-59349697D01*
X156475000Y-59594698D01*
X156475000Y-59538816D01*
X156416011Y-59242257D01*
X156300299Y-58962905D01*
X156132312Y-58711495D01*
X155918505Y-58497688D01*
X155700000Y-58351687D01*
X155700000Y-43350101D01*
X157991008Y-41059095D01*
X158020001Y-41035301D01*
X158043795Y-41006308D01*
X158043799Y-41006304D01*
X158114973Y-40919577D01*
X158119716Y-40910704D01*
X158185546Y-40787547D01*
X158229003Y-40644286D01*
X158234158Y-40591947D01*
X158363665Y-40505413D01*
X170494192Y-40505413D01*
X170589956Y-40769814D01*
X170879571Y-40910704D01*
X171191108Y-40992384D01*
X171512595Y-41011718D01*
X171831675Y-40967961D01*
X172136088Y-40862795D01*
X172310044Y-40769814D01*
X172405808Y-40505413D01*
X176994192Y-40505413D01*
X177089956Y-40769814D01*
X177379571Y-40910704D01*
X177691108Y-40992384D01*
X178012595Y-41011718D01*
X178331675Y-40967961D01*
X178636088Y-40862795D01*
X178810044Y-40769814D01*
X178905808Y-40505413D01*
X177950000Y-39549605D01*
X176994192Y-40505413D01*
X172405808Y-40505413D01*
X171450000Y-39549605D01*
X170494192Y-40505413D01*
X158363665Y-40505413D01*
X158394759Y-40484637D01*
X158594637Y-40284759D01*
X158751680Y-40049727D01*
X158859853Y-39788574D01*
X158915000Y-39511335D01*
X158915000Y-39432595D01*
X169808282Y-39432595D01*
X169852039Y-39751675D01*
X169957205Y-40056088D01*
X170050186Y-40230044D01*
X170314587Y-40325808D01*
X171270395Y-39370000D01*
X171629605Y-39370000D01*
X172585413Y-40325808D01*
X172849814Y-40230044D01*
X172990704Y-39940429D01*
X173072384Y-39628892D01*
X173084189Y-39432595D01*
X176308282Y-39432595D01*
X176352039Y-39751675D01*
X176457205Y-40056088D01*
X176550186Y-40230044D01*
X176814587Y-40325808D01*
X177770395Y-39370000D01*
X178129605Y-39370000D01*
X179085413Y-40325808D01*
X179349814Y-40230044D01*
X179490704Y-39940429D01*
X179572384Y-39628892D01*
X179591718Y-39307405D01*
X179547961Y-38988325D01*
X179442795Y-38683912D01*
X179349814Y-38509956D01*
X179085413Y-38414192D01*
X178129605Y-39370000D01*
X177770395Y-39370000D01*
X176814587Y-38414192D01*
X176550186Y-38509956D01*
X176409296Y-38799571D01*
X176327616Y-39111108D01*
X176308282Y-39432595D01*
X173084189Y-39432595D01*
X173091718Y-39307405D01*
X173047961Y-38988325D01*
X172942795Y-38683912D01*
X172849814Y-38509956D01*
X172585413Y-38414192D01*
X171629605Y-39370000D01*
X171270395Y-39370000D01*
X170314587Y-38414192D01*
X170050186Y-38509956D01*
X169909296Y-38799571D01*
X169827616Y-39111108D01*
X169808282Y-39432595D01*
X158915000Y-39432595D01*
X158915000Y-39228665D01*
X158859853Y-38951426D01*
X158751680Y-38690273D01*
X158594637Y-38455241D01*
X158394759Y-38255363D01*
X158363666Y-38234587D01*
X170494192Y-38234587D01*
X171450000Y-39190395D01*
X172405808Y-38234587D01*
X176994192Y-38234587D01*
X177950000Y-39190395D01*
X178905808Y-38234587D01*
X178810044Y-37970186D01*
X178520429Y-37829296D01*
X178208892Y-37747616D01*
X177887405Y-37728282D01*
X177568325Y-37772039D01*
X177263912Y-37877205D01*
X177089956Y-37970186D01*
X176994192Y-38234587D01*
X172405808Y-38234587D01*
X172310044Y-37970186D01*
X172020429Y-37829296D01*
X171708892Y-37747616D01*
X171387405Y-37728282D01*
X171068325Y-37772039D01*
X170763912Y-37877205D01*
X170589956Y-37970186D01*
X170494192Y-38234587D01*
X158363666Y-38234587D01*
X158159727Y-38098320D01*
X157898574Y-37990147D01*
X157621335Y-37935000D01*
X157338665Y-37935000D01*
X157061426Y-37990147D01*
X156800273Y-38098320D01*
X156565241Y-38255363D01*
X156365363Y-38455241D01*
X156208320Y-38690273D01*
X156100147Y-38951426D01*
X156045000Y-39228665D01*
X156045000Y-39511335D01*
X156100147Y-39788574D01*
X156208320Y-40049727D01*
X156365363Y-40284759D01*
X156490551Y-40409947D01*
X154429003Y-42471496D01*
X154399999Y-42495299D01*
X154344871Y-42562474D01*
X154305026Y-42611024D01*
X154234455Y-42743053D01*
X154234454Y-42743054D01*
X154190997Y-42886315D01*
X154180000Y-42997968D01*
X154180000Y-42997978D01*
X154176324Y-43035300D01*
X154180000Y-43072622D01*
X154180001Y-52772348D01*
X154164108Y-52759305D01*
X151258688Y-49853886D01*
X151295000Y-49671335D01*
X151295000Y-49388665D01*
X151239853Y-49111426D01*
X151131680Y-48850273D01*
X150974637Y-48615241D01*
X150774759Y-48415363D01*
X150620000Y-48311957D01*
X150620000Y-45668043D01*
X150774759Y-45564637D01*
X150974637Y-45364759D01*
X151131680Y-45129727D01*
X151239853Y-44868574D01*
X151295000Y-44591335D01*
X151295000Y-44308665D01*
X151239853Y-44031426D01*
X151131680Y-43770273D01*
X150974637Y-43535241D01*
X150774759Y-43335363D01*
X150620000Y-43231957D01*
X150620000Y-40588043D01*
X150774759Y-40484637D01*
X150974637Y-40284759D01*
X151131680Y-40049727D01*
X151239853Y-39788574D01*
X151295000Y-39511335D01*
X151295000Y-39228665D01*
X151239853Y-38951426D01*
X151131680Y-38690273D01*
X150974637Y-38455241D01*
X150774759Y-38255363D01*
X150539727Y-38098320D01*
X150278574Y-37990147D01*
X150001335Y-37935000D01*
X149718665Y-37935000D01*
X149441426Y-37990147D01*
X149180273Y-38098320D01*
X148945241Y-38255363D01*
X148745363Y-38455241D01*
X148588320Y-38690273D01*
X148480147Y-38951426D01*
X148425000Y-39228665D01*
X148425000Y-39511335D01*
X148480147Y-39788574D01*
X148588320Y-40049727D01*
X148745363Y-40284759D01*
X148945241Y-40484637D01*
X149100001Y-40588044D01*
X149100000Y-43231956D01*
X148945241Y-43335363D01*
X148745363Y-43535241D01*
X148588320Y-43770273D01*
X148480147Y-44031426D01*
X148425000Y-44308665D01*
X148425000Y-44591335D01*
X148480147Y-44868574D01*
X148588320Y-45129727D01*
X148745363Y-45364759D01*
X148945241Y-45564637D01*
X149100000Y-45668044D01*
X149100001Y-48311956D01*
X148945241Y-48415363D01*
X148745363Y-48615241D01*
X148588320Y-48850273D01*
X148480147Y-49111426D01*
X148425000Y-49388665D01*
X148425000Y-49671335D01*
X148461312Y-49853886D01*
X145883388Y-52431811D01*
X145686727Y-52235150D01*
X145453759Y-52079486D01*
X145430858Y-52070000D01*
X145453759Y-52060514D01*
X145686727Y-51904850D01*
X145884850Y-51706727D01*
X146040514Y-51473759D01*
X146147738Y-51214899D01*
X146202400Y-50940094D01*
X146202400Y-50659906D01*
X146147738Y-50385101D01*
X146040514Y-50126241D01*
X145884850Y-49893273D01*
X145686727Y-49695150D01*
X145453759Y-49539486D01*
X145431755Y-49530372D01*
X145514043Y-49486388D01*
X145584100Y-49243705D01*
X144780000Y-48439605D01*
X143975900Y-49243705D01*
X144045957Y-49486388D01*
X144134028Y-49527976D01*
X144106241Y-49539486D01*
X143873273Y-49695150D01*
X143675150Y-49893273D01*
X143519486Y-50126241D01*
X143412262Y-50385101D01*
X143357600Y-50659906D01*
X143357600Y-50940094D01*
X143412262Y-51214899D01*
X143519486Y-51473759D01*
X143675150Y-51706727D01*
X143873273Y-51904850D01*
X144106241Y-52060514D01*
X144129142Y-52070000D01*
X144106241Y-52079486D01*
X143873273Y-52235150D01*
X143675150Y-52433273D01*
X143519486Y-52666241D01*
X143412262Y-52925101D01*
X143357600Y-53199906D01*
X143357600Y-53480094D01*
X143412262Y-53754899D01*
X143519486Y-54013759D01*
X143675150Y-54246727D01*
X143873273Y-54444850D01*
X144106241Y-54600514D01*
X144129142Y-54610000D01*
X144106241Y-54619486D01*
X143873273Y-54775150D01*
X143675150Y-54973273D01*
X143519486Y-55206241D01*
X143412262Y-55465101D01*
X143357600Y-55739906D01*
X143357600Y-56020094D01*
X143412262Y-56294899D01*
X143519486Y-56553759D01*
X143675150Y-56786727D01*
X143873273Y-56984850D01*
X144106241Y-57140514D01*
X144129142Y-57150000D01*
X144106241Y-57159486D01*
X143873273Y-57315150D01*
X143675150Y-57513273D01*
X143519486Y-57746241D01*
X143412262Y-58005101D01*
X143357600Y-58279906D01*
X143357600Y-58560094D01*
X143412262Y-58834899D01*
X143519486Y-59093759D01*
X143675150Y-59326727D01*
X143873273Y-59524850D01*
X144106241Y-59680514D01*
X144129142Y-59690000D01*
X144106241Y-59699486D01*
X143873273Y-59855150D01*
X143675150Y-60053273D01*
X143519486Y-60286241D01*
X143412262Y-60545101D01*
X143357600Y-60819906D01*
X143357600Y-61100094D01*
X143412262Y-61374899D01*
X143516769Y-61627200D01*
X138310122Y-61627200D01*
X138272799Y-61623524D01*
X138235476Y-61627200D01*
X138235467Y-61627200D01*
X138123814Y-61638197D01*
X137980553Y-61681654D01*
X137848524Y-61752226D01*
X137732799Y-61847199D01*
X137709001Y-61876197D01*
X130962400Y-68622799D01*
X130962400Y-68439906D01*
X130907738Y-68165101D01*
X130800514Y-67906241D01*
X130644850Y-67673273D01*
X130446727Y-67475150D01*
X130213759Y-67319486D01*
X130190858Y-67310000D01*
X130213759Y-67300514D01*
X130446727Y-67144850D01*
X130644850Y-66946727D01*
X130800514Y-66713759D01*
X130907738Y-66454899D01*
X130962400Y-66180094D01*
X130962400Y-65899906D01*
X130907738Y-65625101D01*
X130800514Y-65366241D01*
X130644850Y-65133273D01*
X130446727Y-64935150D01*
X130213759Y-64779486D01*
X130190858Y-64770000D01*
X130213759Y-64760514D01*
X130446727Y-64604850D01*
X130644850Y-64406727D01*
X130800514Y-64173759D01*
X130907738Y-63914899D01*
X130962400Y-63640094D01*
X130962400Y-63359906D01*
X130907738Y-63085101D01*
X130800514Y-62826241D01*
X130644850Y-62593273D01*
X130446727Y-62395150D01*
X130213759Y-62239486D01*
X130190858Y-62230000D01*
X130213759Y-62220514D01*
X130446727Y-62064850D01*
X130644850Y-61866727D01*
X130800514Y-61633759D01*
X130907738Y-61374899D01*
X130962400Y-61100094D01*
X130962400Y-60819906D01*
X130907738Y-60545101D01*
X130800514Y-60286241D01*
X130644850Y-60053273D01*
X130446727Y-59855150D01*
X130213759Y-59699486D01*
X130190858Y-59690000D01*
X130213759Y-59680514D01*
X130446727Y-59524850D01*
X130644850Y-59326727D01*
X130800514Y-59093759D01*
X130907738Y-58834899D01*
X130962400Y-58560094D01*
X130962400Y-58279906D01*
X130907738Y-58005101D01*
X130800514Y-57746241D01*
X130644850Y-57513273D01*
X130446727Y-57315150D01*
X130213759Y-57159486D01*
X130190858Y-57150000D01*
X130213759Y-57140514D01*
X130446727Y-56984850D01*
X130644850Y-56786727D01*
X130800514Y-56553759D01*
X130907738Y-56294899D01*
X130962400Y-56020094D01*
X130962400Y-55739906D01*
X130907738Y-55465101D01*
X130800514Y-55206241D01*
X130644850Y-54973273D01*
X130446727Y-54775150D01*
X130213759Y-54619486D01*
X130190858Y-54610000D01*
X130213759Y-54600514D01*
X130446727Y-54444850D01*
X130644850Y-54246727D01*
X130800514Y-54013759D01*
X130907738Y-53754899D01*
X130962400Y-53480094D01*
X130962400Y-53199906D01*
X130907738Y-52925101D01*
X130800514Y-52666241D01*
X130644850Y-52433273D01*
X130446727Y-52235150D01*
X130213759Y-52079486D01*
X130190858Y-52070000D01*
X130213759Y-52060514D01*
X130446727Y-51904850D01*
X130644850Y-51706727D01*
X130800514Y-51473759D01*
X130907738Y-51214899D01*
X130962400Y-50940094D01*
X130962400Y-50659906D01*
X130907738Y-50385101D01*
X130800514Y-50126241D01*
X130644850Y-49893273D01*
X130446727Y-49695150D01*
X130213759Y-49539486D01*
X130190858Y-49530000D01*
X130213759Y-49520514D01*
X130446727Y-49364850D01*
X130644850Y-49166727D01*
X130800514Y-48933759D01*
X130907738Y-48674899D01*
X130962400Y-48400094D01*
X130962400Y-48331010D01*
X143352483Y-48331010D01*
X143393766Y-48608140D01*
X143488321Y-48871892D01*
X143553612Y-48994043D01*
X143796295Y-49064100D01*
X144600395Y-48260000D01*
X144959605Y-48260000D01*
X145763705Y-49064100D01*
X146006388Y-48994043D01*
X146126028Y-48740682D01*
X146193941Y-48468849D01*
X146207517Y-48188990D01*
X146166234Y-47911860D01*
X146071679Y-47648108D01*
X146006388Y-47525957D01*
X145763705Y-47455900D01*
X144959605Y-48260000D01*
X144600395Y-48260000D01*
X143796295Y-47455900D01*
X143553612Y-47525957D01*
X143433972Y-47779318D01*
X143366059Y-48051151D01*
X143352483Y-48331010D01*
X130962400Y-48331010D01*
X130962400Y-48119906D01*
X130907738Y-47845101D01*
X130800514Y-47586241D01*
X130644850Y-47353273D01*
X130446727Y-47155150D01*
X130213759Y-46999486D01*
X130190858Y-46990000D01*
X130213759Y-46980514D01*
X130446727Y-46824850D01*
X130644850Y-46626727D01*
X130800514Y-46393759D01*
X130907738Y-46134899D01*
X130962400Y-45860094D01*
X130962400Y-45579906D01*
X143357600Y-45579906D01*
X143357600Y-45860094D01*
X143412262Y-46134899D01*
X143519486Y-46393759D01*
X143675150Y-46626727D01*
X143873273Y-46824850D01*
X144106241Y-46980514D01*
X144128245Y-46989628D01*
X144045957Y-47033612D01*
X143975900Y-47276295D01*
X144780000Y-48080395D01*
X145584100Y-47276295D01*
X145514043Y-47033612D01*
X145425972Y-46992024D01*
X145453759Y-46980514D01*
X145686727Y-46824850D01*
X145884850Y-46626727D01*
X146040514Y-46393759D01*
X146147738Y-46134899D01*
X146202400Y-45860094D01*
X146202400Y-45579906D01*
X146147738Y-45305101D01*
X146040514Y-45046241D01*
X145884850Y-44813273D01*
X145686727Y-44615150D01*
X145453759Y-44459486D01*
X145194899Y-44352262D01*
X144920094Y-44297600D01*
X144639906Y-44297600D01*
X144365101Y-44352262D01*
X144106241Y-44459486D01*
X143873273Y-44615150D01*
X143675150Y-44813273D01*
X143519486Y-45046241D01*
X143412262Y-45305101D01*
X143357600Y-45579906D01*
X130962400Y-45579906D01*
X130907738Y-45305101D01*
X130800514Y-45046241D01*
X130644850Y-44813273D01*
X130446727Y-44615150D01*
X130213759Y-44459486D01*
X129954899Y-44352262D01*
X129680094Y-44297600D01*
X129399906Y-44297600D01*
X129125101Y-44352262D01*
X128866241Y-44459486D01*
X128633273Y-44615150D01*
X128435150Y-44813273D01*
X128279486Y-45046241D01*
X128172262Y-45305101D01*
X128117600Y-45579906D01*
X127660000Y-45579906D01*
X127660000Y-36220000D01*
X179680000Y-36220000D01*
X179680001Y-86970000D01*
G37*
X179680001Y-86970000D02*
X127660000Y-86970000D01*
X127660000Y-45579906D01*
X128117600Y-45579906D01*
X128117600Y-45860094D01*
X128172262Y-46134899D01*
X128279486Y-46393759D01*
X128435150Y-46626727D01*
X128633273Y-46824850D01*
X128866241Y-46980514D01*
X128889142Y-46990000D01*
X128866241Y-46999486D01*
X128633273Y-47155150D01*
X128435150Y-47353273D01*
X128279486Y-47586241D01*
X128172262Y-47845101D01*
X128117600Y-48119906D01*
X128117600Y-48400094D01*
X128172262Y-48674899D01*
X128279486Y-48933759D01*
X128435150Y-49166727D01*
X128633273Y-49364850D01*
X128866241Y-49520514D01*
X128889142Y-49530000D01*
X128866241Y-49539486D01*
X128633273Y-49695150D01*
X128435150Y-49893273D01*
X128279486Y-50126241D01*
X128172262Y-50385101D01*
X128117600Y-50659906D01*
X128117600Y-50940094D01*
X128172262Y-51214899D01*
X128279486Y-51473759D01*
X128435150Y-51706727D01*
X128633273Y-51904850D01*
X128866241Y-52060514D01*
X128889142Y-52070000D01*
X128866241Y-52079486D01*
X128633273Y-52235150D01*
X128435150Y-52433273D01*
X128279486Y-52666241D01*
X128172262Y-52925101D01*
X128117600Y-53199906D01*
X128117600Y-53480094D01*
X128172262Y-53754899D01*
X128279486Y-54013759D01*
X128435150Y-54246727D01*
X128633273Y-54444850D01*
X128866241Y-54600514D01*
X128889142Y-54610000D01*
X128866241Y-54619486D01*
X128633273Y-54775150D01*
X128435150Y-54973273D01*
X128279486Y-55206241D01*
X128172262Y-55465101D01*
X128117600Y-55739906D01*
X128117600Y-56020094D01*
X128172262Y-56294899D01*
X128279486Y-56553759D01*
X128435150Y-56786727D01*
X128633273Y-56984850D01*
X128866241Y-57140514D01*
X128889142Y-57150000D01*
X128866241Y-57159486D01*
X128633273Y-57315150D01*
X128435150Y-57513273D01*
X128279486Y-57746241D01*
X128172262Y-58005101D01*
X128117600Y-58279906D01*
X128117600Y-58560094D01*
X128172262Y-58834899D01*
X128279486Y-59093759D01*
X128435150Y-59326727D01*
X128633273Y-59524850D01*
X128866241Y-59680514D01*
X128889142Y-59690000D01*
X128866241Y-59699486D01*
X128633273Y-59855150D01*
X128435150Y-60053273D01*
X128279486Y-60286241D01*
X128172262Y-60545101D01*
X128117600Y-60819906D01*
X128117600Y-61100094D01*
X128172262Y-61374899D01*
X128279486Y-61633759D01*
X128435150Y-61866727D01*
X128633273Y-62064850D01*
X128866241Y-62220514D01*
X128889142Y-62230000D01*
X128866241Y-62239486D01*
X128633273Y-62395150D01*
X128435150Y-62593273D01*
X128279486Y-62826241D01*
X128172262Y-63085101D01*
X128117600Y-63359906D01*
X128117600Y-63640094D01*
X128172262Y-63914899D01*
X128279486Y-64173759D01*
X128435150Y-64406727D01*
X128633273Y-64604850D01*
X128866241Y-64760514D01*
X128889142Y-64770000D01*
X128866241Y-64779486D01*
X128633273Y-64935150D01*
X128435150Y-65133273D01*
X128279486Y-65366241D01*
X128172262Y-65625101D01*
X128117600Y-65899906D01*
X128117600Y-66180094D01*
X128172262Y-66454899D01*
X128279486Y-66713759D01*
X128435150Y-66946727D01*
X128633273Y-67144850D01*
X128866241Y-67300514D01*
X128889142Y-67310000D01*
X128866241Y-67319486D01*
X128633273Y-67475150D01*
X128435150Y-67673273D01*
X128279486Y-67906241D01*
X128172262Y-68165101D01*
X128117600Y-68439906D01*
X128117600Y-68720094D01*
X128172262Y-68994899D01*
X128279486Y-69253759D01*
X128435150Y-69486727D01*
X128633273Y-69684850D01*
X128866241Y-69840514D01*
X128889142Y-69850000D01*
X128866241Y-69859486D01*
X128633273Y-70015150D01*
X128435150Y-70213273D01*
X128279486Y-70446241D01*
X128172262Y-70705101D01*
X128117600Y-70979906D01*
X128117600Y-71260094D01*
X128172262Y-71534899D01*
X128279486Y-71793759D01*
X128435150Y-72026727D01*
X128633273Y-72224850D01*
X128866241Y-72380514D01*
X128889142Y-72390000D01*
X128866241Y-72399486D01*
X128633273Y-72555150D01*
X128435150Y-72753273D01*
X128279486Y-72986241D01*
X128172262Y-73245101D01*
X128117600Y-73519906D01*
X128117600Y-73800094D01*
X128172262Y-74074899D01*
X128279486Y-74333759D01*
X128435150Y-74566727D01*
X128633273Y-74764850D01*
X128866241Y-74920514D01*
X128889142Y-74930000D01*
X128866241Y-74939486D01*
X128633273Y-75095150D01*
X128435150Y-75293273D01*
X128279486Y-75526241D01*
X128172262Y-75785101D01*
X128117600Y-76059906D01*
X128117600Y-76340094D01*
X128172262Y-76614899D01*
X128279486Y-76873759D01*
X128435150Y-77106727D01*
X128633273Y-77304850D01*
X128866241Y-77460514D01*
X128889142Y-77470000D01*
X128866241Y-77479486D01*
X128633273Y-77635150D01*
X128435150Y-77833273D01*
X128279486Y-78066241D01*
X128172262Y-78325101D01*
X128117600Y-78599906D01*
X128117600Y-78880094D01*
X128172262Y-79154899D01*
X128279486Y-79413759D01*
X128435150Y-79646727D01*
X128633273Y-79844850D01*
X128866241Y-80000514D01*
X128889142Y-80010000D01*
X128866241Y-80019486D01*
X128633273Y-80175150D01*
X128435150Y-80373273D01*
X128279486Y-80606241D01*
X128172262Y-80865101D01*
X128117600Y-81139906D01*
X128117600Y-81420094D01*
X128172262Y-81694899D01*
X128279486Y-81953759D01*
X128435150Y-82186727D01*
X128633273Y-82384850D01*
X128866241Y-82540514D01*
X129125101Y-82647738D01*
X129399906Y-82702400D01*
X129680094Y-82702400D01*
X129954899Y-82647738D01*
X130213759Y-82540514D01*
X130446727Y-82384850D01*
X130644850Y-82186727D01*
X130800514Y-81953759D01*
X130907738Y-81694899D01*
X130962400Y-81420094D01*
X130962400Y-81139906D01*
X130927973Y-80966828D01*
X143357600Y-68537203D01*
X143357600Y-68720094D01*
X143412262Y-68994899D01*
X143519486Y-69253759D01*
X143675150Y-69486727D01*
X143873273Y-69684850D01*
X144106241Y-69840514D01*
X144129142Y-69850000D01*
X144106241Y-69859486D01*
X143873273Y-70015150D01*
X143675150Y-70213273D01*
X143519486Y-70446241D01*
X143412262Y-70705101D01*
X143357600Y-70979906D01*
X143357600Y-71260094D01*
X143412262Y-71534899D01*
X143519486Y-71793759D01*
X143675150Y-72026727D01*
X143873273Y-72224850D01*
X144106241Y-72380514D01*
X144129142Y-72390000D01*
X144106241Y-72399486D01*
X143873273Y-72555150D01*
X143675150Y-72753273D01*
X143519486Y-72986241D01*
X143412262Y-73245101D01*
X143357600Y-73519906D01*
X143357600Y-73800094D01*
X143412262Y-74074899D01*
X143519486Y-74333759D01*
X143675150Y-74566727D01*
X143873273Y-74764850D01*
X144106241Y-74920514D01*
X144129142Y-74930000D01*
X144106241Y-74939486D01*
X143873273Y-75095150D01*
X143675150Y-75293273D01*
X143519486Y-75526241D01*
X143412262Y-75785101D01*
X143357600Y-76059906D01*
X143357600Y-76340094D01*
X143412262Y-76614899D01*
X143519486Y-76873759D01*
X143675150Y-77106727D01*
X143873273Y-77304850D01*
X144106241Y-77460514D01*
X144129142Y-77470000D01*
X144106241Y-77479486D01*
X143873273Y-77635150D01*
X143675150Y-77833273D01*
X143519486Y-78066241D01*
X143412262Y-78325101D01*
X143357600Y-78599906D01*
X143357600Y-78880094D01*
X143412262Y-79154899D01*
X143519486Y-79413759D01*
X143675150Y-79646727D01*
X143873273Y-79844850D01*
X144106241Y-80000514D01*
X144129142Y-80010000D01*
X144106241Y-80019486D01*
X143873273Y-80175150D01*
X143675150Y-80373273D01*
X143519486Y-80606241D01*
X143412262Y-80865101D01*
X143357600Y-81139906D01*
X143357600Y-81420094D01*
X143412262Y-81694899D01*
X143519486Y-81953759D01*
X143675150Y-82186727D01*
X143873273Y-82384850D01*
X144106241Y-82540514D01*
X144365101Y-82647738D01*
X144639906Y-82702400D01*
X144920094Y-82702400D01*
X145194899Y-82647738D01*
X145453759Y-82540514D01*
X145686727Y-82384850D01*
X145884850Y-82186727D01*
X146040514Y-81953759D01*
X146147738Y-81694899D01*
X146202400Y-81420094D01*
X146202400Y-81139906D01*
X146147738Y-80865101D01*
X146040514Y-80606241D01*
X145884850Y-80373273D01*
X145686727Y-80175150D01*
X145453759Y-80019486D01*
X145430858Y-80010000D01*
X145453759Y-80000514D01*
X145686727Y-79844850D01*
X145884850Y-79646727D01*
X146040514Y-79413759D01*
X146147738Y-79154899D01*
X146202400Y-78880094D01*
X146202400Y-78599906D01*
X146147738Y-78325101D01*
X146040514Y-78066241D01*
X145884850Y-77833273D01*
X145686727Y-77635150D01*
X145453759Y-77479486D01*
X145430858Y-77470000D01*
X145453759Y-77460514D01*
X145686727Y-77304850D01*
X145884850Y-77106727D01*
X146040514Y-76873759D01*
X146147738Y-76614899D01*
X146202400Y-76340094D01*
X146202400Y-76059906D01*
X146147738Y-75785101D01*
X146040514Y-75526241D01*
X145884850Y-75293273D01*
X145686727Y-75095150D01*
X145453759Y-74939486D01*
X145430858Y-74930000D01*
X145453759Y-74920514D01*
X145686727Y-74764850D01*
X145884850Y-74566727D01*
X146040514Y-74333759D01*
X146147738Y-74074899D01*
X146202400Y-73800094D01*
X146202400Y-73519906D01*
X146167973Y-73346828D01*
X150379601Y-69135201D01*
X150379600Y-82987178D01*
X150375924Y-83024500D01*
X150379600Y-83061822D01*
X150379600Y-83061832D01*
X150390597Y-83173485D01*
X150403008Y-83214398D01*
X150434054Y-83316746D01*
X150504626Y-83448776D01*
X150543901Y-83496632D01*
X150599599Y-83564501D01*
X150628602Y-83588303D01*
X151276701Y-84236402D01*
X151300499Y-84265401D01*
X151416224Y-84360374D01*
X151548253Y-84430946D01*
X151691514Y-84474403D01*
X151803167Y-84485400D01*
X151803176Y-84485400D01*
X151840499Y-84489076D01*
X151877822Y-84485400D01*
X162392578Y-84485400D01*
X162429900Y-84489076D01*
X162467222Y-84485400D01*
X162467233Y-84485400D01*
X162578886Y-84474403D01*
X162722147Y-84430946D01*
X162854176Y-84360374D01*
X162969901Y-84265401D01*
X162993704Y-84236397D01*
X168151003Y-79079099D01*
X168180001Y-79055301D01*
X168206332Y-79023217D01*
X168274974Y-78939577D01*
X168345546Y-78807547D01*
X168362472Y-78751749D01*
X168441045Y-78727914D01*
X168676440Y-78602092D01*
X168882765Y-78432765D01*
X169052092Y-78226440D01*
X169177914Y-77991045D01*
X169255394Y-77735626D01*
X169281556Y-77470000D01*
X169255394Y-77204374D01*
X169177914Y-76948955D01*
X169052092Y-76713560D01*
X168882765Y-76507235D01*
X168676440Y-76337908D01*
X168441045Y-76212086D01*
X168401203Y-76200000D01*
X168441045Y-76187914D01*
X168676440Y-76062092D01*
X168882765Y-75892765D01*
X169052092Y-75686440D01*
X169177914Y-75451045D01*
X169255394Y-75195626D01*
X169281556Y-74930000D01*
X169255394Y-74664374D01*
X169177914Y-74408955D01*
X169052092Y-74173560D01*
X168882765Y-73967235D01*
X168676440Y-73797908D01*
X168441045Y-73672086D01*
X168401203Y-73660000D01*
X168441045Y-73647914D01*
X168676440Y-73522092D01*
X168882765Y-73352765D01*
X169052092Y-73146440D01*
X169177914Y-72911045D01*
X169255394Y-72655626D01*
X169281556Y-72390000D01*
X169255394Y-72124374D01*
X169177914Y-71868955D01*
X169052092Y-71633560D01*
X168882765Y-71427235D01*
X168676440Y-71257908D01*
X168441045Y-71132086D01*
X168401203Y-71120000D01*
X168441045Y-71107914D01*
X168676440Y-70982092D01*
X168882765Y-70812765D01*
X169052092Y-70606440D01*
X169177914Y-70371045D01*
X169255394Y-70115626D01*
X169281556Y-69850000D01*
X169255394Y-69584374D01*
X169177914Y-69328955D01*
X169052092Y-69093560D01*
X168882765Y-68887235D01*
X168676440Y-68717908D01*
X168441045Y-68592086D01*
X168401203Y-68580000D01*
X168441045Y-68567914D01*
X168676440Y-68442092D01*
X168882765Y-68272765D01*
X169052092Y-68066440D01*
X169177914Y-67831045D01*
X169255394Y-67575626D01*
X169281556Y-67310000D01*
X169255394Y-67044374D01*
X169177914Y-66788955D01*
X169052092Y-66553560D01*
X168882765Y-66347235D01*
X168676440Y-66177908D01*
X168441045Y-66052086D01*
X168401203Y-66040000D01*
X168441045Y-66027914D01*
X168676440Y-65902092D01*
X168882765Y-65732765D01*
X169052092Y-65526440D01*
X169177914Y-65291045D01*
X169255394Y-65035626D01*
X169281556Y-64770000D01*
X169255394Y-64504374D01*
X169177914Y-64248955D01*
X169052092Y-64013560D01*
X168882765Y-63807235D01*
X168676440Y-63637908D01*
X168441045Y-63512086D01*
X168401203Y-63500000D01*
X168441045Y-63487914D01*
X168676440Y-63362092D01*
X168882765Y-63192765D01*
X169052092Y-62986440D01*
X169177914Y-62751045D01*
X169255394Y-62495626D01*
X169281556Y-62230000D01*
X173618444Y-62230000D01*
X173644606Y-62495626D01*
X173722086Y-62751045D01*
X173847908Y-62986440D01*
X174017235Y-63192765D01*
X174223560Y-63362092D01*
X174458955Y-63487914D01*
X174498797Y-63500000D01*
X174458955Y-63512086D01*
X174223560Y-63637908D01*
X174017235Y-63807235D01*
X173847908Y-64013560D01*
X173722086Y-64248955D01*
X173644606Y-64504374D01*
X173618444Y-64770000D01*
X173644606Y-65035626D01*
X173722086Y-65291045D01*
X173847908Y-65526440D01*
X174017235Y-65732765D01*
X174223560Y-65902092D01*
X174458955Y-66027914D01*
X174498797Y-66040000D01*
X174458955Y-66052086D01*
X174223560Y-66177908D01*
X174017235Y-66347235D01*
X173847908Y-66553560D01*
X173722086Y-66788955D01*
X173644606Y-67044374D01*
X173618444Y-67310000D01*
X173644606Y-67575626D01*
X173722086Y-67831045D01*
X173847908Y-68066440D01*
X174017235Y-68272765D01*
X174223560Y-68442092D01*
X174458955Y-68567914D01*
X174498797Y-68580000D01*
X174458955Y-68592086D01*
X174223560Y-68717908D01*
X174017235Y-68887235D01*
X173847908Y-69093560D01*
X173722086Y-69328955D01*
X173644606Y-69584374D01*
X173618444Y-69850000D01*
X173644606Y-70115626D01*
X173722086Y-70371045D01*
X173847908Y-70606440D01*
X174017235Y-70812765D01*
X174223560Y-70982092D01*
X174458955Y-71107914D01*
X174498797Y-71120000D01*
X174458955Y-71132086D01*
X174223560Y-71257908D01*
X174017235Y-71427235D01*
X173847908Y-71633560D01*
X173722086Y-71868955D01*
X173644606Y-72124374D01*
X173618444Y-72390000D01*
X173644606Y-72655626D01*
X173722086Y-72911045D01*
X173847908Y-73146440D01*
X174017235Y-73352765D01*
X174223560Y-73522092D01*
X174458955Y-73647914D01*
X174498797Y-73660000D01*
X174458955Y-73672086D01*
X174223560Y-73797908D01*
X174017235Y-73967235D01*
X173847908Y-74173560D01*
X173722086Y-74408955D01*
X173644606Y-74664374D01*
X173618444Y-74930000D01*
X173644606Y-75195626D01*
X173722086Y-75451045D01*
X173847908Y-75686440D01*
X174017235Y-75892765D01*
X174223560Y-76062092D01*
X174458955Y-76187914D01*
X174498797Y-76200000D01*
X174458955Y-76212086D01*
X174223560Y-76337908D01*
X174017235Y-76507235D01*
X173847908Y-76713560D01*
X173722086Y-76948955D01*
X173644606Y-77204374D01*
X173618444Y-77470000D01*
X173644606Y-77735626D01*
X173722086Y-77991045D01*
X173847908Y-78226440D01*
X174017235Y-78432765D01*
X174223560Y-78602092D01*
X174458955Y-78727914D01*
X174714374Y-78805394D01*
X174913436Y-78825000D01*
X175606564Y-78825000D01*
X175805626Y-78805394D01*
X176061045Y-78727914D01*
X176296440Y-78602092D01*
X176502765Y-78432765D01*
X176672092Y-78226440D01*
X176797914Y-77991045D01*
X176875394Y-77735626D01*
X176901556Y-77470000D01*
X176875394Y-77204374D01*
X176797914Y-76948955D01*
X176672092Y-76713560D01*
X176502765Y-76507235D01*
X176296440Y-76337908D01*
X176061045Y-76212086D01*
X176021203Y-76200000D01*
X176061045Y-76187914D01*
X176296440Y-76062092D01*
X176502765Y-75892765D01*
X176672092Y-75686440D01*
X176797914Y-75451045D01*
X176875394Y-75195626D01*
X176901556Y-74930000D01*
X176875394Y-74664374D01*
X176797914Y-74408955D01*
X176672092Y-74173560D01*
X176502765Y-73967235D01*
X176296440Y-73797908D01*
X176061045Y-73672086D01*
X176021203Y-73660000D01*
X176061045Y-73647914D01*
X176296440Y-73522092D01*
X176502765Y-73352765D01*
X176672092Y-73146440D01*
X176797914Y-72911045D01*
X176875394Y-72655626D01*
X176901556Y-72390000D01*
X176875394Y-72124374D01*
X176797914Y-71868955D01*
X176672092Y-71633560D01*
X176502765Y-71427235D01*
X176296440Y-71257908D01*
X176061045Y-71132086D01*
X176021203Y-71120000D01*
X176061045Y-71107914D01*
X176296440Y-70982092D01*
X176502765Y-70812765D01*
X176672092Y-70606440D01*
X176797914Y-70371045D01*
X176875394Y-70115626D01*
X176901556Y-69850000D01*
X176875394Y-69584374D01*
X176797914Y-69328955D01*
X176672092Y-69093560D01*
X176502765Y-68887235D01*
X176296440Y-68717908D01*
X176061045Y-68592086D01*
X176021203Y-68580000D01*
X176061045Y-68567914D01*
X176296440Y-68442092D01*
X176502765Y-68272765D01*
X176672092Y-68066440D01*
X176797914Y-67831045D01*
X176875394Y-67575626D01*
X176901556Y-67310000D01*
X176875394Y-67044374D01*
X176797914Y-66788955D01*
X176672092Y-66553560D01*
X176502765Y-66347235D01*
X176296440Y-66177908D01*
X176061045Y-66052086D01*
X176021203Y-66040000D01*
X176061045Y-66027914D01*
X176296440Y-65902092D01*
X176502765Y-65732765D01*
X176672092Y-65526440D01*
X176797914Y-65291045D01*
X176875394Y-65035626D01*
X176901556Y-64770000D01*
X176875394Y-64504374D01*
X176797914Y-64248955D01*
X176672092Y-64013560D01*
X176502765Y-63807235D01*
X176296440Y-63637908D01*
X176061045Y-63512086D01*
X176021203Y-63500000D01*
X176061045Y-63487914D01*
X176296440Y-63362092D01*
X176502765Y-63192765D01*
X176672092Y-62986440D01*
X176797914Y-62751045D01*
X176875394Y-62495626D01*
X176901556Y-62230000D01*
X176875394Y-61964374D01*
X176797914Y-61708955D01*
X176672092Y-61473560D01*
X176502765Y-61267235D01*
X176296440Y-61097908D01*
X176061045Y-60972086D01*
X176016241Y-60958495D01*
X176175869Y-60893256D01*
X176398395Y-60746084D01*
X176587933Y-60558327D01*
X176737199Y-60337201D01*
X176840458Y-60091203D01*
X176852559Y-60026472D01*
X176729489Y-59817000D01*
X175387000Y-59817000D01*
X175387000Y-59837000D01*
X175133000Y-59837000D01*
X175133000Y-59817000D01*
X173790511Y-59817000D01*
X173667441Y-60026472D01*
X173679542Y-60091203D01*
X173782801Y-60337201D01*
X173932067Y-60558327D01*
X174121605Y-60746084D01*
X174344131Y-60893256D01*
X174503759Y-60958495D01*
X174458955Y-60972086D01*
X174223560Y-61097908D01*
X174017235Y-61267235D01*
X173847908Y-61473560D01*
X173722086Y-61708955D01*
X173644606Y-61964374D01*
X173618444Y-62230000D01*
X169281556Y-62230000D01*
X169255394Y-61964374D01*
X169177914Y-61708955D01*
X169052092Y-61473560D01*
X168882765Y-61267235D01*
X168676440Y-61097908D01*
X168583204Y-61048072D01*
X168640000Y-61048072D01*
X168764482Y-61035812D01*
X168884180Y-60999502D01*
X168994494Y-60940537D01*
X169091185Y-60861185D01*
X169170537Y-60764494D01*
X169229502Y-60654180D01*
X169265812Y-60534482D01*
X169278072Y-60410000D01*
X169278072Y-59353528D01*
X173667441Y-59353528D01*
X173790511Y-59563000D01*
X175133000Y-59563000D01*
X175133000Y-58335000D01*
X175387000Y-58335000D01*
X175387000Y-59563000D01*
X176729489Y-59563000D01*
X176852559Y-59353528D01*
X176840458Y-59288797D01*
X176737199Y-59042799D01*
X176587933Y-58821673D01*
X176398395Y-58633916D01*
X176175869Y-58486744D01*
X175928907Y-58385812D01*
X175667000Y-58335000D01*
X175387000Y-58335000D01*
X175133000Y-58335000D01*
X174853000Y-58335000D01*
X174591093Y-58385812D01*
X174344131Y-58486744D01*
X174121605Y-58633916D01*
X173932067Y-58821673D01*
X173782801Y-59042799D01*
X173679542Y-59288797D01*
X173667441Y-59353528D01*
X169278072Y-59353528D01*
X169278072Y-58970000D01*
X169265812Y-58845518D01*
X169229502Y-58725820D01*
X169170537Y-58615506D01*
X169091185Y-58518815D01*
X168994494Y-58439463D01*
X168884180Y-58380498D01*
X168764482Y-58344188D01*
X168640000Y-58331928D01*
X166640000Y-58331928D01*
X166515518Y-58344188D01*
X166395820Y-58380498D01*
X166285506Y-58439463D01*
X166188815Y-58518815D01*
X166109463Y-58615506D01*
X166050498Y-58725820D01*
X166014188Y-58845518D01*
X166001928Y-58970000D01*
X166001928Y-60410000D01*
X166014188Y-60534482D01*
X166050498Y-60654180D01*
X166109463Y-60764494D01*
X166188815Y-60861185D01*
X166285506Y-60940537D01*
X166395820Y-60999502D01*
X166515518Y-61035812D01*
X166640000Y-61048072D01*
X166696796Y-61048072D01*
X166603560Y-61097908D01*
X166397235Y-61267235D01*
X166227908Y-61473560D01*
X166102086Y-61708955D01*
X166024606Y-61964374D01*
X165998444Y-62230000D01*
X166024606Y-62495626D01*
X166102086Y-62751045D01*
X166227908Y-62986440D01*
X166397235Y-63192765D01*
X166603560Y-63362092D01*
X166838955Y-63487914D01*
X166878797Y-63500000D01*
X166838955Y-63512086D01*
X166603560Y-63637908D01*
X166397235Y-63807235D01*
X166227908Y-64013560D01*
X166102086Y-64248955D01*
X166024606Y-64504374D01*
X165998444Y-64770000D01*
X166024606Y-65035626D01*
X166102086Y-65291045D01*
X166227908Y-65526440D01*
X166397235Y-65732765D01*
X166603560Y-65902092D01*
X166838955Y-66027914D01*
X166878797Y-66040000D01*
X166838955Y-66052086D01*
X166603560Y-66177908D01*
X166397235Y-66347235D01*
X166227908Y-66553560D01*
X166102086Y-66788955D01*
X166024606Y-67044374D01*
X165998444Y-67310000D01*
X166024606Y-67575626D01*
X166102086Y-67831045D01*
X166227908Y-68066440D01*
X166397235Y-68272765D01*
X166603560Y-68442092D01*
X166838955Y-68567914D01*
X166878797Y-68580000D01*
X166838955Y-68592086D01*
X166603560Y-68717908D01*
X166397235Y-68887235D01*
X166227908Y-69093560D01*
X166102086Y-69328955D01*
X166024606Y-69584374D01*
X165998444Y-69850000D01*
X166024606Y-70115626D01*
X166102086Y-70371045D01*
X166227908Y-70606440D01*
X166397235Y-70812765D01*
X166603560Y-70982092D01*
X166838955Y-71107914D01*
X166878797Y-71120000D01*
X166838955Y-71132086D01*
X166603560Y-71257908D01*
X166397235Y-71427235D01*
X166227908Y-71633560D01*
X166102086Y-71868955D01*
X166024606Y-72124374D01*
X165998444Y-72390000D01*
X166024606Y-72655626D01*
X166102086Y-72911045D01*
X166227908Y-73146440D01*
X166397235Y-73352765D01*
X166603560Y-73522092D01*
X166838955Y-73647914D01*
X166878797Y-73660000D01*
X166838955Y-73672086D01*
X166603560Y-73797908D01*
X166397235Y-73967235D01*
X166227908Y-74173560D01*
X166102086Y-74408955D01*
X166024606Y-74664374D01*
X165998444Y-74930000D01*
X166024606Y-75195626D01*
X166102086Y-75451045D01*
X166227908Y-75686440D01*
X166397235Y-75892765D01*
X166603560Y-76062092D01*
X166838955Y-76187914D01*
X166878797Y-76200000D01*
X166838955Y-76212086D01*
X166603560Y-76337908D01*
X166397235Y-76507235D01*
X166227908Y-76713560D01*
X166102086Y-76948955D01*
X166024606Y-77204374D01*
X165998444Y-77470000D01*
X166024606Y-77735626D01*
X166102086Y-77991045D01*
X166227908Y-78226440D01*
X166397235Y-78432765D01*
X166534820Y-78545678D01*
X162115099Y-82965400D01*
X156425706Y-82965400D01*
X156425000Y-82835750D01*
X156266250Y-82677000D01*
X155067000Y-82677000D01*
X155067000Y-82697000D01*
X154813000Y-82697000D01*
X154813000Y-82677000D01*
X154793000Y-82677000D01*
X154793000Y-82423000D01*
X154813000Y-82423000D01*
X154813000Y-81223750D01*
X155067000Y-81223750D01*
X155067000Y-82423000D01*
X156266250Y-82423000D01*
X156425000Y-82264250D01*
X156428072Y-81700000D01*
X156415812Y-81575518D01*
X156379502Y-81455820D01*
X156320537Y-81345506D01*
X156241185Y-81248815D01*
X156144494Y-81169463D01*
X156034180Y-81110498D01*
X155914482Y-81074188D01*
X155790000Y-81061928D01*
X155225750Y-81065000D01*
X155067000Y-81223750D01*
X154813000Y-81223750D01*
X154654250Y-81065000D01*
X154090000Y-81061928D01*
X153965518Y-81074188D01*
X153845820Y-81110498D01*
X153735506Y-81169463D01*
X153638815Y-81248815D01*
X153559463Y-81345506D01*
X153500498Y-81455820D01*
X153478487Y-81528380D01*
X153406804Y-81456697D01*
X154136403Y-80727099D01*
X154165401Y-80703301D01*
X154260374Y-80587576D01*
X154330946Y-80455547D01*
X154374403Y-80312286D01*
X154385400Y-80200633D01*
X154385400Y-80200624D01*
X154389076Y-80163301D01*
X154385400Y-80125978D01*
X154385400Y-71281749D01*
X154492257Y-71326011D01*
X154788816Y-71385000D01*
X155091184Y-71385000D01*
X155387743Y-71326011D01*
X155667095Y-71210299D01*
X155918505Y-71042312D01*
X156132312Y-70828505D01*
X156300299Y-70577095D01*
X156416011Y-70297743D01*
X156475000Y-70001184D01*
X156475000Y-69698816D01*
X156423731Y-69441070D01*
X159123203Y-66741599D01*
X159152201Y-66717801D01*
X159187306Y-66675026D01*
X159247174Y-66602077D01*
X159317746Y-66470047D01*
X159349190Y-66366387D01*
X159361203Y-66326786D01*
X159372200Y-66215133D01*
X159372200Y-66215124D01*
X159375876Y-66177801D01*
X159372200Y-66140478D01*
X159372200Y-46744833D01*
X159375877Y-46707500D01*
X159361203Y-46558514D01*
X159317746Y-46415253D01*
X159247174Y-46283224D01*
X159245222Y-46280846D01*
X159152201Y-46167499D01*
X159123204Y-46143702D01*
X158469449Y-45489947D01*
X158594637Y-45364759D01*
X158751680Y-45129727D01*
X158859853Y-44868574D01*
X158915000Y-44591335D01*
X158915000Y-44308665D01*
X158859853Y-44031426D01*
X158751680Y-43770273D01*
X158710717Y-43708967D01*
X169815000Y-43708967D01*
X169815000Y-44031033D01*
X169877832Y-44346912D01*
X170001082Y-44644463D01*
X170180013Y-44912252D01*
X170407748Y-45139987D01*
X170675537Y-45318918D01*
X170973088Y-45442168D01*
X171288967Y-45505000D01*
X171611033Y-45505000D01*
X171926912Y-45442168D01*
X172224463Y-45318918D01*
X172492252Y-45139987D01*
X172719987Y-44912252D01*
X172898918Y-44644463D01*
X173022168Y-44346912D01*
X173085000Y-44031033D01*
X173085000Y-43708967D01*
X176315000Y-43708967D01*
X176315000Y-44031033D01*
X176377832Y-44346912D01*
X176501082Y-44644463D01*
X176680013Y-44912252D01*
X176907748Y-45139987D01*
X177175537Y-45318918D01*
X177473088Y-45442168D01*
X177788967Y-45505000D01*
X178111033Y-45505000D01*
X178426912Y-45442168D01*
X178724463Y-45318918D01*
X178992252Y-45139987D01*
X179219987Y-44912252D01*
X179398918Y-44644463D01*
X179522168Y-44346912D01*
X179585000Y-44031033D01*
X179585000Y-43708967D01*
X179522168Y-43393088D01*
X179398918Y-43095537D01*
X179219987Y-42827748D01*
X178992252Y-42600013D01*
X178724463Y-42421082D01*
X178426912Y-42297832D01*
X178111033Y-42235000D01*
X177788967Y-42235000D01*
X177473088Y-42297832D01*
X177175537Y-42421082D01*
X176907748Y-42600013D01*
X176680013Y-42827748D01*
X176501082Y-43095537D01*
X176377832Y-43393088D01*
X176315000Y-43708967D01*
X173085000Y-43708967D01*
X173022168Y-43393088D01*
X172898918Y-43095537D01*
X172719987Y-42827748D01*
X172492252Y-42600013D01*
X172224463Y-42421082D01*
X171926912Y-42297832D01*
X171611033Y-42235000D01*
X171288967Y-42235000D01*
X170973088Y-42297832D01*
X170675537Y-42421082D01*
X170407748Y-42600013D01*
X170180013Y-42827748D01*
X170001082Y-43095537D01*
X169877832Y-43393088D01*
X169815000Y-43708967D01*
X158710717Y-43708967D01*
X158594637Y-43535241D01*
X158394759Y-43335363D01*
X158159727Y-43178320D01*
X157898574Y-43070147D01*
X157621335Y-43015000D01*
X157338665Y-43015000D01*
X157061426Y-43070147D01*
X156800273Y-43178320D01*
X156565241Y-43335363D01*
X156365363Y-43535241D01*
X156208320Y-43770273D01*
X156100147Y-44031426D01*
X156045000Y-44308665D01*
X156045000Y-44591335D01*
X156100147Y-44868574D01*
X156208320Y-45129727D01*
X156365363Y-45364759D01*
X156565241Y-45564637D01*
X156725843Y-45671948D01*
X156730998Y-45724285D01*
X156774454Y-45867546D01*
X156845026Y-45999576D01*
X156904895Y-46072526D01*
X156940000Y-46115301D01*
X156968998Y-46139099D01*
X157852200Y-47022302D01*
X157852200Y-48140923D01*
X157621335Y-48095000D01*
X157338665Y-48095000D01*
X157061426Y-48150147D01*
X156800273Y-48258320D01*
X156565241Y-48415363D01*
X156365363Y-48615241D01*
X156208320Y-48850273D01*
X156100147Y-49111426D01*
X156045000Y-49388665D01*
X156045000Y-49671335D01*
X156100147Y-49948574D01*
X156208320Y-50209727D01*
X156365363Y-50444759D01*
X156565241Y-50644637D01*
X156720000Y-50748044D01*
X156720001Y-59349697D01*
X156475000Y-59594698D01*
X156475000Y-59538816D01*
X156416011Y-59242257D01*
X156300299Y-58962905D01*
X156132312Y-58711495D01*
X155918505Y-58497688D01*
X155700000Y-58351687D01*
X155700000Y-43350101D01*
X157991008Y-41059095D01*
X158020001Y-41035301D01*
X158043795Y-41006308D01*
X158043799Y-41006304D01*
X158114973Y-40919577D01*
X158119716Y-40910704D01*
X158185546Y-40787547D01*
X158229003Y-40644286D01*
X158234158Y-40591947D01*
X158363665Y-40505413D01*
X170494192Y-40505413D01*
X170589956Y-40769814D01*
X170879571Y-40910704D01*
X171191108Y-40992384D01*
X171512595Y-41011718D01*
X171831675Y-40967961D01*
X172136088Y-40862795D01*
X172310044Y-40769814D01*
X172405808Y-40505413D01*
X176994192Y-40505413D01*
X177089956Y-40769814D01*
X177379571Y-40910704D01*
X177691108Y-40992384D01*
X178012595Y-41011718D01*
X178331675Y-40967961D01*
X178636088Y-40862795D01*
X178810044Y-40769814D01*
X178905808Y-40505413D01*
X177950000Y-39549605D01*
X176994192Y-40505413D01*
X172405808Y-40505413D01*
X171450000Y-39549605D01*
X170494192Y-40505413D01*
X158363665Y-40505413D01*
X158394759Y-40484637D01*
X158594637Y-40284759D01*
X158751680Y-40049727D01*
X158859853Y-39788574D01*
X158915000Y-39511335D01*
X158915000Y-39432595D01*
X169808282Y-39432595D01*
X169852039Y-39751675D01*
X169957205Y-40056088D01*
X170050186Y-40230044D01*
X170314587Y-40325808D01*
X171270395Y-39370000D01*
X171629605Y-39370000D01*
X172585413Y-40325808D01*
X172849814Y-40230044D01*
X172990704Y-39940429D01*
X173072384Y-39628892D01*
X173084189Y-39432595D01*
X176308282Y-39432595D01*
X176352039Y-39751675D01*
X176457205Y-40056088D01*
X176550186Y-40230044D01*
X176814587Y-40325808D01*
X177770395Y-39370000D01*
X178129605Y-39370000D01*
X179085413Y-40325808D01*
X179349814Y-40230044D01*
X179490704Y-39940429D01*
X179572384Y-39628892D01*
X179591718Y-39307405D01*
X179547961Y-38988325D01*
X179442795Y-38683912D01*
X179349814Y-38509956D01*
X179085413Y-38414192D01*
X178129605Y-39370000D01*
X177770395Y-39370000D01*
X176814587Y-38414192D01*
X176550186Y-38509956D01*
X176409296Y-38799571D01*
X176327616Y-39111108D01*
X176308282Y-39432595D01*
X173084189Y-39432595D01*
X173091718Y-39307405D01*
X173047961Y-38988325D01*
X172942795Y-38683912D01*
X172849814Y-38509956D01*
X172585413Y-38414192D01*
X171629605Y-39370000D01*
X171270395Y-39370000D01*
X170314587Y-38414192D01*
X170050186Y-38509956D01*
X169909296Y-38799571D01*
X169827616Y-39111108D01*
X169808282Y-39432595D01*
X158915000Y-39432595D01*
X158915000Y-39228665D01*
X158859853Y-38951426D01*
X158751680Y-38690273D01*
X158594637Y-38455241D01*
X158394759Y-38255363D01*
X158363666Y-38234587D01*
X170494192Y-38234587D01*
X171450000Y-39190395D01*
X172405808Y-38234587D01*
X176994192Y-38234587D01*
X177950000Y-39190395D01*
X178905808Y-38234587D01*
X178810044Y-37970186D01*
X178520429Y-37829296D01*
X178208892Y-37747616D01*
X177887405Y-37728282D01*
X177568325Y-37772039D01*
X177263912Y-37877205D01*
X177089956Y-37970186D01*
X176994192Y-38234587D01*
X172405808Y-38234587D01*
X172310044Y-37970186D01*
X172020429Y-37829296D01*
X171708892Y-37747616D01*
X171387405Y-37728282D01*
X171068325Y-37772039D01*
X170763912Y-37877205D01*
X170589956Y-37970186D01*
X170494192Y-38234587D01*
X158363666Y-38234587D01*
X158159727Y-38098320D01*
X157898574Y-37990147D01*
X157621335Y-37935000D01*
X157338665Y-37935000D01*
X157061426Y-37990147D01*
X156800273Y-38098320D01*
X156565241Y-38255363D01*
X156365363Y-38455241D01*
X156208320Y-38690273D01*
X156100147Y-38951426D01*
X156045000Y-39228665D01*
X156045000Y-39511335D01*
X156100147Y-39788574D01*
X156208320Y-40049727D01*
X156365363Y-40284759D01*
X156490551Y-40409947D01*
X154429003Y-42471496D01*
X154399999Y-42495299D01*
X154344871Y-42562474D01*
X154305026Y-42611024D01*
X154234455Y-42743053D01*
X154234454Y-42743054D01*
X154190997Y-42886315D01*
X154180000Y-42997968D01*
X154180000Y-42997978D01*
X154176324Y-43035300D01*
X154180000Y-43072622D01*
X154180001Y-52772348D01*
X154164108Y-52759305D01*
X151258688Y-49853886D01*
X151295000Y-49671335D01*
X151295000Y-49388665D01*
X151239853Y-49111426D01*
X151131680Y-48850273D01*
X150974637Y-48615241D01*
X150774759Y-48415363D01*
X150620000Y-48311957D01*
X150620000Y-45668043D01*
X150774759Y-45564637D01*
X150974637Y-45364759D01*
X151131680Y-45129727D01*
X151239853Y-44868574D01*
X151295000Y-44591335D01*
X151295000Y-44308665D01*
X151239853Y-44031426D01*
X151131680Y-43770273D01*
X150974637Y-43535241D01*
X150774759Y-43335363D01*
X150620000Y-43231957D01*
X150620000Y-40588043D01*
X150774759Y-40484637D01*
X150974637Y-40284759D01*
X151131680Y-40049727D01*
X151239853Y-39788574D01*
X151295000Y-39511335D01*
X151295000Y-39228665D01*
X151239853Y-38951426D01*
X151131680Y-38690273D01*
X150974637Y-38455241D01*
X150774759Y-38255363D01*
X150539727Y-38098320D01*
X150278574Y-37990147D01*
X150001335Y-37935000D01*
X149718665Y-37935000D01*
X149441426Y-37990147D01*
X149180273Y-38098320D01*
X148945241Y-38255363D01*
X148745363Y-38455241D01*
X148588320Y-38690273D01*
X148480147Y-38951426D01*
X148425000Y-39228665D01*
X148425000Y-39511335D01*
X148480147Y-39788574D01*
X148588320Y-40049727D01*
X148745363Y-40284759D01*
X148945241Y-40484637D01*
X149100001Y-40588044D01*
X149100000Y-43231956D01*
X148945241Y-43335363D01*
X148745363Y-43535241D01*
X148588320Y-43770273D01*
X148480147Y-44031426D01*
X148425000Y-44308665D01*
X148425000Y-44591335D01*
X148480147Y-44868574D01*
X148588320Y-45129727D01*
X148745363Y-45364759D01*
X148945241Y-45564637D01*
X149100000Y-45668044D01*
X149100001Y-48311956D01*
X148945241Y-48415363D01*
X148745363Y-48615241D01*
X148588320Y-48850273D01*
X148480147Y-49111426D01*
X148425000Y-49388665D01*
X148425000Y-49671335D01*
X148461312Y-49853886D01*
X145883388Y-52431811D01*
X145686727Y-52235150D01*
X145453759Y-52079486D01*
X145430858Y-52070000D01*
X145453759Y-52060514D01*
X145686727Y-51904850D01*
X145884850Y-51706727D01*
X146040514Y-51473759D01*
X146147738Y-51214899D01*
X146202400Y-50940094D01*
X146202400Y-50659906D01*
X146147738Y-50385101D01*
X146040514Y-50126241D01*
X145884850Y-49893273D01*
X145686727Y-49695150D01*
X145453759Y-49539486D01*
X145431755Y-49530372D01*
X145514043Y-49486388D01*
X145584100Y-49243705D01*
X144780000Y-48439605D01*
X143975900Y-49243705D01*
X144045957Y-49486388D01*
X144134028Y-49527976D01*
X144106241Y-49539486D01*
X143873273Y-49695150D01*
X143675150Y-49893273D01*
X143519486Y-50126241D01*
X143412262Y-50385101D01*
X143357600Y-50659906D01*
X143357600Y-50940094D01*
X143412262Y-51214899D01*
X143519486Y-51473759D01*
X143675150Y-51706727D01*
X143873273Y-51904850D01*
X144106241Y-52060514D01*
X144129142Y-52070000D01*
X144106241Y-52079486D01*
X143873273Y-52235150D01*
X143675150Y-52433273D01*
X143519486Y-52666241D01*
X143412262Y-52925101D01*
X143357600Y-53199906D01*
X143357600Y-53480094D01*
X143412262Y-53754899D01*
X143519486Y-54013759D01*
X143675150Y-54246727D01*
X143873273Y-54444850D01*
X144106241Y-54600514D01*
X144129142Y-54610000D01*
X144106241Y-54619486D01*
X143873273Y-54775150D01*
X143675150Y-54973273D01*
X143519486Y-55206241D01*
X143412262Y-55465101D01*
X143357600Y-55739906D01*
X143357600Y-56020094D01*
X143412262Y-56294899D01*
X143519486Y-56553759D01*
X143675150Y-56786727D01*
X143873273Y-56984850D01*
X144106241Y-57140514D01*
X144129142Y-57150000D01*
X144106241Y-57159486D01*
X143873273Y-57315150D01*
X143675150Y-57513273D01*
X143519486Y-57746241D01*
X143412262Y-58005101D01*
X143357600Y-58279906D01*
X143357600Y-58560094D01*
X143412262Y-58834899D01*
X143519486Y-59093759D01*
X143675150Y-59326727D01*
X143873273Y-59524850D01*
X144106241Y-59680514D01*
X144129142Y-59690000D01*
X144106241Y-59699486D01*
X143873273Y-59855150D01*
X143675150Y-60053273D01*
X143519486Y-60286241D01*
X143412262Y-60545101D01*
X143357600Y-60819906D01*
X143357600Y-61100094D01*
X143412262Y-61374899D01*
X143516769Y-61627200D01*
X138310122Y-61627200D01*
X138272799Y-61623524D01*
X138235476Y-61627200D01*
X138235467Y-61627200D01*
X138123814Y-61638197D01*
X137980553Y-61681654D01*
X137848524Y-61752226D01*
X137732799Y-61847199D01*
X137709001Y-61876197D01*
X130962400Y-68622799D01*
X130962400Y-68439906D01*
X130907738Y-68165101D01*
X130800514Y-67906241D01*
X130644850Y-67673273D01*
X130446727Y-67475150D01*
X130213759Y-67319486D01*
X130190858Y-67310000D01*
X130213759Y-67300514D01*
X130446727Y-67144850D01*
X130644850Y-66946727D01*
X130800514Y-66713759D01*
X130907738Y-66454899D01*
X130962400Y-66180094D01*
X130962400Y-65899906D01*
X130907738Y-65625101D01*
X130800514Y-65366241D01*
X130644850Y-65133273D01*
X130446727Y-64935150D01*
X130213759Y-64779486D01*
X130190858Y-64770000D01*
X130213759Y-64760514D01*
X130446727Y-64604850D01*
X130644850Y-64406727D01*
X130800514Y-64173759D01*
X130907738Y-63914899D01*
X130962400Y-63640094D01*
X130962400Y-63359906D01*
X130907738Y-63085101D01*
X130800514Y-62826241D01*
X130644850Y-62593273D01*
X130446727Y-62395150D01*
X130213759Y-62239486D01*
X130190858Y-62230000D01*
X130213759Y-62220514D01*
X130446727Y-62064850D01*
X130644850Y-61866727D01*
X130800514Y-61633759D01*
X130907738Y-61374899D01*
X130962400Y-61100094D01*
X130962400Y-60819906D01*
X130907738Y-60545101D01*
X130800514Y-60286241D01*
X130644850Y-60053273D01*
X130446727Y-59855150D01*
X130213759Y-59699486D01*
X130190858Y-59690000D01*
X130213759Y-59680514D01*
X130446727Y-59524850D01*
X130644850Y-59326727D01*
X130800514Y-59093759D01*
X130907738Y-58834899D01*
X130962400Y-58560094D01*
X130962400Y-58279906D01*
X130907738Y-58005101D01*
X130800514Y-57746241D01*
X130644850Y-57513273D01*
X130446727Y-57315150D01*
X130213759Y-57159486D01*
X130190858Y-57150000D01*
X130213759Y-57140514D01*
X130446727Y-56984850D01*
X130644850Y-56786727D01*
X130800514Y-56553759D01*
X130907738Y-56294899D01*
X130962400Y-56020094D01*
X130962400Y-55739906D01*
X130907738Y-55465101D01*
X130800514Y-55206241D01*
X130644850Y-54973273D01*
X130446727Y-54775150D01*
X130213759Y-54619486D01*
X130190858Y-54610000D01*
X130213759Y-54600514D01*
X130446727Y-54444850D01*
X130644850Y-54246727D01*
X130800514Y-54013759D01*
X130907738Y-53754899D01*
X130962400Y-53480094D01*
X130962400Y-53199906D01*
X130907738Y-52925101D01*
X130800514Y-52666241D01*
X130644850Y-52433273D01*
X130446727Y-52235150D01*
X130213759Y-52079486D01*
X130190858Y-52070000D01*
X130213759Y-52060514D01*
X130446727Y-51904850D01*
X130644850Y-51706727D01*
X130800514Y-51473759D01*
X130907738Y-51214899D01*
X130962400Y-50940094D01*
X130962400Y-50659906D01*
X130907738Y-50385101D01*
X130800514Y-50126241D01*
X130644850Y-49893273D01*
X130446727Y-49695150D01*
X130213759Y-49539486D01*
X130190858Y-49530000D01*
X130213759Y-49520514D01*
X130446727Y-49364850D01*
X130644850Y-49166727D01*
X130800514Y-48933759D01*
X130907738Y-48674899D01*
X130962400Y-48400094D01*
X130962400Y-48331010D01*
X143352483Y-48331010D01*
X143393766Y-48608140D01*
X143488321Y-48871892D01*
X143553612Y-48994043D01*
X143796295Y-49064100D01*
X144600395Y-48260000D01*
X144959605Y-48260000D01*
X145763705Y-49064100D01*
X146006388Y-48994043D01*
X146126028Y-48740682D01*
X146193941Y-48468849D01*
X146207517Y-48188990D01*
X146166234Y-47911860D01*
X146071679Y-47648108D01*
X146006388Y-47525957D01*
X145763705Y-47455900D01*
X144959605Y-48260000D01*
X144600395Y-48260000D01*
X143796295Y-47455900D01*
X143553612Y-47525957D01*
X143433972Y-47779318D01*
X143366059Y-48051151D01*
X143352483Y-48331010D01*
X130962400Y-48331010D01*
X130962400Y-48119906D01*
X130907738Y-47845101D01*
X130800514Y-47586241D01*
X130644850Y-47353273D01*
X130446727Y-47155150D01*
X130213759Y-46999486D01*
X130190858Y-46990000D01*
X130213759Y-46980514D01*
X130446727Y-46824850D01*
X130644850Y-46626727D01*
X130800514Y-46393759D01*
X130907738Y-46134899D01*
X130962400Y-45860094D01*
X130962400Y-45579906D01*
X143357600Y-45579906D01*
X143357600Y-45860094D01*
X143412262Y-46134899D01*
X143519486Y-46393759D01*
X143675150Y-46626727D01*
X143873273Y-46824850D01*
X144106241Y-46980514D01*
X144128245Y-46989628D01*
X144045957Y-47033612D01*
X143975900Y-47276295D01*
X144780000Y-48080395D01*
X145584100Y-47276295D01*
X145514043Y-47033612D01*
X145425972Y-46992024D01*
X145453759Y-46980514D01*
X145686727Y-46824850D01*
X145884850Y-46626727D01*
X146040514Y-46393759D01*
X146147738Y-46134899D01*
X146202400Y-45860094D01*
X146202400Y-45579906D01*
X146147738Y-45305101D01*
X146040514Y-45046241D01*
X145884850Y-44813273D01*
X145686727Y-44615150D01*
X145453759Y-44459486D01*
X145194899Y-44352262D01*
X144920094Y-44297600D01*
X144639906Y-44297600D01*
X144365101Y-44352262D01*
X144106241Y-44459486D01*
X143873273Y-44615150D01*
X143675150Y-44813273D01*
X143519486Y-45046241D01*
X143412262Y-45305101D01*
X143357600Y-45579906D01*
X130962400Y-45579906D01*
X130907738Y-45305101D01*
X130800514Y-45046241D01*
X130644850Y-44813273D01*
X130446727Y-44615150D01*
X130213759Y-44459486D01*
X129954899Y-44352262D01*
X129680094Y-44297600D01*
X129399906Y-44297600D01*
X129125101Y-44352262D01*
X128866241Y-44459486D01*
X128633273Y-44615150D01*
X128435150Y-44813273D01*
X128279486Y-45046241D01*
X128172262Y-45305101D01*
X128117600Y-45579906D01*
X127660000Y-45579906D01*
X127660000Y-36220000D01*
X179680000Y-36220000D01*
X179680001Y-86970000D01*
G04 #@! TD*
M02*
