M48
; DRILL file {KiCad 5.1.6-c6e7f7d~87~ubuntu18.04.1} date Thu Aug 20 21:19:53 2020
; FORMAT={3:3/ absolute / metric / suppress leading zeros}
; #@! TF.CreationDate,2020-08-20T21:19:53-03:00
; #@! TF.GenerationSoftware,Kicad,Pcbnew,5.1.6-c6e7f7d~87~ubuntu18.04.1
FMAT,2
METRIC,TZ
T1C0.400
T2C0.800
T3C0.900
T4C1.000
T5C1.100
%
G90
G05
T1
X146986Y-62387
X148875Y-61429
X148957Y-65118
X151019Y-62998
X152177Y-80586
X152928Y-62412
T2
X149860Y-44450
X157480Y-44450
X129540Y-45720
X129540Y-48260
X129540Y-50800
X129540Y-53340
X129540Y-55880
X129540Y-58420
X129540Y-60960
X129540Y-63500
X129540Y-66040
X129540Y-68580
X129540Y-71120
X129540Y-73660
X129540Y-76200
X129540Y-78740
X129540Y-81280
X144780Y-45720
X144780Y-48260
X144780Y-50800
X144780Y-53340
X144780Y-55880
X144780Y-58420
X144780Y-60960
X144780Y-63500
X144780Y-66040
X144780Y-68580
X144780Y-71120
X144780Y-73660
X144780Y-76200
X144780Y-78740
X144780Y-81280
X149860Y-49530
X157480Y-49530
X149860Y-39370
X157480Y-39370
T3
X152400Y-59690
X154940Y-59690
X152400Y-69850
X154940Y-69850
T4
X167640Y-59690
X167640Y-62230
X167640Y-64770
X167640Y-67310
X167640Y-69850
X167640Y-72390
X167640Y-74930
X167640Y-77470
X175260Y-59690
X175260Y-62230
X175260Y-64770
X175260Y-67310
X175260Y-69850
X175260Y-72390
X175260Y-74930
X175260Y-77470
X152400Y-82550
X154940Y-82550
T5
X171450Y-39370
X171450Y-43870
X177950Y-39370
X177950Y-43870
T0
M30
