G04 #@! TF.GenerationSoftware,KiCad,Pcbnew,5.1.6-c6e7f7d~87~ubuntu18.04.1*
G04 #@! TF.CreationDate,2020-08-20T21:19:03-03:00*
G04 #@! TF.ProjectId,dram-tester,6472616d-2d74-4657-9374-65722e6b6963,rev?*
G04 #@! TF.SameCoordinates,Original*
G04 #@! TF.FileFunction,Legend,Top*
G04 #@! TF.FilePolarity,Positive*
%FSLAX46Y46*%
G04 Gerber Fmt 4.6, Leading zero omitted, Abs format (unit mm)*
G04 Created by KiCad (PCBNEW 5.1.6-c6e7f7d~87~ubuntu18.04.1) date 2020-08-20 21:19:03*
%MOMM*%
%LPD*%
G01*
G04 APERTURE LIST*
%ADD10C,0.120000*%
%ADD11C,0.150000*%
%ADD12C,0.100000*%
G04 APERTURE END LIST*
D10*
G04 #@! TO.C,SW1*
X178200000Y-42370000D02*
X178200000Y-40870000D01*
X176950000Y-38370000D02*
X172450000Y-38370000D01*
X171200000Y-40870000D02*
X171200000Y-42370000D01*
X172450000Y-44870000D02*
X176950000Y-44870000D01*
G04 #@! TO.C,JP1*
X156270000Y-81220000D02*
X156270000Y-82550000D01*
X154940000Y-81220000D02*
X156270000Y-81220000D01*
X153670000Y-81220000D02*
X153670000Y-83880000D01*
X153670000Y-83880000D02*
X151070000Y-83880000D01*
X153670000Y-81220000D02*
X151070000Y-81220000D01*
X151070000Y-81220000D02*
X151070000Y-83880000D01*
G04 #@! TO.C,D2*
X151110000Y-58145000D02*
X151110000Y-61235000D01*
X156170000Y-59690000D02*
G75*
G03*
X156170000Y-59690000I-2500000J0D01*
G01*
X156660000Y-59690462D02*
G75*
G03*
X151110000Y-58145170I-2990000J462D01*
G01*
X156660000Y-59689538D02*
G75*
G02*
X151110000Y-61234830I-2990000J-462D01*
G01*
G04 #@! TO.C,D1*
X151110000Y-68305000D02*
X151110000Y-71395000D01*
X156170000Y-69850000D02*
G75*
G03*
X156170000Y-69850000I-2500000J0D01*
G01*
X156660000Y-69850462D02*
G75*
G03*
X151110000Y-68305170I-2990000J462D01*
G01*
X156660000Y-69849538D02*
G75*
G02*
X151110000Y-71394830I-2990000J-462D01*
G01*
G04 #@! TO.C,R3*
X156880000Y-40680000D02*
X156880000Y-40350000D01*
X150460000Y-40680000D02*
X156880000Y-40680000D01*
X150460000Y-40350000D02*
X150460000Y-40680000D01*
X156880000Y-38060000D02*
X156880000Y-38390000D01*
X150460000Y-38060000D02*
X156880000Y-38060000D01*
X150460000Y-38390000D02*
X150460000Y-38060000D01*
G04 #@! TO.C,R2*
X156880000Y-45760000D02*
X156880000Y-45430000D01*
X150460000Y-45760000D02*
X156880000Y-45760000D01*
X150460000Y-45430000D02*
X150460000Y-45760000D01*
X156880000Y-43140000D02*
X156880000Y-43470000D01*
X150460000Y-43140000D02*
X156880000Y-43140000D01*
X150460000Y-43470000D02*
X150460000Y-43140000D01*
G04 #@! TO.C,R1*
X156880000Y-50840000D02*
X156880000Y-50510000D01*
X150460000Y-50840000D02*
X156880000Y-50840000D01*
X150460000Y-50510000D02*
X150460000Y-50840000D01*
X156880000Y-48220000D02*
X156880000Y-48550000D01*
X150460000Y-48220000D02*
X156880000Y-48220000D01*
X150460000Y-48550000D02*
X150460000Y-48220000D01*
G04 #@! TO.C,J1*
X166990000Y-53340000D02*
G75*
G03*
X166990000Y-53340000I-2550000J0D01*
G01*
X165340000Y-53340000D02*
G75*
G03*
X165340000Y-53340000I-900000J0D01*
G01*
X163750000Y-55790000D02*
X163750000Y-84530000D01*
X163750000Y-84530000D02*
X179150000Y-84530000D01*
X179150000Y-84530000D02*
X179150000Y-49030000D01*
X179150000Y-49030000D02*
X163750000Y-49030000D01*
X163750000Y-49030000D02*
X163750000Y-50890000D01*
X165990000Y-49030000D02*
X165990000Y-51290000D01*
X162690000Y-60960000D02*
X162690000Y-58420000D01*
D11*
G04 #@! TO.C,A1*
X133350000Y-85090000D02*
X128270000Y-85090000D01*
X146050000Y-85090000D02*
X140970000Y-85090000D01*
X140970000Y-86995000D02*
X133350000Y-86995000D01*
X133350000Y-86995000D02*
X133350000Y-78740000D01*
X133350000Y-78740000D02*
X140970000Y-78740000D01*
X140970000Y-78740000D02*
X140970000Y-86995000D01*
X137795000Y-43180000D02*
G75*
G03*
X137795000Y-43180000I-635000J0D01*
G01*
X135255000Y-43180000D02*
G75*
G03*
X135255000Y-43180000I-635000J0D01*
G01*
X135255000Y-45720000D02*
G75*
G03*
X135255000Y-45720000I-635000J0D01*
G01*
X137795000Y-45720000D02*
G75*
G03*
X137795000Y-45720000I-635000J0D01*
G01*
X140335000Y-45720000D02*
G75*
G03*
X140335000Y-45720000I-635000J0D01*
G01*
X140335000Y-43180000D02*
G75*
G03*
X140335000Y-43180000I-635000J0D01*
G01*
X130175000Y-83820000D02*
G75*
G03*
X130175000Y-83820000I-635000J0D01*
G01*
X145415000Y-83820000D02*
G75*
G03*
X145415000Y-83820000I-635000J0D01*
G01*
X130175000Y-43180000D02*
G75*
G03*
X130175000Y-43180000I-635000J0D01*
G01*
X145415000Y-43180000D02*
G75*
G03*
X145415000Y-43180000I-635000J0D01*
G01*
X140970000Y-44450000D02*
X138430000Y-44450000D01*
X138430000Y-44450000D02*
X138430000Y-41910000D01*
X140970000Y-46990000D02*
X140970000Y-41910000D01*
X133350000Y-41910000D02*
X133350000Y-46990000D01*
X133350000Y-46990000D02*
X140970000Y-46990000D01*
X146050000Y-41910000D02*
X128270000Y-41910000D01*
X128270000Y-41910000D02*
X128270000Y-85090000D01*
X146050000Y-85090000D02*
X146050000Y-41910000D01*
G04 #@! TD*
D12*
G04 #@! TO.C,A1*
X130277400Y-81280000D02*
G75*
G03*
X130277400Y-81280000I-737400J0D01*
G01*
X145517400Y-81280000D02*
G75*
G03*
X145517400Y-81280000I-737400J0D01*
G01*
X130277400Y-78740000D02*
G75*
G03*
X130277400Y-78740000I-737400J0D01*
G01*
X145517400Y-78740000D02*
G75*
G03*
X145517400Y-78740000I-737400J0D01*
G01*
X130277400Y-76200000D02*
G75*
G03*
X130277400Y-76200000I-737400J0D01*
G01*
X145517400Y-76200000D02*
G75*
G03*
X145517400Y-76200000I-737400J0D01*
G01*
X130277400Y-73660000D02*
G75*
G03*
X130277400Y-73660000I-737400J0D01*
G01*
X145517400Y-73660000D02*
G75*
G03*
X145517400Y-73660000I-737400J0D01*
G01*
X130277400Y-71120000D02*
G75*
G03*
X130277400Y-71120000I-737400J0D01*
G01*
X145517400Y-71120000D02*
G75*
G03*
X145517400Y-71120000I-737400J0D01*
G01*
X130277400Y-68580000D02*
G75*
G03*
X130277400Y-68580000I-737400J0D01*
G01*
X145517400Y-68580000D02*
G75*
G03*
X145517400Y-68580000I-737400J0D01*
G01*
X130277400Y-66040000D02*
G75*
G03*
X130277400Y-66040000I-737400J0D01*
G01*
X145517400Y-66040000D02*
G75*
G03*
X145517400Y-66040000I-737400J0D01*
G01*
X130277400Y-63500000D02*
G75*
G03*
X130277400Y-63500000I-737400J0D01*
G01*
X145517400Y-63500000D02*
G75*
G03*
X145517400Y-63500000I-737400J0D01*
G01*
X130277400Y-60960000D02*
G75*
G03*
X130277400Y-60960000I-737400J0D01*
G01*
X145517400Y-60960000D02*
G75*
G03*
X145517400Y-60960000I-737400J0D01*
G01*
X130277400Y-58420000D02*
G75*
G03*
X130277400Y-58420000I-737400J0D01*
G01*
X145517400Y-58420000D02*
G75*
G03*
X145517400Y-58420000I-737400J0D01*
G01*
X130277400Y-55880000D02*
G75*
G03*
X130277400Y-55880000I-737400J0D01*
G01*
X145517400Y-55880000D02*
G75*
G03*
X145517400Y-55880000I-737400J0D01*
G01*
X130277400Y-53340000D02*
G75*
G03*
X130277400Y-53340000I-737400J0D01*
G01*
X145517400Y-53340000D02*
G75*
G03*
X145517400Y-53340000I-737400J0D01*
G01*
X130277400Y-50800000D02*
G75*
G03*
X130277400Y-50800000I-737400J0D01*
G01*
X145517400Y-50800000D02*
G75*
G03*
X145517400Y-50800000I-737400J0D01*
G01*
X130277400Y-48260000D02*
G75*
G03*
X130277400Y-48260000I-737400J0D01*
G01*
X145517400Y-48260000D02*
G75*
G03*
X145517400Y-48260000I-737400J0D01*
G01*
X130277400Y-45720000D02*
G75*
G03*
X130277400Y-45720000I-737400J0D01*
G01*
X145517400Y-45720000D02*
G75*
G03*
X145517400Y-45720000I-737400J0D01*
G01*
G04 #@! TD*
G04 #@! TO.C,SW1*
D11*
X173366666Y-37774761D02*
X173509523Y-37822380D01*
X173747619Y-37822380D01*
X173842857Y-37774761D01*
X173890476Y-37727142D01*
X173938095Y-37631904D01*
X173938095Y-37536666D01*
X173890476Y-37441428D01*
X173842857Y-37393809D01*
X173747619Y-37346190D01*
X173557142Y-37298571D01*
X173461904Y-37250952D01*
X173414285Y-37203333D01*
X173366666Y-37108095D01*
X173366666Y-37012857D01*
X173414285Y-36917619D01*
X173461904Y-36870000D01*
X173557142Y-36822380D01*
X173795238Y-36822380D01*
X173938095Y-36870000D01*
X174271428Y-36822380D02*
X174509523Y-37822380D01*
X174700000Y-37108095D01*
X174890476Y-37822380D01*
X175128571Y-36822380D01*
X176033333Y-37822380D02*
X175461904Y-37822380D01*
X175747619Y-37822380D02*
X175747619Y-36822380D01*
X175652380Y-36965238D01*
X175557142Y-37060476D01*
X175461904Y-37108095D01*
X173961904Y-46522380D02*
X173628571Y-46046190D01*
X173390476Y-46522380D02*
X173390476Y-45522380D01*
X173771428Y-45522380D01*
X173866666Y-45570000D01*
X173914285Y-45617619D01*
X173961904Y-45712857D01*
X173961904Y-45855714D01*
X173914285Y-45950952D01*
X173866666Y-45998571D01*
X173771428Y-46046190D01*
X173390476Y-46046190D01*
X174771428Y-46474761D02*
X174676190Y-46522380D01*
X174485714Y-46522380D01*
X174390476Y-46474761D01*
X174342857Y-46379523D01*
X174342857Y-45998571D01*
X174390476Y-45903333D01*
X174485714Y-45855714D01*
X174676190Y-45855714D01*
X174771428Y-45903333D01*
X174819047Y-45998571D01*
X174819047Y-46093809D01*
X174342857Y-46189047D01*
X175200000Y-46474761D02*
X175295238Y-46522380D01*
X175485714Y-46522380D01*
X175580952Y-46474761D01*
X175628571Y-46379523D01*
X175628571Y-46331904D01*
X175580952Y-46236666D01*
X175485714Y-46189047D01*
X175342857Y-46189047D01*
X175247619Y-46141428D01*
X175200000Y-46046190D01*
X175200000Y-45998571D01*
X175247619Y-45903333D01*
X175342857Y-45855714D01*
X175485714Y-45855714D01*
X175580952Y-45903333D01*
X176438095Y-46474761D02*
X176342857Y-46522380D01*
X176152380Y-46522380D01*
X176057142Y-46474761D01*
X176009523Y-46379523D01*
X176009523Y-45998571D01*
X176057142Y-45903333D01*
X176152380Y-45855714D01*
X176342857Y-45855714D01*
X176438095Y-45903333D01*
X176485714Y-45998571D01*
X176485714Y-46093809D01*
X176009523Y-46189047D01*
X176771428Y-45855714D02*
X177152380Y-45855714D01*
X176914285Y-45522380D02*
X176914285Y-46379523D01*
X176961904Y-46474761D01*
X177057142Y-46522380D01*
X177152380Y-46522380D01*
G04 #@! TO.C,JP1*
X156722380Y-83383333D02*
X157436666Y-83383333D01*
X157579523Y-83430952D01*
X157674761Y-83526190D01*
X157722380Y-83669047D01*
X157722380Y-83764285D01*
X157722380Y-82907142D02*
X156722380Y-82907142D01*
X156722380Y-82526190D01*
X156770000Y-82430952D01*
X156817619Y-82383333D01*
X156912857Y-82335714D01*
X157055714Y-82335714D01*
X157150952Y-82383333D01*
X157198571Y-82430952D01*
X157246190Y-82526190D01*
X157246190Y-82907142D01*
X157722380Y-81383333D02*
X157722380Y-81954761D01*
X157722380Y-81669047D02*
X156722380Y-81669047D01*
X156865238Y-81764285D01*
X156960476Y-81859523D01*
X157008095Y-81954761D01*
X147190476Y-79452380D02*
X147095238Y-79404761D01*
X147047619Y-79357142D01*
X147000000Y-79261904D01*
X147000000Y-78976190D01*
X147047619Y-78880952D01*
X147095238Y-78833333D01*
X147190476Y-78785714D01*
X147333333Y-78785714D01*
X147428571Y-78833333D01*
X147476190Y-78880952D01*
X147523809Y-78976190D01*
X147523809Y-79261904D01*
X147476190Y-79357142D01*
X147428571Y-79404761D01*
X147333333Y-79452380D01*
X147190476Y-79452380D01*
X147952380Y-78785714D02*
X147952380Y-79452380D01*
X147952380Y-78880952D02*
X148000000Y-78833333D01*
X148095238Y-78785714D01*
X148238095Y-78785714D01*
X148333333Y-78833333D01*
X148380952Y-78928571D01*
X148380952Y-79452380D01*
X148857142Y-78928571D02*
X149619047Y-78928571D01*
X149619047Y-79214285D02*
X148857142Y-79214285D01*
X150523809Y-78785714D02*
X150523809Y-79452380D01*
X150285714Y-78404761D02*
X150047619Y-79119047D01*
X150666666Y-79119047D01*
X151571428Y-79452380D02*
X151000000Y-79452380D01*
X151285714Y-79452380D02*
X151285714Y-78452380D01*
X151190476Y-78595238D01*
X151095238Y-78690476D01*
X151000000Y-78738095D01*
X152428571Y-78452380D02*
X152238095Y-78452380D01*
X152142857Y-78500000D01*
X152095238Y-78547619D01*
X152000000Y-78690476D01*
X151952380Y-78880952D01*
X151952380Y-79261904D01*
X152000000Y-79357142D01*
X152047619Y-79404761D01*
X152142857Y-79452380D01*
X152333333Y-79452380D01*
X152428571Y-79404761D01*
X152476190Y-79357142D01*
X152523809Y-79261904D01*
X152523809Y-79023809D01*
X152476190Y-78928571D01*
X152428571Y-78880952D01*
X152333333Y-78833333D01*
X152142857Y-78833333D01*
X152047619Y-78880952D01*
X152000000Y-78928571D01*
X151952380Y-79023809D01*
X153380952Y-78785714D02*
X153380952Y-79452380D01*
X153142857Y-78404761D02*
X152904761Y-79119047D01*
X153523809Y-79119047D01*
X153952380Y-79404761D02*
X153952380Y-79452380D01*
X153904761Y-79547619D01*
X153857142Y-79595238D01*
X154523809Y-79452380D02*
X154428571Y-79404761D01*
X154380952Y-79357142D01*
X154333333Y-79261904D01*
X154333333Y-78976190D01*
X154380952Y-78880952D01*
X154428571Y-78833333D01*
X154523809Y-78785714D01*
X154666666Y-78785714D01*
X154761904Y-78833333D01*
X154809523Y-78880952D01*
X154857142Y-78976190D01*
X154857142Y-79261904D01*
X154809523Y-79357142D01*
X154761904Y-79404761D01*
X154666666Y-79452380D01*
X154523809Y-79452380D01*
X155142857Y-78785714D02*
X155523809Y-78785714D01*
X155285714Y-79452380D02*
X155285714Y-78595238D01*
X155333333Y-78500000D01*
X155428571Y-78452380D01*
X155523809Y-78452380D01*
X155714285Y-78785714D02*
X156095238Y-78785714D01*
X155857142Y-79452380D02*
X155857142Y-78595238D01*
X155904761Y-78500000D01*
X156000000Y-78452380D01*
X156095238Y-78452380D01*
X156428571Y-78928571D02*
X157190476Y-78928571D01*
X157190476Y-79214285D02*
X156428571Y-79214285D01*
X158095238Y-78785714D02*
X158095238Y-79452380D01*
X157857142Y-78404761D02*
X157619047Y-79119047D01*
X158238095Y-79119047D01*
X159142857Y-79452380D02*
X158571428Y-79452380D01*
X158857142Y-79452380D02*
X158857142Y-78452380D01*
X158761904Y-78595238D01*
X158666666Y-78690476D01*
X158571428Y-78738095D01*
X159523809Y-78547619D02*
X159571428Y-78500000D01*
X159666666Y-78452380D01*
X159904761Y-78452380D01*
X160000000Y-78500000D01*
X160047619Y-78547619D01*
X160095238Y-78642857D01*
X160095238Y-78738095D01*
X160047619Y-78880952D01*
X159476190Y-79452380D01*
X160095238Y-79452380D01*
X161000000Y-78452380D02*
X160523809Y-78452380D01*
X160476190Y-78928571D01*
X160523809Y-78880952D01*
X160619047Y-78833333D01*
X160857142Y-78833333D01*
X160952380Y-78880952D01*
X161000000Y-78928571D01*
X161047619Y-79023809D01*
X161047619Y-79261904D01*
X161000000Y-79357142D01*
X160952380Y-79404761D01*
X160857142Y-79452380D01*
X160619047Y-79452380D01*
X160523809Y-79404761D01*
X160476190Y-79357142D01*
X161904761Y-78452380D02*
X161714285Y-78452380D01*
X161619047Y-78500000D01*
X161571428Y-78547619D01*
X161476190Y-78690476D01*
X161428571Y-78880952D01*
X161428571Y-79261904D01*
X161476190Y-79357142D01*
X161523809Y-79404761D01*
X161619047Y-79452380D01*
X161809523Y-79452380D01*
X161904761Y-79404761D01*
X161952380Y-79357142D01*
X162000000Y-79261904D01*
X162000000Y-79023809D01*
X161952380Y-78928571D01*
X161904761Y-78880952D01*
X161809523Y-78833333D01*
X161619047Y-78833333D01*
X161523809Y-78880952D01*
X161476190Y-78928571D01*
X161428571Y-79023809D01*
G04 #@! TO.C,D2*
X152931904Y-56182380D02*
X152931904Y-55182380D01*
X153170000Y-55182380D01*
X153312857Y-55230000D01*
X153408095Y-55325238D01*
X153455714Y-55420476D01*
X153503333Y-55610952D01*
X153503333Y-55753809D01*
X153455714Y-55944285D01*
X153408095Y-56039523D01*
X153312857Y-56134761D01*
X153170000Y-56182380D01*
X152931904Y-56182380D01*
X153884285Y-55277619D02*
X153931904Y-55230000D01*
X154027142Y-55182380D01*
X154265238Y-55182380D01*
X154360476Y-55230000D01*
X154408095Y-55277619D01*
X154455714Y-55372857D01*
X154455714Y-55468095D01*
X154408095Y-55610952D01*
X153836666Y-56182380D01*
X154455714Y-56182380D01*
X152574761Y-63150000D02*
X152479523Y-63102380D01*
X152336666Y-63102380D01*
X152193809Y-63150000D01*
X152098571Y-63245238D01*
X152050952Y-63340476D01*
X152003333Y-63530952D01*
X152003333Y-63673809D01*
X152050952Y-63864285D01*
X152098571Y-63959523D01*
X152193809Y-64054761D01*
X152336666Y-64102380D01*
X152431904Y-64102380D01*
X152574761Y-64054761D01*
X152622380Y-64007142D01*
X152622380Y-63673809D01*
X152431904Y-63673809D01*
X153193809Y-64102380D02*
X153098571Y-64054761D01*
X153050952Y-64007142D01*
X153003333Y-63911904D01*
X153003333Y-63626190D01*
X153050952Y-63530952D01*
X153098571Y-63483333D01*
X153193809Y-63435714D01*
X153336666Y-63435714D01*
X153431904Y-63483333D01*
X153479523Y-63530952D01*
X153527142Y-63626190D01*
X153527142Y-63911904D01*
X153479523Y-64007142D01*
X153431904Y-64054761D01*
X153336666Y-64102380D01*
X153193809Y-64102380D01*
X154098571Y-64102380D02*
X154003333Y-64054761D01*
X153955714Y-64007142D01*
X153908095Y-63911904D01*
X153908095Y-63626190D01*
X153955714Y-63530952D01*
X154003333Y-63483333D01*
X154098571Y-63435714D01*
X154241428Y-63435714D01*
X154336666Y-63483333D01*
X154384285Y-63530952D01*
X154431904Y-63626190D01*
X154431904Y-63911904D01*
X154384285Y-64007142D01*
X154336666Y-64054761D01*
X154241428Y-64102380D01*
X154098571Y-64102380D01*
X155289047Y-64102380D02*
X155289047Y-63102380D01*
X155289047Y-64054761D02*
X155193809Y-64102380D01*
X155003333Y-64102380D01*
X154908095Y-64054761D01*
X154860476Y-64007142D01*
X154812857Y-63911904D01*
X154812857Y-63626190D01*
X154860476Y-63530952D01*
X154908095Y-63483333D01*
X155003333Y-63435714D01*
X155193809Y-63435714D01*
X155289047Y-63483333D01*
G04 #@! TO.C,D1*
X152931904Y-66342380D02*
X152931904Y-65342380D01*
X153170000Y-65342380D01*
X153312857Y-65390000D01*
X153408095Y-65485238D01*
X153455714Y-65580476D01*
X153503333Y-65770952D01*
X153503333Y-65913809D01*
X153455714Y-66104285D01*
X153408095Y-66199523D01*
X153312857Y-66294761D01*
X153170000Y-66342380D01*
X152931904Y-66342380D01*
X154455714Y-66342380D02*
X153884285Y-66342380D01*
X154170000Y-66342380D02*
X154170000Y-65342380D01*
X154074761Y-65485238D01*
X153979523Y-65580476D01*
X153884285Y-65628095D01*
X152836666Y-73738571D02*
X152979523Y-73786190D01*
X153027142Y-73833809D01*
X153074761Y-73929047D01*
X153074761Y-74071904D01*
X153027142Y-74167142D01*
X152979523Y-74214761D01*
X152884285Y-74262380D01*
X152503333Y-74262380D01*
X152503333Y-73262380D01*
X152836666Y-73262380D01*
X152931904Y-73310000D01*
X152979523Y-73357619D01*
X153027142Y-73452857D01*
X153027142Y-73548095D01*
X152979523Y-73643333D01*
X152931904Y-73690952D01*
X152836666Y-73738571D01*
X152503333Y-73738571D01*
X153931904Y-74262380D02*
X153931904Y-73738571D01*
X153884285Y-73643333D01*
X153789047Y-73595714D01*
X153598571Y-73595714D01*
X153503333Y-73643333D01*
X153931904Y-74214761D02*
X153836666Y-74262380D01*
X153598571Y-74262380D01*
X153503333Y-74214761D01*
X153455714Y-74119523D01*
X153455714Y-74024285D01*
X153503333Y-73929047D01*
X153598571Y-73881428D01*
X153836666Y-73881428D01*
X153931904Y-73833809D01*
X154836666Y-74262380D02*
X154836666Y-73262380D01*
X154836666Y-74214761D02*
X154741428Y-74262380D01*
X154550952Y-74262380D01*
X154455714Y-74214761D01*
X154408095Y-74167142D01*
X154360476Y-74071904D01*
X154360476Y-73786190D01*
X154408095Y-73690952D01*
X154455714Y-73643333D01*
X154550952Y-73595714D01*
X154741428Y-73595714D01*
X154836666Y-73643333D01*
G04 #@! TO.C,R3*
X149693333Y-37282380D02*
X149360000Y-36806190D01*
X149121904Y-37282380D02*
X149121904Y-36282380D01*
X149502857Y-36282380D01*
X149598095Y-36330000D01*
X149645714Y-36377619D01*
X149693333Y-36472857D01*
X149693333Y-36615714D01*
X149645714Y-36710952D01*
X149598095Y-36758571D01*
X149502857Y-36806190D01*
X149121904Y-36806190D01*
X150026666Y-36282380D02*
X150645714Y-36282380D01*
X150312380Y-36663333D01*
X150455238Y-36663333D01*
X150550476Y-36710952D01*
X150598095Y-36758571D01*
X150645714Y-36853809D01*
X150645714Y-37091904D01*
X150598095Y-37187142D01*
X150550476Y-37234761D01*
X150455238Y-37282380D01*
X150169523Y-37282380D01*
X150074285Y-37234761D01*
X150026666Y-37187142D01*
X156718095Y-36615714D02*
X156718095Y-37282380D01*
X156480000Y-36234761D02*
X156241904Y-36949047D01*
X156860952Y-36949047D01*
X157146666Y-36282380D02*
X157813333Y-36282380D01*
X157384761Y-37282380D01*
X158384761Y-36282380D02*
X158480000Y-36282380D01*
X158575238Y-36330000D01*
X158622857Y-36377619D01*
X158670476Y-36472857D01*
X158718095Y-36663333D01*
X158718095Y-36901428D01*
X158670476Y-37091904D01*
X158622857Y-37187142D01*
X158575238Y-37234761D01*
X158480000Y-37282380D01*
X158384761Y-37282380D01*
X158289523Y-37234761D01*
X158241904Y-37187142D01*
X158194285Y-37091904D01*
X158146666Y-36901428D01*
X158146666Y-36663333D01*
X158194285Y-36472857D01*
X158241904Y-36377619D01*
X158289523Y-36330000D01*
X158384761Y-36282380D01*
G04 #@! TO.C,R2*
X149693333Y-42362380D02*
X149360000Y-41886190D01*
X149121904Y-42362380D02*
X149121904Y-41362380D01*
X149502857Y-41362380D01*
X149598095Y-41410000D01*
X149645714Y-41457619D01*
X149693333Y-41552857D01*
X149693333Y-41695714D01*
X149645714Y-41790952D01*
X149598095Y-41838571D01*
X149502857Y-41886190D01*
X149121904Y-41886190D01*
X150074285Y-41457619D02*
X150121904Y-41410000D01*
X150217142Y-41362380D01*
X150455238Y-41362380D01*
X150550476Y-41410000D01*
X150598095Y-41457619D01*
X150645714Y-41552857D01*
X150645714Y-41648095D01*
X150598095Y-41790952D01*
X150026666Y-42362380D01*
X150645714Y-42362380D01*
X156718095Y-41695714D02*
X156718095Y-42362380D01*
X156480000Y-41314761D02*
X156241904Y-42029047D01*
X156860952Y-42029047D01*
X157146666Y-41362380D02*
X157813333Y-41362380D01*
X157384761Y-42362380D01*
X158384761Y-41362380D02*
X158480000Y-41362380D01*
X158575238Y-41410000D01*
X158622857Y-41457619D01*
X158670476Y-41552857D01*
X158718095Y-41743333D01*
X158718095Y-41981428D01*
X158670476Y-42171904D01*
X158622857Y-42267142D01*
X158575238Y-42314761D01*
X158480000Y-42362380D01*
X158384761Y-42362380D01*
X158289523Y-42314761D01*
X158241904Y-42267142D01*
X158194285Y-42171904D01*
X158146666Y-41981428D01*
X158146666Y-41743333D01*
X158194285Y-41552857D01*
X158241904Y-41457619D01*
X158289523Y-41410000D01*
X158384761Y-41362380D01*
G04 #@! TO.C,R1*
X149693333Y-47442380D02*
X149360000Y-46966190D01*
X149121904Y-47442380D02*
X149121904Y-46442380D01*
X149502857Y-46442380D01*
X149598095Y-46490000D01*
X149645714Y-46537619D01*
X149693333Y-46632857D01*
X149693333Y-46775714D01*
X149645714Y-46870952D01*
X149598095Y-46918571D01*
X149502857Y-46966190D01*
X149121904Y-46966190D01*
X150645714Y-47442380D02*
X150074285Y-47442380D01*
X150360000Y-47442380D02*
X150360000Y-46442380D01*
X150264761Y-46585238D01*
X150169523Y-46680476D01*
X150074285Y-46728095D01*
X157265714Y-47442380D02*
X156694285Y-47442380D01*
X156980000Y-47442380D02*
X156980000Y-46442380D01*
X156884761Y-46585238D01*
X156789523Y-46680476D01*
X156694285Y-46728095D01*
X157694285Y-47442380D02*
X157694285Y-46442380D01*
X158265714Y-47442380D02*
X157837142Y-46870952D01*
X158265714Y-46442380D02*
X157694285Y-47013809D01*
G04 #@! TO.C,J1*
X171116666Y-47582380D02*
X171116666Y-48296666D01*
X171069047Y-48439523D01*
X170973809Y-48534761D01*
X170830952Y-48582380D01*
X170735714Y-48582380D01*
X172116666Y-48582380D02*
X171545238Y-48582380D01*
X171830952Y-48582380D02*
X171830952Y-47582380D01*
X171735714Y-47725238D01*
X171640476Y-47820476D01*
X171545238Y-47868095D01*
X170592857Y-66232380D02*
X171259523Y-66232380D01*
X170592857Y-67232380D01*
X171259523Y-67232380D01*
X171640476Y-67232380D02*
X171640476Y-66565714D01*
X171640476Y-66232380D02*
X171592857Y-66280000D01*
X171640476Y-66327619D01*
X171688095Y-66280000D01*
X171640476Y-66232380D01*
X171640476Y-66327619D01*
X171973809Y-66565714D02*
X172354761Y-66565714D01*
X172116666Y-67232380D02*
X172116666Y-66375238D01*
X172164285Y-66280000D01*
X172259523Y-66232380D01*
X172354761Y-66232380D01*
G04 #@! TO.C,A1*
X136302857Y-40840000D02*
X136874285Y-40840000D01*
X136188571Y-41182857D02*
X136588571Y-39982857D01*
X136988571Y-41182857D01*
X138017142Y-41182857D02*
X137331428Y-41182857D01*
X137674285Y-41182857D02*
X137674285Y-39982857D01*
X137560000Y-40154285D01*
X137445714Y-40268571D01*
X137331428Y-40325714D01*
X131331428Y-63700000D02*
X131902857Y-63700000D01*
X131217142Y-64042857D02*
X131617142Y-62842857D01*
X132017142Y-64042857D01*
X132417142Y-64042857D02*
X132417142Y-63242857D01*
X132417142Y-63471428D02*
X132474285Y-63357142D01*
X132531428Y-63300000D01*
X132645714Y-63242857D01*
X132760000Y-63242857D01*
X133674285Y-64042857D02*
X133674285Y-62842857D01*
X133674285Y-63985714D02*
X133560000Y-64042857D01*
X133331428Y-64042857D01*
X133217142Y-63985714D01*
X133160000Y-63928571D01*
X133102857Y-63814285D01*
X133102857Y-63471428D01*
X133160000Y-63357142D01*
X133217142Y-63300000D01*
X133331428Y-63242857D01*
X133560000Y-63242857D01*
X133674285Y-63300000D01*
X134760000Y-63242857D02*
X134760000Y-64042857D01*
X134245714Y-63242857D02*
X134245714Y-63871428D01*
X134302857Y-63985714D01*
X134417142Y-64042857D01*
X134588571Y-64042857D01*
X134702857Y-63985714D01*
X134760000Y-63928571D01*
X135331428Y-64042857D02*
X135331428Y-63242857D01*
X135331428Y-62842857D02*
X135274285Y-62900000D01*
X135331428Y-62957142D01*
X135388571Y-62900000D01*
X135331428Y-62842857D01*
X135331428Y-62957142D01*
X135902857Y-63242857D02*
X135902857Y-64042857D01*
X135902857Y-63357142D02*
X135960000Y-63300000D01*
X136074285Y-63242857D01*
X136245714Y-63242857D01*
X136360000Y-63300000D01*
X136417142Y-63414285D01*
X136417142Y-64042857D01*
X137160000Y-64042857D02*
X137045714Y-63985714D01*
X136988571Y-63928571D01*
X136931428Y-63814285D01*
X136931428Y-63471428D01*
X136988571Y-63357142D01*
X137045714Y-63300000D01*
X137160000Y-63242857D01*
X137331428Y-63242857D01*
X137445714Y-63300000D01*
X137502857Y-63357142D01*
X137560000Y-63471428D01*
X137560000Y-63814285D01*
X137502857Y-63928571D01*
X137445714Y-63985714D01*
X137331428Y-64042857D01*
X137160000Y-64042857D01*
X138988571Y-64042857D02*
X138988571Y-62842857D01*
X139674285Y-64042857D01*
X139674285Y-62842857D01*
X140760000Y-64042857D02*
X140760000Y-63414285D01*
X140702857Y-63300000D01*
X140588571Y-63242857D01*
X140360000Y-63242857D01*
X140245714Y-63300000D01*
X140760000Y-63985714D02*
X140645714Y-64042857D01*
X140360000Y-64042857D01*
X140245714Y-63985714D01*
X140188571Y-63871428D01*
X140188571Y-63757142D01*
X140245714Y-63642857D01*
X140360000Y-63585714D01*
X140645714Y-63585714D01*
X140760000Y-63528571D01*
X141331428Y-63242857D02*
X141331428Y-64042857D01*
X141331428Y-63357142D02*
X141388571Y-63300000D01*
X141502857Y-63242857D01*
X141674285Y-63242857D01*
X141788571Y-63300000D01*
X141845714Y-63414285D01*
X141845714Y-64042857D01*
X142588571Y-64042857D02*
X142474285Y-63985714D01*
X142417142Y-63928571D01*
X142360000Y-63814285D01*
X142360000Y-63471428D01*
X142417142Y-63357142D01*
X142474285Y-63300000D01*
X142588571Y-63242857D01*
X142760000Y-63242857D01*
X142874285Y-63300000D01*
X142931428Y-63357142D01*
X142988571Y-63471428D01*
X142988571Y-63814285D01*
X142931428Y-63928571D01*
X142874285Y-63985714D01*
X142760000Y-64042857D01*
X142588571Y-64042857D01*
G04 #@! TD*
M02*
